<?xml version="1.0" encoding="UTF-8" standalone="no"?><svg xmlns="http://www.w3.org/2000/svg" xmlns:xlink="http://www.w3.org/1999/xlink" contentScriptType="application/ecmascript" contentStyleType="text/css" height="429px" preserveAspectRatio="none" style="width:573px;height:429px;" version="1.1" viewBox="0 0 573 429" width="573px" zoomAndPan="magnify"><defs><filter height="300%" id="fbc7s64vbvxiy" width="300%" x="-1" y="-1"><feGaussianBlur result="blurOut" stdDeviation="2.0"/><feColorMatrix in="blurOut" result="blurOut2" type="matrix" values="0 0 0 0 0 0 0 0 0 0 0 0 0 0 0 0 0 0 .4 0"/><feOffset dx="4.0" dy="4.0" in="blurOut2" result="blurOut3"/><feBlend in="SourceGraphic" in2="blurOut3" mode="normal"/></filter></defs><g><ellipse cx="139" cy="20" fill="#000000" filter="url(#fbc7s64vbvxiy)" rx="10" ry="10" style="stroke: none; stroke-width: 1.0;"/><rect fill="#FEFECE" filter="url(#fbc7s64vbvxiy)" height="35.0938" rx="12.5" ry="12.5" style="stroke: #A80036; stroke-width: 1.5;" width="188" x="45" y="50"/><text fill="#000000" font-family="sans-serif" font-size="12" lengthAdjust="spacingAndGlyphs" textLength="106" x="55" y="72.457">Selecionar a opção</text><text fill="#000000" font-family="sans-serif" font-size="12" font-weight="bold" lengthAdjust="spacingAndGlyphs" textLength="59" x="164" y="72.457">Autenticar</text><rect fill="#FEFECE" filter="url(#fbc7s64vbvxiy)" height="35.0938" rx="12.5" ry="12.5" style="stroke: #A80036; stroke-width: 1.5;" width="157" x="60.5" y="105.0938"/><text fill="#000000" font-family="sans-serif" font-size="12" lengthAdjust="spacingAndGlyphs" textLength="137" x="70.5" y="127.5508">Fornecer dados da conta</text><polygon fill="#FEFECE" filter="url(#fbc7s64vbvxiy)" points="53,228.9609,225,228.9609,237,240.9609,225,252.9609,53,252.9609,41,240.9609,53,228.9609" style="stroke: #A80036; stroke-width: 1.5;"/><text fill="#000000" font-family="sans-serif" font-size="11" lengthAdjust="spacingAndGlyphs" textLength="17" x="143" y="264.3799">Sim</text><text fill="#000000" font-family="sans-serif" font-size="11" lengthAdjust="spacingAndGlyphs" textLength="172" x="53" y="245.4619">Os dados da conta estão corretos?</text><text fill="#000000" font-family="sans-serif" font-size="11" lengthAdjust="spacingAndGlyphs" textLength="19" x="237" y="238.5439">Não</text><rect fill="#FEFECE" filter="url(#fbc7s64vbvxiy)" height="35.0938" rx="12.5" ry="12.5" style="stroke: #A80036; stroke-width: 1.5;" width="301" x="261" y="163.8672"/><text fill="#000000" font-family="sans-serif" font-size="12" lengthAdjust="spacingAndGlyphs" textLength="281" x="271" y="186.3242">Informar que os dados da conta não estão corretos</text><rect fill="#FEFECE" filter="url(#fbc7s64vbvxiy)" height="35.0938" rx="12.5" ry="12.5" style="stroke: #A80036; stroke-width: 1.5;" width="254" x="12" y="285.8799"/><text fill="#000000" font-family="sans-serif" font-size="12" lengthAdjust="spacingAndGlyphs" textLength="234" x="22" y="308.3369">Criar um token de autenticação temporário</text><rect fill="#FEFECE" filter="url(#fbc7s64vbvxiy)" height="35.0938" rx="12.5" ry="12.5" style="stroke: #A80036; stroke-width: 1.5;" width="258" x="10" y="340.9736"/><text fill="#000000" font-family="sans-serif" font-size="12" lengthAdjust="spacingAndGlyphs" textLength="238" x="20" y="363.4307">Enviar token de autenticação ao acadêmico</text><ellipse cx="139" cy="407.0674" fill="#FFFFFF" filter="url(#fbc7s64vbvxiy)" rx="11" ry="11" style="stroke: #000000; stroke-width: 1.0;"/><ellipse cx="139" cy="407.0674" fill="#000000" rx="6" ry="6" style="stroke: #7F7F7F; stroke-width: 1.0;"/><line style="stroke: #A80036; stroke-width: 1.5;" x1="139" x2="139" y1="30" y2="50"/><polygon fill="#A80036" points="135,40,139,50,143,40,139,44" style="stroke: #A80036; stroke-width: 1.0;"/><line style="stroke: #A80036; stroke-width: 1.5;" x1="139" x2="139" y1="140.1875" y2="228.9609"/><polygon fill="#A80036" points="135,218.9609,139,228.9609,143,218.9609,139,222.9609" style="stroke: #A80036; stroke-width: 1.0;"/><line style="stroke: #A80036; stroke-width: 1.5;" x1="237" x2="411.5" y1="240.9609" y2="240.9609"/><line style="stroke: #A80036; stroke-width: 1.5;" x1="411.5" x2="411.5" y1="198.9609" y2="240.9609"/><polygon fill="#A80036" points="407.5,208.9609,411.5,198.9609,415.5,208.9609,411.5,204.9609" style="stroke: #A80036; stroke-width: 1.0;"/><polygon fill="#A80036" points="407.5,153.8672,411.5,143.8672,415.5,153.8672,411.5,149.8672" style="stroke: #A80036; stroke-width: 1.5;"/><line style="stroke: #A80036; stroke-width: 1.5;" x1="411.5" x2="411.5" y1="122.6406" y2="163.8672"/><line style="stroke: #A80036; stroke-width: 1.5;" x1="411.5" x2="217.5" y1="122.6406" y2="122.6406"/><polygon fill="#A80036" points="227.5,118.6406,217.5,122.6406,227.5,126.6406,223.5,122.6406" style="stroke: #A80036; stroke-width: 1.0;"/><line style="stroke: #A80036; stroke-width: 1.5;" x1="139" x2="139" y1="85.0938" y2="105.0938"/><polygon fill="#A80036" points="135,95.0938,139,105.0938,143,95.0938,139,99.0938" style="stroke: #A80036; stroke-width: 1.0;"/><line style="stroke: #A80036; stroke-width: 1.5;" x1="139" x2="139" y1="252.9609" y2="285.8799"/><polygon fill="#A80036" points="135,275.8799,139,285.8799,143,275.8799,139,279.8799" style="stroke: #A80036; stroke-width: 1.0;"/><line style="stroke: #A80036; stroke-width: 1.5;" x1="139" x2="139" y1="320.9736" y2="340.9736"/><polygon fill="#A80036" points="135,330.9736,139,340.9736,143,330.9736,139,334.9736" style="stroke: #A80036; stroke-width: 1.0;"/><line style="stroke: #A80036; stroke-width: 1.5;" x1="139" x2="139" y1="376.0674" y2="396.0674"/><polygon fill="#A80036" points="135,386.0674,139,396.0674,143,386.0674,139,390.0674" style="stroke: #A80036; stroke-width: 1.0;"/><!--MD5=[bbf30dd31e6f9e0f4bdacbece177c316]
@startuml autenticar

start
:Selecionar a opção **Autenticar**;
repeat :Fornecer dados da conta;
backward :Informar que os dados da conta não estão corretos;
repeat while (Os dados da conta estão corretos?) is (Não) not (Sim)
:Criar um token de autenticação temporário;
:Enviar token de autenticação ao acadêmico;
stop

@endtuml

PlantUML version 1.2020.10(Sun May 17 06:35:57 BRT 2020)
(GPL source distribution)
Java Runtime: Java(TM) SE Runtime Environment
JVM: Java HotSpot(TM) Client VM
Java Version: 1.8.0_261-b12
Operating System: Windows 10
Default Encoding: Cp1252
Language: pt
Country: BR
--></g></svg>