<?xml version="1.0" encoding="UTF-8" standalone="no"?><svg xmlns="http://www.w3.org/2000/svg" xmlns:xlink="http://www.w3.org/1999/xlink" contentScriptType="application/ecmascript" contentStyleType="text/css" height="723px" preserveAspectRatio="none" style="width:878px;height:723px;" version="1.1" viewBox="0 0 878 723" width="878px" zoomAndPan="magnify"><defs><filter height="300%" id="f1s2vaafgcnks3" width="300%" x="-1" y="-1"><feGaussianBlur result="blurOut" stdDeviation="2.0"/><feColorMatrix in="blurOut" result="blurOut2" type="matrix" values="0 0 0 0 0 0 0 0 0 0 0 0 0 0 0 0 0 0 .4 0"/><feOffset dx="4.0" dy="4.0" in="blurOut2" result="blurOut3"/><feBlend in="SourceGraphic" in2="blurOut3" mode="normal"/></filter></defs><g><ellipse cx="442.25" cy="20" fill="#000000" filter="url(#f1s2vaafgcnks3)" rx="10" ry="10" style="stroke: none; stroke-width: 1.0;"/><rect fill="#FEFECE" filter="url(#f1s2vaafgcnks3)" height="35.0938" rx="12.5" ry="12.5" style="stroke: #A80036; stroke-width: 1.5;" width="220" x="332.25" y="50"/><text fill="#000000" font-family="sans-serif" font-size="12" lengthAdjust="spacingAndGlyphs" textLength="200" x="342.25" y="72.457">Faz uma busca pela mídia desejada</text><rect fill="#FEFECE" filter="url(#f1s2vaafgcnks3)" height="35.0938" rx="12.5" ry="12.5" style="stroke: #A80036; stroke-width: 1.5;" width="212" x="336.25" y="105.0938"/><text fill="#000000" font-family="sans-serif" font-size="12" lengthAdjust="spacingAndGlyphs" textLength="106" x="346.25" y="127.5508">Selecionar a opção</text><text fill="#000000" font-family="sans-serif" font-size="12" font-weight="bold" lengthAdjust="spacingAndGlyphs" textLength="83" x="455.25" y="127.5508">Comprar Mídia</text><rect fill="#FEFECE" filter="url(#f1s2vaafgcnks3)" height="35.0938" rx="12.5" ry="12.5" style="stroke: #A80036; stroke-width: 1.5;" width="169" x="357.75" y="160.1875"/><text fill="#000000" font-family="sans-serif" font-size="12" lengthAdjust="spacingAndGlyphs" textLength="149" x="367.75" y="182.6445">Selecionar a via da compra</text><polygon fill="#FEFECE" filter="url(#f1s2vaafgcnks3)" points="313.75,215.2813,570.75,215.2813,582.75,227.2813,570.75,239.2813,313.75,239.2813,301.75,227.2813,313.75,215.2813" style="stroke: #A80036; stroke-width: 1.5;"/><text fill="#000000" font-family="sans-serif" font-size="11" lengthAdjust="spacingAndGlyphs" textLength="257" x="313.75" y="231.7822">O acadêmico contém crédito suficiente para compra?</text><text fill="#000000" font-family="sans-serif" font-size="11" lengthAdjust="spacingAndGlyphs" textLength="17" x="284.75" y="224.8643">Sim</text><text fill="#000000" font-family="sans-serif" font-size="11" lengthAdjust="spacingAndGlyphs" textLength="19" x="582.75" y="224.8643">Não</text><rect fill="#FEFECE" filter="url(#f1s2vaafgcnks3)" height="35.0938" rx="12.5" ry="12.5" style="stroke: #A80036; stroke-width: 1.5;" width="287" x="79.5" y="249.2813"/><text fill="#000000" font-family="sans-serif" font-size="12" lengthAdjust="spacingAndGlyphs" textLength="267" x="89.5" y="271.7383">Fornece sua senha de acesso para confirmação</text><rect fill="#FEFECE" filter="url(#f1s2vaafgcnks3)" height="35.0938" rx="12.5" ry="12.5" style="stroke: #A80036; stroke-width: 1.5;" width="166" x="140" y="304.375"/><text fill="#000000" font-family="sans-serif" font-size="12" lengthAdjust="spacingAndGlyphs" textLength="146" x="150" y="326.832">Verificar a senha fornecida</text><rect fill="#FEFECE" filter="url(#f1s2vaafgcnks3)" height="35.0938" rx="12.5" ry="12.5" style="stroke: #A80036; stroke-width: 1.5;" width="344" x="51" y="359.4688"/><text fill="#000000" font-family="sans-serif" font-size="12" lengthAdjust="spacingAndGlyphs" textLength="324" x="61" y="381.9258">Subtrair o valor da mídia do valor de créditos do acadêmico</text><rect fill="#FEFECE" filter="url(#f1s2vaafgcnks3)" height="35.0938" rx="12.5" ry="12.5" style="stroke: #A80036; stroke-width: 1.5;" width="366" x="40" y="414.5625"/><text fill="#000000" font-family="sans-serif" font-size="12" lengthAdjust="spacingAndGlyphs" textLength="346" x="50" y="437.0195">Adicionar 90% do valor da mídia aos créditos do autor da mídia</text><rect fill="#FEFECE" filter="url(#f1s2vaafgcnks3)" height="35.0938" rx="12.5" ry="12.5" style="stroke: #A80036; stroke-width: 1.5;" width="426" x="10" y="469.6563"/><text fill="#000000" font-family="sans-serif" font-size="12" lengthAdjust="spacingAndGlyphs" textLength="406" x="20" y="492.1133">Adicionar 10% do valor da mídia aos créditos do admnistrador do sistema</text><rect fill="#FEFECE" filter="url(#f1s2vaafgcnks3)" height="35.0938" rx="12.5" ry="12.5" style="stroke: #A80036; stroke-width: 1.5;" width="356" x="45" y="524.75"/><text fill="#000000" font-family="sans-serif" font-size="12" lengthAdjust="spacingAndGlyphs" textLength="336" x="55" y="547.207">Adicionar a midia à lista de mídias compradas do acadêmico</text><rect fill="#FEFECE" filter="url(#f1s2vaafgcnks3)" height="35.0938" rx="12.5" ry="12.5" style="stroke: #A80036; stroke-width: 1.5;" width="219" x="113.5" y="579.8438"/><text fill="#000000" font-family="sans-serif" font-size="12" lengthAdjust="spacingAndGlyphs" textLength="199" x="123.5" y="602.3008">Emitir o comprovante de pagamento</text><rect fill="#FEFECE" filter="url(#f1s2vaafgcnks3)" height="35.0938" rx="12.5" ry="12.5" style="stroke: #A80036; stroke-width: 1.5;" width="311" x="67.5" y="634.9375"/><text fill="#000000" font-family="sans-serif" font-size="12" lengthAdjust="spacingAndGlyphs" textLength="291" x="77.5" y="657.3945">Adicionar o comprovante à lista de vendas realizadas</text><ellipse cx="223" cy="701.0313" fill="#FFFFFF" filter="url(#f1s2vaafgcnks3)" rx="11" ry="11" style="stroke: #000000; stroke-width: 1.0;"/><ellipse cx="223" cy="701.0313" fill="#000000" rx="6" ry="6" style="stroke: #7F7F7F; stroke-width: 1.0;"/><rect fill="#FEFECE" filter="url(#f1s2vaafgcnks3)" height="35.0938" rx="12.5" ry="12.5" style="stroke: #A80036; stroke-width: 1.5;" width="411" x="456" y="249.2813"/><text fill="#000000" font-family="sans-serif" font-size="12" lengthAdjust="spacingAndGlyphs" textLength="391" x="466" y="271.7383">Informar acadêmico que ele não contém crédito suficiente para compra</text><ellipse cx="661.5" cy="315.375" fill="#FFFFFF" filter="url(#f1s2vaafgcnks3)" rx="11" ry="11" style="stroke: #000000; stroke-width: 1.0;"/><ellipse cx="661.5" cy="315.375" fill="#000000" rx="6" ry="6" style="stroke: #7F7F7F; stroke-width: 1.0;"/><line style="stroke: #A80036; stroke-width: 1.5;" x1="442.25" x2="442.25" y1="30" y2="50"/><polygon fill="#A80036" points="438.25,40,442.25,50,446.25,40,442.25,44" style="stroke: #A80036; stroke-width: 1.0;"/><line style="stroke: #A80036; stroke-width: 1.5;" x1="442.25" x2="442.25" y1="85.0938" y2="105.0938"/><polygon fill="#A80036" points="438.25,95.0938,442.25,105.0938,446.25,95.0938,442.25,99.0938" style="stroke: #A80036; stroke-width: 1.0;"/><line style="stroke: #A80036; stroke-width: 1.5;" x1="442.25" x2="442.25" y1="140.1875" y2="160.1875"/><polygon fill="#A80036" points="438.25,150.1875,442.25,160.1875,446.25,150.1875,442.25,154.1875" style="stroke: #A80036; stroke-width: 1.0;"/><line style="stroke: #A80036; stroke-width: 1.5;" x1="223" x2="223" y1="284.375" y2="304.375"/><polygon fill="#A80036" points="219,294.375,223,304.375,227,294.375,223,298.375" style="stroke: #A80036; stroke-width: 1.0;"/><line style="stroke: #A80036; stroke-width: 1.5;" x1="223" x2="223" y1="339.4688" y2="359.4688"/><polygon fill="#A80036" points="219,349.4688,223,359.4688,227,349.4688,223,353.4688" style="stroke: #A80036; stroke-width: 1.0;"/><line style="stroke: #A80036; stroke-width: 1.5;" x1="223" x2="223" y1="394.5625" y2="414.5625"/><polygon fill="#A80036" points="219,404.5625,223,414.5625,227,404.5625,223,408.5625" style="stroke: #A80036; stroke-width: 1.0;"/><line style="stroke: #A80036; stroke-width: 1.5;" x1="223" x2="223" y1="449.6563" y2="469.6563"/><polygon fill="#A80036" points="219,459.6563,223,469.6563,227,459.6563,223,463.6563" style="stroke: #A80036; stroke-width: 1.0;"/><line style="stroke: #A80036; stroke-width: 1.5;" x1="223" x2="223" y1="504.75" y2="524.75"/><polygon fill="#A80036" points="219,514.75,223,524.75,227,514.75,223,518.75" style="stroke: #A80036; stroke-width: 1.0;"/><line style="stroke: #A80036; stroke-width: 1.5;" x1="223" x2="223" y1="559.8438" y2="579.8438"/><polygon fill="#A80036" points="219,569.8438,223,579.8438,227,569.8438,223,573.8438" style="stroke: #A80036; stroke-width: 1.0;"/><line style="stroke: #A80036; stroke-width: 1.5;" x1="223" x2="223" y1="614.9375" y2="634.9375"/><polygon fill="#A80036" points="219,624.9375,223,634.9375,227,624.9375,223,628.9375" style="stroke: #A80036; stroke-width: 1.0;"/><line style="stroke: #A80036; stroke-width: 1.5;" x1="223" x2="223" y1="670.0313" y2="690.0313"/><polygon fill="#A80036" points="219,680.0313,223,690.0313,227,680.0313,223,684.0313" style="stroke: #A80036; stroke-width: 1.0;"/><line style="stroke: #A80036; stroke-width: 1.5;" x1="661.5" x2="661.5" y1="284.375" y2="304.375"/><polygon fill="#A80036" points="657.5,294.375,661.5,304.375,665.5,294.375,661.5,298.375" style="stroke: #A80036; stroke-width: 1.0;"/><line style="stroke: #A80036; stroke-width: 1.5;" x1="301.75" x2="223" y1="227.2813" y2="227.2813"/><line style="stroke: #A80036; stroke-width: 1.5;" x1="223" x2="223" y1="227.2813" y2="249.2813"/><polygon fill="#A80036" points="219,239.2813,223,249.2813,227,239.2813,223,243.2813" style="stroke: #A80036; stroke-width: 1.0;"/><line style="stroke: #A80036; stroke-width: 1.5;" x1="582.75" x2="661.5" y1="227.2813" y2="227.2813"/><line style="stroke: #A80036; stroke-width: 1.5;" x1="661.5" x2="661.5" y1="227.2813" y2="249.2813"/><polygon fill="#A80036" points="657.5,239.2813,661.5,249.2813,665.5,239.2813,661.5,243.2813" style="stroke: #A80036; stroke-width: 1.0;"/><line style="stroke: #A80036; stroke-width: 1.5;" x1="442.25" x2="442.25" y1="195.2813" y2="215.2813"/><polygon fill="#A80036" points="438.25,205.2813,442.25,215.2813,446.25,205.2813,442.25,209.2813" style="stroke: #A80036; stroke-width: 1.0;"/><!--MD5=[21f95e0581085b77f68d33e886a48467]
@startuml comprar-midia

start
:Faz uma busca pela mídia desejada;
:Selecionar a opção **Comprar Mídia**;
:Selecionar a via da compra;
if (O acadêmico contém crédito suficiente para compra?) then (Sim)
    :Fornece sua senha de acesso para confirmação;
    :Verificar a senha fornecida;
    :Subtrair o valor da mídia do valor de créditos do acadêmico;
    :Adicionar 90% do valor da mídia aos créditos do autor da mídia;
    :Adicionar 10% do valor da mídia aos créditos do admnistrador do sistema;
    :Adicionar a midia à lista de mídias compradas do acadêmico;
    :Emitir o comprovante de pagamento;
    :Adicionar o comprovante à lista de vendas realizadas;
    stop
else (Não)
    :Informar acadêmico que ele não contém crédito suficiente para compra;
    stop

    @enduml

PlantUML version 1.2020.10(Sun May 17 06:35:57 BRT 2020)
(GPL source distribution)
Java Runtime: Java(TM) SE Runtime Environment
JVM: Java HotSpot(TM) Client VM
Java Version: 1.8.0_261-b12
Operating System: Windows 10
Default Encoding: Cp1252
Language: pt
Country: BR
--></g></svg>