<?xml version="1.0" encoding="UTF-8" standalone="no"?><svg xmlns="http://www.w3.org/2000/svg" xmlns:xlink="http://www.w3.org/1999/xlink" contentScriptType="application/ecmascript" contentStyleType="text/css" height="808px" preserveAspectRatio="none" style="width:526px;height:808px;" version="1.1" viewBox="0 0 526 808" width="526px" zoomAndPan="magnify"><defs><filter height="300%" id="ffr3wkwv4op46" width="300%" x="-1" y="-1"><feGaussianBlur result="blurOut" stdDeviation="2.0"/><feColorMatrix in="blurOut" result="blurOut2" type="matrix" values="0 0 0 0 0 0 0 0 0 0 0 0 0 0 0 0 0 0 .4 0"/><feOffset dx="4.0" dy="4.0" in="blurOut2" result="blurOut3"/><feBlend in="SourceGraphic" in2="blurOut3" mode="normal"/></filter></defs><g><ellipse cx="174.5" cy="20" fill="#000000" filter="url(#ffr3wkwv4op46)" rx="10" ry="10" style="stroke: none; stroke-width: 1.0;"/><rect fill="#FEFECE" filter="url(#ffr3wkwv4op46)" height="35.0938" rx="12.5" ry="12.5" style="stroke: #A80036; stroke-width: 1.5;" width="190" x="79.5" y="50"/><text fill="#000000" font-family="sans-serif" font-size="12" lengthAdjust="spacingAndGlyphs" textLength="106" x="89.5" y="72.457">Selecionar a opção</text><text fill="#000000" font-family="sans-serif" font-size="12" font-weight="bold" lengthAdjust="spacingAndGlyphs" textLength="61" x="198.5" y="72.457">Criar Mídia</text><rect fill="#FEFECE" filter="url(#ffr3wkwv4op46)" height="35.0938" rx="12.5" ry="12.5" style="stroke: #A80036; stroke-width: 1.5;" width="153" x="98" y="105.0938"/><text fill="#000000" font-family="sans-serif" font-size="12" lengthAdjust="spacingAndGlyphs" textLength="133" x="108" y="127.5508">Selecionar tipo de mídia</text><rect fill="#000000" filter="url(#ffr3wkwv4op46)" height="6" rx="2.5" ry="2.5" style="stroke: #000000; stroke-width: 1.0;" width="331" x="10" y="160.1875"/><rect fill="#FEFECE" filter="url(#ffr3wkwv4op46)" height="35.0938" rx="12.5" ry="12.5" style="stroke: #A80036; stroke-width: 1.5;" width="59" x="22" y="186.1875"/><text fill="#000000" font-family="sans-serif" font-size="12" lengthAdjust="spacingAndGlyphs" textLength="39" x="32" y="208.6445">Música</text><rect fill="#FEFECE" filter="url(#ffr3wkwv4op46)" height="35.0938" rx="12.5" ry="12.5" style="stroke: #A80036; stroke-width: 1.5;" width="46" x="109" y="186.1875"/><text fill="#000000" font-family="sans-serif" font-size="12" lengthAdjust="spacingAndGlyphs" textLength="26" x="119" y="208.6445">Livro</text><rect fill="#FEFECE" filter="url(#ffr3wkwv4op46)" height="35.0938" rx="12.5" ry="12.5" style="stroke: #A80036; stroke-width: 1.5;" width="51" x="183" y="186.1875"/><text fill="#000000" font-family="sans-serif" font-size="12" lengthAdjust="spacingAndGlyphs" textLength="31" x="193" y="208.6445">Vídeo</text><rect fill="#FEFECE" filter="url(#ffr3wkwv4op46)" height="35.0938" rx="12.5" ry="12.5" style="stroke: #A80036; stroke-width: 1.5;" width="65" x="262" y="186.1875"/><text fill="#000000" font-family="sans-serif" font-size="12" lengthAdjust="spacingAndGlyphs" textLength="45" x="272" y="208.6445">Podcast</text><rect fill="#000000" filter="url(#ffr3wkwv4op46)" height="6" rx="2.5" ry="2.5" style="stroke: #000000; stroke-width: 1.0;" width="331" x="10" y="241.2813"/><rect fill="#FEFECE" filter="url(#ffr3wkwv4op46)" height="35.0938" rx="12.5" ry="12.5" style="stroke: #A80036; stroke-width: 1.5;" width="158" x="95.5" y="267.2813"/><text fill="#000000" font-family="sans-serif" font-size="12" lengthAdjust="spacingAndGlyphs" textLength="138" x="105.5" y="289.7383">Fornecer dados da mídia</text><polygon fill="#FEFECE" filter="url(#ffr3wkwv4op46)" points="117.5,391.1484,231.5,391.1484,243.5,403.1484,231.5,415.1484,117.5,415.1484,105.5,403.1484,117.5,391.1484" style="stroke: #A80036; stroke-width: 1.5;"/><text fill="#000000" font-family="sans-serif" font-size="11" lengthAdjust="spacingAndGlyphs" textLength="17" x="178.5" y="426.5674">Sim</text><text fill="#000000" font-family="sans-serif" font-size="11" lengthAdjust="spacingAndGlyphs" textLength="114" x="117.5" y="407.6494">O formato é adequado?</text><text fill="#000000" font-family="sans-serif" font-size="11" lengthAdjust="spacingAndGlyphs" textLength="19" x="243.5" y="400.7314">Não</text><rect fill="#FEFECE" filter="url(#ffr3wkwv4op46)" height="35.0938" rx="12.5" ry="12.5" style="stroke: #A80036; stroke-width: 1.5;" width="238" x="277.5" y="326.0547"/><text fill="#000000" font-family="sans-serif" font-size="12" lengthAdjust="spacingAndGlyphs" textLength="218" x="287.5" y="348.5117">Informar que o formato não é adequado</text><rect fill="#FEFECE" filter="url(#ffr3wkwv4op46)" height="35.0938" rx="12.5" ry="12.5" style="stroke: #A80036; stroke-width: 1.5;" width="159" x="95" y="448.0674"/><text fill="#000000" font-family="sans-serif" font-size="12" lengthAdjust="spacingAndGlyphs" textLength="139" x="105" y="470.5244">Selecionar valor da mídia</text><rect fill="#000000" filter="url(#ffr3wkwv4op46)" height="6" rx="2.5" ry="2.5" style="stroke: #000000; stroke-width: 1.0;" width="151" x="99" y="503.1611"/><rect fill="#FEFECE" filter="url(#ffr3wkwv4op46)" height="35.0938" rx="12.5" ry="12.5" style="stroke: #A80036; stroke-width: 1.5;" width="46" x="113" y="529.1611"/><text fill="#000000" font-family="sans-serif" font-size="12" lengthAdjust="spacingAndGlyphs" textLength="26" x="123" y="551.6182">Livre</text><rect fill="#FEFECE" filter="url(#ffr3wkwv4op46)" height="35.0938" rx="12.5" ry="12.5" style="stroke: #A80036; stroke-width: 1.5;" width="49" x="187" y="529.1611"/><text fill="#000000" font-family="sans-serif" font-size="12" lengthAdjust="spacingAndGlyphs" textLength="29" x="197" y="551.6182">Paga</text><rect fill="#000000" filter="url(#ffr3wkwv4op46)" height="6" rx="2.5" ry="2.5" style="stroke: #000000; stroke-width: 1.0;" width="151" x="99" y="584.2549"/><rect fill="#FEFECE" filter="url(#ffr3wkwv4op46)" height="35.0938" rx="12.5" ry="12.5" style="stroke: #A80036; stroke-width: 1.5;" width="113" x="118" y="610.2549"/><text fill="#000000" font-family="sans-serif" font-size="12" lengthAdjust="spacingAndGlyphs" textLength="93" x="128" y="632.7119">Confirmar dados</text><rect fill="#FEFECE" filter="url(#ffr3wkwv4op46)" height="35.0938" rx="12.5" ry="12.5" style="stroke: #A80036; stroke-width: 1.5;" width="118" x="115.5" y="665.3486"/><text fill="#000000" font-family="sans-serif" font-size="12" lengthAdjust="spacingAndGlyphs" textLength="98" x="125.5" y="687.8057">Confirmar criação</text><rect fill="#FEFECE" filter="url(#ffr3wkwv4op46)" height="35.0938" rx="12.5" ry="12.5" style="stroke: #A80036; stroke-width: 1.5;" width="81" x="134" y="720.4424"/><text fill="#000000" font-family="sans-serif" font-size="12" lengthAdjust="spacingAndGlyphs" textLength="61" x="144" y="742.8994">Criar mídia</text><ellipse cx="174.5" cy="786.5361" fill="#FFFFFF" filter="url(#ffr3wkwv4op46)" rx="11" ry="11" style="stroke: #000000; stroke-width: 1.0;"/><ellipse cx="174.5" cy="786.5361" fill="#000000" rx="6" ry="6" style="stroke: #7F7F7F; stroke-width: 1.0;"/><line style="stroke: #A80036; stroke-width: 1.5;" x1="174.5" x2="174.5" y1="30" y2="50"/><polygon fill="#A80036" points="170.5,40,174.5,50,178.5,40,174.5,44" style="stroke: #A80036; stroke-width: 1.0;"/><line style="stroke: #A80036; stroke-width: 1.5;" x1="174.5" x2="174.5" y1="85.0938" y2="105.0938"/><polygon fill="#A80036" points="170.5,95.0938,174.5,105.0938,178.5,95.0938,174.5,99.0938" style="stroke: #A80036; stroke-width: 1.0;"/><line style="stroke: #A80036; stroke-width: 1.5;" x1="51.5" x2="51.5" y1="166.1875" y2="186.1875"/><polygon fill="#A80036" points="47.5,176.1875,51.5,186.1875,55.5,176.1875,51.5,180.1875" style="stroke: #A80036; stroke-width: 1.0;"/><line style="stroke: #A80036; stroke-width: 1.5;" x1="132" x2="132" y1="166.1875" y2="186.1875"/><polygon fill="#A80036" points="128,176.1875,132,186.1875,136,176.1875,132,180.1875" style="stroke: #A80036; stroke-width: 1.0;"/><line style="stroke: #A80036; stroke-width: 1.5;" x1="208.5" x2="208.5" y1="166.1875" y2="186.1875"/><polygon fill="#A80036" points="204.5,176.1875,208.5,186.1875,212.5,176.1875,208.5,180.1875" style="stroke: #A80036; stroke-width: 1.0;"/><line style="stroke: #A80036; stroke-width: 1.5;" x1="294.5" x2="294.5" y1="166.1875" y2="186.1875"/><polygon fill="#A80036" points="290.5,176.1875,294.5,186.1875,298.5,176.1875,294.5,180.1875" style="stroke: #A80036; stroke-width: 1.0;"/><line style="stroke: #A80036; stroke-width: 1.5;" x1="51.5" x2="51.5" y1="221.2813" y2="241.2813"/><polygon fill="#A80036" points="47.5,231.2813,51.5,241.2813,55.5,231.2813,51.5,235.2813" style="stroke: #A80036; stroke-width: 1.0;"/><line style="stroke: #A80036; stroke-width: 1.5;" x1="132" x2="132" y1="221.2813" y2="241.2813"/><polygon fill="#A80036" points="128,231.2813,132,241.2813,136,231.2813,132,235.2813" style="stroke: #A80036; stroke-width: 1.0;"/><line style="stroke: #A80036; stroke-width: 1.5;" x1="208.5" x2="208.5" y1="221.2813" y2="241.2813"/><polygon fill="#A80036" points="204.5,231.2813,208.5,241.2813,212.5,231.2813,208.5,235.2813" style="stroke: #A80036; stroke-width: 1.0;"/><line style="stroke: #A80036; stroke-width: 1.5;" x1="294.5" x2="294.5" y1="221.2813" y2="241.2813"/><polygon fill="#A80036" points="290.5,231.2813,294.5,241.2813,298.5,231.2813,294.5,235.2813" style="stroke: #A80036; stroke-width: 1.0;"/><line style="stroke: #A80036; stroke-width: 1.5;" x1="174.5" x2="174.5" y1="140.1875" y2="160.1875"/><polygon fill="#A80036" points="170.5,150.1875,174.5,160.1875,178.5,150.1875,174.5,154.1875" style="stroke: #A80036; stroke-width: 1.0;"/><line style="stroke: #A80036; stroke-width: 1.5;" x1="174.5" x2="174.5" y1="302.375" y2="391.1484"/><polygon fill="#A80036" points="170.5,381.1484,174.5,391.1484,178.5,381.1484,174.5,385.1484" style="stroke: #A80036; stroke-width: 1.0;"/><line style="stroke: #A80036; stroke-width: 1.5;" x1="243.5" x2="396.5" y1="403.1484" y2="403.1484"/><line style="stroke: #A80036; stroke-width: 1.5;" x1="396.5" x2="396.5" y1="361.1484" y2="403.1484"/><polygon fill="#A80036" points="392.5,371.1484,396.5,361.1484,400.5,371.1484,396.5,367.1484" style="stroke: #A80036; stroke-width: 1.0;"/><polygon fill="#A80036" points="392.5,316.0547,396.5,306.0547,400.5,316.0547,396.5,312.0547" style="stroke: #A80036; stroke-width: 1.5;"/><line style="stroke: #A80036; stroke-width: 1.5;" x1="396.5" x2="396.5" y1="284.8281" y2="326.0547"/><line style="stroke: #A80036; stroke-width: 1.5;" x1="396.5" x2="253.5" y1="284.8281" y2="284.8281"/><polygon fill="#A80036" points="263.5,280.8281,253.5,284.8281,263.5,288.8281,259.5,284.8281" style="stroke: #A80036; stroke-width: 1.0;"/><line style="stroke: #A80036; stroke-width: 1.5;" x1="174.5" x2="174.5" y1="247.2813" y2="267.2813"/><polygon fill="#A80036" points="170.5,257.2813,174.5,267.2813,178.5,257.2813,174.5,261.2813" style="stroke: #A80036; stroke-width: 1.0;"/><line style="stroke: #A80036; stroke-width: 1.5;" x1="174.5" x2="174.5" y1="415.1484" y2="448.0674"/><polygon fill="#A80036" points="170.5,438.0674,174.5,448.0674,178.5,438.0674,174.5,442.0674" style="stroke: #A80036; stroke-width: 1.0;"/><line style="stroke: #A80036; stroke-width: 1.5;" x1="136" x2="136" y1="509.1611" y2="529.1611"/><polygon fill="#A80036" points="132,519.1611,136,529.1611,140,519.1611,136,523.1611" style="stroke: #A80036; stroke-width: 1.0;"/><line style="stroke: #A80036; stroke-width: 1.5;" x1="211.5" x2="211.5" y1="509.1611" y2="529.1611"/><polygon fill="#A80036" points="207.5,519.1611,211.5,529.1611,215.5,519.1611,211.5,523.1611" style="stroke: #A80036; stroke-width: 1.0;"/><line style="stroke: #A80036; stroke-width: 1.5;" x1="136" x2="136" y1="564.2549" y2="584.2549"/><polygon fill="#A80036" points="132,574.2549,136,584.2549,140,574.2549,136,578.2549" style="stroke: #A80036; stroke-width: 1.0;"/><line style="stroke: #A80036; stroke-width: 1.5;" x1="211.5" x2="211.5" y1="564.2549" y2="584.2549"/><polygon fill="#A80036" points="207.5,574.2549,211.5,584.2549,215.5,574.2549,211.5,578.2549" style="stroke: #A80036; stroke-width: 1.0;"/><line style="stroke: #A80036; stroke-width: 1.5;" x1="174.5" x2="174.5" y1="483.1611" y2="503.1611"/><polygon fill="#A80036" points="170.5,493.1611,174.5,503.1611,178.5,493.1611,174.5,497.1611" style="stroke: #A80036; stroke-width: 1.0;"/><line style="stroke: #A80036; stroke-width: 1.5;" x1="174.5" x2="174.5" y1="590.2549" y2="610.2549"/><polygon fill="#A80036" points="170.5,600.2549,174.5,610.2549,178.5,600.2549,174.5,604.2549" style="stroke: #A80036; stroke-width: 1.0;"/><line style="stroke: #A80036; stroke-width: 1.5;" x1="174.5" x2="174.5" y1="645.3486" y2="665.3486"/><polygon fill="#A80036" points="170.5,655.3486,174.5,665.3486,178.5,655.3486,174.5,659.3486" style="stroke: #A80036; stroke-width: 1.0;"/><line style="stroke: #A80036; stroke-width: 1.5;" x1="174.5" x2="174.5" y1="700.4424" y2="720.4424"/><polygon fill="#A80036" points="170.5,710.4424,174.5,720.4424,178.5,710.4424,174.5,714.4424" style="stroke: #A80036; stroke-width: 1.0;"/><line style="stroke: #A80036; stroke-width: 1.5;" x1="174.5" x2="174.5" y1="755.5361" y2="775.5361"/><polygon fill="#A80036" points="170.5,765.5361,174.5,775.5361,178.5,765.5361,174.5,769.5361" style="stroke: #A80036; stroke-width: 1.0;"/><!--MD5=[60045b2865125402488a2f9cd96cd2b0]
@startuml criar-midia

start
:Selecionar a opção **Criar Mídia**;
:Selecionar tipo de mídia;
fork
    :Música;
fork again
    :Livro;
fork again
    :Vídeo;
fork again
    :Podcast;
end fork
repeat :Fornecer dados da mídia;
backward :Informar que o formato não é adequado;
repeat while (O formato é adequado?) is (Não) not (Sim)
:Selecionar valor da mídia;
fork
    :Livre;
fork again
    :Paga;
end fork
:Confirmar dados;
:Confirmar criação;
:Criar mídia;
stop

@enduml

PlantUML version 1.2020.10(Sun May 17 06:35:57 BRT 2020)
(GPL source distribution)
Java Runtime: Java(TM) SE Runtime Environment
JVM: Java HotSpot(TM) Client VM
Java Version: 1.8.0_261-b12
Operating System: Windows 10
Default Encoding: Cp1252
Language: pt
Country: BR
--></g></svg>