<?xml version="1.0" encoding="UTF-8" standalone="no"?><svg xmlns="http://www.w3.org/2000/svg" xmlns:xlink="http://www.w3.org/1999/xlink" contentScriptType="application/ecmascript" contentStyleType="text/css" height="463px" preserveAspectRatio="none" style="width:1187px;height:463px;" version="1.1" viewBox="0 0 1187 463" width="1187px" zoomAndPan="magnify"><defs><filter height="300%" id="f1du579b8wuaup" width="300%" x="-1" y="-1"><feGaussianBlur result="blurOut" stdDeviation="2.0"/><feColorMatrix in="blurOut" result="blurOut2" type="matrix" values="0 0 0 0 0 0 0 0 0 0 0 0 0 0 0 0 0 0 .4 0"/><feOffset dx="4.0" dy="4.0" in="blurOut2" result="blurOut3"/><feBlend in="SourceGraphic" in2="blurOut3" mode="normal"/></filter></defs><g><ellipse cx="330.5" cy="20" fill="#000000" filter="url(#f1du579b8wuaup)" rx="10" ry="10" style="stroke: none; stroke-width: 1.0;"/><rect fill="#FEFECE" filter="url(#f1du579b8wuaup)" height="35.0938" rx="12.5" ry="12.5" style="stroke: #A80036; stroke-width: 1.5;" width="193" x="234" y="50"/><text fill="#000000" font-family="sans-serif" font-size="12" lengthAdjust="spacingAndGlyphs" textLength="106" x="244" y="72.457">Selecionar a opção</text><text fill="#000000" font-family="sans-serif" font-size="12" font-weight="bold" lengthAdjust="spacingAndGlyphs" textLength="64" x="353" y="72.457">Criar Conta</text><rect fill="#FEFECE" filter="url(#f1du579b8wuaup)" height="35.0938" rx="12.5" ry="12.5" style="stroke: #A80036; stroke-width: 1.5;" width="276" x="192.5" y="105.0938"/><text fill="#000000" font-family="sans-serif" font-size="12" lengthAdjust="spacingAndGlyphs" textLength="256" x="202.5" y="127.5508">Fornecer primeiro nome, último nome e e-mail</text><polygon fill="#FEFECE" filter="url(#f1du579b8wuaup)" points="203,160.1875,458,160.1875,470,172.1875,458,184.1875,203,184.1875,191,172.1875,203,160.1875" style="stroke: #A80036; stroke-width: 1.5;"/><text fill="#000000" font-family="sans-serif" font-size="11" lengthAdjust="spacingAndGlyphs" textLength="255" x="203" y="176.6885">O acadêmico contém uma conta previamente criada?</text><text fill="#000000" font-family="sans-serif" font-size="11" lengthAdjust="spacingAndGlyphs" textLength="17" x="174" y="169.7705">Sim</text><text fill="#000000" font-family="sans-serif" font-size="11" lengthAdjust="spacingAndGlyphs" textLength="19" x="470" y="169.7705">Não</text><rect fill="#FEFECE" filter="url(#f1du579b8wuaup)" height="35.0938" rx="12.5" ry="12.5" style="stroke: #A80036; stroke-width: 1.5;" width="309" x="10" y="194.1875"/><text fill="#000000" font-family="sans-serif" font-size="12" lengthAdjust="spacingAndGlyphs" textLength="289" x="20" y="216.6445">Informar ao acadêmico que ele já contém uma conta</text><ellipse cx="164.5" cy="274.0547" fill="#FFFFFF" filter="url(#f1du579b8wuaup)" rx="11" ry="11" style="stroke: #000000; stroke-width: 1.0;"/><ellipse cx="164.5" cy="274.0547" fill="#000000" rx="6" ry="6" style="stroke: #7F7F7F; stroke-width: 1.0;"/><rect fill="#FEFECE" filter="url(#f1du579b8wuaup)" height="35.0938" rx="12.5" ry="12.5" style="stroke: #A80036; stroke-width: 1.5;" width="243" x="375" y="194.1875"/><text fill="#000000" font-family="sans-serif" font-size="12" lengthAdjust="spacingAndGlyphs" textLength="223" x="385" y="216.6445">Fornecer senha e confirmação de senha</text><polygon fill="#FEFECE" filter="url(#f1du579b8wuaup)" points="351,318.0547,642,318.0547,654,330.0547,642,342.0547,351,342.0547,339,330.0547,351,318.0547" style="stroke: #A80036; stroke-width: 1.5;"/><text fill="#000000" font-family="sans-serif" font-size="11" lengthAdjust="spacingAndGlyphs" textLength="17" x="500.5" y="353.4736">Sim</text><text fill="#000000" font-family="sans-serif" font-size="11" lengthAdjust="spacingAndGlyphs" textLength="47" x="351" y="334.5557">Os dados</text><text fill="#000000" font-family="sans-serif" font-size="11" font-weight="bold" lengthAdjust="spacingAndGlyphs" textLength="34" x="401" y="334.5557">senha</text><text fill="#000000" font-family="sans-serif" font-size="11" lengthAdjust="spacingAndGlyphs" textLength="6" x="438" y="334.5557">e</text><text fill="#000000" font-family="sans-serif" font-size="11" font-weight="bold" lengthAdjust="spacingAndGlyphs" textLength="122" x="447" y="334.5557">confirmação de senha</text><text fill="#000000" font-family="sans-serif" font-size="11" lengthAdjust="spacingAndGlyphs" textLength="70" x="572" y="334.5557">são idênticos?</text><text fill="#000000" font-family="sans-serif" font-size="11" lengthAdjust="spacingAndGlyphs" textLength="19" x="654" y="327.6377">Não</text><rect fill="#FEFECE" filter="url(#f1du579b8wuaup)" height="35.0938" rx="12.5" ry="12.5" style="stroke: #A80036; stroke-width: 1.5;" width="498" x="678" y="252.9609"/><text fill="#000000" font-family="sans-serif" font-size="12" lengthAdjust="spacingAndGlyphs" textLength="199" x="688" y="275.418">Informar o acadêmico que os dados</text><text fill="#000000" font-family="sans-serif" font-size="12" font-weight="bold" lengthAdjust="spacingAndGlyphs" textLength="35" x="890" y="275.418">senha</text><text fill="#000000" font-family="sans-serif" font-size="12" lengthAdjust="spacingAndGlyphs" textLength="7" x="928" y="275.418">e</text><text fill="#000000" font-family="sans-serif" font-size="12" font-weight="bold" lengthAdjust="spacingAndGlyphs" textLength="127" x="938" y="275.418">confirmação de senha</text><text fill="#000000" font-family="sans-serif" font-size="12" lengthAdjust="spacingAndGlyphs" textLength="98" x="1068" y="275.418">não são idênticos</text><rect fill="#FEFECE" filter="url(#f1du579b8wuaup)" height="35.0938" rx="12.5" ry="12.5" style="stroke: #A80036; stroke-width: 1.5;" width="315" x="339" y="374.9736"/><text fill="#000000" font-family="sans-serif" font-size="12" lengthAdjust="spacingAndGlyphs" textLength="295" x="349" y="397.4307">Criar uma nova conta vinculada aos dados fornecidos</text><ellipse cx="496.5" cy="441.0674" fill="#FFFFFF" filter="url(#f1du579b8wuaup)" rx="11" ry="11" style="stroke: #000000; stroke-width: 1.0;"/><ellipse cx="496.5" cy="441.0674" fill="#000000" rx="6" ry="6" style="stroke: #7F7F7F; stroke-width: 1.0;"/><line style="stroke: #A80036; stroke-width: 1.5;" x1="330.5" x2="330.5" y1="30" y2="50"/><polygon fill="#A80036" points="326.5,40,330.5,50,334.5,40,330.5,44" style="stroke: #A80036; stroke-width: 1.0;"/><line style="stroke: #A80036; stroke-width: 1.5;" x1="330.5" x2="330.5" y1="85.0938" y2="105.0938"/><polygon fill="#A80036" points="326.5,95.0938,330.5,105.0938,334.5,95.0938,330.5,99.0938" style="stroke: #A80036; stroke-width: 1.0;"/><line style="stroke: #A80036; stroke-width: 1.5;" x1="164.5" x2="164.5" y1="229.2813" y2="263.0547"/><polygon fill="#A80036" points="160.5,253.0547,164.5,263.0547,168.5,253.0547,164.5,257.0547" style="stroke: #A80036; stroke-width: 1.0;"/><line style="stroke: #A80036; stroke-width: 1.5;" x1="496.5" x2="496.5" y1="229.2813" y2="318.0547"/><polygon fill="#A80036" points="492.5,308.0547,496.5,318.0547,500.5,308.0547,496.5,312.0547" style="stroke: #A80036; stroke-width: 1.0;"/><line style="stroke: #A80036; stroke-width: 1.5;" x1="654" x2="927" y1="330.0547" y2="330.0547"/><line style="stroke: #A80036; stroke-width: 1.5;" x1="927" x2="927" y1="288.0547" y2="330.0547"/><polygon fill="#A80036" points="923,298.0547,927,288.0547,931,298.0547,927,294.0547" style="stroke: #A80036; stroke-width: 1.0;"/><polygon fill="#A80036" points="923,242.9609,927,232.9609,931,242.9609,927,238.9609" style="stroke: #A80036; stroke-width: 1.5;"/><line style="stroke: #A80036; stroke-width: 1.5;" x1="927" x2="927" y1="211.7344" y2="252.9609"/><line style="stroke: #A80036; stroke-width: 1.5;" x1="927" x2="618" y1="211.7344" y2="211.7344"/><polygon fill="#A80036" points="628,207.7344,618,211.7344,628,215.7344,624,211.7344" style="stroke: #A80036; stroke-width: 1.0;"/><line style="stroke: #A80036; stroke-width: 1.5;" x1="496.5" x2="496.5" y1="342.0547" y2="374.9736"/><polygon fill="#A80036" points="492.5,364.9736,496.5,374.9736,500.5,364.9736,496.5,368.9736" style="stroke: #A80036; stroke-width: 1.0;"/><line style="stroke: #A80036; stroke-width: 1.5;" x1="496.5" x2="496.5" y1="410.0674" y2="430.0674"/><polygon fill="#A80036" points="492.5,420.0674,496.5,430.0674,500.5,420.0674,496.5,424.0674" style="stroke: #A80036; stroke-width: 1.0;"/><line style="stroke: #A80036; stroke-width: 1.5;" x1="191" x2="164.5" y1="172.1875" y2="172.1875"/><line style="stroke: #A80036; stroke-width: 1.5;" x1="164.5" x2="164.5" y1="172.1875" y2="194.1875"/><polygon fill="#A80036" points="160.5,184.1875,164.5,194.1875,168.5,184.1875,164.5,188.1875" style="stroke: #A80036; stroke-width: 1.0;"/><line style="stroke: #A80036; stroke-width: 1.5;" x1="470" x2="496.5" y1="172.1875" y2="172.1875"/><line style="stroke: #A80036; stroke-width: 1.5;" x1="496.5" x2="496.5" y1="172.1875" y2="194.1875"/><polygon fill="#A80036" points="492.5,184.1875,496.5,194.1875,500.5,184.1875,496.5,188.1875" style="stroke: #A80036; stroke-width: 1.0;"/><line style="stroke: #A80036; stroke-width: 1.5;" x1="330.5" x2="330.5" y1="140.1875" y2="160.1875"/><polygon fill="#A80036" points="326.5,150.1875,330.5,160.1875,334.5,150.1875,330.5,154.1875" style="stroke: #A80036; stroke-width: 1.0;"/><!--MD5=[995fcda84381aa2d8dacb589d841e731]
@startuml criar-conta

start
:Selecionar a opção **Criar Conta**;
:Fornecer primeiro nome, último nome e e-mail;
if (O acadêmico contém uma conta previamente criada?) then (Sim)
    :Informar ao acadêmico que ele já contém uma conta;
    stop
else (Não)
    repeat :Fornecer senha e confirmação de senha;
    backward :Informar o acadêmico que os dados **senha** e **confirmação de senha** não são idênticos;
    repeat while (Os dados **senha** e **confirmação de senha** são idênticos?) is (Não) not (Sim)
    :Criar uma nova conta vinculada aos dados fornecidos;
    stop

    @enduml

PlantUML version 1.2020.10(Sun May 17 06:35:57 BRT 2020)
(GPL source distribution)
Java Runtime: Java(TM) SE Runtime Environment
JVM: Java HotSpot(TM) Client VM
Java Version: 1.8.0_261-b12
Operating System: Windows 10
Default Encoding: Cp1252
Language: pt
Country: BR
--></g></svg>