<?xml version="1.0" encoding="UTF-8" standalone="no"?><svg xmlns="http://www.w3.org/2000/svg" xmlns:xlink="http://www.w3.org/1999/xlink" contentScriptType="application/ecmascript" contentStyleType="text/css" height="539px" preserveAspectRatio="none" style="width:785px;height:539px;" version="1.1" viewBox="0 0 785 539" width="785px" zoomAndPan="magnify"><defs><filter height="300%" id="f14hwj4fifwx1h" width="300%" x="-1" y="-1"><feGaussianBlur result="blurOut" stdDeviation="2.0"/><feColorMatrix in="blurOut" result="blurOut2" type="matrix" values="0 0 0 0 0 0 0 0 0 0 0 0 0 0 0 0 0 0 .4 0"/><feOffset dx="4.0" dy="4.0" in="blurOut2" result="blurOut3"/><feBlend in="SourceGraphic" in2="blurOut3" mode="normal"/></filter></defs><g><ellipse cx="250.5" cy="20" fill="#000000" filter="url(#f14hwj4fifwx1h)" rx="10" ry="10" style="stroke: none; stroke-width: 1.0;"/><rect fill="#FEFECE" filter="url(#f14hwj4fifwx1h)" height="35.0938" rx="12.5" ry="12.5" style="stroke: #A80036; stroke-width: 1.5;" width="280" x="110.5" y="50"/><text fill="#000000" font-family="sans-serif" font-size="12" lengthAdjust="spacingAndGlyphs" textLength="260" x="120.5" y="72.457">Fazer a busca pela conta que ele deseja excluir</text><rect fill="#FEFECE" filter="url(#f14hwj4fifwx1h)" height="35.0938" rx="12.5" ry="12.5" style="stroke: #A80036; stroke-width: 1.5;" width="245" x="128" y="105.0938"/><text fill="#000000" font-family="sans-serif" font-size="12" lengthAdjust="spacingAndGlyphs" textLength="225" x="138" y="127.5508">Selecionar a conta que ele deseja excluir</text><rect fill="#FEFECE" filter="url(#f14hwj4fifwx1h)" height="35.0938" rx="12.5" ry="12.5" style="stroke: #A80036; stroke-width: 1.5;" width="204" x="148.5" y="160.1875"/><text fill="#000000" font-family="sans-serif" font-size="12" lengthAdjust="spacingAndGlyphs" textLength="106" x="158.5" y="182.6445">Selecionar a opção</text><text fill="#000000" font-family="sans-serif" font-size="12" font-weight="bold" lengthAdjust="spacingAndGlyphs" textLength="75" x="267.5" y="182.6445">Excluir Conta</text><rect fill="#FEFECE" filter="url(#f14hwj4fifwx1h)" height="35.0938" rx="12.5" ry="12.5" style="stroke: #A80036; stroke-width: 1.5;" width="297" x="102" y="215.2813"/><text fill="#000000" font-family="sans-serif" font-size="12" lengthAdjust="spacingAndGlyphs" textLength="277" x="112" y="237.7383">Fornece a sua senha de acesso para confirmação</text><polygon fill="#FEFECE" filter="url(#f14hwj4fifwx1h)" points="196,339.1484,305,339.1484,317,351.1484,305,363.1484,196,363.1484,184,351.1484,196,339.1484" style="stroke: #A80036; stroke-width: 1.5;"/><text fill="#000000" font-family="sans-serif" font-size="11" lengthAdjust="spacingAndGlyphs" textLength="17" x="254.5" y="374.5674">Sim</text><text fill="#000000" font-family="sans-serif" font-size="11" lengthAdjust="spacingAndGlyphs" textLength="109" x="196" y="355.6494">A senha está correta?</text><text fill="#000000" font-family="sans-serif" font-size="11" lengthAdjust="spacingAndGlyphs" textLength="19" x="317" y="348.7314">Não</text><rect fill="#FEFECE" filter="url(#f14hwj4fifwx1h)" height="35.0938" rx="12.5" ry="12.5" style="stroke: #A80036; stroke-width: 1.5;" width="351" x="423" y="274.0547"/><text fill="#000000" font-family="sans-serif" font-size="12" lengthAdjust="spacingAndGlyphs" textLength="276" x="433" y="296.5117">Informar admnistrador que a senha fornecida está</text><text fill="#000000" font-family="sans-serif" font-size="12" font-weight="bold" lengthAdjust="spacingAndGlyphs" textLength="52" x="712" y="296.5117">incorreta</text><rect fill="#FEFECE" filter="url(#f14hwj4fifwx1h)" height="35.0938" rx="12.5" ry="12.5" style="stroke: #A80036; stroke-width: 1.5;" width="89" x="206" y="396.0674"/><text fill="#000000" font-family="sans-serif" font-size="12" lengthAdjust="spacingAndGlyphs" textLength="69" x="216" y="418.5244">Excluir conta</text><rect fill="#FEFECE" filter="url(#f14hwj4fifwx1h)" height="35.0938" rx="12.5" ry="12.5" style="stroke: #A80036; stroke-width: 1.5;" width="481" x="10" y="451.1611"/><text fill="#000000" font-family="sans-serif" font-size="12" lengthAdjust="spacingAndGlyphs" textLength="461" x="20" y="473.6182">Enviar um e-mail ao endereço de e-mail vinculado à conta, informando o acadêmico</text><ellipse cx="250.5" cy="517.2549" fill="#FFFFFF" filter="url(#f14hwj4fifwx1h)" rx="11" ry="11" style="stroke: #000000; stroke-width: 1.0;"/><ellipse cx="250.5" cy="517.2549" fill="#000000" rx="6" ry="6" style="stroke: #7F7F7F; stroke-width: 1.0;"/><line style="stroke: #A80036; stroke-width: 1.5;" x1="250.5" x2="250.5" y1="30" y2="50"/><polygon fill="#A80036" points="246.5,40,250.5,50,254.5,40,250.5,44" style="stroke: #A80036; stroke-width: 1.0;"/><line style="stroke: #A80036; stroke-width: 1.5;" x1="250.5" x2="250.5" y1="85.0938" y2="105.0938"/><polygon fill="#A80036" points="246.5,95.0938,250.5,105.0938,254.5,95.0938,250.5,99.0938" style="stroke: #A80036; stroke-width: 1.0;"/><line style="stroke: #A80036; stroke-width: 1.5;" x1="250.5" x2="250.5" y1="140.1875" y2="160.1875"/><polygon fill="#A80036" points="246.5,150.1875,250.5,160.1875,254.5,150.1875,250.5,154.1875" style="stroke: #A80036; stroke-width: 1.0;"/><line style="stroke: #A80036; stroke-width: 1.5;" x1="250.5" x2="250.5" y1="250.375" y2="339.1484"/><polygon fill="#A80036" points="246.5,329.1484,250.5,339.1484,254.5,329.1484,250.5,333.1484" style="stroke: #A80036; stroke-width: 1.0;"/><line style="stroke: #A80036; stroke-width: 1.5;" x1="317" x2="598.5" y1="351.1484" y2="351.1484"/><line style="stroke: #A80036; stroke-width: 1.5;" x1="598.5" x2="598.5" y1="309.1484" y2="351.1484"/><polygon fill="#A80036" points="594.5,319.1484,598.5,309.1484,602.5,319.1484,598.5,315.1484" style="stroke: #A80036; stroke-width: 1.0;"/><polygon fill="#A80036" points="594.5,264.0547,598.5,254.0547,602.5,264.0547,598.5,260.0547" style="stroke: #A80036; stroke-width: 1.5;"/><line style="stroke: #A80036; stroke-width: 1.5;" x1="598.5" x2="598.5" y1="232.8281" y2="274.0547"/><line style="stroke: #A80036; stroke-width: 1.5;" x1="598.5" x2="399" y1="232.8281" y2="232.8281"/><polygon fill="#A80036" points="409,228.8281,399,232.8281,409,236.8281,405,232.8281" style="stroke: #A80036; stroke-width: 1.0;"/><line style="stroke: #A80036; stroke-width: 1.5;" x1="250.5" x2="250.5" y1="195.2813" y2="215.2813"/><polygon fill="#A80036" points="246.5,205.2813,250.5,215.2813,254.5,205.2813,250.5,209.2813" style="stroke: #A80036; stroke-width: 1.0;"/><line style="stroke: #A80036; stroke-width: 1.5;" x1="250.5" x2="250.5" y1="363.1484" y2="396.0674"/><polygon fill="#A80036" points="246.5,386.0674,250.5,396.0674,254.5,386.0674,250.5,390.0674" style="stroke: #A80036; stroke-width: 1.0;"/><line style="stroke: #A80036; stroke-width: 1.5;" x1="250.5" x2="250.5" y1="431.1611" y2="451.1611"/><polygon fill="#A80036" points="246.5,441.1611,250.5,451.1611,254.5,441.1611,250.5,445.1611" style="stroke: #A80036; stroke-width: 1.0;"/><line style="stroke: #A80036; stroke-width: 1.5;" x1="250.5" x2="250.5" y1="486.2549" y2="506.2549"/><polygon fill="#A80036" points="246.5,496.2549,250.5,506.2549,254.5,496.2549,250.5,500.2549" style="stroke: #A80036; stroke-width: 1.0;"/><!--MD5=[8d5e21a878f15a17f1d89d5969087947]
@startuml excluir-conta

start
:Fazer a busca pela conta que ele deseja excluir;
:Selecionar a conta que ele deseja excluir;
:Selecionar a opção **Excluir Conta**;
repeat :Fornece a sua senha de acesso para confirmação;
backward :Informar admnistrador que a senha fornecida está **incorreta**;
repeat while (A senha está correta?) is (Não) not (Sim)
:Excluir conta;
:Enviar um e-mail ao endereço de e-mail vinculado à conta, informando o acadêmico;
stop

@enduml

PlantUML version 1.2020.10(Sun May 17 06:35:57 BRT 2020)
(GPL source distribution)
Java Runtime: Java(TM) SE Runtime Environment
JVM: Java HotSpot(TM) Client VM
Java Version: 1.8.0_261-b12
Operating System: Windows 10
Default Encoding: Cp1252
Language: pt
Country: BR
--></g></svg>