<?xml version="1.0" encoding="UTF-8" standalone="no"?><svg xmlns="http://www.w3.org/2000/svg" xmlns:xlink="http://www.w3.org/1999/xlink" contentScriptType="application/ecmascript" contentStyleType="text/css" height="1299px" preserveAspectRatio="none" style="width:1307px;height:1299px;" version="1.1" viewBox="0 0 1307 1299" width="1307px" zoomAndPan="magnify"><defs><filter height="300%" id="f1agx9768bhobd" width="300%" x="-1" y="-1"><feGaussianBlur result="blurOut" stdDeviation="2.0"/><feColorMatrix in="blurOut" result="blurOut2" type="matrix" values="0 0 0 0 0 0 0 0 0 0 0 0 0 0 0 0 0 0 .4 0"/><feOffset dx="4.0" dy="4.0" in="blurOut2" result="blurOut3"/><feBlend in="SourceGraphic" in2="blurOut3" mode="normal"/></filter></defs><g><!--MD5=[efc5cba7aee5f5fa8719cc7ec66bdfe7]
class TipoAcademicoEnum--><rect fill="#FEFECE" filter="url(#f1agx9768bhobd)" height="89.6953" id="TipoAcademicoEnum" style="stroke: #A80036; stroke-width: 1.5;" width="150" x="352" y="541"/><ellipse cx="367" cy="561.0938" fill="#EB937F" rx="11" ry="11" style="stroke: #A80036; stroke-width: 1.0;"/><path d="M365.8594,561.8906 L365.8594,564.3906 L370.1875,564.3906 L370.1875,563.4688 Q370.1875,562.8594 370.4297,562.5938 Q370.6719,562.3281 371.0469,562.3281 Q371.4219,562.3281 371.6563,562.5938 Q371.8906,562.8594 371.8906,563.4688 L371.8906,566.0938 L363.8906,566.0938 Q363.2656,566.0938 363.0078,565.8594 Q362.75,565.625 362.75,565.2344 Q362.75,564.8594 363.0156,564.625 Q363.2813,564.3906 363.8906,564.3906 L364.1563,564.3906 L364.1563,557.7344 L363.8906,557.7344 Q363.2656,557.7344 363.0078,557.5 Q362.75,557.2656 362.75,556.875 Q362.75,556.5 363.0078,556.2656 Q363.2656,556.0313 363.8906,556.0313 L371.5156,556.0313 L371.5156,558.625 Q371.5156,559.2344 371.2891,559.4922 Q371.0625,559.75 370.6719,559.75 Q370.2969,559.75 370.0625,559.4922 Q369.8281,559.2344 369.8281,558.625 L369.8281,557.7344 L365.8594,557.7344 L365.8594,560.1875 L367.3438,560.1875 Q367.3438,559.5313 367.4688,559.3438 Q367.7344,558.9375 368.2031,558.9375 Q368.5781,558.9375 368.8125,559.1953 Q369.0469,559.4531 369.0469,560.0625 L369.0469,562.0313 Q369.0469,562.5781 368.9219,562.7656 Q368.6563,563.1563 368.2031,563.1563 Q367.7344,563.1563 367.4688,562.75 Q367.3438,562.5625 367.3438,561.8906 L365.8594,561.8906 Z "/><text fill="#000000" font-family="sans-serif" font-size="12" font-style="italic" lengthAdjust="spacingAndGlyphs" textLength="47" x="416.5" y="558.457">«Enum»</text><text fill="#000000" font-family="sans-serif" font-size="12" lengthAdjust="spacingAndGlyphs" textLength="118" x="381" y="573.5508">TipoAcademicoEnum</text><line style="stroke: #A80036; stroke-width: 1.5;" x1="353" x2="501" y1="581.1875" y2="581.1875"/><text fill="#000000" font-family="sans-serif" font-size="11" lengthAdjust="spacingAndGlyphs" textLength="36" x="358" y="596.6064">ALUNO</text><text fill="#000000" font-family="sans-serif" font-size="11" lengthAdjust="spacingAndGlyphs" textLength="62" x="358" y="610.4424">PROFESSOR</text><text fill="#000000" font-family="sans-serif" font-size="11" lengthAdjust="spacingAndGlyphs" textLength="66" x="358" y="624.2783">TECNICOADM</text><!--MD5=[4c48fb15ab53eca5ffe2e9e47e01b0d6]
class TipoMidiaEnum--><rect fill="#FEFECE" filter="url(#f1agx9768bhobd)" height="103.5313" id="TipoMidiaEnum" style="stroke: #A80036; stroke-width: 1.5;" width="118" x="608" y="359"/><ellipse cx="623" cy="379.0938" fill="#EB937F" rx="11" ry="11" style="stroke: #A80036; stroke-width: 1.0;"/><path d="M621.8594,379.8906 L621.8594,382.3906 L626.1875,382.3906 L626.1875,381.4688 Q626.1875,380.8594 626.4297,380.5938 Q626.6719,380.3281 627.0469,380.3281 Q627.4219,380.3281 627.6563,380.5938 Q627.8906,380.8594 627.8906,381.4688 L627.8906,384.0938 L619.8906,384.0938 Q619.2656,384.0938 619.0078,383.8594 Q618.75,383.625 618.75,383.2344 Q618.75,382.8594 619.0156,382.625 Q619.2813,382.3906 619.8906,382.3906 L620.1563,382.3906 L620.1563,375.7344 L619.8906,375.7344 Q619.2656,375.7344 619.0078,375.5 Q618.75,375.2656 618.75,374.875 Q618.75,374.5 619.0078,374.2656 Q619.2656,374.0313 619.8906,374.0313 L627.5156,374.0313 L627.5156,376.625 Q627.5156,377.2344 627.2891,377.4922 Q627.0625,377.75 626.6719,377.75 Q626.2969,377.75 626.0625,377.4922 Q625.8281,377.2344 625.8281,376.625 L625.8281,375.7344 L621.8594,375.7344 L621.8594,378.1875 L623.3438,378.1875 Q623.3438,377.5313 623.4688,377.3438 Q623.7344,376.9375 624.2031,376.9375 Q624.5781,376.9375 624.8125,377.1953 Q625.0469,377.4531 625.0469,378.0625 L625.0469,380.0313 Q625.0469,380.5781 624.9219,380.7656 Q624.6563,381.1563 624.2031,381.1563 Q623.7344,381.1563 623.4688,380.75 Q623.3438,380.5625 623.3438,379.8906 L621.8594,379.8906 Z "/><text fill="#000000" font-family="sans-serif" font-size="12" font-style="italic" lengthAdjust="spacingAndGlyphs" textLength="47" x="656.5" y="376.457">«Enum»</text><text fill="#000000" font-family="sans-serif" font-size="12" lengthAdjust="spacingAndGlyphs" textLength="86" x="637" y="391.5508">TipoMidiaEnum</text><line style="stroke: #A80036; stroke-width: 1.5;" x1="609" x2="725" y1="399.1875" y2="399.1875"/><text fill="#000000" font-family="sans-serif" font-size="11" lengthAdjust="spacingAndGlyphs" textLength="39" x="614" y="414.6064">MUSICA</text><text fill="#000000" font-family="sans-serif" font-size="11" lengthAdjust="spacingAndGlyphs" textLength="31" x="614" y="428.4424">VIDEO</text><text fill="#000000" font-family="sans-serif" font-size="11" lengthAdjust="spacingAndGlyphs" textLength="49" x="614" y="442.2783">PODCAST</text><text fill="#000000" font-family="sans-serif" font-size="11" lengthAdjust="spacingAndGlyphs" textLength="31" x="614" y="456.1143">LIVRO</text><!--MD5=[35a64b983c79880384a2fd9b61f0c24b]
class Usuario--><rect fill="#FEFECE" filter="url(#f1agx9768bhobd)" height="172.5234" id="Usuario" style="stroke: #A80036; stroke-width: 1.5;" width="249" x="495.5" y="125"/><ellipse cx="594.25" cy="141" fill="#A9DCDF" rx="11" ry="11" style="stroke: #A80036; stroke-width: 1.0;"/><path d="M596.4375,142.7656 L592.2969,142.7656 L591.875,143.7969 L592.2969,143.7969 Q592.9063,143.7969 593.1719,144.0313 Q593.4375,144.2656 593.4375,144.6563 Q593.4375,145.0313 593.1719,145.2656 Q592.9063,145.5 592.2969,145.5 L590,145.5 Q589.3906,145.5 589.1328,145.2656 Q588.875,145.0313 588.875,144.6406 Q588.875,144.2656 589.1484,144.0234 Q589.4219,143.7813 590.0469,143.7969 L592.7188,137.1406 L591.6094,137.1406 Q591,137.1406 590.7344,136.9063 Q590.4688,136.6719 590.4688,136.2813 Q590.4688,135.9063 590.7344,135.6719 Q591,135.4375 591.6094,135.4375 L595.2813,135.4375 L598.6719,143.7969 Q599.2656,143.7969 599.4531,143.9375 Q599.8438,144.2031 599.8438,144.6563 Q599.8438,145.0313 599.5859,145.2656 Q599.3281,145.5 598.7188,145.5 L596.4219,145.5 Q595.8125,145.5 595.5469,145.2656 Q595.2813,145.0313 595.2813,144.6406 Q595.2813,144.2656 595.5469,144.0313 Q595.8125,143.7969 596.4219,143.7969 L596.8438,143.7969 L596.4375,142.7656 Z M595.7188,141.0625 L594.3594,137.6875 L592.9844,141.0625 L595.7188,141.0625 Z "/><text fill="#000000" font-family="sans-serif" font-size="12" font-style="italic" lengthAdjust="spacingAndGlyphs" textLength="43" x="614.75" y="145.9102">Usuario</text><line style="stroke: #A80036; stroke-width: 1.5;" x1="496.5" x2="743.5" y1="157" y2="157"/><text fill="#000000" font-family="sans-serif" font-size="11" lengthAdjust="spacingAndGlyphs" textLength="26" x="501.5" y="172.4189">nome</text><text fill="#000000" font-family="sans-serif" font-size="11" lengthAdjust="spacingAndGlyphs" textLength="54" x="501.5" y="186.2549">ultimoNome</text><text fill="#000000" font-family="sans-serif" font-size="11" lengthAdjust="spacingAndGlyphs" textLength="24" x="501.5" y="200.0908">email</text><text fill="#000000" font-family="sans-serif" font-size="11" lengthAdjust="spacingAndGlyphs" textLength="30" x="501.5" y="213.9268">senha</text><text fill="#000000" font-family="sans-serif" font-size="11" lengthAdjust="spacingAndGlyphs" textLength="33" x="501.5" y="227.7627">credito</text><text fill="#000000" font-family="sans-serif" font-size="11" lengthAdjust="spacingAndGlyphs" textLength="138" x="501.5" y="241.5986">List&lt;Midia&gt; midiasAdquiridas</text><text fill="#000000" font-family="sans-serif" font-size="11" lengthAdjust="spacingAndGlyphs" textLength="237" x="501.5" y="255.4346">Map&lt;TipoMidiaEnum, List&lt;Midia&gt;&gt; midiasfavoritas</text><line style="stroke: #A80036; stroke-width: 1.0;" x1="496.5" x2="743.5" y1="261.8516" y2="261.8516"/><text fill="#000000" font-family="sans-serif" font-size="11" lengthAdjust="spacingAndGlyphs" textLength="52" x="501.5" y="277.2705">autentica()</text><text fill="#000000" font-family="sans-serif" font-size="11" lengthAdjust="spacingAndGlyphs" textLength="88" x="501.5" y="291.1064">adicionaCreditos()</text><!--MD5=[dc04dbf1821e9b6a5ff361465a379a2f]
class Academico--><rect fill="#FEFECE" filter="url(#f1agx9768bhobd)" height="61.8359" id="Academico" style="stroke: #A80036; stroke-width: 1.5;" width="138" x="361" y="380"/><ellipse cx="396.25" cy="396" fill="#ADD1B2" rx="11" ry="11" style="stroke: #A80036; stroke-width: 1.0;"/><path d="M399.0156,391.875 Q399.1719,391.6563 399.3594,391.5469 Q399.5469,391.4375 399.7656,391.4375 Q400.1406,391.4375 400.375,391.6953 Q400.6094,391.9531 400.6094,392.5625 L400.6094,394.0156 Q400.6094,394.625 400.375,394.8906 Q400.1406,395.1563 399.7656,395.1563 Q399.4219,395.1563 399.2188,394.9531 Q399.0156,394.7656 398.9063,394.25 Q398.8594,393.8906 398.6719,393.7031 Q398.3438,393.3281 397.7344,393.1094 Q397.125,392.8906 396.5,392.8906 Q395.7344,392.8906 395.1016,393.2188 Q394.4688,393.5469 393.9766,394.2969 Q393.4844,395.0469 393.4844,396.0781 L393.4844,397.1719 Q393.4844,398.4063 394.375,399.2266 Q395.2656,400.0469 396.8594,400.0469 Q397.7969,400.0469 398.4531,399.7969 Q398.8438,399.6406 399.2656,399.2031 Q399.5313,398.9375 399.6797,398.8594 Q399.8281,398.7813 400.0313,398.7813 Q400.3594,398.7813 400.6172,399.0391 Q400.875,399.2969 400.875,399.6406 Q400.875,399.9844 400.5313,400.3906 Q400.0313,400.9688 399.2344,401.2969 Q398.1563,401.75 396.8594,401.75 Q395.3438,401.75 394.1406,401.125 Q393.1563,400.625 392.4688,399.5547 Q391.7813,398.4844 391.7813,397.2031 L391.7813,396.0469 Q391.7813,394.7188 392.3984,393.5703 Q393.0156,392.4219 394.1094,391.8047 Q395.2031,391.1875 396.4375,391.1875 Q397.1719,391.1875 397.8203,391.3516 Q398.4688,391.5156 399.0156,391.875 Z "/><text fill="#000000" font-family="sans-serif" font-size="12" lengthAdjust="spacingAndGlyphs" textLength="61" x="414.75" y="400.9102">Academico</text><line style="stroke: #A80036; stroke-width: 1.5;" x1="362" x2="498" y1="412" y2="412"/><text fill="#000000" font-family="sans-serif" font-size="11" lengthAdjust="spacingAndGlyphs" textLength="126" x="367" y="427.4189">tipo : TipoAcademicoEnum</text><line style="stroke: #A80036; stroke-width: 1.5;" x1="362" x2="498" y1="433.8359" y2="433.8359"/><!--MD5=[fdcda49d453d44c676d62f3f6af62207]
class Administrador--><rect fill="#FEFECE" filter="url(#f1agx9768bhobd)" height="48" id="Administrador" style="stroke: #A80036; stroke-width: 1.5;" width="109" x="761.5" y="387"/><ellipse cx="776.5" cy="403" fill="#ADD1B2" rx="11" ry="11" style="stroke: #A80036; stroke-width: 1.0;"/><path d="M779.2656,398.875 Q779.4219,398.6563 779.6094,398.5469 Q779.7969,398.4375 780.0156,398.4375 Q780.3906,398.4375 780.625,398.6953 Q780.8594,398.9531 780.8594,399.5625 L780.8594,401.0156 Q780.8594,401.625 780.625,401.8906 Q780.3906,402.1563 780.0156,402.1563 Q779.6719,402.1563 779.4688,401.9531 Q779.2656,401.7656 779.1563,401.25 Q779.1094,400.8906 778.9219,400.7031 Q778.5938,400.3281 777.9844,400.1094 Q777.375,399.8906 776.75,399.8906 Q775.9844,399.8906 775.3516,400.2188 Q774.7188,400.5469 774.2266,401.2969 Q773.7344,402.0469 773.7344,403.0781 L773.7344,404.1719 Q773.7344,405.4063 774.625,406.2266 Q775.5156,407.0469 777.1094,407.0469 Q778.0469,407.0469 778.7031,406.7969 Q779.0938,406.6406 779.5156,406.2031 Q779.7813,405.9375 779.9297,405.8594 Q780.0781,405.7813 780.2813,405.7813 Q780.6094,405.7813 780.8672,406.0391 Q781.125,406.2969 781.125,406.6406 Q781.125,406.9844 780.7813,407.3906 Q780.2813,407.9688 779.4844,408.2969 Q778.4063,408.75 777.1094,408.75 Q775.5938,408.75 774.3906,408.125 Q773.4063,407.625 772.7188,406.5547 Q772.0313,405.4844 772.0313,404.2031 L772.0313,403.0469 Q772.0313,401.7188 772.6484,400.5703 Q773.2656,399.4219 774.3594,398.8047 Q775.4531,398.1875 776.6875,398.1875 Q777.4219,398.1875 778.0703,398.3516 Q778.7188,398.5156 779.2656,398.875 Z "/><text fill="#000000" font-family="sans-serif" font-size="12" lengthAdjust="spacingAndGlyphs" textLength="77" x="790.5" y="407.9102">Administrador</text><line style="stroke: #A80036; stroke-width: 1.5;" x1="762.5" x2="869.5" y1="419" y2="419"/><line style="stroke: #A80036; stroke-width: 1.5;" x1="762.5" x2="869.5" y1="427" y2="427"/><!--MD5=[7560274dc4d8b0cfc2c0496e7291d5fc]
class Album--><rect fill="#FEFECE" filter="url(#f1agx9768bhobd)" height="61.8359" id="Album" style="stroke: #A80036; stroke-width: 1.5;" width="118" x="411" y="1227"/><ellipse cx="448.95" cy="1243" fill="#ADD1B2" rx="11" ry="11" style="stroke: #A80036; stroke-width: 1.0;"/><path d="M451.7156,1238.875 Q451.8719,1238.6563 452.0594,1238.5469 Q452.2469,1238.4375 452.4656,1238.4375 Q452.8406,1238.4375 453.075,1238.6953 Q453.3094,1238.9531 453.3094,1239.5625 L453.3094,1241.0156 Q453.3094,1241.625 453.075,1241.8906 Q452.8406,1242.1563 452.4656,1242.1563 Q452.1219,1242.1563 451.9188,1241.9531 Q451.7156,1241.7656 451.6063,1241.25 Q451.5594,1240.8906 451.3719,1240.7031 Q451.0438,1240.3281 450.4344,1240.1094 Q449.825,1239.8906 449.2,1239.8906 Q448.4344,1239.8906 447.8016,1240.2188 Q447.1688,1240.5469 446.6766,1241.2969 Q446.1844,1242.0469 446.1844,1243.0781 L446.1844,1244.1719 Q446.1844,1245.4063 447.075,1246.2266 Q447.9656,1247.0469 449.5594,1247.0469 Q450.4969,1247.0469 451.1531,1246.7969 Q451.5438,1246.6406 451.9656,1246.2031 Q452.2313,1245.9375 452.3797,1245.8594 Q452.5281,1245.7813 452.7313,1245.7813 Q453.0594,1245.7813 453.3172,1246.0391 Q453.575,1246.2969 453.575,1246.6406 Q453.575,1246.9844 453.2313,1247.3906 Q452.7313,1247.9688 451.9344,1248.2969 Q450.8563,1248.75 449.5594,1248.75 Q448.0438,1248.75 446.8406,1248.125 Q445.8563,1247.625 445.1688,1246.5547 Q444.4813,1245.4844 444.4813,1244.2031 L444.4813,1243.0469 Q444.4813,1241.7188 445.0984,1240.5703 Q445.7156,1239.4219 446.8094,1238.8047 Q447.9031,1238.1875 449.1375,1238.1875 Q449.8719,1238.1875 450.5203,1238.3516 Q451.1688,1238.5156 451.7156,1238.875 Z "/><text fill="#000000" font-family="sans-serif" font-size="12" lengthAdjust="spacingAndGlyphs" textLength="35" x="468.05" y="1247.9102">Album</text><line style="stroke: #A80036; stroke-width: 1.5;" x1="412" x2="528" y1="1259" y2="1259"/><text fill="#000000" font-family="sans-serif" font-size="11" lengthAdjust="spacingAndGlyphs" textLength="106" x="417" y="1274.4189">List&lt;Musica&gt; musicas</text><line style="stroke: #A80036; stroke-width: 1.5;" x1="412" x2="528" y1="1280.8359" y2="1280.8359"/><!--MD5=[17f253dd83c370255a059fc7ad56c447]
class Midia--><rect fill="#FEFECE" filter="url(#f1agx9768bhobd)" height="214.0313" id="Midia" style="stroke: #A80036; stroke-width: 1.5;" width="94" x="619" y="692"/><ellipse cx="648.85" cy="708" fill="#A9DCDF" rx="11" ry="11" style="stroke: #A80036; stroke-width: 1.0;"/><path d="M651.0375,709.7656 L646.8969,709.7656 L646.475,710.7969 L646.8969,710.7969 Q647.5063,710.7969 647.7719,711.0313 Q648.0375,711.2656 648.0375,711.6563 Q648.0375,712.0313 647.7719,712.2656 Q647.5063,712.5 646.8969,712.5 L644.6,712.5 Q643.9906,712.5 643.7328,712.2656 Q643.475,712.0313 643.475,711.6406 Q643.475,711.2656 643.7484,711.0234 Q644.0219,710.7813 644.6469,710.7969 L647.3188,704.1406 L646.2094,704.1406 Q645.6,704.1406 645.3344,703.9063 Q645.0688,703.6719 645.0688,703.2813 Q645.0688,702.9063 645.3344,702.6719 Q645.6,702.4375 646.2094,702.4375 L649.8813,702.4375 L653.2719,710.7969 Q653.8656,710.7969 654.0531,710.9375 Q654.4438,711.2031 654.4438,711.6563 Q654.4438,712.0313 654.1859,712.2656 Q653.9281,712.5 653.3188,712.5 L651.0219,712.5 Q650.4125,712.5 650.1469,712.2656 Q649.8813,712.0313 649.8813,711.6406 Q649.8813,711.2656 650.1469,711.0313 Q650.4125,710.7969 651.0219,710.7969 L651.4438,710.7969 L651.0375,709.7656 Z M650.3188,708.0625 L648.9594,704.6875 L647.5844,708.0625 L650.3188,708.0625 Z "/><text fill="#000000" font-family="sans-serif" font-size="12" font-style="italic" lengthAdjust="spacingAndGlyphs" textLength="29" x="666.15" y="712.9102">Midia</text><line style="stroke: #A80036; stroke-width: 1.5;" x1="620" x2="712" y1="724" y2="724"/><text fill="#000000" font-family="sans-serif" font-size="11" lengthAdjust="spacingAndGlyphs" textLength="26" x="625" y="739.4189">nome</text><text fill="#000000" font-family="sans-serif" font-size="11" lengthAdjust="spacingAndGlyphs" textLength="48" x="625" y="753.2549">descricao</text><text fill="#000000" font-family="sans-serif" font-size="11" lengthAdjust="spacingAndGlyphs" textLength="36" x="625" y="767.0908">imagem</text><text fill="#000000" font-family="sans-serif" font-size="11" lengthAdjust="spacingAndGlyphs" textLength="28" x="625" y="780.9268">preco</text><text fill="#000000" font-family="sans-serif" font-size="11" lengthAdjust="spacingAndGlyphs" textLength="37" x="625" y="794.7627">autores</text><text fill="#000000" font-family="sans-serif" font-size="11" lengthAdjust="spacingAndGlyphs" textLength="45" x="625" y="808.5986">conteudo</text><text fill="#000000" font-family="sans-serif" font-size="11" lengthAdjust="spacingAndGlyphs" textLength="58" x="625" y="822.4346">dataCriacao</text><text fill="#000000" font-family="sans-serif" font-size="11" lengthAdjust="spacingAndGlyphs" textLength="82" x="625" y="836.2705">pagavel: boolean</text><line style="stroke: #A80036; stroke-width: 1.0;" x1="620" x2="712" y1="842.6875" y2="842.6875"/><text fill="#000000" font-family="sans-serif" font-size="11" lengthAdjust="spacingAndGlyphs" textLength="54" x="625" y="858.1064">visualizar()</text><text fill="#000000" font-family="sans-serif" font-size="11" lengthAdjust="spacingAndGlyphs" textLength="48" x="625" y="871.9424">comprar()</text><text fill="#000000" font-family="sans-serif" font-size="11" lengthAdjust="spacingAndGlyphs" textLength="42" x="625" y="885.7783">vender()</text><text fill="#000000" font-family="sans-serif" font-size="11" lengthAdjust="spacingAndGlyphs" textLength="56" x="625" y="899.6143">download()</text><!--MD5=[fbbb13a747cf4d9626dbd92a2c7c5b05]
class MidiaPlayer--><rect fill="#FEFECE" filter="url(#f1agx9768bhobd)" height="75.6719" id="MidiaPlayer" style="stroke: #A80036; stroke-width: 1.5;" width="96" x="524" y="967"/><ellipse cx="539" cy="983" fill="#A9DCDF" rx="11" ry="11" style="stroke: #A80036; stroke-width: 1.0;"/><path d="M541.1875,984.7656 L537.0469,984.7656 L536.625,985.7969 L537.0469,985.7969 Q537.6563,985.7969 537.9219,986.0313 Q538.1875,986.2656 538.1875,986.6563 Q538.1875,987.0313 537.9219,987.2656 Q537.6563,987.5 537.0469,987.5 L534.75,987.5 Q534.1406,987.5 533.8828,987.2656 Q533.625,987.0313 533.625,986.6406 Q533.625,986.2656 533.8984,986.0234 Q534.1719,985.7813 534.7969,985.7969 L537.4688,979.1406 L536.3594,979.1406 Q535.75,979.1406 535.4844,978.9063 Q535.2188,978.6719 535.2188,978.2813 Q535.2188,977.9063 535.4844,977.6719 Q535.75,977.4375 536.3594,977.4375 L540.0313,977.4375 L543.4219,985.7969 Q544.0156,985.7969 544.2031,985.9375 Q544.5938,986.2031 544.5938,986.6563 Q544.5938,987.0313 544.3359,987.2656 Q544.0781,987.5 543.4688,987.5 L541.1719,987.5 Q540.5625,987.5 540.2969,987.2656 Q540.0313,987.0313 540.0313,986.6406 Q540.0313,986.2656 540.2969,986.0313 Q540.5625,985.7969 541.1719,985.7969 L541.5938,985.7969 L541.1875,984.7656 Z M540.4688,983.0625 L539.1094,979.6875 L537.7344,983.0625 L540.4688,983.0625 Z "/><text fill="#000000" font-family="sans-serif" font-size="12" font-style="italic" lengthAdjust="spacingAndGlyphs" textLength="64" x="553" y="987.9102">MidiaPlayer</text><line style="stroke: #A80036; stroke-width: 1.5;" x1="525" x2="619" y1="999" y2="999"/><text fill="#000000" font-family="sans-serif" font-size="11" lengthAdjust="spacingAndGlyphs" textLength="40" x="530" y="1014.4189">duracao</text><line style="stroke: #A80036; stroke-width: 1.5;" x1="525" x2="619" y1="1020.8359" y2="1020.8359"/><text fill="#000000" font-family="sans-serif" font-size="11" lengthAdjust="spacingAndGlyphs" textLength="51" x="530" y="1036.2549">executar()</text><!--MD5=[055ae584e8f48d8fc3c3de49aadf0637]
class Dashboard--><rect fill="#FEFECE" filter="url(#f1agx9768bhobd)" height="53.8359" id="Dashboard" style="stroke: #A80036; stroke-width: 1.5;" width="118" x="757" y="559"/><ellipse cx="782.8" cy="575" fill="#ADD1B2" rx="11" ry="11" style="stroke: #A80036; stroke-width: 1.0;"/><path d="M785.5656,570.875 Q785.7219,570.6563 785.9094,570.5469 Q786.0969,570.4375 786.3156,570.4375 Q786.6906,570.4375 786.925,570.6953 Q787.1594,570.9531 787.1594,571.5625 L787.1594,573.0156 Q787.1594,573.625 786.925,573.8906 Q786.6906,574.1563 786.3156,574.1563 Q785.9719,574.1563 785.7688,573.9531 Q785.5656,573.7656 785.4563,573.25 Q785.4094,572.8906 785.2219,572.7031 Q784.8938,572.3281 784.2844,572.1094 Q783.675,571.8906 783.05,571.8906 Q782.2844,571.8906 781.6516,572.2188 Q781.0188,572.5469 780.5266,573.2969 Q780.0344,574.0469 780.0344,575.0781 L780.0344,576.1719 Q780.0344,577.4063 780.925,578.2266 Q781.8156,579.0469 783.4094,579.0469 Q784.3469,579.0469 785.0031,578.7969 Q785.3938,578.6406 785.8156,578.2031 Q786.0813,577.9375 786.2297,577.8594 Q786.3781,577.7813 786.5813,577.7813 Q786.9094,577.7813 787.1672,578.0391 Q787.425,578.2969 787.425,578.6406 Q787.425,578.9844 787.0813,579.3906 Q786.5813,579.9688 785.7844,580.2969 Q784.7063,580.75 783.4094,580.75 Q781.8938,580.75 780.6906,580.125 Q779.7063,579.625 779.0188,578.5547 Q778.3313,577.4844 778.3313,576.2031 L778.3313,575.0469 Q778.3313,573.7188 778.9484,572.5703 Q779.5656,571.4219 780.6594,570.8047 Q781.7531,570.1875 782.9875,570.1875 Q783.7219,570.1875 784.3703,570.3516 Q785.0188,570.5156 785.5656,570.875 Z "/><text fill="#000000" font-family="sans-serif" font-size="12" lengthAdjust="spacingAndGlyphs" textLength="62" x="799.2" y="579.9102">Dashboard</text><line style="stroke: #A80036; stroke-width: 1.5;" x1="758" x2="874" y1="591" y2="591"/><text fill="#000000" font-family="sans-serif" font-size="11" lengthAdjust="spacingAndGlyphs" textLength="106" x="763" y="606.4189">acompanharVendas()</text><!--MD5=[f45ed34e1fd2d44e62b0a8e0606f603d]
class Livro--><rect fill="#FEFECE" filter="url(#f1agx9768bhobd)" height="75.6719" id="Livro" style="stroke: #A80036; stroke-width: 1.5;" width="86" x="655" y="967"/><ellipse cx="682.6" cy="983" fill="#ADD1B2" rx="11" ry="11" style="stroke: #A80036; stroke-width: 1.0;"/><path d="M685.3656,978.875 Q685.5219,978.6563 685.7094,978.5469 Q685.8969,978.4375 686.1156,978.4375 Q686.4906,978.4375 686.725,978.6953 Q686.9594,978.9531 686.9594,979.5625 L686.9594,981.0156 Q686.9594,981.625 686.725,981.8906 Q686.4906,982.1563 686.1156,982.1563 Q685.7719,982.1563 685.5688,981.9531 Q685.3656,981.7656 685.2563,981.25 Q685.2094,980.8906 685.0219,980.7031 Q684.6938,980.3281 684.0844,980.1094 Q683.475,979.8906 682.85,979.8906 Q682.0844,979.8906 681.4516,980.2188 Q680.8188,980.5469 680.3266,981.2969 Q679.8344,982.0469 679.8344,983.0781 L679.8344,984.1719 Q679.8344,985.4063 680.725,986.2266 Q681.6156,987.0469 683.2094,987.0469 Q684.1469,987.0469 684.8031,986.7969 Q685.1938,986.6406 685.6156,986.2031 Q685.8813,985.9375 686.0297,985.8594 Q686.1781,985.7813 686.3813,985.7813 Q686.7094,985.7813 686.9672,986.0391 Q687.225,986.2969 687.225,986.6406 Q687.225,986.9844 686.8813,987.3906 Q686.3813,987.9688 685.5844,988.2969 Q684.5063,988.75 683.2094,988.75 Q681.6938,988.75 680.4906,988.125 Q679.5063,987.625 678.8188,986.5547 Q678.1313,985.4844 678.1313,984.2031 L678.1313,983.0469 Q678.1313,981.7188 678.7484,980.5703 Q679.3656,979.4219 680.4594,978.8047 Q681.5531,978.1875 682.7875,978.1875 Q683.5219,978.1875 684.1703,978.3516 Q684.8188,978.5156 685.3656,978.875 Z "/><text fill="#000000" font-family="sans-serif" font-size="12" lengthAdjust="spacingAndGlyphs" textLength="26" x="699.4" y="987.9102">Livro</text><line style="stroke: #A80036; stroke-width: 1.5;" x1="656" x2="740" y1="999" y2="999"/><text fill="#000000" font-family="sans-serif" font-size="11" lengthAdjust="spacingAndGlyphs" textLength="74" x="661" y="1014.4189">numeroPaginas</text><text fill="#000000" font-family="sans-serif" font-size="11" lengthAdjust="spacingAndGlyphs" textLength="51" x="661" y="1028.2549">categorias</text><line style="stroke: #A80036; stroke-width: 1.5;" x1="656" x2="740" y1="1034.6719" y2="1034.6719"/><!--MD5=[2927a630b13e88512b2d3b16c23c7e23]
class Musica--><rect fill="#FEFECE" filter="url(#f1agx9768bhobd)" height="61.8359" id="Musica" style="stroke: #A80036; stroke-width: 1.5;" width="71" x="434.5" y="1104"/><ellipse cx="449.5" cy="1120" fill="#ADD1B2" rx="11" ry="11" style="stroke: #A80036; stroke-width: 1.0;"/><path d="M452.2656,1115.875 Q452.4219,1115.6563 452.6094,1115.5469 Q452.7969,1115.4375 453.0156,1115.4375 Q453.3906,1115.4375 453.625,1115.6953 Q453.8594,1115.9531 453.8594,1116.5625 L453.8594,1118.0156 Q453.8594,1118.625 453.625,1118.8906 Q453.3906,1119.1563 453.0156,1119.1563 Q452.6719,1119.1563 452.4688,1118.9531 Q452.2656,1118.7656 452.1563,1118.25 Q452.1094,1117.8906 451.9219,1117.7031 Q451.5938,1117.3281 450.9844,1117.1094 Q450.375,1116.8906 449.75,1116.8906 Q448.9844,1116.8906 448.3516,1117.2188 Q447.7188,1117.5469 447.2266,1118.2969 Q446.7344,1119.0469 446.7344,1120.0781 L446.7344,1121.1719 Q446.7344,1122.4063 447.625,1123.2266 Q448.5156,1124.0469 450.1094,1124.0469 Q451.0469,1124.0469 451.7031,1123.7969 Q452.0938,1123.6406 452.5156,1123.2031 Q452.7813,1122.9375 452.9297,1122.8594 Q453.0781,1122.7813 453.2813,1122.7813 Q453.6094,1122.7813 453.8672,1123.0391 Q454.125,1123.2969 454.125,1123.6406 Q454.125,1123.9844 453.7813,1124.3906 Q453.2813,1124.9688 452.4844,1125.2969 Q451.4063,1125.75 450.1094,1125.75 Q448.5938,1125.75 447.3906,1125.125 Q446.4063,1124.625 445.7188,1123.5547 Q445.0313,1122.4844 445.0313,1121.2031 L445.0313,1120.0469 Q445.0313,1118.7188 445.6484,1117.5703 Q446.2656,1116.4219 447.3594,1115.8047 Q448.4531,1115.1875 449.6875,1115.1875 Q450.4219,1115.1875 451.0703,1115.3516 Q451.7188,1115.5156 452.2656,1115.875 Z "/><text fill="#000000" font-family="sans-serif" font-size="12" lengthAdjust="spacingAndGlyphs" textLength="39" x="463.5" y="1124.9102">Musica</text><line style="stroke: #A80036; stroke-width: 1.5;" x1="435.5" x2="504.5" y1="1136" y2="1136"/><text fill="#000000" font-family="sans-serif" font-size="11" lengthAdjust="spacingAndGlyphs" textLength="51" x="440.5" y="1151.4189">categorias</text><line style="stroke: #A80036; stroke-width: 1.5;" x1="435.5" x2="504.5" y1="1157.8359" y2="1157.8359"/><!--MD5=[166247bf81aba95c770c3b8fd8e3cb19]
class Video--><rect fill="#FEFECE" filter="url(#f1agx9768bhobd)" height="61.8359" id="Video" style="stroke: #A80036; stroke-width: 1.5;" width="63" x="540.5" y="1104"/><ellipse cx="555.5" cy="1120" fill="#ADD1B2" rx="11" ry="11" style="stroke: #A80036; stroke-width: 1.0;"/><path d="M558.2656,1115.875 Q558.4219,1115.6563 558.6094,1115.5469 Q558.7969,1115.4375 559.0156,1115.4375 Q559.3906,1115.4375 559.625,1115.6953 Q559.8594,1115.9531 559.8594,1116.5625 L559.8594,1118.0156 Q559.8594,1118.625 559.625,1118.8906 Q559.3906,1119.1563 559.0156,1119.1563 Q558.6719,1119.1563 558.4688,1118.9531 Q558.2656,1118.7656 558.1563,1118.25 Q558.1094,1117.8906 557.9219,1117.7031 Q557.5938,1117.3281 556.9844,1117.1094 Q556.375,1116.8906 555.75,1116.8906 Q554.9844,1116.8906 554.3516,1117.2188 Q553.7188,1117.5469 553.2266,1118.2969 Q552.7344,1119.0469 552.7344,1120.0781 L552.7344,1121.1719 Q552.7344,1122.4063 553.625,1123.2266 Q554.5156,1124.0469 556.1094,1124.0469 Q557.0469,1124.0469 557.7031,1123.7969 Q558.0938,1123.6406 558.5156,1123.2031 Q558.7813,1122.9375 558.9297,1122.8594 Q559.0781,1122.7813 559.2813,1122.7813 Q559.6094,1122.7813 559.8672,1123.0391 Q560.125,1123.2969 560.125,1123.6406 Q560.125,1123.9844 559.7813,1124.3906 Q559.2813,1124.9688 558.4844,1125.2969 Q557.4063,1125.75 556.1094,1125.75 Q554.5938,1125.75 553.3906,1125.125 Q552.4063,1124.625 551.7188,1123.5547 Q551.0313,1122.4844 551.0313,1121.2031 L551.0313,1120.0469 Q551.0313,1118.7188 551.6484,1117.5703 Q552.2656,1116.4219 553.3594,1115.8047 Q554.4531,1115.1875 555.6875,1115.1875 Q556.4219,1115.1875 557.0703,1115.3516 Q557.7188,1115.5156 558.2656,1115.875 Z "/><text fill="#000000" font-family="sans-serif" font-size="12" lengthAdjust="spacingAndGlyphs" textLength="31" x="569.5" y="1124.9102">Video</text><line style="stroke: #A80036; stroke-width: 1.5;" x1="541.5" x2="602.5" y1="1136" y2="1136"/><text fill="#000000" font-family="sans-serif" font-size="11" lengthAdjust="spacingAndGlyphs" textLength="51" x="546.5" y="1151.4189">categorias</text><line style="stroke: #A80036; stroke-width: 1.5;" x1="541.5" x2="602.5" y1="1157.8359" y2="1157.8359"/><!--MD5=[148499297b6f36812855c8d7dd33a717]
class Podcast--><rect fill="#FEFECE" filter="url(#f1agx9768bhobd)" height="61.8359" id="Podcast" style="stroke: #A80036; stroke-width: 1.5;" width="77" x="638.5" y="1104"/><ellipse cx="653.5" cy="1120" fill="#ADD1B2" rx="11" ry="11" style="stroke: #A80036; stroke-width: 1.0;"/><path d="M656.2656,1115.875 Q656.4219,1115.6563 656.6094,1115.5469 Q656.7969,1115.4375 657.0156,1115.4375 Q657.3906,1115.4375 657.625,1115.6953 Q657.8594,1115.9531 657.8594,1116.5625 L657.8594,1118.0156 Q657.8594,1118.625 657.625,1118.8906 Q657.3906,1119.1563 657.0156,1119.1563 Q656.6719,1119.1563 656.4688,1118.9531 Q656.2656,1118.7656 656.1563,1118.25 Q656.1094,1117.8906 655.9219,1117.7031 Q655.5938,1117.3281 654.9844,1117.1094 Q654.375,1116.8906 653.75,1116.8906 Q652.9844,1116.8906 652.3516,1117.2188 Q651.7188,1117.5469 651.2266,1118.2969 Q650.7344,1119.0469 650.7344,1120.0781 L650.7344,1121.1719 Q650.7344,1122.4063 651.625,1123.2266 Q652.5156,1124.0469 654.1094,1124.0469 Q655.0469,1124.0469 655.7031,1123.7969 Q656.0938,1123.6406 656.5156,1123.2031 Q656.7813,1122.9375 656.9297,1122.8594 Q657.0781,1122.7813 657.2813,1122.7813 Q657.6094,1122.7813 657.8672,1123.0391 Q658.125,1123.2969 658.125,1123.6406 Q658.125,1123.9844 657.7813,1124.3906 Q657.2813,1124.9688 656.4844,1125.2969 Q655.4063,1125.75 654.1094,1125.75 Q652.5938,1125.75 651.3906,1125.125 Q650.4063,1124.625 649.7188,1123.5547 Q649.0313,1122.4844 649.0313,1121.2031 L649.0313,1120.0469 Q649.0313,1118.7188 649.6484,1117.5703 Q650.2656,1116.4219 651.3594,1115.8047 Q652.4531,1115.1875 653.6875,1115.1875 Q654.4219,1115.1875 655.0703,1115.3516 Q655.7188,1115.5156 656.2656,1115.875 Z "/><text fill="#000000" font-family="sans-serif" font-size="12" lengthAdjust="spacingAndGlyphs" textLength="45" x="667.5" y="1124.9102">Podcast</text><line style="stroke: #A80036; stroke-width: 1.5;" x1="639.5" x2="714.5" y1="1136" y2="1136"/><text fill="#000000" font-family="sans-serif" font-size="11" lengthAdjust="spacingAndGlyphs" textLength="51" x="644.5" y="1151.4189">categorias</text><line style="stroke: #A80036; stroke-width: 1.5;" x1="639.5" x2="714.5" y1="1157.8359" y2="1157.8359"/><!--MD5=[7b7d686d3dc2c644927357cb508758fd]
class Autor--><rect fill="#FEFECE" filter="url(#f1agx9768bhobd)" height="48" id="Autor" style="stroke: #A80036; stroke-width: 1.5;" width="60" x="931" y="562"/><ellipse cx="946" cy="578" fill="#ADD1B2" rx="11" ry="11" style="stroke: #A80036; stroke-width: 1.0;"/><path d="M948.7656,573.875 Q948.9219,573.6563 949.1094,573.5469 Q949.2969,573.4375 949.5156,573.4375 Q949.8906,573.4375 950.125,573.6953 Q950.3594,573.9531 950.3594,574.5625 L950.3594,576.0156 Q950.3594,576.625 950.125,576.8906 Q949.8906,577.1563 949.5156,577.1563 Q949.1719,577.1563 948.9688,576.9531 Q948.7656,576.7656 948.6563,576.25 Q948.6094,575.8906 948.4219,575.7031 Q948.0938,575.3281 947.4844,575.1094 Q946.875,574.8906 946.25,574.8906 Q945.4844,574.8906 944.8516,575.2188 Q944.2188,575.5469 943.7266,576.2969 Q943.2344,577.0469 943.2344,578.0781 L943.2344,579.1719 Q943.2344,580.4063 944.125,581.2266 Q945.0156,582.0469 946.6094,582.0469 Q947.5469,582.0469 948.2031,581.7969 Q948.5938,581.6406 949.0156,581.2031 Q949.2813,580.9375 949.4297,580.8594 Q949.5781,580.7813 949.7813,580.7813 Q950.1094,580.7813 950.3672,581.0391 Q950.625,581.2969 950.625,581.6406 Q950.625,581.9844 950.2813,582.3906 Q949.7813,582.9688 948.9844,583.2969 Q947.9063,583.75 946.6094,583.75 Q945.0938,583.75 943.8906,583.125 Q942.9063,582.625 942.2188,581.5547 Q941.5313,580.4844 941.5313,579.2031 L941.5313,578.0469 Q941.5313,576.7188 942.1484,575.5703 Q942.7656,574.4219 943.8594,573.8047 Q944.9531,573.1875 946.1875,573.1875 Q946.9219,573.1875 947.5703,573.3516 Q948.2188,573.5156 948.7656,573.875 Z "/><text fill="#000000" font-family="sans-serif" font-size="12" lengthAdjust="spacingAndGlyphs" textLength="28" x="960" y="582.9102">Autor</text><line style="stroke: #A80036; stroke-width: 1.5;" x1="932" x2="990" y1="594" y2="594"/><line style="stroke: #A80036; stroke-width: 1.5;" x1="932" x2="990" y1="602" y2="602"/><!--MD5=[8e9e303d7ff1f3a3dcedda7eeca45588]
class VisualizarMidia--><rect fill="#FEFECE" filter="url(#f1agx9768bhobd)" height="56.1875" id="VisualizarMidia" style="stroke: #A80036; stroke-width: 1.5;" width="116" x="6" y="8"/><ellipse cx="21" cy="28.0938" fill="#B4A7E5" rx="11" ry="11" style="stroke: #A80036; stroke-width: 1.0;"/><path d="M21.9531,24.7344 L21.9531,31.3906 L23.6719,31.3906 Q24.2813,31.3906 24.5469,31.625 Q24.8125,31.8594 24.8125,32.25 Q24.8125,32.625 24.5469,32.8594 Q24.2813,33.0938 23.6719,33.0938 L18.5313,33.0938 Q17.9219,33.0938 17.6563,32.8594 Q17.3906,32.625 17.3906,32.2344 Q17.3906,31.8594 17.6563,31.625 Q17.9219,31.3906 18.5313,31.3906 L20.25,31.3906 L20.25,24.7344 L18.5313,24.7344 Q17.9219,24.7344 17.6563,24.5 Q17.3906,24.2656 17.3906,23.875 Q17.3906,23.5 17.6563,23.2656 Q17.9219,23.0313 18.5313,23.0313 L23.6719,23.0313 Q24.2813,23.0313 24.5469,23.2656 Q24.8125,23.5 24.8125,23.875 Q24.8125,24.2656 24.5469,24.5 Q24.2813,24.7344 23.6719,24.7344 L21.9531,24.7344 Z "/><text fill="#000000" font-family="sans-serif" font-size="12" font-style="italic" lengthAdjust="spacingAndGlyphs" textLength="62" x="46" y="25.457">«Interface»</text><text fill="#000000" font-family="sans-serif" font-size="12" font-style="italic" lengthAdjust="spacingAndGlyphs" textLength="84" x="35" y="40.5508">VisualizarMidia</text><line style="stroke: #A80036; stroke-width: 1.5;" x1="7" x2="121" y1="48.1875" y2="48.1875"/><line style="stroke: #A80036; stroke-width: 1.5;" x1="7" x2="121" y1="56.1875" y2="56.1875"/><!--MD5=[69e63c8801ad5c0986bc7f3f77b25913]
class RemoverMidia--><rect fill="#FEFECE" filter="url(#f1agx9768bhobd)" height="56.1875" id="RemoverMidia" style="stroke: #A80036; stroke-width: 1.5;" width="112" x="1067" y="183.5"/><ellipse cx="1082" cy="203.5938" fill="#B4A7E5" rx="11" ry="11" style="stroke: #A80036; stroke-width: 1.0;"/><path d="M1082.9531,200.2344 L1082.9531,206.8906 L1084.6719,206.8906 Q1085.2813,206.8906 1085.5469,207.125 Q1085.8125,207.3594 1085.8125,207.75 Q1085.8125,208.125 1085.5469,208.3594 Q1085.2813,208.5938 1084.6719,208.5938 L1079.5313,208.5938 Q1078.9219,208.5938 1078.6563,208.3594 Q1078.3906,208.125 1078.3906,207.7344 Q1078.3906,207.3594 1078.6563,207.125 Q1078.9219,206.8906 1079.5313,206.8906 L1081.25,206.8906 L1081.25,200.2344 L1079.5313,200.2344 Q1078.9219,200.2344 1078.6563,200 Q1078.3906,199.7656 1078.3906,199.375 Q1078.3906,199 1078.6563,198.7656 Q1078.9219,198.5313 1079.5313,198.5313 L1084.6719,198.5313 Q1085.2813,198.5313 1085.5469,198.7656 Q1085.8125,199 1085.8125,199.375 Q1085.8125,199.7656 1085.5469,200 Q1085.2813,200.2344 1084.6719,200.2344 L1082.9531,200.2344 Z "/><text fill="#000000" font-family="sans-serif" font-size="12" font-style="italic" lengthAdjust="spacingAndGlyphs" textLength="62" x="1105" y="200.957">«Interface»</text><text fill="#000000" font-family="sans-serif" font-size="12" font-style="italic" lengthAdjust="spacingAndGlyphs" textLength="80" x="1096" y="216.0508">RemoverMidia</text><line style="stroke: #A80036; stroke-width: 1.5;" x1="1068" x2="1178" y1="223.6875" y2="223.6875"/><line style="stroke: #A80036; stroke-width: 1.5;" x1="1068" x2="1178" y1="231.6875" y2="231.6875"/><!--MD5=[76676120570798196cdd558cb923afaf]
class RemoverAcademico--><rect fill="#FEFECE" filter="url(#f1agx9768bhobd)" height="56.1875" id="RemoverAcademico" style="stroke: #A80036; stroke-width: 1.5;" width="145" x="779.5" y="183.5"/><ellipse cx="794.5" cy="203.5938" fill="#B4A7E5" rx="11" ry="11" style="stroke: #A80036; stroke-width: 1.0;"/><path d="M795.4531,200.2344 L795.4531,206.8906 L797.1719,206.8906 Q797.7813,206.8906 798.0469,207.125 Q798.3125,207.3594 798.3125,207.75 Q798.3125,208.125 798.0469,208.3594 Q797.7813,208.5938 797.1719,208.5938 L792.0313,208.5938 Q791.4219,208.5938 791.1563,208.3594 Q790.8906,208.125 790.8906,207.7344 Q790.8906,207.3594 791.1563,207.125 Q791.4219,206.8906 792.0313,206.8906 L793.75,206.8906 L793.75,200.2344 L792.0313,200.2344 Q791.4219,200.2344 791.1563,200 Q790.8906,199.7656 790.8906,199.375 Q790.8906,199 791.1563,198.7656 Q791.4219,198.5313 792.0313,198.5313 L797.1719,198.5313 Q797.7813,198.5313 798.0469,198.7656 Q798.3125,199 798.3125,199.375 Q798.3125,199.7656 798.0469,200 Q797.7813,200.2344 797.1719,200.2344 L795.4531,200.2344 Z "/><text fill="#000000" font-family="sans-serif" font-size="12" font-style="italic" lengthAdjust="spacingAndGlyphs" textLength="62" x="834" y="200.957">«Interface»</text><text fill="#000000" font-family="sans-serif" font-size="12" font-style="italic" lengthAdjust="spacingAndGlyphs" textLength="113" x="808.5" y="216.0508">RemoverAcademico</text><line style="stroke: #A80036; stroke-width: 1.5;" x1="780.5" x2="923.5" y1="223.6875" y2="223.6875"/><line style="stroke: #A80036; stroke-width: 1.5;" x1="780.5" x2="923.5" y1="231.6875" y2="231.6875"/><!--MD5=[5191232be2d92ca88cf7876f2dc54394]
class AtualizarMidia--><rect fill="#FEFECE" filter="url(#f1agx9768bhobd)" height="56.1875" id="AtualizarMidia" style="stroke: #A80036; stroke-width: 1.5;" width="110" x="906" y="383"/><ellipse cx="921" cy="403.0938" fill="#B4A7E5" rx="11" ry="11" style="stroke: #A80036; stroke-width: 1.0;"/><path d="M921.9531,399.7344 L921.9531,406.3906 L923.6719,406.3906 Q924.2813,406.3906 924.5469,406.625 Q924.8125,406.8594 924.8125,407.25 Q924.8125,407.625 924.5469,407.8594 Q924.2813,408.0938 923.6719,408.0938 L918.5313,408.0938 Q917.9219,408.0938 917.6563,407.8594 Q917.3906,407.625 917.3906,407.2344 Q917.3906,406.8594 917.6563,406.625 Q917.9219,406.3906 918.5313,406.3906 L920.25,406.3906 L920.25,399.7344 L918.5313,399.7344 Q917.9219,399.7344 917.6563,399.5 Q917.3906,399.2656 917.3906,398.875 Q917.3906,398.5 917.6563,398.2656 Q917.9219,398.0313 918.5313,398.0313 L923.6719,398.0313 Q924.2813,398.0313 924.5469,398.2656 Q924.8125,398.5 924.8125,398.875 Q924.8125,399.2656 924.5469,399.5 Q924.2813,399.7344 923.6719,399.7344 L921.9531,399.7344 Z "/><text fill="#000000" font-family="sans-serif" font-size="12" font-style="italic" lengthAdjust="spacingAndGlyphs" textLength="62" x="943" y="400.457">«Interface»</text><text fill="#000000" font-family="sans-serif" font-size="12" font-style="italic" lengthAdjust="spacingAndGlyphs" textLength="78" x="935" y="415.5508">AtualizarMidia</text><line style="stroke: #A80036; stroke-width: 1.5;" x1="907" x2="1015" y1="423.1875" y2="423.1875"/><line style="stroke: #A80036; stroke-width: 1.5;" x1="907" x2="1015" y1="431.1875" y2="431.1875"/><!--MD5=[96859732366c9815bb186c7a915ddd6b]
class AdicionarCredito--><rect fill="#FEFECE" filter="url(#f1agx9768bhobd)" height="56.1875" id="AdicionarCredito" style="stroke: #A80036; stroke-width: 1.5;" width="124" x="157" y="8"/><ellipse cx="172" cy="28.0938" fill="#B4A7E5" rx="11" ry="11" style="stroke: #A80036; stroke-width: 1.0;"/><path d="M172.9531,24.7344 L172.9531,31.3906 L174.6719,31.3906 Q175.2813,31.3906 175.5469,31.625 Q175.8125,31.8594 175.8125,32.25 Q175.8125,32.625 175.5469,32.8594 Q175.2813,33.0938 174.6719,33.0938 L169.5313,33.0938 Q168.9219,33.0938 168.6563,32.8594 Q168.3906,32.625 168.3906,32.2344 Q168.3906,31.8594 168.6563,31.625 Q168.9219,31.3906 169.5313,31.3906 L171.25,31.3906 L171.25,24.7344 L169.5313,24.7344 Q168.9219,24.7344 168.6563,24.5 Q168.3906,24.2656 168.3906,23.875 Q168.3906,23.5 168.6563,23.2656 Q168.9219,23.0313 169.5313,23.0313 L174.6719,23.0313 Q175.2813,23.0313 175.5469,23.2656 Q175.8125,23.5 175.8125,23.875 Q175.8125,24.2656 175.5469,24.5 Q175.2813,24.7344 174.6719,24.7344 L172.9531,24.7344 Z "/><text fill="#000000" font-family="sans-serif" font-size="12" font-style="italic" lengthAdjust="spacingAndGlyphs" textLength="62" x="201" y="25.457">«Interface»</text><text fill="#000000" font-family="sans-serif" font-size="12" font-style="italic" lengthAdjust="spacingAndGlyphs" textLength="92" x="186" y="40.5508">AdicionarCredito</text><line style="stroke: #A80036; stroke-width: 1.5;" x1="158" x2="280" y1="48.1875" y2="48.1875"/><line style="stroke: #A80036; stroke-width: 1.5;" x1="158" x2="280" y1="56.1875" y2="56.1875"/><!--MD5=[681cab2b7e9218d815817911a3020f88]
class CriarAlbum--><rect fill="#FEFECE" filter="url(#f1agx9768bhobd)" height="56.1875" id="CriarAlbum" style="stroke: #A80036; stroke-width: 1.5;" width="96" x="1051" y="383"/><ellipse cx="1066" cy="403.0938" fill="#B4A7E5" rx="11" ry="11" style="stroke: #A80036; stroke-width: 1.0;"/><path d="M1066.9531,399.7344 L1066.9531,406.3906 L1068.6719,406.3906 Q1069.2813,406.3906 1069.5469,406.625 Q1069.8125,406.8594 1069.8125,407.25 Q1069.8125,407.625 1069.5469,407.8594 Q1069.2813,408.0938 1068.6719,408.0938 L1063.5313,408.0938 Q1062.9219,408.0938 1062.6563,407.8594 Q1062.3906,407.625 1062.3906,407.2344 Q1062.3906,406.8594 1062.6563,406.625 Q1062.9219,406.3906 1063.5313,406.3906 L1065.25,406.3906 L1065.25,399.7344 L1063.5313,399.7344 Q1062.9219,399.7344 1062.6563,399.5 Q1062.3906,399.2656 1062.3906,398.875 Q1062.3906,398.5 1062.6563,398.2656 Q1062.9219,398.0313 1063.5313,398.0313 L1068.6719,398.0313 Q1069.2813,398.0313 1069.5469,398.2656 Q1069.8125,398.5 1069.8125,398.875 Q1069.8125,399.2656 1069.5469,399.5 Q1069.2813,399.7344 1068.6719,399.7344 L1066.9531,399.7344 Z "/><text fill="#000000" font-family="sans-serif" font-size="12" font-style="italic" lengthAdjust="spacingAndGlyphs" textLength="62" x="1081" y="400.457">«Interface»</text><text fill="#000000" font-family="sans-serif" font-size="12" font-style="italic" lengthAdjust="spacingAndGlyphs" textLength="64" x="1080" y="415.5508">CriarAlbum</text><line style="stroke: #A80036; stroke-width: 1.5;" x1="1052" x2="1146" y1="423.1875" y2="423.1875"/><line style="stroke: #A80036; stroke-width: 1.5;" x1="1052" x2="1146" y1="431.1875" y2="431.1875"/><!--MD5=[593118888f2185de7ac53c01266003b1]
class VisualizarAlbum--><rect fill="#FEFECE" filter="url(#f1agx9768bhobd)" height="56.1875" id="VisualizarAlbum" style="stroke: #A80036; stroke-width: 1.5;" width="124" x="336" y="183.5"/><ellipse cx="351" cy="203.5938" fill="#B4A7E5" rx="11" ry="11" style="stroke: #A80036; stroke-width: 1.0;"/><path d="M351.9531,200.2344 L351.9531,206.8906 L353.6719,206.8906 Q354.2813,206.8906 354.5469,207.125 Q354.8125,207.3594 354.8125,207.75 Q354.8125,208.125 354.5469,208.3594 Q354.2813,208.5938 353.6719,208.5938 L348.5313,208.5938 Q347.9219,208.5938 347.6563,208.3594 Q347.3906,208.125 347.3906,207.7344 Q347.3906,207.3594 347.6563,207.125 Q347.9219,206.8906 348.5313,206.8906 L350.25,206.8906 L350.25,200.2344 L348.5313,200.2344 Q347.9219,200.2344 347.6563,200 Q347.3906,199.7656 347.3906,199.375 Q347.3906,199 347.6563,198.7656 Q347.9219,198.5313 348.5313,198.5313 L353.6719,198.5313 Q354.2813,198.5313 354.5469,198.7656 Q354.8125,199 354.8125,199.375 Q354.8125,199.7656 354.5469,200 Q354.2813,200.2344 353.6719,200.2344 L351.9531,200.2344 Z "/><text fill="#000000" font-family="sans-serif" font-size="12" font-style="italic" lengthAdjust="spacingAndGlyphs" textLength="62" x="380" y="200.957">«Interface»</text><text fill="#000000" font-family="sans-serif" font-size="12" font-style="italic" lengthAdjust="spacingAndGlyphs" textLength="92" x="365" y="216.0508">VisualizarAlbum</text><line style="stroke: #A80036; stroke-width: 1.5;" x1="337" x2="459" y1="223.6875" y2="223.6875"/><line style="stroke: #A80036; stroke-width: 1.5;" x1="337" x2="459" y1="231.6875" y2="231.6875"/><!--MD5=[d8a1f1755bfc1dc77104ce4882e6b10a]
class ExecutarMidiaPlayer--><rect fill="#FEFECE" filter="url(#f1agx9768bhobd)" height="56.1875" id="ExecutarMidiaPlayer" style="stroke: #A80036; stroke-width: 1.5;" width="144" x="316" y="8"/><ellipse cx="331" cy="28.0938" fill="#B4A7E5" rx="11" ry="11" style="stroke: #A80036; stroke-width: 1.0;"/><path d="M331.9531,24.7344 L331.9531,31.3906 L333.6719,31.3906 Q334.2813,31.3906 334.5469,31.625 Q334.8125,31.8594 334.8125,32.25 Q334.8125,32.625 334.5469,32.8594 Q334.2813,33.0938 333.6719,33.0938 L328.5313,33.0938 Q327.9219,33.0938 327.6563,32.8594 Q327.3906,32.625 327.3906,32.2344 Q327.3906,31.8594 327.6563,31.625 Q327.9219,31.3906 328.5313,31.3906 L330.25,31.3906 L330.25,24.7344 L328.5313,24.7344 Q327.9219,24.7344 327.6563,24.5 Q327.3906,24.2656 327.3906,23.875 Q327.3906,23.5 327.6563,23.2656 Q327.9219,23.0313 328.5313,23.0313 L333.6719,23.0313 Q334.2813,23.0313 334.5469,23.2656 Q334.8125,23.5 334.8125,23.875 Q334.8125,24.2656 334.5469,24.5 Q334.2813,24.7344 333.6719,24.7344 L331.9531,24.7344 Z "/><text fill="#000000" font-family="sans-serif" font-size="12" font-style="italic" lengthAdjust="spacingAndGlyphs" textLength="62" x="370" y="25.457">«Interface»</text><text fill="#000000" font-family="sans-serif" font-size="12" font-style="italic" lengthAdjust="spacingAndGlyphs" textLength="112" x="345" y="40.5508">ExecutarMidiaPlayer</text><line style="stroke: #A80036; stroke-width: 1.5;" x1="317" x2="459" y1="48.1875" y2="48.1875"/><line style="stroke: #A80036; stroke-width: 1.5;" x1="317" x2="459" y1="56.1875" y2="56.1875"/><!--MD5=[ad72e024709ef5686dc384b5d0d22d71]
class ComprarMidia--><rect fill="#FEFECE" filter="url(#f1agx9768bhobd)" height="56.1875" id="ComprarMidia" style="stroke: #A80036; stroke-width: 1.5;" width="110" x="495" y="8"/><ellipse cx="510" cy="28.0938" fill="#B4A7E5" rx="11" ry="11" style="stroke: #A80036; stroke-width: 1.0;"/><path d="M510.9531,24.7344 L510.9531,31.3906 L512.6719,31.3906 Q513.2813,31.3906 513.5469,31.625 Q513.8125,31.8594 513.8125,32.25 Q513.8125,32.625 513.5469,32.8594 Q513.2813,33.0938 512.6719,33.0938 L507.5313,33.0938 Q506.9219,33.0938 506.6563,32.8594 Q506.3906,32.625 506.3906,32.2344 Q506.3906,31.8594 506.6563,31.625 Q506.9219,31.3906 507.5313,31.3906 L509.25,31.3906 L509.25,24.7344 L507.5313,24.7344 Q506.9219,24.7344 506.6563,24.5 Q506.3906,24.2656 506.3906,23.875 Q506.3906,23.5 506.6563,23.2656 Q506.9219,23.0313 507.5313,23.0313 L512.6719,23.0313 Q513.2813,23.0313 513.5469,23.2656 Q513.8125,23.5 513.8125,23.875 Q513.8125,24.2656 513.5469,24.5 Q513.2813,24.7344 512.6719,24.7344 L510.9531,24.7344 Z "/><text fill="#000000" font-family="sans-serif" font-size="12" font-style="italic" lengthAdjust="spacingAndGlyphs" textLength="62" x="532" y="25.457">«Interface»</text><text fill="#000000" font-family="sans-serif" font-size="12" font-style="italic" lengthAdjust="spacingAndGlyphs" textLength="78" x="524" y="40.5508">ComprarMidia</text><line style="stroke: #A80036; stroke-width: 1.5;" x1="496" x2="604" y1="48.1875" y2="48.1875"/><line style="stroke: #A80036; stroke-width: 1.5;" x1="496" x2="604" y1="56.1875" y2="56.1875"/><!--MD5=[b3d0b2517cc0b83c74ea63e498083d4b]
class VenderMidia--><rect fill="#FEFECE" filter="url(#f1agx9768bhobd)" height="56.1875" id="VenderMidia" style="stroke: #A80036; stroke-width: 1.5;" width="101" x="640.5" y="8"/><ellipse cx="655.5" cy="28.0938" fill="#B4A7E5" rx="11" ry="11" style="stroke: #A80036; stroke-width: 1.0;"/><path d="M656.4531,24.7344 L656.4531,31.3906 L658.1719,31.3906 Q658.7813,31.3906 659.0469,31.625 Q659.3125,31.8594 659.3125,32.25 Q659.3125,32.625 659.0469,32.8594 Q658.7813,33.0938 658.1719,33.0938 L653.0313,33.0938 Q652.4219,33.0938 652.1563,32.8594 Q651.8906,32.625 651.8906,32.2344 Q651.8906,31.8594 652.1563,31.625 Q652.4219,31.3906 653.0313,31.3906 L654.75,31.3906 L654.75,24.7344 L653.0313,24.7344 Q652.4219,24.7344 652.1563,24.5 Q651.8906,24.2656 651.8906,23.875 Q651.8906,23.5 652.1563,23.2656 Q652.4219,23.0313 653.0313,23.0313 L658.1719,23.0313 Q658.7813,23.0313 659.0469,23.2656 Q659.3125,23.5 659.3125,23.875 Q659.3125,24.2656 659.0469,24.5 Q658.7813,24.7344 658.1719,24.7344 L656.4531,24.7344 Z "/><text fill="#000000" font-family="sans-serif" font-size="12" font-style="italic" lengthAdjust="spacingAndGlyphs" textLength="62" x="673" y="25.457">«Interface»</text><text fill="#000000" font-family="sans-serif" font-size="12" font-style="italic" lengthAdjust="spacingAndGlyphs" textLength="69" x="669.5" y="40.5508">VenderMidia</text><line style="stroke: #A80036; stroke-width: 1.5;" x1="641.5" x2="740.5" y1="48.1875" y2="48.1875"/><line style="stroke: #A80036; stroke-width: 1.5;" x1="641.5" x2="740.5" y1="56.1875" y2="56.1875"/><!--MD5=[24306329126c5584c86443868fe701a7]
class DownloadMidia--><rect fill="#FEFECE" filter="url(#f1agx9768bhobd)" height="56.1875" id="DownloadMidia" style="stroke: #A80036; stroke-width: 1.5;" width="116" x="777" y="8"/><ellipse cx="792" cy="28.0938" fill="#B4A7E5" rx="11" ry="11" style="stroke: #A80036; stroke-width: 1.0;"/><path d="M792.9531,24.7344 L792.9531,31.3906 L794.6719,31.3906 Q795.2813,31.3906 795.5469,31.625 Q795.8125,31.8594 795.8125,32.25 Q795.8125,32.625 795.5469,32.8594 Q795.2813,33.0938 794.6719,33.0938 L789.5313,33.0938 Q788.9219,33.0938 788.6563,32.8594 Q788.3906,32.625 788.3906,32.2344 Q788.3906,31.8594 788.6563,31.625 Q788.9219,31.3906 789.5313,31.3906 L791.25,31.3906 L791.25,24.7344 L789.5313,24.7344 Q788.9219,24.7344 788.6563,24.5 Q788.3906,24.2656 788.3906,23.875 Q788.3906,23.5 788.6563,23.2656 Q788.9219,23.0313 789.5313,23.0313 L794.6719,23.0313 Q795.2813,23.0313 795.5469,23.2656 Q795.8125,23.5 795.8125,23.875 Q795.8125,24.2656 795.5469,24.5 Q795.2813,24.7344 794.6719,24.7344 L792.9531,24.7344 Z "/><text fill="#000000" font-family="sans-serif" font-size="12" font-style="italic" lengthAdjust="spacingAndGlyphs" textLength="62" x="817" y="25.457">«Interface»</text><text fill="#000000" font-family="sans-serif" font-size="12" font-style="italic" lengthAdjust="spacingAndGlyphs" textLength="84" x="806" y="40.5508">DownloadMidia</text><line style="stroke: #A80036; stroke-width: 1.5;" x1="778" x2="892" y1="48.1875" y2="48.1875"/><line style="stroke: #A80036; stroke-width: 1.5;" x1="778" x2="892" y1="56.1875" y2="56.1875"/><!--MD5=[7fdfe9cf846e8eab6166baa37cb77752]
class AdicionarMidiaEmListaFavorito--><rect fill="#FEFECE" filter="url(#f1agx9768bhobd)" height="56.1875" id="AdicionarMidiaEmListaFavorito" style="stroke: #A80036; stroke-width: 1.5;" width="202" x="928" y="8"/><ellipse cx="943" cy="28.0938" fill="#B4A7E5" rx="11" ry="11" style="stroke: #A80036; stroke-width: 1.0;"/><path d="M943.9531,24.7344 L943.9531,31.3906 L945.6719,31.3906 Q946.2813,31.3906 946.5469,31.625 Q946.8125,31.8594 946.8125,32.25 Q946.8125,32.625 946.5469,32.8594 Q946.2813,33.0938 945.6719,33.0938 L940.5313,33.0938 Q939.9219,33.0938 939.6563,32.8594 Q939.3906,32.625 939.3906,32.2344 Q939.3906,31.8594 939.6563,31.625 Q939.9219,31.3906 940.5313,31.3906 L942.25,31.3906 L942.25,24.7344 L940.5313,24.7344 Q939.9219,24.7344 939.6563,24.5 Q939.3906,24.2656 939.3906,23.875 Q939.3906,23.5 939.6563,23.2656 Q939.9219,23.0313 940.5313,23.0313 L945.6719,23.0313 Q946.2813,23.0313 946.5469,23.2656 Q946.8125,23.5 946.8125,23.875 Q946.8125,24.2656 946.5469,24.5 Q946.2813,24.7344 945.6719,24.7344 L943.9531,24.7344 Z "/><text fill="#000000" font-family="sans-serif" font-size="12" font-style="italic" lengthAdjust="spacingAndGlyphs" textLength="62" x="1011" y="25.457">«Interface»</text><text fill="#000000" font-family="sans-serif" font-size="12" font-style="italic" lengthAdjust="spacingAndGlyphs" textLength="170" x="957" y="40.5508">AdicionarMidiaEmListaFavorito</text><line style="stroke: #A80036; stroke-width: 1.5;" x1="929" x2="1129" y1="48.1875" y2="48.1875"/><line style="stroke: #A80036; stroke-width: 1.5;" x1="929" x2="1129" y1="56.1875" y2="56.1875"/><!--MD5=[56730f7e5759da080ebb7b609593d0dc]
class VisualizarCreditor--><rect fill="#FEFECE" filter="url(#f1agx9768bhobd)" height="56.1875" id="VisualizarCreditor" style="stroke: #A80036; stroke-width: 1.5;" width="131" x="1165.5" y="8"/><ellipse cx="1180.5" cy="28.0938" fill="#B4A7E5" rx="11" ry="11" style="stroke: #A80036; stroke-width: 1.0;"/><path d="M1181.4531,24.7344 L1181.4531,31.3906 L1183.1719,31.3906 Q1183.7813,31.3906 1184.0469,31.625 Q1184.3125,31.8594 1184.3125,32.25 Q1184.3125,32.625 1184.0469,32.8594 Q1183.7813,33.0938 1183.1719,33.0938 L1178.0313,33.0938 Q1177.4219,33.0938 1177.1563,32.8594 Q1176.8906,32.625 1176.8906,32.2344 Q1176.8906,31.8594 1177.1563,31.625 Q1177.4219,31.3906 1178.0313,31.3906 L1179.75,31.3906 L1179.75,24.7344 L1178.0313,24.7344 Q1177.4219,24.7344 1177.1563,24.5 Q1176.8906,24.2656 1176.8906,23.875 Q1176.8906,23.5 1177.1563,23.2656 Q1177.4219,23.0313 1178.0313,23.0313 L1183.1719,23.0313 Q1183.7813,23.0313 1184.0469,23.2656 Q1184.3125,23.5 1184.3125,23.875 Q1184.3125,24.2656 1184.0469,24.5 Q1183.7813,24.7344 1183.1719,24.7344 L1181.4531,24.7344 Z "/><text fill="#000000" font-family="sans-serif" font-size="12" font-style="italic" lengthAdjust="spacingAndGlyphs" textLength="62" x="1213" y="25.457">«Interface»</text><text fill="#000000" font-family="sans-serif" font-size="12" font-style="italic" lengthAdjust="spacingAndGlyphs" textLength="99" x="1194.5" y="40.5508">VisualizarCreditor</text><line style="stroke: #A80036; stroke-width: 1.5;" x1="1166.5" x2="1295.5" y1="48.1875" y2="48.1875"/><line style="stroke: #A80036; stroke-width: 1.5;" x1="1166.5" x2="1295.5" y1="56.1875" y2="56.1875"/><!--MD5=[d0a83700a0fb0033d841bb213107c04c]
reverse link Autor to Midia--><path d="M961,623.329 C961,623.329 961,835 961,835 C961,835 796.356,835 713.07,835 " fill="none" id="Autor&lt;-Midia" style="stroke: #A80036; stroke-width: 1.0;"/><polygon fill="#A80036" points="961,610.329,957,616.329,961,622.329,965,616.329,961,610.329" style="stroke: #A80036; stroke-width: 1.0;"/><text fill="#000000" font-family="sans-serif" font-size="13" lengthAdjust="spacingAndGlyphs" textLength="7" x="953.1906" y="631.3408">1</text><text fill="#000000" font-family="sans-serif" font-size="13" lengthAdjust="spacingAndGlyphs" textLength="20" x="721.0955" y="836.4551">1..*</text><!--MD5=[8ca2f7d71a4bd8549b210d3fd3446ca9]
reverse link Usuario to Midia--><path d="M731,311.132 C731,311.132 731,764 731,764 C731,764 723.319,764 713.238,764 " fill="none" id="Usuario&lt;-Midia" style="stroke: #A80036; stroke-width: 1.0;"/><polygon fill="#FFFFFF" points="731,298.132,727,304.132,731,310.132,735,304.132,731,298.132" style="stroke: #A80036; stroke-width: 1.0;"/><!--MD5=[c5cf8352f99769afe06a3910f356696c]
reverse link Academico to TipoAcademicoEnum--><path d="M407,455.286 C407,455.286 407,540.843 407,540.843 " fill="none" id="Academico&lt;-TipoAcademicoEnum" style="stroke: #A80036; stroke-width: 1.0;"/><polygon fill="#A80036" points="407,442.286,403,448.286,407,454.286,411,448.286,407,442.286" style="stroke: #A80036; stroke-width: 1.0;"/><!--MD5=[ed09cf4b4268655afeb81a9d06583233]
reverse link Usuario to TipoMidiaEnum--><path d="M667,311.133 C667,311.133 667,358.926 667,358.926 " fill="none" id="Usuario&lt;-TipoMidiaEnum" style="stroke: #A80036; stroke-width: 1.0;"/><polygon fill="#A80036" points="667,298.133,663,304.133,667,310.133,671,304.133,667,298.133" style="stroke: #A80036; stroke-width: 1.0;"/><!--MD5=[5d8be773900fef823bca451b2769d179]
reverse link Usuario to Academico--><path d="M479.276,269 C479.276,269 477.5,269 477.5,269 C477.5,269 477.5,338.037 477.5,379.837 " fill="none" id="Usuario&lt;-Academico" style="stroke: #A80036; stroke-width: 1.0;"/><polygon fill="none" points="475.26,262,495.26,269,475.26,276,475.26,262" style="stroke: #A80036; stroke-width: 1.0;"/><!--MD5=[2386fb79edec01e4d2430678291cfc6c]
reverse link Academico to Autor--><path d="M453,462.063 C453,462.063 453,502 453,502 C453,502 951,502 951,502 C951,502 951,536.895 951,561.704 " fill="none" id="Academico&lt;-Autor" style="stroke: #A80036; stroke-width: 1.0;"/><polygon fill="none" points="446,462.063,453,442.063,460,462.062,446,462.063" style="stroke: #A80036; stroke-width: 1.0;"/><!--MD5=[39a07826a1b74c11cd6c15b957d26b5e]
reverse link Usuario to Administrador--><path d="M736,318.133 C736,318.133 736,411 736,411 C736,411 747.25,411 761.313,411 " fill="none" id="Usuario&lt;-Administrador" style="stroke: #A80036; stroke-width: 1.0;"/><polygon fill="none" points="729,318.133,736,298.133,743,318.133,729,318.133" style="stroke: #A80036; stroke-width: 1.0;"/><!--MD5=[3c353f16ad6f698b146590b8140ac17b]
reverse link Midia to Livro--><path d="M684,926.224 C684,926.224 684,966.719 684,966.719 " fill="none" id="Midia&lt;-Livro" style="stroke: #A80036; stroke-width: 1.0;"/><polygon fill="none" points="677,926.224,684,906.224,691,926.224,677,926.224" style="stroke: #A80036; stroke-width: 1.0;"/><!--MD5=[82533b8c2601e7a850642b0dd72d942b]
reverse link Midia to MidiaPlayer--><path d="M629.25,926.224 C629.25,926.224 629.25,1005 629.25,1005 C629.25,1005 625.559,1005 620.052,1005 " fill="none" id="Midia&lt;-MidiaPlayer" style="stroke: #A80036; stroke-width: 1.0;"/><polygon fill="none" points="622.25,926.224,629.25,906.224,636.25,926.224,622.25,926.224" style="stroke: #A80036; stroke-width: 1.0;"/><!--MD5=[5a5467fcde532a33a1a3eb9cfff28bda]
reverse link MidiaPlayer to Musica--><path d="M534.75,1063.301 C534.75,1063.301 534.75,1135 534.75,1135 C534.75,1135 520.759,1135 505.784,1135 " fill="none" id="MidiaPlayer&lt;-Musica" style="stroke: #A80036; stroke-width: 1.0;"/><polygon fill="none" points="527.75,1063.301,534.75,1043.301,541.75,1063.301,527.75,1063.301" style="stroke: #A80036; stroke-width: 1.0;"/><!--MD5=[56f92f22368eec05e35979518733a5f3]
reverse link MidiaPlayer to Video--><path d="M572,1063.301 C572,1063.301 572,1103.955 572,1103.955 " fill="none" id="MidiaPlayer&lt;-Video" style="stroke: #A80036; stroke-width: 1.0;"/><polygon fill="none" points="565,1063.301,572,1043.301,579,1063.301,565,1063.301" style="stroke: #A80036; stroke-width: 1.0;"/><!--MD5=[177c67a363ef67bbbfca2d53a69c70b4]
reverse link MidiaPlayer to Podcast--><path d="M611.75,1063.301 C611.75,1063.301 611.75,1135 611.75,1135 C611.75,1135 624.239,1135 638.29,1135 " fill="none" id="MidiaPlayer&lt;-Podcast" style="stroke: #A80036; stroke-width: 1.0;"/><polygon fill="none" points="604.75,1063.301,611.75,1043.301,618.75,1063.301,604.75,1063.301" style="stroke: #A80036; stroke-width: 1.0;"/><!--MD5=[a97b4c173602f725213a0f665d6057da]
link Musica to Album--><path d="M470,1166.038 C470,1166.038 470,1213.9718 470,1213.9718 " fill="none" id="Musica-&gt;Album" style="stroke: #A80036; stroke-width: 1.0;"/><polygon fill="#FFFFFF" points="470,1226.9718,474,1220.9718,470,1214.9718,466,1220.9718,470,1226.9718" style="stroke: #A80036; stroke-width: 1.0;"/><text fill="#000000" font-family="sans-serif" font-size="13" lengthAdjust="spacingAndGlyphs" textLength="20" x="448.0313" y="1187.2695">1..*</text><text fill="#000000" font-family="sans-serif" font-size="13" lengthAdjust="spacingAndGlyphs" textLength="7" x="462.2344" y="1215.9859">0</text><!--MD5=[717f991cfb135c4982202eba3bb2d0b0]
reverse link VisualizarAlbum to Academico--><path d="M410.5,259.66 C410.5,259.66 410.5,379.698 410.5,379.698 " fill="none" id="VisualizarAlbum&lt;-Academico" style="stroke: #A80036; stroke-width: 1.0; stroke-dasharray: 7.0,7.0;"/><polygon fill="none" points="403.5,259.66,410.5,239.66,417.5,259.66,403.5,259.66" style="stroke: #A80036; stroke-width: 1.0;"/><!--MD5=[1e8e721b24e4b8cb0f64c7cdc0eaf7d8]
reverse link CriarAlbum to Autor--><path d="M1099,459.329 C1099,459.329 1099,578 1099,578 C1099,578 1031.91,578 991.285,578 " fill="none" id="CriarAlbum&lt;-Autor" style="stroke: #A80036; stroke-width: 1.0; stroke-dasharray: 7.0,7.0;"/><polygon fill="none" points="1092,459.329,1099,439.329,1106,459.329,1092,459.329" style="stroke: #A80036; stroke-width: 1.0;"/><!--MD5=[591089ffd8c6beaed9248fb23f9f93f3]
reverse link AdicionarCredito to Usuario--><path d="M219,84.2 C219,84.2 219,155 219,155 C219,155 377.605,155 495.319,155 " fill="none" id="AdicionarCredito&lt;-Usuario" style="stroke: #A80036; stroke-width: 1.0; stroke-dasharray: 7.0,7.0;"/><polygon fill="none" points="212,84.2,219,64.2,226,84.2,212,84.2" style="stroke: #A80036; stroke-width: 1.0;"/><!--MD5=[df60da1beb4eb3b0703858cf292c43ea]
reverse link VisualizarMidia to Usuario--><path d="M64,84.21 C64,84.21 64,169 64,169 C64,169 331.295,169 495.223,169 " fill="none" id="VisualizarMidia&lt;-Usuario" style="stroke: #A80036; stroke-width: 1.0; stroke-dasharray: 7.0,7.0;"/><polygon fill="none" points="57.0001,84.21,64,64.21,71.0001,84.21,57.0001,84.21" style="stroke: #A80036; stroke-width: 1.0;"/><!--MD5=[8a75dfd0a35ce7fb852ef87bea9dd96d]
reverse link RemoverMidia to Autor--><path d="M1163,259.63 C1163,259.63 1163,594 1163,594 C1163,594 1047.59,594 991.241,594 " fill="none" id="RemoverMidia&lt;-Autor" style="stroke: #A80036; stroke-width: 1.0; stroke-dasharray: 7.0,7.0;"/><polygon fill="none" points="1156,259.63,1163,239.63,1170,259.63,1156,259.63" style="stroke: #A80036; stroke-width: 1.0;"/><!--MD5=[a8e296ce7eaa74068a6fb8190778373a]
reverse link RemoverMidia to Administrador--><path d="M1107,259.58 C1107,259.58 1107,269 1107,269 C1107,269 840.167,269 840.167,269 C840.167,269 840.167,346.398 840.167,386.912 " fill="none" id="RemoverMidia&lt;-Administrador" style="stroke: #A80036; stroke-width: 1.0; stroke-dasharray: 7.0,7.0;"/><polygon fill="none" points="1100,259.58,1107,239.58,1114,259.58,1100,259.58" style="stroke: #A80036; stroke-width: 1.0;"/><!--MD5=[3caf364c4c9a7c8e465e34f5f8565c22]
reverse link RemoverAcademico to Administrador--><path d="M809.833,259.66 C809.833,259.66 809.833,386.738 809.833,386.738 " fill="none" id="RemoverAcademico&lt;-Administrador" style="stroke: #A80036; stroke-width: 1.0; stroke-dasharray: 7.0,7.0;"/><polygon fill="none" points="802.833,259.66,809.833,239.66,816.833,259.66,802.833,259.66" style="stroke: #A80036; stroke-width: 1.0;"/><!--MD5=[1e22089982c670ddb0a2b40e86e4f540]
reverse link AtualizarMidia to Autor--><path d="M971,459.117 C971,459.117 971,561.897 971,561.897 " fill="none" id="AtualizarMidia&lt;-Autor" style="stroke: #A80036; stroke-width: 1.0; stroke-dasharray: 7.0,7.0;"/><polygon fill="none" points="964,459.117,971,439.117,978,459.117,964,459.117" style="stroke: #A80036; stroke-width: 1.0;"/><!--MD5=[4554e524f17f18162f5e2d4d8706b05b]
reverse link VisualizarCreditor to Usuario--><path d="M1172.25,84.21 C1172.25,84.21 1172.25,169 1172.25,169 C1172.25,169 907.505,169 744.624,169 " fill="none" id="VisualizarCreditor&lt;-Usuario" style="stroke: #A80036; stroke-width: 1.0; stroke-dasharray: 7.0,7.0;"/><polygon fill="none" points="1165.25,84.21,1172.25,64.21,1179.25,84.21,1165.25,84.21" style="stroke: #A80036; stroke-width: 1.0;"/><!--MD5=[cce42819dbc21aa85aeba91aaba68e8f]
reverse link AdicionarMidiaEmListaFavorito to Usuario--><path d="M972,84.2 C972,84.2 972,155 972,155 C972,155 845.857,155 744.597,155 " fill="none" id="AdicionarMidiaEmListaFavorito&lt;-Usuario" style="stroke: #A80036; stroke-width: 1.0; stroke-dasharray: 7.0,7.0;"/><polygon fill="none" points="965,84.2,972,64.2,979,84.2,965,84.2" style="stroke: #A80036; stroke-width: 1.0;"/><!--MD5=[e7c5ca184dd4758ee42a1c866c0125b1]
reverse link ExecutarMidiaPlayer to Usuario--><path d="M398,84.14 C398,84.14 398,140 398,140 C398,140 444.768,140 495.372,140 " fill="none" id="ExecutarMidiaPlayer&lt;-Usuario" style="stroke: #A80036; stroke-width: 1.0; stroke-dasharray: 7.0,7.0;"/><polygon fill="none" points="391,84.14,398,64.14,405,84.14,391,84.14" style="stroke: #A80036; stroke-width: 1.0;"/><!--MD5=[ef03cdfb0d5005d2c65ed5eae5cc8ed6]
reverse link ComprarMidia to Usuario--><path d="M550.25,84.2 C550.25,84.2 550.25,124.95 550.25,124.95 " fill="none" id="ComprarMidia&lt;-Usuario" style="stroke: #A80036; stroke-width: 1.0; stroke-dasharray: 7.0,7.0;"/><polygon fill="none" points="543.25,84.2,550.25,64.2,557.25,84.2,543.25,84.2" style="stroke: #A80036; stroke-width: 1.0;"/><!--MD5=[123deba0891c53db7d1d39e376bf7088]
reverse link VenderMidia to Usuario--><path d="M691,84.2 C691,84.2 691,124.95 691,124.95 " fill="none" id="VenderMidia&lt;-Usuario" style="stroke: #A80036; stroke-width: 1.0; stroke-dasharray: 7.0,7.0;"/><polygon fill="none" points="684,84.2,691,64.2,698,84.2,684,84.2" style="stroke: #A80036; stroke-width: 1.0;"/><!--MD5=[33222bad3dae2c84aef1758843827c21]
reverse link DownloadMidia to Usuario--><path d="M836.25,84.14 C836.25,84.14 836.25,140 836.25,140 C836.25,140 792.611,140 744.541,140 " fill="none" id="DownloadMidia&lt;-Usuario" style="stroke: #A80036; stroke-width: 1.0; stroke-dasharray: 7.0,7.0;"/><polygon fill="none" points="829.25,84.14,836.25,64.14,843.25,84.14,829.25,84.14" style="stroke: #A80036; stroke-width: 1.0;"/><!--MD5=[0dce021752d6e04b224a6936f41e3e74]
link Administrador to Dashboard--><path d="M816,435.333 C816,435.333 816,553.71 816,553.71 " fill="none" id="Administrador-&gt;Dashboard" style="stroke: #A80036; stroke-width: 1.0;"/><polygon fill="#A80036" points="816,558.71,820,549.71,816,553.71,812,549.71,816,558.71" style="stroke: #A80036; stroke-width: 1.0;"/><text fill="#000000" font-family="sans-serif" font-size="13" lengthAdjust="spacingAndGlyphs" textLength="70" x="817" y="507.4951">«delegates»</text><!--MD5=[62559a7482221b9c937d98d355feb569]
@startuml class
skinparam linetype ortho

enum TipoAcademicoEnum <<Enum>> {
  ALUNO
  PROFESSOR
  TECNICOADM
}

enum TipoMidiaEnum <<Enum>> {
  MUSICA
  VIDEO
  PODCAST
  LIVRO
}

abstract class Usuario {
  nome
  ultimoNome
  email
  senha
  credito
  List<Midia> midiasAdquiridas
  Map<TipoMidiaEnum, List<Midia>> midiasfavoritas
  - - -
  autentica()
  adicionaCreditos()
}

class Academico {
  tipo : TipoAcademicoEnum
}

class Administrador {}

class Album {
  List<Musica> musicas
}

abstract class Midia {
  nome
  descricao
  imagem
  preco
  autores
  conteudo
  dataCriacao
  pagavel: boolean
  - - -
  visualizar()
  comprar()
  vender()
  download() 
}

abstract class MidiaPlayer {
  duracao
  executar()
}

class Dashboard { 
  acompanharVendas()
}

class Livro {
  numeroPaginas
  categorias
}

class Musica {
  categorias
}

class Video {
  categorias
}

class Podcast {
  categorias
}

Autor "1" *- - "1..*" Midia

Usuario o- - Midia

Academico *- - TipoAcademicoEnum
Usuario *- - TipoMidiaEnum

Usuario <|- - Academico
Academico <|- - Autor
Usuario <|- - Administrador

Midia <|- - Livro
Midia <|- - MidiaPlayer
MidiaPlayer <|- - Musica
MidiaPlayer <|- - Video
MidiaPlayer <|- - Podcast

Musica "1..*" - -o "0" Album

interface VisualizarMidia <<Interface>> 
interface RemoverMidia <<Interface>> 
interface RemoverAcademico <<Interface>> 
interface AtualizarMidia <<Interface>> 
interface AdicionarCredito <<Interface>> 
interface CriarAlbum <<Interface>> 
interface VisualizarAlbum <<Interface>> 

VisualizarAlbum <|.. Academico
CriarAlbum <|.. Autor
AdicionarCredito <|.. Usuario
VisualizarMidia <|.. Usuario
RemoverMidia <|.. Autor
RemoverMidia <|.. Administrador
RemoverAcademico <|.. Administrador
AtualizarMidia <|.. Autor

interface ExecutarMidiaPlayer <<Interface>> 
interface ComprarMidia <<Interface>> 
interface VenderMidia <<Interface>> 
interface DownloadMidia <<Interface>> 
interface AdicionarMidiaEmListaFavorito <<Interface>> 
interface VisualizarCreditor <<Interface>> 
interface VisualizarCreditor <<Interface>> 

VisualizarCreditor <|.. Usuario
AdicionarMidiaEmListaFavorito <|.. Usuario
ExecutarMidiaPlayer <|.. Usuario
ComprarMidia <|.. Usuario
VenderMidia <|.. Usuario
DownloadMidia <|.. Usuario

Administrador - -> Dashboard : <<delegates>>

hide Dashboard attributes
hide TipoAcademicoEnum methods
hide TipoMidiaEnum methods


@enduml

PlantUML version 1.2020.10(Sun May 17 06:35:57 GMT-03:00 2020)
(GPL source distribution)
Java Runtime: Java(TM) SE Runtime Environment
JVM: Java HotSpot(TM) 64-Bit Server VM
Java Version: 1.8.0_261-b12
Operating System: Windows 10
Default Encoding: Cp1252
Language: en
Country: US
--></g></svg>