<?xml version="1.0" encoding="UTF-8" standalone="no"?><svg xmlns="http://www.w3.org/2000/svg" xmlns:xlink="http://www.w3.org/1999/xlink" contentScriptType="application/ecmascript" contentStyleType="text/css" height="1470px" preserveAspectRatio="none" style="width:1551px;height:1470px;background:#FFFFFF;" version="1.1" viewBox="0 0 1551 1470" width="1551px" zoomAndPan="magnify"><defs><filter height="300%" id="fi9m6c8eugzg2" width="300%" x="-1" y="-1"><feGaussianBlur result="blurOut" stdDeviation="2.0"/><feColorMatrix in="blurOut" result="blurOut2" type="matrix" values="0 0 0 0 0 0 0 0 0 0 0 0 0 0 0 0 0 0 .4 0"/><feOffset dx="4.0" dy="4.0" in="blurOut2" result="blurOut3"/><feBlend in="SourceGraphic" in2="blurOut3" mode="normal"/></filter></defs><g><!--MD5=[efc5cba7aee5f5fa8719cc7ec66bdfe7]
class TipoAcademicoEnum--><rect codeLine="3" fill="#FEFECE" filter="url(#fi9m6c8eugzg2)" height="84.3516" id="TipoAcademicoEnum" style="stroke:#A80036;stroke-width:1.5;" width="157" x="225" y="620.5"/><ellipse cx="240" cy="639.4688" fill="#EB937F" rx="11" ry="11" style="stroke:#A80036;stroke-width:1.0;"/><path d="M238.7969,640.3438 L240.25,640.3438 L240.25,640.4531 C240.25,640.8594 240.2813,641.0156 240.3594,641.1719 C240.5156,641.4219 240.7969,641.5781 241.0938,641.5781 C241.3438,641.5781 241.6094,641.4375 241.7656,641.2188 C241.8906,641.0625 241.9219,640.9063 241.9219,640.4531 L241.9219,638.5313 C241.9219,638.375 241.9219,638.3281 241.9063,638.1719 C241.8438,637.7031 241.5313,637.3906 241.0781,637.3906 C240.8281,637.3906 240.5625,637.5313 240.3906,637.75 C240.2813,637.9219 240.25,638.0781 240.25,638.5313 L240.25,638.6563 L238.7969,638.6563 L238.7969,636.25 L242.7813,636.25 L242.7813,637.1094 C242.7813,637.5156 242.8125,637.6875 242.8906,637.8438 C243.0625,638.0938 243.3438,638.25 243.625,638.25 C243.8906,638.25 244.1563,638.1094 244.3281,637.8906 C244.4375,637.7188 244.4688,637.5781 244.4688,637.1094 L244.4688,634.5625 L236.8438,634.5625 C236.4063,634.5625 236.2813,634.5781 236.125,634.6719 C235.875,634.8281 235.7188,635.125 235.7188,635.4063 C235.7188,635.6875 235.8594,635.9375 236.0781,636.1094 C236.2344,636.2188 236.4219,636.25 236.8438,636.25 L237.0938,636.25 L237.0938,642.7656 L236.8438,642.7656 C236.4375,642.7656 236.2813,642.7813 236.125,642.8906 C235.875,643.0625 235.7188,643.3281 235.7188,643.625 C235.7188,643.8906 235.8594,644.1406 236.0781,644.2969 C236.2188,644.4219 236.4531,644.4688 236.8438,644.4688 L244.8438,644.4688 L244.8438,641.8906 C244.8438,641.4531 244.8125,641.3125 244.7344,641.1563 C244.5625,640.9063 244.2813,640.75 244,640.75 C243.7344,640.75 243.4688,640.8594 243.2969,641.1094 C243.1875,641.2656 243.1563,641.4063 243.1563,641.8906 L243.1563,642.7656 L238.7969,642.7656 L238.7969,640.3438 Z " fill="#000000"/><text fill="#000000" font-family="sans-serif" font-size="12" font-style="italic" lengthAdjust="spacing" textLength="50" x="291.5" y="636.6387">«Enum»</text><text fill="#000000" font-family="sans-serif" font-size="12" lengthAdjust="spacing" textLength="125" x="254" y="650.6074">TipoAcademicoEnum</text><line style="stroke:#A80036;stroke-width:1.5;" x1="226" x2="381" y1="658.4375" y2="658.4375"/><text fill="#000000" font-family="sans-serif" font-size="11" lengthAdjust="spacing" textLength="39" x="231" y="672.6479">ALUNO</text><text fill="#000000" font-family="sans-serif" font-size="11" lengthAdjust="spacing" textLength="67" x="231" y="685.4526">PROFESSOR</text><text fill="#000000" font-family="sans-serif" font-size="11" lengthAdjust="spacing" textLength="76" x="231" y="698.2573">TECNICOADM</text><!--MD5=[4c48fb15ab53eca5ffe2e9e47e01b0d6]
class TipoMidiaEnum--><rect codeLine="9" fill="#FEFECE" filter="url(#fi9m6c8eugzg2)" height="97.1563" id="TipoMidiaEnum" style="stroke:#A80036;stroke-width:1.5;" width="121" x="717" y="439"/><ellipse cx="732" cy="457.9688" fill="#EB937F" rx="11" ry="11" style="stroke:#A80036;stroke-width:1.0;"/><path d="M730.7969,458.8438 L732.25,458.8438 L732.25,458.9531 C732.25,459.3594 732.2813,459.5156 732.3594,459.6719 C732.5156,459.9219 732.7969,460.0781 733.0938,460.0781 C733.3438,460.0781 733.6094,459.9375 733.7656,459.7188 C733.8906,459.5625 733.9219,459.4063 733.9219,458.9531 L733.9219,457.0313 C733.9219,456.875 733.9219,456.8281 733.9063,456.6719 C733.8438,456.2031 733.5313,455.8906 733.0781,455.8906 C732.8281,455.8906 732.5625,456.0313 732.3906,456.25 C732.2813,456.4219 732.25,456.5781 732.25,457.0313 L732.25,457.1563 L730.7969,457.1563 L730.7969,454.75 L734.7813,454.75 L734.7813,455.6094 C734.7813,456.0156 734.8125,456.1875 734.8906,456.3438 C735.0625,456.5938 735.3438,456.75 735.625,456.75 C735.8906,456.75 736.1563,456.6094 736.3281,456.3906 C736.4375,456.2188 736.4688,456.0781 736.4688,455.6094 L736.4688,453.0625 L728.8438,453.0625 C728.4063,453.0625 728.2813,453.0781 728.125,453.1719 C727.875,453.3281 727.7188,453.625 727.7188,453.9063 C727.7188,454.1875 727.8594,454.4375 728.0781,454.6094 C728.2344,454.7188 728.4219,454.75 728.8438,454.75 L729.0938,454.75 L729.0938,461.2656 L728.8438,461.2656 C728.4375,461.2656 728.2813,461.2813 728.125,461.3906 C727.875,461.5625 727.7188,461.8281 727.7188,462.125 C727.7188,462.3906 727.8594,462.6406 728.0781,462.7969 C728.2188,462.9219 728.4531,462.9688 728.8438,462.9688 L736.8438,462.9688 L736.8438,460.3906 C736.8438,459.9531 736.8125,459.8125 736.7344,459.6563 C736.5625,459.4063 736.2813,459.25 736,459.25 C735.7344,459.25 735.4688,459.3594 735.2969,459.6094 C735.1875,459.7656 735.1563,459.9063 735.1563,460.3906 L735.1563,461.2656 L730.7969,461.2656 L730.7969,458.8438 Z " fill="#000000"/><text fill="#000000" font-family="sans-serif" font-size="12" font-style="italic" lengthAdjust="spacing" textLength="50" x="765.5" y="455.1387">«Enum»</text><text fill="#000000" font-family="sans-serif" font-size="12" lengthAdjust="spacing" textLength="89" x="746" y="469.1074">TipoMidiaEnum</text><line style="stroke:#A80036;stroke-width:1.5;" x1="718" x2="837" y1="476.9375" y2="476.9375"/><text fill="#000000" font-family="sans-serif" font-size="11" lengthAdjust="spacing" textLength="44" x="723" y="491.1479">MUSICA</text><text fill="#000000" font-family="sans-serif" font-size="11" lengthAdjust="spacing" textLength="36" x="723" y="503.9526">VIDEO</text><text fill="#000000" font-family="sans-serif" font-size="11" lengthAdjust="spacing" textLength="55" x="723" y="516.7573">PODCAST</text><text fill="#000000" font-family="sans-serif" font-size="11" lengthAdjust="spacing" textLength="33" x="723" y="529.562">LIVRO</text><!--MD5=[35a64b983c79880384a2fd9b61f0c24b]
class Usuario--><rect codeLine="16" fill="#FEFECE" filter="url(#fi9m6c8eugzg2)" height="240.0703" id="Usuario" style="stroke:#A80036;stroke-width:1.5;" width="358" x="518.5" y="122"/><ellipse cx="670.75" cy="138" fill="#A9DCDF" rx="11" ry="11" style="stroke:#A80036;stroke-width:1.0;"/><path d="M672.8281,139.8125 L673.2188,140.7969 L672.8281,140.7969 C672.375,140.7969 672.2656,140.8125 672.1094,140.9219 C671.8594,141.0781 671.7031,141.3594 671.7031,141.6563 C671.7031,141.9219 671.8438,142.1719 672.0625,142.3281 C672.2031,142.4531 672.4063,142.5 672.8281,142.5 L675.1875,142.5 C675.5469,142.5 675.7656,142.4688 675.9063,142.375 C676.1563,142.2344 676.3125,141.9375 676.3125,141.6563 C676.3125,141.375 676.1719,141.125 675.9531,140.9688 C675.7813,140.8281 675.625,140.7969 675.1563,140.7969 L671.7656,132.5938 L668.0938,132.5938 C667.6406,132.5938 667.5156,132.6094 667.3594,132.7031 C667.1094,132.875 666.9531,133.1563 666.9531,133.4375 C666.9531,133.7188 667.0938,133.9688 667.3125,134.1406 C667.4844,134.25 667.6563,134.2813 668.0938,134.2813 L669.1719,134.2813 L666.5313,140.7969 C666.1094,140.7969 665.9531,140.8125 665.7969,140.9219 C665.5469,141.0781 665.3906,141.3594 665.3906,141.6563 C665.3906,142.2188 665.7656,142.5 666.5156,142.5 L668.7813,142.5 C669.1406,142.5 669.3594,142.4688 669.4844,142.375 C669.75,142.2344 669.8906,141.9375 669.8906,141.6563 C669.8906,141.375 669.7656,141.125 669.5469,140.9531 C669.375,140.8281 669.2344,140.7969 668.7813,140.7969 L668.3906,140.7969 L668.7813,139.8125 L672.8281,139.8125 Z M672.125,138.1094 L669.4531,138.1094 L670.7969,134.8438 L672.125,138.1094 Z " fill="#000000"/><text fill="#000000" font-family="sans-serif" font-size="12" font-style="italic" lengthAdjust="spacing" textLength="45" x="691.25" y="142.1543">Usuario</text><line style="stroke:#A80036;stroke-width:1.5;" x1="519.5" x2="875.5" y1="154" y2="154"/><rect fill="none" height="6" style="stroke:#C82930;stroke-width:1.0;" width="6" x="526.5" y="162"/><text fill="#000000" font-family="sans-serif" font-size="11" lengthAdjust="spacing" textLength="77" x="538.5" y="168.2104">nome : String</text><rect fill="none" height="6" style="stroke:#C82930;stroke-width:1.0;" width="6" x="526.5" y="174.8047"/><text fill="#000000" font-family="sans-serif" font-size="11" lengthAdjust="spacing" textLength="113" x="538.5" y="181.0151">ultimoNome : String</text><rect fill="none" height="6" style="stroke:#C82930;stroke-width:1.0;" width="6" x="526.5" y="187.6094"/><text fill="#000000" font-family="sans-serif" font-size="11" lengthAdjust="spacing" textLength="76" x="538.5" y="193.8198">email : String</text><rect fill="none" height="6" style="stroke:#C82930;stroke-width:1.0;" width="6" x="526.5" y="200.4141"/><text fill="#000000" font-family="sans-serif" font-size="11" lengthAdjust="spacing" textLength="78" x="538.5" y="206.6245">senha : char[]</text><rect fill="none" height="6" style="stroke:#C82930;stroke-width:1.0;" width="6" x="526.5" y="213.2188"/><text fill="#000000" font-family="sans-serif" font-size="11" lengthAdjust="spacing" textLength="101" x="538.5" y="219.4292">credito : Currency</text><rect fill="none" height="6" style="stroke:#C82930;stroke-width:1.0;" width="6" x="526.5" y="226.0234"/><text fill="#000000" font-family="sans-serif" font-size="11" lengthAdjust="spacing" textLength="173" x="538.5" y="232.2339">midiasAdquiridas : List&lt;Midia&gt;</text><rect fill="none" height="6" style="stroke:#C82930;stroke-width:1.0;" width="6" x="526.5" y="238.8281"/><text fill="#000000" font-family="sans-serif" font-size="11" lengthAdjust="spacing" textLength="296" x="538.5" y="245.0386">midiasfavoritas : Map&lt;TipoMidiaEnum, List&lt;Midia&gt;&gt;</text><line style="stroke:#A80036;stroke-width:1.0;" x1="519.5" x2="875.5" y1="251.6328" y2="251.6328"/><ellipse cx="529.5" cy="262.6328" fill="#84BE84" rx="3" ry="3" style="stroke:#038048;stroke-width:1.0;"/><text fill="#000000" font-family="sans-serif" font-size="11" lengthAdjust="spacing" textLength="230" x="538.5" y="265.8433">visualizarMidia(Stirng nomeMidia) : Midia</text><ellipse cx="529.5" cy="275.4375" fill="#84BE84" rx="3" ry="3" style="stroke:#038048;stroke-width:1.0;"/><text fill="#000000" font-family="sans-serif" font-size="11" lengthAdjust="spacing" textLength="218" x="538.5" y="278.6479">adicionarCredito(Currency valor) : void</text><ellipse cx="529.5" cy="288.2422" fill="#84BE84" rx="3" ry="3" style="stroke:#038048;stroke-width:1.0;"/><text fill="#000000" font-family="sans-serif" font-size="11" lengthAdjust="spacing" textLength="332" x="538.5" y="291.4526">executarMidiaPlayer(String nomeMidiaPlayer) : MidiaPlayer</text><ellipse cx="529.5" cy="301.0469" fill="#84BE84" rx="3" ry="3" style="stroke:#038048;stroke-width:1.0;"/><text fill="#000000" font-family="sans-serif" font-size="11" lengthAdjust="spacing" textLength="222" x="538.5" y="304.2573">comprarMidia(Stirng nomeMidia) : Midia</text><ellipse cx="529.5" cy="313.8516" fill="#84BE84" rx="3" ry="3" style="stroke:#038048;stroke-width:1.0;"/><text fill="#000000" font-family="sans-serif" font-size="11" lengthAdjust="spacing" textLength="212" x="538.5" y="317.062">venderMidia(Stirng nomeMidia) : void</text><ellipse cx="529.5" cy="326.6563" fill="#84BE84" rx="3" ry="3" style="stroke:#038048;stroke-width:1.0;"/><text fill="#000000" font-family="sans-serif" font-size="11" lengthAdjust="spacing" textLength="225" x="538.5" y="329.8667">downloadMidia(Stirng nomeMidia) : void</text><ellipse cx="529.5" cy="339.4609" fill="#84BE84" rx="3" ry="3" style="stroke:#038048;stroke-width:1.0;"/><text fill="#000000" font-family="sans-serif" font-size="11" lengthAdjust="spacing" textLength="276" x="538.5" y="342.6714">adicionarMidiaEmListaFavorito(Midia midia) : void</text><ellipse cx="529.5" cy="352.2656" fill="#84BE84" rx="3" ry="3" style="stroke:#038048;stroke-width:1.0;"/><text fill="#000000" font-family="sans-serif" font-size="11" lengthAdjust="spacing" textLength="171" x="538.5" y="355.4761">visualizarCreditos() : Currency</text><!--MD5=[dc04dbf1821e9b6a5ff361465a379a2f]
class Academico--><rect codeLine="35" fill="#FEFECE" filter="url(#fi9m6c8eugzg2)" height="60.8047" id="Academico" style="stroke:#A80036;stroke-width:1.5;" width="177" x="296" y="457"/><ellipse cx="346.75" cy="473" fill="#ADD1B2" rx="11" ry="11" style="stroke:#A80036;stroke-width:1.0;"/><path d="M349.0938,468.6719 C348.1563,468.2344 347.5625,468.0938 346.6875,468.0938 C344.0625,468.0938 342.0625,470.1719 342.0625,472.8906 L342.0625,474.0156 C342.0625,476.5938 344.1719,478.4844 347.0625,478.4844 C348.2813,478.4844 349.4375,478.1875 350.1875,477.6406 C350.7656,477.2344 351.0938,476.7813 351.0938,476.3906 C351.0938,475.9375 350.7031,475.5469 350.2344,475.5469 C350.0156,475.5469 349.8125,475.625 349.625,475.8125 C349.1719,476.2969 349.1719,476.2969 348.9844,476.3906 C348.5625,476.6563 347.875,476.7813 347.1094,476.7813 C345.0625,476.7813 343.7656,475.6875 343.7656,473.9844 L343.7656,472.8906 C343.7656,471.1094 345.0156,469.7969 346.75,469.7969 C347.3281,469.7969 347.9375,469.9531 348.4063,470.2031 C348.8906,470.4844 349.0625,470.7031 349.1563,471.1094 C349.2188,471.5156 349.25,471.6406 349.3906,471.7656 C349.5313,471.9063 349.7656,472.0156 349.9844,472.0156 C350.25,472.0156 350.5156,471.875 350.6875,471.6563 C350.7969,471.5 350.8281,471.3125 350.8281,470.8906 L350.8281,469.4688 C350.8281,469.0313 350.8125,468.9063 350.7188,468.75 C350.5625,468.4844 350.2813,468.3438 349.9844,468.3438 C349.6875,468.3438 349.4844,468.4375 349.2656,468.75 L349.0938,468.6719 Z " fill="#000000"/><text fill="#000000" font-family="sans-serif" font-size="12" lengthAdjust="spacing" textLength="67" x="367.25" y="477.1543">Academico</text><line style="stroke:#A80036;stroke-width:1.5;" x1="297" x2="472" y1="489" y2="489"/><rect fill="none" height="6" style="stroke:#C82930;stroke-width:1.0;" width="6" x="304" y="497"/><text fill="#000000" font-family="sans-serif" font-size="11" lengthAdjust="spacing" textLength="151" x="316" y="503.2104">tipo : TipoAcademicoEnum</text><line style="stroke:#A80036;stroke-width:1.5;" x1="297" x2="472" y1="509.8047" y2="509.8047"/><!--MD5=[7b7d686d3dc2c644927357cb508758fd]
class Autor--><rect codeLine="39" fill="#FEFECE" filter="url(#fi9m6c8eugzg2)" height="99.2188" id="Autor" style="stroke:#A80036;stroke-width:1.5;" width="212" x="1158.5" y="613"/><ellipse cx="1244.25" cy="629" fill="#ADD1B2" rx="11" ry="11" style="stroke:#A80036;stroke-width:1.0;"/><path d="M1246.5938,624.6719 C1245.6563,624.2344 1245.0625,624.0938 1244.1875,624.0938 C1241.5625,624.0938 1239.5625,626.1719 1239.5625,628.8906 L1239.5625,630.0156 C1239.5625,632.5938 1241.6719,634.4844 1244.5625,634.4844 C1245.7813,634.4844 1246.9375,634.1875 1247.6875,633.6406 C1248.2656,633.2344 1248.5938,632.7813 1248.5938,632.3906 C1248.5938,631.9375 1248.2031,631.5469 1247.7344,631.5469 C1247.5156,631.5469 1247.3125,631.625 1247.125,631.8125 C1246.6719,632.2969 1246.6719,632.2969 1246.4844,632.3906 C1246.0625,632.6563 1245.375,632.7813 1244.6094,632.7813 C1242.5625,632.7813 1241.2656,631.6875 1241.2656,629.9844 L1241.2656,628.8906 C1241.2656,627.1094 1242.5156,625.7969 1244.25,625.7969 C1244.8281,625.7969 1245.4375,625.9531 1245.9063,626.2031 C1246.3906,626.4844 1246.5625,626.7031 1246.6563,627.1094 C1246.7188,627.5156 1246.75,627.6406 1246.8906,627.7656 C1247.0313,627.9063 1247.2656,628.0156 1247.4844,628.0156 C1247.75,628.0156 1248.0156,627.875 1248.1875,627.6563 C1248.2969,627.5 1248.3281,627.3125 1248.3281,626.8906 L1248.3281,625.4688 C1248.3281,625.0313 1248.3125,624.9063 1248.2188,624.75 C1248.0625,624.4844 1247.7813,624.3438 1247.4844,624.3438 C1247.1875,624.3438 1246.9844,624.4375 1246.7656,624.75 L1246.5938,624.6719 Z " fill="#000000"/><text fill="#000000" font-family="sans-serif" font-size="12" lengthAdjust="spacing" textLength="32" x="1264.75" y="633.1543">Autor</text><line style="stroke:#A80036;stroke-width:1.5;" x1="1159.5" x2="1369.5" y1="645" y2="645"/><line style="stroke:#A80036;stroke-width:1.0;" x1="1159.5" x2="1369.5" y1="653" y2="653"/><ellipse cx="1169.5" cy="664" fill="#84BE84" rx="3" ry="3" style="stroke:#038048;stroke-width:1.0;"/><text fill="#000000" font-family="sans-serif" font-size="11" lengthAdjust="spacing" textLength="101" x="1178.5" y="667.2104">criarMidia() : Midia</text><ellipse cx="1169.5" cy="676.8047" fill="#84BE84" rx="3" ry="3" style="stroke:#038048;stroke-width:1.0;"/><text fill="#000000" font-family="sans-serif" font-size="11" lengthAdjust="spacing" textLength="117" x="1178.5" y="680.0151">CriarAlbum() : Album</text><ellipse cx="1169.5" cy="689.6094" fill="#84BE84" rx="3" ry="3" style="stroke:#038048;stroke-width:1.0;"/><text fill="#000000" font-family="sans-serif" font-size="11" lengthAdjust="spacing" textLength="185" x="1178.5" y="692.8198">removerMidia(Midia midia) : void</text><ellipse cx="1169.5" cy="702.4141" fill="#84BE84" rx="3" ry="3" style="stroke:#038048;stroke-width:1.0;"/><text fill="#000000" font-family="sans-serif" font-size="11" lengthAdjust="spacing" textLength="186" x="1178.5" y="705.6245">AtualizarMidia(Midia midia) : void</text><!--MD5=[fdcda49d453d44c676d62f3f6af62207]
class Administrador--><rect codeLine="47" fill="#FEFECE" filter="url(#fi9m6c8eugzg2)" height="73.6094" id="Administrador" style="stroke:#A80036;stroke-width:1.5;" width="268" x="888.5" y="450.5"/><ellipse cx="976.25" cy="466.5" fill="#ADD1B2" rx="11" ry="11" style="stroke:#A80036;stroke-width:1.0;"/><path d="M978.5938,462.1719 C977.6563,461.7344 977.0625,461.5938 976.1875,461.5938 C973.5625,461.5938 971.5625,463.6719 971.5625,466.3906 L971.5625,467.5156 C971.5625,470.0938 973.6719,471.9844 976.5625,471.9844 C977.7813,471.9844 978.9375,471.6875 979.6875,471.1406 C980.2656,470.7344 980.5938,470.2813 980.5938,469.8906 C980.5938,469.4375 980.2031,469.0469 979.7344,469.0469 C979.5156,469.0469 979.3125,469.125 979.125,469.3125 C978.6719,469.7969 978.6719,469.7969 978.4844,469.8906 C978.0625,470.1563 977.375,470.2813 976.6094,470.2813 C974.5625,470.2813 973.2656,469.1875 973.2656,467.4844 L973.2656,466.3906 C973.2656,464.6094 974.5156,463.2969 976.25,463.2969 C976.8281,463.2969 977.4375,463.4531 977.9063,463.7031 C978.3906,463.9844 978.5625,464.2031 978.6563,464.6094 C978.7188,465.0156 978.75,465.1406 978.8906,465.2656 C979.0313,465.4063 979.2656,465.5156 979.4844,465.5156 C979.75,465.5156 980.0156,465.375 980.1875,465.1563 C980.2969,465 980.3281,464.8125 980.3281,464.3906 L980.3281,462.9688 C980.3281,462.5313 980.3125,462.4063 980.2188,462.25 C980.0625,461.9844 979.7813,461.8438 979.4844,461.8438 C979.1875,461.8438 978.9844,461.9375 978.7656,462.25 L978.5938,462.1719 Z " fill="#000000"/><text fill="#000000" font-family="sans-serif" font-size="12" lengthAdjust="spacing" textLength="84" x="996.75" y="470.6543">Administrador</text><line style="stroke:#A80036;stroke-width:1.5;" x1="889.5" x2="1155.5" y1="482.5" y2="482.5"/><line style="stroke:#A80036;stroke-width:1.0;" x1="889.5" x2="1155.5" y1="490.5" y2="490.5"/><ellipse cx="899.5" cy="501.5" fill="#84BE84" rx="3" ry="3" style="stroke:#038048;stroke-width:1.0;"/><text fill="#000000" font-family="sans-serif" font-size="11" lengthAdjust="spacing" textLength="242" x="908.5" y="504.7104">removerAcademico(Usuario usuario) : void</text><ellipse cx="899.5" cy="514.3047" fill="#84BE84" rx="3" ry="3" style="stroke:#038048;stroke-width:1.0;"/><text fill="#000000" font-family="sans-serif" font-size="11" lengthAdjust="spacing" textLength="185" x="908.5" y="517.5151">removerMidia(Midia midia) : void</text><!--MD5=[7560274dc4d8b0cfc2c0496e7291d5fc]
class Album--><rect codeLine="53" fill="#FEFECE" filter="url(#fi9m6c8eugzg2)" height="99.2188" id="Album" style="stroke:#A80036;stroke-width:1.5;" width="240" x="333.5" y="1357"/><ellipse cx="430.75" cy="1373" fill="#ADD1B2" rx="11" ry="11" style="stroke:#A80036;stroke-width:1.0;"/><path d="M433.0938,1368.6719 C432.1563,1368.2344 431.5625,1368.0938 430.6875,1368.0938 C428.0625,1368.0938 426.0625,1370.1719 426.0625,1372.8906 L426.0625,1374.0156 C426.0625,1376.5938 428.1719,1378.4844 431.0625,1378.4844 C432.2813,1378.4844 433.4375,1378.1875 434.1875,1377.6406 C434.7656,1377.2344 435.0938,1376.7813 435.0938,1376.3906 C435.0938,1375.9375 434.7031,1375.5469 434.2344,1375.5469 C434.0156,1375.5469 433.8125,1375.625 433.625,1375.8125 C433.1719,1376.2969 433.1719,1376.2969 432.9844,1376.3906 C432.5625,1376.6563 431.875,1376.7813 431.1094,1376.7813 C429.0625,1376.7813 427.7656,1375.6875 427.7656,1373.9844 L427.7656,1372.8906 C427.7656,1371.1094 429.0156,1369.7969 430.75,1369.7969 C431.3281,1369.7969 431.9375,1369.9531 432.4063,1370.2031 C432.8906,1370.4844 433.0625,1370.7031 433.1563,1371.1094 C433.2188,1371.5156 433.25,1371.6406 433.3906,1371.7656 C433.5313,1371.9063 433.7656,1372.0156 433.9844,1372.0156 C434.25,1372.0156 434.5156,1371.875 434.6875,1371.6563 C434.7969,1371.5 434.8281,1371.3125 434.8281,1370.8906 L434.8281,1369.4688 C434.8281,1369.0313 434.8125,1368.9063 434.7188,1368.75 C434.5625,1368.4844 434.2813,1368.3438 433.9844,1368.3438 C433.6875,1368.3438 433.4844,1368.4375 433.2656,1368.75 L433.0938,1368.6719 Z " fill="#000000"/><text fill="#000000" font-family="sans-serif" font-size="12" lengthAdjust="spacing" textLength="37" x="451.25" y="1377.1543">Album</text><line style="stroke:#A80036;stroke-width:1.5;" x1="334.5" x2="572.5" y1="1389" y2="1389"/><rect fill="none" height="6" style="stroke:#C82930;stroke-width:1.0;" width="6" x="341.5" y="1397"/><text fill="#000000" font-family="sans-serif" font-size="11" lengthAdjust="spacing" textLength="132" x="353.5" y="1403.2104">musicas : List&lt;Musica&gt;</text><line style="stroke:#A80036;stroke-width:1.0;" x1="334.5" x2="572.5" y1="1409.8047" y2="1409.8047"/><ellipse cx="344.5" cy="1420.8047" fill="#84BE84" rx="3" ry="3" style="stroke:#038048;stroke-width:1.0;"/><text fill="#000000" font-family="sans-serif" font-size="11" lengthAdjust="spacing" textLength="214" x="353.5" y="1424.0151">adicionarMusica(Musica musica) : void</text><ellipse cx="344.5" cy="1433.6094" fill="#84BE84" rx="3" ry="3" style="stroke:#038048;stroke-width:1.0;"/><text fill="#000000" font-family="sans-serif" font-size="11" lengthAdjust="spacing" textLength="212" x="353.5" y="1436.8198">removerMusica(Musica musica) : void</text><ellipse cx="344.5" cy="1446.4141" fill="#84BE84" rx="3" ry="3" style="stroke:#038048;stroke-width:1.0;"/><text fill="#000000" font-family="sans-serif" font-size="11" lengthAdjust="spacing" textLength="170" x="353.5" y="1449.6245">exibirMusicas() : List&lt;Musica&gt;</text><!--MD5=[17f253dd83c370255a059fc7ad56c447]
class Midia--><rect codeLine="61" fill="#FEFECE" filter="url(#fi9m6c8eugzg2)" height="201.6563" id="Midia" style="stroke:#A80036;stroke-width:1.5;" width="147" x="743" y="789"/><ellipse cx="796.75" cy="805" fill="#A9DCDF" rx="11" ry="11" style="stroke:#A80036;stroke-width:1.0;"/><path d="M798.8281,806.8125 L799.2188,807.7969 L798.8281,807.7969 C798.375,807.7969 798.2656,807.8125 798.1094,807.9219 C797.8594,808.0781 797.7031,808.3594 797.7031,808.6563 C797.7031,808.9219 797.8438,809.1719 798.0625,809.3281 C798.2031,809.4531 798.4063,809.5 798.8281,809.5 L801.1875,809.5 C801.5469,809.5 801.7656,809.4688 801.9063,809.375 C802.1563,809.2344 802.3125,808.9375 802.3125,808.6563 C802.3125,808.375 802.1719,808.125 801.9531,807.9688 C801.7813,807.8281 801.625,807.7969 801.1563,807.7969 L797.7656,799.5938 L794.0938,799.5938 C793.6406,799.5938 793.5156,799.6094 793.3594,799.7031 C793.1094,799.875 792.9531,800.1563 792.9531,800.4375 C792.9531,800.7188 793.0938,800.9688 793.3125,801.1406 C793.4844,801.25 793.6563,801.2813 794.0938,801.2813 L795.1719,801.2813 L792.5313,807.7969 C792.1094,807.7969 791.9531,807.8125 791.7969,807.9219 C791.5469,808.0781 791.3906,808.3594 791.3906,808.6563 C791.3906,809.2188 791.7656,809.5 792.5156,809.5 L794.7813,809.5 C795.1406,809.5 795.3594,809.4688 795.4844,809.375 C795.75,809.2344 795.8906,808.9375 795.8906,808.6563 C795.8906,808.375 795.7656,808.125 795.5469,807.9531 C795.375,807.8281 795.2344,807.7969 794.7813,807.7969 L794.3906,807.7969 L794.7813,806.8125 L798.8281,806.8125 Z M798.125,805.1094 L795.4531,805.1094 L796.7969,801.8438 L798.125,805.1094 Z " fill="#000000"/><text fill="#000000" font-family="sans-serif" font-size="12" font-style="italic" lengthAdjust="spacing" textLength="31" x="817.25" y="809.1543">Midia</text><line style="stroke:#A80036;stroke-width:1.5;" x1="744" x2="889" y1="821" y2="821"/><rect fill="none" height="6" style="stroke:#C82930;stroke-width:1.0;" width="6" x="751" y="829"/><text fill="#000000" font-family="sans-serif" font-size="11" lengthAdjust="spacing" textLength="77" x="763" y="835.2104">nome : String</text><rect fill="none" height="6" style="stroke:#C82930;stroke-width:1.0;" width="6" x="751" y="841.8047"/><text fill="#000000" font-family="sans-serif" font-size="11" lengthAdjust="spacing" textLength="98" x="763" y="848.0151">descricao : String</text><rect fill="none" height="6" style="stroke:#C82930;stroke-width:1.0;" width="6" x="751" y="854.6094"/><text fill="#000000" font-family="sans-serif" font-size="11" lengthAdjust="spacing" textLength="92" x="763" y="860.8198">imagem : byte[]</text><rect fill="none" height="6" style="stroke:#C82930;stroke-width:1.0;" width="6" x="751" y="867.4141"/><text fill="#000000" font-family="sans-serif" font-size="11" lengthAdjust="spacing" textLength="94" x="763" y="873.6245">preco : Currency</text><rect fill="none" height="6" style="stroke:#C82930;stroke-width:1.0;" width="6" x="751" y="880.2188"/><text fill="#000000" font-family="sans-serif" font-size="11" lengthAdjust="spacing" textLength="121" x="763" y="886.4292">autores : List&lt;Autor&gt;</text><rect fill="none" height="6" style="stroke:#C82930;stroke-width:1.0;" width="6" x="751" y="893.0234"/><text fill="#000000" font-family="sans-serif" font-size="11" lengthAdjust="spacing" textLength="98" x="763" y="899.2339">conteudo : byte[]</text><rect fill="none" height="6" style="stroke:#C82930;stroke-width:1.0;" width="6" x="751" y="905.8281"/><text fill="#000000" font-family="sans-serif" font-size="11" lengthAdjust="spacing" textLength="106" x="763" y="912.0386">dataCriacao : Date</text><rect fill="none" height="6" style="stroke:#C82930;stroke-width:1.0;" width="6" x="751" y="918.6328"/><text fill="#000000" font-family="sans-serif" font-size="11" lengthAdjust="spacing" textLength="99" x="763" y="924.8433">pagavel: boolean</text><line style="stroke:#A80036;stroke-width:1.0;" x1="744" x2="889" y1="931.4375" y2="931.4375"/><ellipse cx="754" cy="942.4375" fill="#84BE84" rx="3" ry="3" style="stroke:#038048;stroke-width:1.0;"/><text fill="#000000" font-family="sans-serif" font-size="11" lengthAdjust="spacing" textLength="97" x="763" y="945.6479">visualizar() : void</text><ellipse cx="754" cy="955.2422" fill="#84BE84" rx="3" ry="3" style="stroke:#038048;stroke-width:1.0;"/><text fill="#000000" font-family="sans-serif" font-size="11" lengthAdjust="spacing" textLength="89" x="763" y="958.4526">comprar() : void</text><ellipse cx="754" cy="968.0469" fill="#84BE84" rx="3" ry="3" style="stroke:#038048;stroke-width:1.0;"/><text fill="#000000" font-family="sans-serif" font-size="11" lengthAdjust="spacing" textLength="84" x="763" y="971.2573">vender() : void</text><ellipse cx="754" cy="980.8516" fill="#84BE84" rx="3" ry="3" style="stroke:#038048;stroke-width:1.0;"/><text fill="#000000" font-family="sans-serif" font-size="11" lengthAdjust="spacing" textLength="102" x="763" y="984.062">download() : Midia</text><!--MD5=[fbbb13a747cf4d9626dbd92a2c7c5b05]
class MidiaPlayer--><rect codeLine="77" fill="#FEFECE" filter="url(#fi9m6c8eugzg2)" height="73.6094" id="MidiaPlayer" style="stroke:#A80036;stroke-width:1.5;" width="140" x="599.5" y="1068"/><ellipse cx="632.95" cy="1084" fill="#A9DCDF" rx="11" ry="11" style="stroke:#A80036;stroke-width:1.0;"/><path d="M635.0281,1085.8125 L635.4188,1086.7969 L635.0281,1086.7969 C634.575,1086.7969 634.4656,1086.8125 634.3094,1086.9219 C634.0594,1087.0781 633.9031,1087.3594 633.9031,1087.6563 C633.9031,1087.9219 634.0438,1088.1719 634.2625,1088.3281 C634.4031,1088.4531 634.6063,1088.5 635.0281,1088.5 L637.3875,1088.5 C637.7469,1088.5 637.9656,1088.4688 638.1063,1088.375 C638.3563,1088.2344 638.5125,1087.9375 638.5125,1087.6563 C638.5125,1087.375 638.3719,1087.125 638.1531,1086.9688 C637.9813,1086.8281 637.825,1086.7969 637.3563,1086.7969 L633.9656,1078.5938 L630.2938,1078.5938 C629.8406,1078.5938 629.7156,1078.6094 629.5594,1078.7031 C629.3094,1078.875 629.1531,1079.1563 629.1531,1079.4375 C629.1531,1079.7188 629.2938,1079.9688 629.5125,1080.1406 C629.6844,1080.25 629.8563,1080.2813 630.2938,1080.2813 L631.3719,1080.2813 L628.7313,1086.7969 C628.3094,1086.7969 628.1531,1086.8125 627.9969,1086.9219 C627.7469,1087.0781 627.5906,1087.3594 627.5906,1087.6563 C627.5906,1088.2188 627.9656,1088.5 628.7156,1088.5 L630.9813,1088.5 C631.3406,1088.5 631.5594,1088.4688 631.6844,1088.375 C631.95,1088.2344 632.0906,1087.9375 632.0906,1087.6563 C632.0906,1087.375 631.9656,1087.125 631.7469,1086.9531 C631.575,1086.8281 631.4344,1086.7969 630.9813,1086.7969 L630.5906,1086.7969 L630.9813,1085.8125 L635.0281,1085.8125 Z M634.325,1084.1094 L631.6531,1084.1094 L632.9969,1080.8438 L634.325,1084.1094 Z " fill="#000000"/><text fill="#000000" font-family="sans-serif" font-size="12" font-style="italic" lengthAdjust="spacing" textLength="67" x="651.05" y="1088.1543">MidiaPlayer</text><line style="stroke:#A80036;stroke-width:1.5;" x1="600.5" x2="738.5" y1="1100" y2="1100"/><rect fill="none" height="6" style="stroke:#C82930;stroke-width:1.0;" width="6" x="607.5" y="1108"/><text fill="#000000" font-family="sans-serif" font-size="11" lengthAdjust="spacing" textLength="114" x="619.5" y="1114.2104">duracao : LocalTime</text><line style="stroke:#A80036;stroke-width:1.0;" x1="600.5" x2="738.5" y1="1120.8047" y2="1120.8047"/><ellipse cx="610.5" cy="1131.8047" fill="#84BE84" rx="3" ry="3" style="stroke:#038048;stroke-width:1.0;"/><text fill="#000000" font-family="sans-serif" font-size="11" lengthAdjust="spacing" textLength="94" x="619.5" y="1135.0151">executar() : void</text><!--MD5=[055ae584e8f48d8fc3c3de49aadf0637]
class Dashboard--><rect codeLine="83" fill="#FEFECE" filter="url(#fi9m6c8eugzg2)" height="60.8047" id="Dashboard" style="stroke:#A80036;stroke-width:1.5;" width="162" x="941.5" y="632"/><ellipse cx="985.3" cy="648" fill="#ADD1B2" rx="11" ry="11" style="stroke:#A80036;stroke-width:1.0;"/><path d="M987.6438,643.6719 C986.7063,643.2344 986.1125,643.0938 985.2375,643.0938 C982.6125,643.0938 980.6125,645.1719 980.6125,647.8906 L980.6125,649.0156 C980.6125,651.5938 982.7219,653.4844 985.6125,653.4844 C986.8313,653.4844 987.9875,653.1875 988.7375,652.6406 C989.3156,652.2344 989.6438,651.7813 989.6438,651.3906 C989.6438,650.9375 989.2531,650.5469 988.7844,650.5469 C988.5656,650.5469 988.3625,650.625 988.175,650.8125 C987.7219,651.2969 987.7219,651.2969 987.5344,651.3906 C987.1125,651.6563 986.425,651.7813 985.6594,651.7813 C983.6125,651.7813 982.3156,650.6875 982.3156,648.9844 L982.3156,647.8906 C982.3156,646.1094 983.5656,644.7969 985.3,644.7969 C985.8781,644.7969 986.4875,644.9531 986.9563,645.2031 C987.4406,645.4844 987.6125,645.7031 987.7063,646.1094 C987.7688,646.5156 987.8,646.6406 987.9406,646.7656 C988.0813,646.9063 988.3156,647.0156 988.5344,647.0156 C988.8,647.0156 989.0656,646.875 989.2375,646.6563 C989.3469,646.5 989.3781,646.3125 989.3781,645.8906 L989.3781,644.4688 C989.3781,644.0313 989.3625,643.9063 989.2688,643.75 C989.1125,643.4844 988.8313,643.3438 988.5344,643.3438 C988.2375,643.3438 988.0344,643.4375 987.8156,643.75 L987.6438,643.6719 Z " fill="#000000"/><text fill="#000000" font-family="sans-serif" font-size="12" lengthAdjust="spacing" textLength="66" x="1005.7" y="652.1543">Dashboard</text><line style="stroke:#A80036;stroke-width:1.5;" x1="942.5" x2="1102.5" y1="664" y2="664"/><line style="stroke:#A80036;stroke-width:1.0;" x1="942.5" x2="1102.5" y1="672" y2="672"/><ellipse cx="952.5" cy="683" fill="#84BE84" rx="3" ry="3" style="stroke:#038048;stroke-width:1.0;"/><text fill="#000000" font-family="sans-serif" font-size="11" lengthAdjust="spacing" textLength="136" x="961.5" y="686.2104">visualizarVendas(): void</text><!--MD5=[f45ed34e1fd2d44e62b0a8e0606f603d]
class Livro--><rect codeLine="88" fill="#FEFECE" filter="url(#fi9m6c8eugzg2)" height="73.6094" id="Livro" style="stroke:#A80036;stroke-width:1.5;" width="166" x="789.5" y="1068"/><ellipse cx="853.75" cy="1084" fill="#ADD1B2" rx="11" ry="11" style="stroke:#A80036;stroke-width:1.0;"/><path d="M856.0938,1079.6719 C855.1563,1079.2344 854.5625,1079.0938 853.6875,1079.0938 C851.0625,1079.0938 849.0625,1081.1719 849.0625,1083.8906 L849.0625,1085.0156 C849.0625,1087.5938 851.1719,1089.4844 854.0625,1089.4844 C855.2813,1089.4844 856.4375,1089.1875 857.1875,1088.6406 C857.7656,1088.2344 858.0938,1087.7813 858.0938,1087.3906 C858.0938,1086.9375 857.7031,1086.5469 857.2344,1086.5469 C857.0156,1086.5469 856.8125,1086.625 856.625,1086.8125 C856.1719,1087.2969 856.1719,1087.2969 855.9844,1087.3906 C855.5625,1087.6563 854.875,1087.7813 854.1094,1087.7813 C852.0625,1087.7813 850.7656,1086.6875 850.7656,1084.9844 L850.7656,1083.8906 C850.7656,1082.1094 852.0156,1080.7969 853.75,1080.7969 C854.3281,1080.7969 854.9375,1080.9531 855.4063,1081.2031 C855.8906,1081.4844 856.0625,1081.7031 856.1563,1082.1094 C856.2188,1082.5156 856.25,1082.6406 856.3906,1082.7656 C856.5313,1082.9063 856.7656,1083.0156 856.9844,1083.0156 C857.25,1083.0156 857.5156,1082.875 857.6875,1082.6563 C857.7969,1082.5 857.8281,1082.3125 857.8281,1081.8906 L857.8281,1080.4688 C857.8281,1080.0313 857.8125,1079.9063 857.7188,1079.75 C857.5625,1079.4844 857.2813,1079.3438 856.9844,1079.3438 C856.6875,1079.3438 856.4844,1079.4375 856.2656,1079.75 L856.0938,1079.6719 Z " fill="#000000"/><text fill="#000000" font-family="sans-serif" font-size="12" lengthAdjust="spacing" textLength="29" x="874.25" y="1088.1543">Livro</text><line style="stroke:#A80036;stroke-width:1.5;" x1="790.5" x2="954.5" y1="1100" y2="1100"/><rect fill="none" height="6" style="stroke:#C82930;stroke-width:1.0;" width="6" x="797.5" y="1108"/><text fill="#000000" font-family="sans-serif" font-size="11" lengthAdjust="spacing" textLength="112" x="809.5" y="1114.2104">numeroPaginas : Int</text><rect fill="none" height="6" style="stroke:#C82930;stroke-width:1.0;" width="6" x="797.5" y="1120.8047"/><text fill="#000000" font-family="sans-serif" font-size="11" lengthAdjust="spacing" textLength="140" x="809.5" y="1127.0151">categorias : List&lt;String&gt;</text><line style="stroke:#A80036;stroke-width:1.5;" x1="790.5" x2="954.5" y1="1133.6094" y2="1133.6094"/><!--MD5=[2927a630b13e88512b2d3b16c23c7e23]
class Musica--><rect codeLine="93" fill="#FEFECE" filter="url(#fi9m6c8eugzg2)" height="60.8047" id="Musica" style="stroke:#A80036;stroke-width:1.5;" width="166" x="370.5" y="1219"/><ellipse cx="428.75" cy="1235" fill="#ADD1B2" rx="11" ry="11" style="stroke:#A80036;stroke-width:1.0;"/><path d="M431.0938,1230.6719 C430.1563,1230.2344 429.5625,1230.0938 428.6875,1230.0938 C426.0625,1230.0938 424.0625,1232.1719 424.0625,1234.8906 L424.0625,1236.0156 C424.0625,1238.5938 426.1719,1240.4844 429.0625,1240.4844 C430.2813,1240.4844 431.4375,1240.1875 432.1875,1239.6406 C432.7656,1239.2344 433.0938,1238.7813 433.0938,1238.3906 C433.0938,1237.9375 432.7031,1237.5469 432.2344,1237.5469 C432.0156,1237.5469 431.8125,1237.625 431.625,1237.8125 C431.1719,1238.2969 431.1719,1238.2969 430.9844,1238.3906 C430.5625,1238.6563 429.875,1238.7813 429.1094,1238.7813 C427.0625,1238.7813 425.7656,1237.6875 425.7656,1235.9844 L425.7656,1234.8906 C425.7656,1233.1094 427.0156,1231.7969 428.75,1231.7969 C429.3281,1231.7969 429.9375,1231.9531 430.4063,1232.2031 C430.8906,1232.4844 431.0625,1232.7031 431.1563,1233.1094 C431.2188,1233.5156 431.25,1233.6406 431.3906,1233.7656 C431.5313,1233.9063 431.7656,1234.0156 431.9844,1234.0156 C432.25,1234.0156 432.5156,1233.875 432.6875,1233.6563 C432.7969,1233.5 432.8281,1233.3125 432.8281,1232.8906 L432.8281,1231.4688 C432.8281,1231.0313 432.8125,1230.9063 432.7188,1230.75 C432.5625,1230.4844 432.2813,1230.3438 431.9844,1230.3438 C431.6875,1230.3438 431.4844,1230.4375 431.2656,1230.75 L431.0938,1230.6719 Z " fill="#000000"/><text fill="#000000" font-family="sans-serif" font-size="12" lengthAdjust="spacing" textLength="41" x="449.25" y="1239.1543">Musica</text><line style="stroke:#A80036;stroke-width:1.5;" x1="371.5" x2="535.5" y1="1251" y2="1251"/><rect fill="none" height="6" style="stroke:#C82930;stroke-width:1.0;" width="6" x="378.5" y="1259"/><text fill="#000000" font-family="sans-serif" font-size="11" lengthAdjust="spacing" textLength="140" x="390.5" y="1265.2104">categorias : List&lt;String&gt;</text><line style="stroke:#A80036;stroke-width:1.5;" x1="371.5" x2="535.5" y1="1271.8047" y2="1271.8047"/><!--MD5=[166247bf81aba95c770c3b8fd8e3cb19]
class Video--><rect codeLine="97" fill="#FEFECE" filter="url(#fi9m6c8eugzg2)" height="60.8047" id="Video" style="stroke:#A80036;stroke-width:1.5;" width="166" x="586.5" y="1219"/><ellipse cx="647.75" cy="1235" fill="#ADD1B2" rx="11" ry="11" style="stroke:#A80036;stroke-width:1.0;"/><path d="M650.0938,1230.6719 C649.1563,1230.2344 648.5625,1230.0938 647.6875,1230.0938 C645.0625,1230.0938 643.0625,1232.1719 643.0625,1234.8906 L643.0625,1236.0156 C643.0625,1238.5938 645.1719,1240.4844 648.0625,1240.4844 C649.2813,1240.4844 650.4375,1240.1875 651.1875,1239.6406 C651.7656,1239.2344 652.0938,1238.7813 652.0938,1238.3906 C652.0938,1237.9375 651.7031,1237.5469 651.2344,1237.5469 C651.0156,1237.5469 650.8125,1237.625 650.625,1237.8125 C650.1719,1238.2969 650.1719,1238.2969 649.9844,1238.3906 C649.5625,1238.6563 648.875,1238.7813 648.1094,1238.7813 C646.0625,1238.7813 644.7656,1237.6875 644.7656,1235.9844 L644.7656,1234.8906 C644.7656,1233.1094 646.0156,1231.7969 647.75,1231.7969 C648.3281,1231.7969 648.9375,1231.9531 649.4063,1232.2031 C649.8906,1232.4844 650.0625,1232.7031 650.1563,1233.1094 C650.2188,1233.5156 650.25,1233.6406 650.3906,1233.7656 C650.5313,1233.9063 650.7656,1234.0156 650.9844,1234.0156 C651.25,1234.0156 651.5156,1233.875 651.6875,1233.6563 C651.7969,1233.5 651.8281,1233.3125 651.8281,1232.8906 L651.8281,1231.4688 C651.8281,1231.0313 651.8125,1230.9063 651.7188,1230.75 C651.5625,1230.4844 651.2813,1230.3438 650.9844,1230.3438 C650.6875,1230.3438 650.4844,1230.4375 650.2656,1230.75 L650.0938,1230.6719 Z " fill="#000000"/><text fill="#000000" font-family="sans-serif" font-size="12" lengthAdjust="spacing" textLength="35" x="668.25" y="1239.1543">Video</text><line style="stroke:#A80036;stroke-width:1.5;" x1="587.5" x2="751.5" y1="1251" y2="1251"/><rect fill="none" height="6" style="stroke:#C82930;stroke-width:1.0;" width="6" x="594.5" y="1259"/><text fill="#000000" font-family="sans-serif" font-size="11" lengthAdjust="spacing" textLength="140" x="606.5" y="1265.2104">categorias : List&lt;String&gt;</text><line style="stroke:#A80036;stroke-width:1.5;" x1="587.5" x2="751.5" y1="1271.8047" y2="1271.8047"/><!--MD5=[148499297b6f36812855c8d7dd33a717]
class Podcast--><rect codeLine="101" fill="#FEFECE" filter="url(#fi9m6c8eugzg2)" height="60.8047" id="Podcast" style="stroke:#A80036;stroke-width:1.5;" width="166" x="802.5" y="1219"/><ellipse cx="857.75" cy="1235" fill="#ADD1B2" rx="11" ry="11" style="stroke:#A80036;stroke-width:1.0;"/><path d="M860.0938,1230.6719 C859.1563,1230.2344 858.5625,1230.0938 857.6875,1230.0938 C855.0625,1230.0938 853.0625,1232.1719 853.0625,1234.8906 L853.0625,1236.0156 C853.0625,1238.5938 855.1719,1240.4844 858.0625,1240.4844 C859.2813,1240.4844 860.4375,1240.1875 861.1875,1239.6406 C861.7656,1239.2344 862.0938,1238.7813 862.0938,1238.3906 C862.0938,1237.9375 861.7031,1237.5469 861.2344,1237.5469 C861.0156,1237.5469 860.8125,1237.625 860.625,1237.8125 C860.1719,1238.2969 860.1719,1238.2969 859.9844,1238.3906 C859.5625,1238.6563 858.875,1238.7813 858.1094,1238.7813 C856.0625,1238.7813 854.7656,1237.6875 854.7656,1235.9844 L854.7656,1234.8906 C854.7656,1233.1094 856.0156,1231.7969 857.75,1231.7969 C858.3281,1231.7969 858.9375,1231.9531 859.4063,1232.2031 C859.8906,1232.4844 860.0625,1232.7031 860.1563,1233.1094 C860.2188,1233.5156 860.25,1233.6406 860.3906,1233.7656 C860.5313,1233.9063 860.7656,1234.0156 860.9844,1234.0156 C861.25,1234.0156 861.5156,1233.875 861.6875,1233.6563 C861.7969,1233.5 861.8281,1233.3125 861.8281,1232.8906 L861.8281,1231.4688 C861.8281,1231.0313 861.8125,1230.9063 861.7188,1230.75 C861.5625,1230.4844 861.2813,1230.3438 860.9844,1230.3438 C860.6875,1230.3438 860.4844,1230.4375 860.2656,1230.75 L860.0938,1230.6719 Z " fill="#000000"/><text fill="#000000" font-family="sans-serif" font-size="12" lengthAdjust="spacing" textLength="47" x="878.25" y="1239.1543">Podcast</text><line style="stroke:#A80036;stroke-width:1.5;" x1="803.5" x2="967.5" y1="1251" y2="1251"/><rect fill="none" height="6" style="stroke:#C82930;stroke-width:1.0;" width="6" x="810.5" y="1259"/><text fill="#000000" font-family="sans-serif" font-size="11" lengthAdjust="spacing" textLength="140" x="822.5" y="1265.2104">categorias : List&lt;String&gt;</text><line style="stroke:#A80036;stroke-width:1.5;" x1="803.5" x2="967.5" y1="1271.8047" y2="1271.8047"/><!--MD5=[8e9e303d7ff1f3a3dcedda7eeca45588]
class VisualizarMidia--><rect codeLine="124" fill="#FEFECE" filter="url(#fi9m6c8eugzg2)" height="53.9375" id="VisualizarMidia" style="stroke:#A80036;stroke-width:1.5;" width="119" x="7" y="7"/><ellipse cx="22" cy="25.9688" fill="#B4A7E5" rx="11" ry="11" style="stroke:#A80036;stroke-width:1.0;"/><path d="M22.9531,22.75 L24.6719,22.75 C25.0625,22.75 25.25,22.7188 25.375,22.6406 C25.6406,22.4844 25.7813,22.2031 25.7813,21.9063 C25.7813,21.6406 25.6719,21.375 25.4375,21.2031 C25.2656,21.0938 25.125,21.0625 24.6719,21.0625 L19.5313,21.0625 C19.0938,21.0625 18.9688,21.0781 18.8125,21.1719 C18.5625,21.3281 18.4063,21.625 18.4063,21.9063 C18.4063,22.1875 18.5469,22.4375 18.7656,22.6094 C18.9219,22.7188 19.1094,22.75 19.5313,22.75 L21.25,22.75 L21.25,29.2656 L19.5313,29.2656 C19.0938,29.2656 18.9688,29.2813 18.8125,29.3906 C18.5625,29.5469 18.4063,29.8281 18.4063,30.125 C18.4063,30.375 18.5469,30.6406 18.7656,30.7969 C18.9219,30.9219 19.125,30.9688 19.5313,30.9688 L24.6719,30.9688 C25.4219,30.9688 25.7813,30.6875 25.7813,30.125 C25.7813,29.8438 25.6719,29.5938 25.4375,29.4219 C25.2656,29.2969 25.125,29.2656 24.6719,29.2656 L22.9531,29.2656 L22.9531,22.75 Z " fill="#000000"/><text fill="#000000" font-family="sans-serif" font-size="12" font-style="italic" lengthAdjust="spacing" textLength="68" x="45.5" y="23.1387">«Interface»</text><text fill="#000000" font-family="sans-serif" font-size="12" font-style="italic" lengthAdjust="spacing" textLength="87" x="36" y="37.1074">VisualizarMidia</text><line style="stroke:#A80036;stroke-width:1.5;" x1="8" x2="125" y1="44.9375" y2="44.9375"/><line style="stroke:#A80036;stroke-width:1.5;" x1="8" x2="125" y1="52.9375" y2="52.9375"/><!--MD5=[69e63c8801ad5c0986bc7f3f77b25913]
class RemoverMidia--><rect codeLine="125" fill="#FEFECE" filter="url(#fi9m6c8eugzg2)" height="53.9375" id="RemoverMidia" style="stroke:#A80036;stroke-width:1.5;" width="116" x="1358.5" y="215"/><ellipse cx="1373.5" cy="233.9688" fill="#B4A7E5" rx="11" ry="11" style="stroke:#A80036;stroke-width:1.0;"/><path d="M1374.4531,230.75 L1376.1719,230.75 C1376.5625,230.75 1376.75,230.7188 1376.875,230.6406 C1377.1406,230.4844 1377.2813,230.2031 1377.2813,229.9063 C1377.2813,229.6406 1377.1719,229.375 1376.9375,229.2031 C1376.7656,229.0938 1376.625,229.0625 1376.1719,229.0625 L1371.0313,229.0625 C1370.5938,229.0625 1370.4688,229.0781 1370.3125,229.1719 C1370.0625,229.3281 1369.9063,229.625 1369.9063,229.9063 C1369.9063,230.1875 1370.0469,230.4375 1370.2656,230.6094 C1370.4219,230.7188 1370.6094,230.75 1371.0313,230.75 L1372.75,230.75 L1372.75,237.2656 L1371.0313,237.2656 C1370.5938,237.2656 1370.4688,237.2813 1370.3125,237.3906 C1370.0625,237.5469 1369.9063,237.8281 1369.9063,238.125 C1369.9063,238.375 1370.0469,238.6406 1370.2656,238.7969 C1370.4219,238.9219 1370.625,238.9688 1371.0313,238.9688 L1376.1719,238.9688 C1376.9219,238.9688 1377.2813,238.6875 1377.2813,238.125 C1377.2813,237.8438 1377.1719,237.5938 1376.9375,237.4219 C1376.7656,237.2969 1376.625,237.2656 1376.1719,237.2656 L1374.4531,237.2656 L1374.4531,230.75 Z " fill="#000000"/><text fill="#000000" font-family="sans-serif" font-size="12" font-style="italic" lengthAdjust="spacing" textLength="68" x="1395.5" y="231.1387">«Interface»</text><text fill="#000000" font-family="sans-serif" font-size="12" font-style="italic" lengthAdjust="spacing" textLength="84" x="1387.5" y="245.1074">RemoverMidia</text><line style="stroke:#A80036;stroke-width:1.5;" x1="1359.5" x2="1473.5" y1="252.9375" y2="252.9375"/><line style="stroke:#A80036;stroke-width:1.5;" x1="1359.5" x2="1473.5" y1="260.9375" y2="260.9375"/><!--MD5=[76676120570798196cdd558cb923afaf]
class RemoverAcademico--><rect codeLine="126" fill="#FEFECE" filter="url(#fi9m6c8eugzg2)" height="53.9375" id="RemoverAcademico" style="stroke:#A80036;stroke-width:1.5;" width="151" x="947" y="215"/><ellipse cx="962" cy="233.9688" fill="#B4A7E5" rx="11" ry="11" style="stroke:#A80036;stroke-width:1.0;"/><path d="M962.9531,230.75 L964.6719,230.75 C965.0625,230.75 965.25,230.7188 965.375,230.6406 C965.6406,230.4844 965.7813,230.2031 965.7813,229.9063 C965.7813,229.6406 965.6719,229.375 965.4375,229.2031 C965.2656,229.0938 965.125,229.0625 964.6719,229.0625 L959.5313,229.0625 C959.0938,229.0625 958.9688,229.0781 958.8125,229.1719 C958.5625,229.3281 958.4063,229.625 958.4063,229.9063 C958.4063,230.1875 958.5469,230.4375 958.7656,230.6094 C958.9219,230.7188 959.1094,230.75 959.5313,230.75 L961.25,230.75 L961.25,237.2656 L959.5313,237.2656 C959.0938,237.2656 958.9688,237.2813 958.8125,237.3906 C958.5625,237.5469 958.4063,237.8281 958.4063,238.125 C958.4063,238.375 958.5469,238.6406 958.7656,238.7969 C958.9219,238.9219 959.125,238.9688 959.5313,238.9688 L964.6719,238.9688 C965.4219,238.9688 965.7813,238.6875 965.7813,238.125 C965.7813,237.8438 965.6719,237.5938 965.4375,237.4219 C965.2656,237.2969 965.125,237.2656 964.6719,237.2656 L962.9531,237.2656 L962.9531,230.75 Z " fill="#000000"/><text fill="#000000" font-family="sans-serif" font-size="12" font-style="italic" lengthAdjust="spacing" textLength="68" x="1001.5" y="231.1387">«Interface»</text><text fill="#000000" font-family="sans-serif" font-size="12" font-style="italic" lengthAdjust="spacing" textLength="119" x="976" y="245.1074">RemoverAcademico</text><line style="stroke:#A80036;stroke-width:1.5;" x1="948" x2="1097" y1="252.9375" y2="252.9375"/><line style="stroke:#A80036;stroke-width:1.5;" x1="948" x2="1097" y1="260.9375" y2="260.9375"/><!--MD5=[5191232be2d92ca88cf7876f2dc54394]
class AtualizarMidia--><rect codeLine="127" fill="#FEFECE" filter="url(#fi9m6c8eugzg2)" height="53.9375" id="AtualizarMidia" style="stroke:#A80036;stroke-width:1.5;" width="115" x="1207" y="460.5"/><ellipse cx="1222" cy="479.4688" fill="#B4A7E5" rx="11" ry="11" style="stroke:#A80036;stroke-width:1.0;"/><path d="M1222.9531,476.25 L1224.6719,476.25 C1225.0625,476.25 1225.25,476.2188 1225.375,476.1406 C1225.6406,475.9844 1225.7813,475.7031 1225.7813,475.4063 C1225.7813,475.1406 1225.6719,474.875 1225.4375,474.7031 C1225.2656,474.5938 1225.125,474.5625 1224.6719,474.5625 L1219.5313,474.5625 C1219.0938,474.5625 1218.9688,474.5781 1218.8125,474.6719 C1218.5625,474.8281 1218.4063,475.125 1218.4063,475.4063 C1218.4063,475.6875 1218.5469,475.9375 1218.7656,476.1094 C1218.9219,476.2188 1219.1094,476.25 1219.5313,476.25 L1221.25,476.25 L1221.25,482.7656 L1219.5313,482.7656 C1219.0938,482.7656 1218.9688,482.7813 1218.8125,482.8906 C1218.5625,483.0469 1218.4063,483.3281 1218.4063,483.625 C1218.4063,483.875 1218.5469,484.1406 1218.7656,484.2969 C1218.9219,484.4219 1219.125,484.4688 1219.5313,484.4688 L1224.6719,484.4688 C1225.4219,484.4688 1225.7813,484.1875 1225.7813,483.625 C1225.7813,483.3438 1225.6719,483.0938 1225.4375,482.9219 C1225.2656,482.7969 1225.125,482.7656 1224.6719,482.7656 L1222.9531,482.7656 L1222.9531,476.25 Z " fill="#000000"/><text fill="#000000" font-family="sans-serif" font-size="12" font-style="italic" lengthAdjust="spacing" textLength="68" x="1243.5" y="476.6387">«Interface»</text><text fill="#000000" font-family="sans-serif" font-size="12" font-style="italic" lengthAdjust="spacing" textLength="83" x="1236" y="490.6074">AtualizarMidia</text><line style="stroke:#A80036;stroke-width:1.5;" x1="1208" x2="1321" y1="498.4375" y2="498.4375"/><line style="stroke:#A80036;stroke-width:1.5;" x1="1208" x2="1321" y1="506.4375" y2="506.4375"/><!--MD5=[96859732366c9815bb186c7a915ddd6b]
class AdicionarCredito--><rect codeLine="128" fill="#FEFECE" filter="url(#fi9m6c8eugzg2)" height="53.9375" id="AdicionarCredito" style="stroke:#A80036;stroke-width:1.5;" width="131" x="176" y="7"/><ellipse cx="191" cy="25.9688" fill="#B4A7E5" rx="11" ry="11" style="stroke:#A80036;stroke-width:1.0;"/><path d="M191.9531,22.75 L193.6719,22.75 C194.0625,22.75 194.25,22.7188 194.375,22.6406 C194.6406,22.4844 194.7813,22.2031 194.7813,21.9063 C194.7813,21.6406 194.6719,21.375 194.4375,21.2031 C194.2656,21.0938 194.125,21.0625 193.6719,21.0625 L188.5313,21.0625 C188.0938,21.0625 187.9688,21.0781 187.8125,21.1719 C187.5625,21.3281 187.4063,21.625 187.4063,21.9063 C187.4063,22.1875 187.5469,22.4375 187.7656,22.6094 C187.9219,22.7188 188.1094,22.75 188.5313,22.75 L190.25,22.75 L190.25,29.2656 L188.5313,29.2656 C188.0938,29.2656 187.9688,29.2813 187.8125,29.3906 C187.5625,29.5469 187.4063,29.8281 187.4063,30.125 C187.4063,30.375 187.5469,30.6406 187.7656,30.7969 C187.9219,30.9219 188.125,30.9688 188.5313,30.9688 L193.6719,30.9688 C194.4219,30.9688 194.7813,30.6875 194.7813,30.125 C194.7813,29.8438 194.6719,29.5938 194.4375,29.4219 C194.2656,29.2969 194.125,29.2656 193.6719,29.2656 L191.9531,29.2656 L191.9531,22.75 Z " fill="#000000"/><text fill="#000000" font-family="sans-serif" font-size="12" font-style="italic" lengthAdjust="spacing" textLength="68" x="220.5" y="23.1387">«Interface»</text><text fill="#000000" font-family="sans-serif" font-size="12" font-style="italic" lengthAdjust="spacing" textLength="99" x="205" y="37.1074">AdicionarCredito</text><line style="stroke:#A80036;stroke-width:1.5;" x1="177" x2="306" y1="44.9375" y2="44.9375"/><line style="stroke:#A80036;stroke-width:1.5;" x1="177" x2="306" y1="52.9375" y2="52.9375"/><!--MD5=[681cab2b7e9218d815817911a3020f88]
class CriarAlbum--><rect codeLine="129" fill="#FEFECE" filter="url(#fi9m6c8eugzg2)" height="53.9375" id="CriarAlbum" style="stroke:#A80036;stroke-width:1.5;" width="99" x="1372" y="460.5"/><ellipse cx="1387" cy="479.4688" fill="#B4A7E5" rx="11" ry="11" style="stroke:#A80036;stroke-width:1.0;"/><path d="M1387.9531,476.25 L1389.6719,476.25 C1390.0625,476.25 1390.25,476.2188 1390.375,476.1406 C1390.6406,475.9844 1390.7813,475.7031 1390.7813,475.4063 C1390.7813,475.1406 1390.6719,474.875 1390.4375,474.7031 C1390.2656,474.5938 1390.125,474.5625 1389.6719,474.5625 L1384.5313,474.5625 C1384.0938,474.5625 1383.9688,474.5781 1383.8125,474.6719 C1383.5625,474.8281 1383.4063,475.125 1383.4063,475.4063 C1383.4063,475.6875 1383.5469,475.9375 1383.7656,476.1094 C1383.9219,476.2188 1384.1094,476.25 1384.5313,476.25 L1386.25,476.25 L1386.25,482.7656 L1384.5313,482.7656 C1384.0938,482.7656 1383.9688,482.7813 1383.8125,482.8906 C1383.5625,483.0469 1383.4063,483.3281 1383.4063,483.625 C1383.4063,483.875 1383.5469,484.1406 1383.7656,484.2969 C1383.9219,484.4219 1384.125,484.4688 1384.5313,484.4688 L1389.6719,484.4688 C1390.4219,484.4688 1390.7813,484.1875 1390.7813,483.625 C1390.7813,483.3438 1390.6719,483.0938 1390.4375,482.9219 C1390.2656,482.7969 1390.125,482.7656 1389.6719,482.7656 L1387.9531,482.7656 L1387.9531,476.25 Z " fill="#000000"/><text fill="#000000" font-family="sans-serif" font-size="12" font-style="italic" lengthAdjust="spacing" textLength="68" x="1400.5" y="476.6387">«Interface»</text><text fill="#000000" font-family="sans-serif" font-size="12" font-style="italic" lengthAdjust="spacing" textLength="67" x="1401" y="490.6074">CriarAlbum</text><line style="stroke:#A80036;stroke-width:1.5;" x1="1373" x2="1470" y1="498.4375" y2="498.4375"/><line style="stroke:#A80036;stroke-width:1.5;" x1="1373" x2="1470" y1="506.4375" y2="506.4375"/><!--MD5=[593118888f2185de7ac53c01266003b1]
class VisualizarAlbum--><rect codeLine="130" fill="#FEFECE" filter="url(#fi9m6c8eugzg2)" height="53.9375" id="VisualizarAlbum" style="stroke:#A80036;stroke-width:1.5;" width="127" x="321" y="215"/><ellipse cx="336" cy="233.9688" fill="#B4A7E5" rx="11" ry="11" style="stroke:#A80036;stroke-width:1.0;"/><path d="M336.9531,230.75 L338.6719,230.75 C339.0625,230.75 339.25,230.7188 339.375,230.6406 C339.6406,230.4844 339.7813,230.2031 339.7813,229.9063 C339.7813,229.6406 339.6719,229.375 339.4375,229.2031 C339.2656,229.0938 339.125,229.0625 338.6719,229.0625 L333.5313,229.0625 C333.0938,229.0625 332.9688,229.0781 332.8125,229.1719 C332.5625,229.3281 332.4063,229.625 332.4063,229.9063 C332.4063,230.1875 332.5469,230.4375 332.7656,230.6094 C332.9219,230.7188 333.1094,230.75 333.5313,230.75 L335.25,230.75 L335.25,237.2656 L333.5313,237.2656 C333.0938,237.2656 332.9688,237.2813 332.8125,237.3906 C332.5625,237.5469 332.4063,237.8281 332.4063,238.125 C332.4063,238.375 332.5469,238.6406 332.7656,238.7969 C332.9219,238.9219 333.125,238.9688 333.5313,238.9688 L338.6719,238.9688 C339.4219,238.9688 339.7813,238.6875 339.7813,238.125 C339.7813,237.8438 339.6719,237.5938 339.4375,237.4219 C339.2656,237.2969 339.125,237.2656 338.6719,237.2656 L336.9531,237.2656 L336.9531,230.75 Z " fill="#000000"/><text fill="#000000" font-family="sans-serif" font-size="12" font-style="italic" lengthAdjust="spacing" textLength="68" x="363.5" y="231.1387">«Interface»</text><text fill="#000000" font-family="sans-serif" font-size="12" font-style="italic" lengthAdjust="spacing" textLength="95" x="350" y="245.1074">VisualizarAlbum</text><line style="stroke:#A80036;stroke-width:1.5;" x1="322" x2="447" y1="252.9375" y2="252.9375"/><line style="stroke:#A80036;stroke-width:1.5;" x1="322" x2="447" y1="260.9375" y2="260.9375"/><!--MD5=[d8a1f1755bfc1dc77104ce4882e6b10a]
class ExecutarMidiaPlayer--><rect codeLine="142" fill="#FEFECE" filter="url(#fi9m6c8eugzg2)" height="53.9375" id="ExecutarMidiaPlayer" style="stroke:#A80036;stroke-width:1.5;" width="153" x="357" y="7"/><ellipse cx="372" cy="25.9688" fill="#B4A7E5" rx="11" ry="11" style="stroke:#A80036;stroke-width:1.0;"/><path d="M372.9531,22.75 L374.6719,22.75 C375.0625,22.75 375.25,22.7188 375.375,22.6406 C375.6406,22.4844 375.7813,22.2031 375.7813,21.9063 C375.7813,21.6406 375.6719,21.375 375.4375,21.2031 C375.2656,21.0938 375.125,21.0625 374.6719,21.0625 L369.5313,21.0625 C369.0938,21.0625 368.9688,21.0781 368.8125,21.1719 C368.5625,21.3281 368.4063,21.625 368.4063,21.9063 C368.4063,22.1875 368.5469,22.4375 368.7656,22.6094 C368.9219,22.7188 369.1094,22.75 369.5313,22.75 L371.25,22.75 L371.25,29.2656 L369.5313,29.2656 C369.0938,29.2656 368.9688,29.2813 368.8125,29.3906 C368.5625,29.5469 368.4063,29.8281 368.4063,30.125 C368.4063,30.375 368.5469,30.6406 368.7656,30.7969 C368.9219,30.9219 369.125,30.9688 369.5313,30.9688 L374.6719,30.9688 C375.4219,30.9688 375.7813,30.6875 375.7813,30.125 C375.7813,29.8438 375.6719,29.5938 375.4375,29.4219 C375.2656,29.2969 375.125,29.2656 374.6719,29.2656 L372.9531,29.2656 L372.9531,22.75 Z " fill="#000000"/><text fill="#000000" font-family="sans-serif" font-size="12" font-style="italic" lengthAdjust="spacing" textLength="68" x="412.5" y="23.1387">«Interface»</text><text fill="#000000" font-family="sans-serif" font-size="12" font-style="italic" lengthAdjust="spacing" textLength="121" x="386" y="37.1074">ExecutarMidiaPlayer</text><line style="stroke:#A80036;stroke-width:1.5;" x1="358" x2="509" y1="44.9375" y2="44.9375"/><line style="stroke:#A80036;stroke-width:1.5;" x1="358" x2="509" y1="52.9375" y2="52.9375"/><!--MD5=[ad72e024709ef5686dc384b5d0d22d71]
class ComprarMidia--><rect codeLine="143" fill="#FEFECE" filter="url(#fi9m6c8eugzg2)" height="53.9375" id="ComprarMidia" style="stroke:#A80036;stroke-width:1.5;" width="115" x="560" y="7"/><ellipse cx="575" cy="25.9688" fill="#B4A7E5" rx="11" ry="11" style="stroke:#A80036;stroke-width:1.0;"/><path d="M575.9531,22.75 L577.6719,22.75 C578.0625,22.75 578.25,22.7188 578.375,22.6406 C578.6406,22.4844 578.7813,22.2031 578.7813,21.9063 C578.7813,21.6406 578.6719,21.375 578.4375,21.2031 C578.2656,21.0938 578.125,21.0625 577.6719,21.0625 L572.5313,21.0625 C572.0938,21.0625 571.9688,21.0781 571.8125,21.1719 C571.5625,21.3281 571.4063,21.625 571.4063,21.9063 C571.4063,22.1875 571.5469,22.4375 571.7656,22.6094 C571.9219,22.7188 572.1094,22.75 572.5313,22.75 L574.25,22.75 L574.25,29.2656 L572.5313,29.2656 C572.0938,29.2656 571.9688,29.2813 571.8125,29.3906 C571.5625,29.5469 571.4063,29.8281 571.4063,30.125 C571.4063,30.375 571.5469,30.6406 571.7656,30.7969 C571.9219,30.9219 572.125,30.9688 572.5313,30.9688 L577.6719,30.9688 C578.4219,30.9688 578.7813,30.6875 578.7813,30.125 C578.7813,29.8438 578.6719,29.5938 578.4375,29.4219 C578.2656,29.2969 578.125,29.2656 577.6719,29.2656 L575.9531,29.2656 L575.9531,22.75 Z " fill="#000000"/><text fill="#000000" font-family="sans-serif" font-size="12" font-style="italic" lengthAdjust="spacing" textLength="68" x="596.5" y="23.1387">«Interface»</text><text fill="#000000" font-family="sans-serif" font-size="12" font-style="italic" lengthAdjust="spacing" textLength="83" x="589" y="37.1074">ComprarMidia</text><line style="stroke:#A80036;stroke-width:1.5;" x1="561" x2="674" y1="44.9375" y2="44.9375"/><line style="stroke:#A80036;stroke-width:1.5;" x1="561" x2="674" y1="52.9375" y2="52.9375"/><!--MD5=[b3d0b2517cc0b83c74ea63e498083d4b]
class VenderMidia--><rect codeLine="144" fill="#FEFECE" filter="url(#fi9m6c8eugzg2)" height="53.9375" id="VenderMidia" style="stroke:#A80036;stroke-width:1.5;" width="106" x="725.5" y="7"/><ellipse cx="740.5" cy="25.9688" fill="#B4A7E5" rx="11" ry="11" style="stroke:#A80036;stroke-width:1.0;"/><path d="M741.4531,22.75 L743.1719,22.75 C743.5625,22.75 743.75,22.7188 743.875,22.6406 C744.1406,22.4844 744.2813,22.2031 744.2813,21.9063 C744.2813,21.6406 744.1719,21.375 743.9375,21.2031 C743.7656,21.0938 743.625,21.0625 743.1719,21.0625 L738.0313,21.0625 C737.5938,21.0625 737.4688,21.0781 737.3125,21.1719 C737.0625,21.3281 736.9063,21.625 736.9063,21.9063 C736.9063,22.1875 737.0469,22.4375 737.2656,22.6094 C737.4219,22.7188 737.6094,22.75 738.0313,22.75 L739.75,22.75 L739.75,29.2656 L738.0313,29.2656 C737.5938,29.2656 737.4688,29.2813 737.3125,29.3906 C737.0625,29.5469 736.9063,29.8281 736.9063,30.125 C736.9063,30.375 737.0469,30.6406 737.2656,30.7969 C737.4219,30.9219 737.625,30.9688 738.0313,30.9688 L743.1719,30.9688 C743.9219,30.9688 744.2813,30.6875 744.2813,30.125 C744.2813,29.8438 744.1719,29.5938 743.9375,29.4219 C743.7656,29.2969 743.625,29.2656 743.1719,29.2656 L741.4531,29.2656 L741.4531,22.75 Z " fill="#000000"/><text fill="#000000" font-family="sans-serif" font-size="12" font-style="italic" lengthAdjust="spacing" textLength="68" x="757.5" y="23.1387">«Interface»</text><text fill="#000000" font-family="sans-serif" font-size="12" font-style="italic" lengthAdjust="spacing" textLength="74" x="754.5" y="37.1074">VenderMidia</text><line style="stroke:#A80036;stroke-width:1.5;" x1="726.5" x2="830.5" y1="44.9375" y2="44.9375"/><line style="stroke:#A80036;stroke-width:1.5;" x1="726.5" x2="830.5" y1="52.9375" y2="52.9375"/><!--MD5=[24306329126c5584c86443868fe701a7]
class DownloadMidia--><rect codeLine="145" fill="#FEFECE" filter="url(#fi9m6c8eugzg2)" height="53.9375" id="DownloadMidia" style="stroke:#A80036;stroke-width:1.5;" width="122" x="881.5" y="7"/><ellipse cx="896.5" cy="25.9688" fill="#B4A7E5" rx="11" ry="11" style="stroke:#A80036;stroke-width:1.0;"/><path d="M897.4531,22.75 L899.1719,22.75 C899.5625,22.75 899.75,22.7188 899.875,22.6406 C900.1406,22.4844 900.2813,22.2031 900.2813,21.9063 C900.2813,21.6406 900.1719,21.375 899.9375,21.2031 C899.7656,21.0938 899.625,21.0625 899.1719,21.0625 L894.0313,21.0625 C893.5938,21.0625 893.4688,21.0781 893.3125,21.1719 C893.0625,21.3281 892.9063,21.625 892.9063,21.9063 C892.9063,22.1875 893.0469,22.4375 893.2656,22.6094 C893.4219,22.7188 893.6094,22.75 894.0313,22.75 L895.75,22.75 L895.75,29.2656 L894.0313,29.2656 C893.5938,29.2656 893.4688,29.2813 893.3125,29.3906 C893.0625,29.5469 892.9063,29.8281 892.9063,30.125 C892.9063,30.375 893.0469,30.6406 893.2656,30.7969 C893.4219,30.9219 893.625,30.9688 894.0313,30.9688 L899.1719,30.9688 C899.9219,30.9688 900.2813,30.6875 900.2813,30.125 C900.2813,29.8438 900.1719,29.5938 899.9375,29.4219 C899.7656,29.2969 899.625,29.2656 899.1719,29.2656 L897.4531,29.2656 L897.4531,22.75 Z " fill="#000000"/><text fill="#000000" font-family="sans-serif" font-size="12" font-style="italic" lengthAdjust="spacing" textLength="68" x="921.5" y="23.1387">«Interface»</text><text fill="#000000" font-family="sans-serif" font-size="12" font-style="italic" lengthAdjust="spacing" textLength="90" x="910.5" y="37.1074">DownloadMidia</text><line style="stroke:#A80036;stroke-width:1.5;" x1="882.5" x2="1002.5" y1="44.9375" y2="44.9375"/><line style="stroke:#A80036;stroke-width:1.5;" x1="882.5" x2="1002.5" y1="52.9375" y2="52.9375"/><!--MD5=[7fdfe9cf846e8eab6166baa37cb77752]
class AdicionarMidiaEmListaFavorito--><rect codeLine="146" fill="#FEFECE" filter="url(#fi9m6c8eugzg2)" height="53.9375" id="AdicionarMidiaEmListaFavorito" style="stroke:#A80036;stroke-width:1.5;" width="215" x="1054" y="7"/><ellipse cx="1069" cy="25.9688" fill="#B4A7E5" rx="11" ry="11" style="stroke:#A80036;stroke-width:1.0;"/><path d="M1069.9531,22.75 L1071.6719,22.75 C1072.0625,22.75 1072.25,22.7188 1072.375,22.6406 C1072.6406,22.4844 1072.7813,22.2031 1072.7813,21.9063 C1072.7813,21.6406 1072.6719,21.375 1072.4375,21.2031 C1072.2656,21.0938 1072.125,21.0625 1071.6719,21.0625 L1066.5313,21.0625 C1066.0938,21.0625 1065.9688,21.0781 1065.8125,21.1719 C1065.5625,21.3281 1065.4063,21.625 1065.4063,21.9063 C1065.4063,22.1875 1065.5469,22.4375 1065.7656,22.6094 C1065.9219,22.7188 1066.1094,22.75 1066.5313,22.75 L1068.25,22.75 L1068.25,29.2656 L1066.5313,29.2656 C1066.0938,29.2656 1065.9688,29.2813 1065.8125,29.3906 C1065.5625,29.5469 1065.4063,29.8281 1065.4063,30.125 C1065.4063,30.375 1065.5469,30.6406 1065.7656,30.7969 C1065.9219,30.9219 1066.125,30.9688 1066.5313,30.9688 L1071.6719,30.9688 C1072.4219,30.9688 1072.7813,30.6875 1072.7813,30.125 C1072.7813,29.8438 1072.6719,29.5938 1072.4375,29.4219 C1072.2656,29.2969 1072.125,29.2656 1071.6719,29.2656 L1069.9531,29.2656 L1069.9531,22.75 Z " fill="#000000"/><text fill="#000000" font-family="sans-serif" font-size="12" font-style="italic" lengthAdjust="spacing" textLength="68" x="1140.5" y="23.1387">«Interface»</text><text fill="#000000" font-family="sans-serif" font-size="12" font-style="italic" lengthAdjust="spacing" textLength="183" x="1083" y="37.1074">AdicionarMidiaEmListaFavorito</text><line style="stroke:#A80036;stroke-width:1.5;" x1="1055" x2="1268" y1="44.9375" y2="44.9375"/><line style="stroke:#A80036;stroke-width:1.5;" x1="1055" x2="1268" y1="52.9375" y2="52.9375"/><!--MD5=[601610e887e437a1b5526a6b657f3d14]
class VisualizarCreditos--><rect codeLine="147" fill="#FEFECE" filter="url(#fi9m6c8eugzg2)" height="53.9375" id="VisualizarCreditos" style="stroke:#A80036;stroke-width:1.5;" width="137" x="1319" y="7"/><ellipse cx="1334" cy="25.9688" fill="#B4A7E5" rx="11" ry="11" style="stroke:#A80036;stroke-width:1.0;"/><path d="M1334.9531,22.75 L1336.6719,22.75 C1337.0625,22.75 1337.25,22.7188 1337.375,22.6406 C1337.6406,22.4844 1337.7813,22.2031 1337.7813,21.9063 C1337.7813,21.6406 1337.6719,21.375 1337.4375,21.2031 C1337.2656,21.0938 1337.125,21.0625 1336.6719,21.0625 L1331.5313,21.0625 C1331.0938,21.0625 1330.9688,21.0781 1330.8125,21.1719 C1330.5625,21.3281 1330.4063,21.625 1330.4063,21.9063 C1330.4063,22.1875 1330.5469,22.4375 1330.7656,22.6094 C1330.9219,22.7188 1331.1094,22.75 1331.5313,22.75 L1333.25,22.75 L1333.25,29.2656 L1331.5313,29.2656 C1331.0938,29.2656 1330.9688,29.2813 1330.8125,29.3906 C1330.5625,29.5469 1330.4063,29.8281 1330.4063,30.125 C1330.4063,30.375 1330.5469,30.6406 1330.7656,30.7969 C1330.9219,30.9219 1331.125,30.9688 1331.5313,30.9688 L1336.6719,30.9688 C1337.4219,30.9688 1337.7813,30.6875 1337.7813,30.125 C1337.7813,29.8438 1337.6719,29.5938 1337.4375,29.4219 C1337.2656,29.2969 1337.125,29.2656 1336.6719,29.2656 L1334.9531,29.2656 L1334.9531,22.75 Z " fill="#000000"/><text fill="#000000" font-family="sans-serif" font-size="12" font-style="italic" lengthAdjust="spacing" textLength="68" x="1366.5" y="23.1387">«Interface»</text><text fill="#000000" font-family="sans-serif" font-size="12" font-style="italic" lengthAdjust="spacing" textLength="105" x="1348" y="37.1074">VisualizarCreditos</text><line style="stroke:#A80036;stroke-width:1.5;" x1="1320" x2="1455" y1="44.9375" y2="44.9375"/><line style="stroke:#A80036;stroke-width:1.5;" x1="1320" x2="1455" y1="52.9375" y2="52.9375"/><!--MD5=[d0a83700a0fb0033d841bb213107c04c]
reverse link Autor to Midia--><path codeLine="105" d="M1156.43,717.897 C1073.99,759.392 962.638,815.442 890.206,851.9 " fill="none" id="Autor-backto-Midia" style="stroke:#A80036;stroke-width:1.0;"/><polygon fill="#A80036" points="1168.12,712.014,1160.9623,711.1379,1157.4006,717.408,1164.5583,718.2841,1168.12,712.014" style="stroke:#A80036;stroke-width:1.0;"/><polygon fill="#000000" points="1107.0339,752.8144,1116.4345,751.3729,1113.7918,746.1226,1107.0339,752.8144" style="stroke:#000000;stroke-width:1.0;"/><text fill="#000000" font-family="sans-serif" font-size="13" lengthAdjust="spacing" textLength="23" x="1120.5" y="755.0669">cria</text><text fill="#000000" font-family="sans-serif" font-size="13" lengthAdjust="spacing" textLength="8" x="1145.3767" y="732.4485">1</text><text fill="#000000" font-family="sans-serif" font-size="13" lengthAdjust="spacing" textLength="23" x="898.0609" y="844.7851">1..*</text><!--MD5=[8ca2f7d71a4bd8549b210d3fd3446ca9]
reverse link Usuario to Midia--><path codeLine="107" d="M692.897,375.35 C692.316,396.63 691.815,418.42 691.5,439 C690.84,482.106 684.199,493.512 691.5,536 C706.638,624.103 741.576,719.399 770.676,788.746 " fill="none" id="Usuario-backto-Midia" style="stroke:#A80036;stroke-width:1.0;"/><polygon fill="#FFFFFF" points="693.268,362.18,689.0982,368.0633,692.9251,374.1751,697.0949,368.2918,693.268,362.18" style="stroke:#A80036;stroke-width:1.0;"/><!--MD5=[c5cf8352f99769afe06a3910f356696c]
reverse link Academico to TipoAcademicoEnum--><path codeLine="109" d="M354.625,529.285 C347.055,540.784 339.406,553.559 333.5,566 C325.377,583.113 318.732,602.966 313.78,620.124 " fill="none" id="Academico-backto-TipoAcademicoEnum" style="stroke:#A80036;stroke-width:1.0;"/><polygon fill="#A80036" points="362.101,518.271,355.4218,520.989,355.3618,528.1999,362.041,525.4819,362.101,518.271" style="stroke:#A80036;stroke-width:1.0;"/><!--MD5=[ed09cf4b4268655afeb81a9d06583233]
reverse link Usuario to TipoMidiaEnum--><path codeLine="110" d="M740.766,374.69 C748.329,397.71 755.736,420.25 761.894,439 " fill="none" id="Usuario-backto-TipoMidiaEnum" style="stroke:#A80036;stroke-width:1.0;"/><polygon fill="#A80036" points="736.68,362.25,734.7524,369.1987,740.4252,373.6506,742.3528,366.7019,736.68,362.25" style="stroke:#A80036;stroke-width:1.0;"/><!--MD5=[5d8be773900fef823bca451b2769d179]
reverse link Usuario to Academico--><path codeLine="112" d="M528.318,374.62 C488.499,405.59 449.782,435.71 422.569,456.884 " fill="none" id="Usuario-backto-Academico" style="stroke:#A80036;stroke-width:1.0;"/><polygon fill="none" points="524.125,369.01,544.209,362.25,532.722,380.06,524.125,369.01" style="stroke:#A80036;stroke-width:1.0;"/><polygon fill="#000000" points="513.4465,397.4964,504.5027,400.7304,508.1117,405.3698,513.4465,397.4964" style="stroke:#000000;stroke-width:1.0;"/><text fill="#000000" font-family="sans-serif" font-size="13" lengthAdjust="spacing" textLength="33" x="518.5" y="405.0669">é um</text><!--MD5=[2386fb79edec01e4d2430678291cfc6c]
reverse link Academico to Autor--><path codeLine="113" d="M492.769,518.492 C572.987,539.615 685.3,566.898 785.5,583 C936.588,607.28 978.994,580.367 1128.5,613 C1138.3,615.138 1148.35,617.792 1158.35,620.749 " fill="none" id="Academico-backto-Autor" style="stroke:#A80036;stroke-width:1.0;"/><polygon fill="none" points="490.882,525.233,473.349,513.334,494.476,511.703,490.882,525.233" style="stroke:#A80036;stroke-width:1.0;"/><polygon fill="#000000" points="785.558,573.8071,794.0519,578.0855,794.9445,572.2758,785.558,573.8071" style="stroke:#000000;stroke-width:1.0;"/><text fill="#000000" font-family="sans-serif" font-size="13" lengthAdjust="spacing" textLength="210" x="799.5" y="579.0669">é um (se criou 1 ou mais midias)</text><!--MD5=[39a07826a1b74c11cd6c15b957d26b5e]
reverse link Usuario to Administrador--><path codeLine="114" d="M872.762,374.31 C910.24,402.39 946.807,429.79 974.423,450.48 " fill="none" id="Usuario-backto-Administrador" style="stroke:#A80036;stroke-width:1.0;"/><polygon fill="none" points="868.476,379.85,856.668,362.25,876.871,368.64,868.476,379.85" style="stroke:#A80036;stroke-width:1.0;"/><polygon fill="#000000" points="918.4986,397.5683,923.975,405.3439,927.4995,400.6399,918.4986,397.5683" style="stroke:#000000;stroke-width:1.0;"/><text fill="#000000" font-family="sans-serif" font-size="13" lengthAdjust="spacing" textLength="41" x="931.5" y="405.0669">é uma</text><!--MD5=[3c353f16ad6f698b146590b8140ac17b]
reverse link Midia to Livro--><path codeLine="116" d="M848.01,1010.85 C853.468,1031.612 858.746,1051.686 862.995,1067.849 " fill="none" id="Midia-backto-Livro" style="stroke:#A80036;stroke-width:1.0;"/><polygon fill="none" points="841.176,1012.386,842.86,991.263,854.716,1008.826,841.176,1012.386" style="stroke:#A80036;stroke-width:1.0;"/><polygon fill="#000000" points="858.2287,1024.7307,857.6862,1034.2258,863.3708,1032.7313,858.2287,1024.7307" style="stroke:#000000;stroke-width:1.0;"/><text fill="#000000" font-family="sans-serif" font-size="13" lengthAdjust="spacing" textLength="41" x="868.5" y="1034.0669">é uma</text><!--MD5=[82533b8c2601e7a850642b0dd72d942b]
reverse link Midia to MidiaPlayer--><path codeLine="117" d="M735.773,1007.971 C720.743,1029.75 706.119,1050.94 694.45,1067.849 " fill="none" id="Midia-backto-MidiaPlayer" style="stroke:#A80036;stroke-width:1.0;"/><polygon fill="none" points="730.183,1003.747,747.304,991.263,741.706,1011.7,730.183,1003.747" style="stroke:#A80036;stroke-width:1.0;"/><polygon fill="#000000" points="734.34,1025.4512,726.7836,1031.2264,731.6213,1034.5649,734.34,1025.4512" style="stroke:#000000;stroke-width:1.0;"/><text fill="#000000" font-family="sans-serif" font-size="13" lengthAdjust="spacing" textLength="41" x="740.5" y="1034.0669">é uma</text><!--MD5=[56f92f22368eec05e35979518733a5f3]
reverse link MidiaPlayer to Video--><path codeLine="118" d="M669.5,1162.422 C669.5,1181.755 669.5,1202.611 669.5,1218.952 " fill="none" id="MidiaPlayer-backto-Video" style="stroke:#A80036;stroke-width:1.0;"/><polygon fill="none" points="662.5,1162.328,669.5,1142.327,676.5,1162.327,662.5,1162.328" style="stroke:#A80036;stroke-width:1.0;"/><polygon fill="#000000" points="674.5,1175.5664,671.5611,1184.6115,677.4389,1184.6115,674.5,1175.5664" style="stroke:#000000;stroke-width:1.0;"/><text fill="#000000" font-family="sans-serif" font-size="13" lengthAdjust="spacing" textLength="33" x="683.5" y="1185.0669">é um</text><!--MD5=[177c67a363ef67bbbfca2d53a69c70b4]
reverse link MidiaPlayer to Podcast--><path codeLine="119" d="M741.386,1153.425 C774.157,1175.045 811.941,1199.971 840.597,1218.877 " fill="none" id="MidiaPlayer-backto-Podcast" style="stroke:#A80036;stroke-width:1.0;"/><polygon fill="none" points="737.125,1159,724.285,1142.143,744.834,1147.314,737.125,1159" style="stroke:#A80036;stroke-width:1.0;"/><polygon fill="#000000" points="791.3264,1177.813,797.2581,1185.2471,800.4949,1180.3408,791.3264,1177.813" style="stroke:#000000;stroke-width:1.0;"/><text fill="#000000" font-family="sans-serif" font-size="13" lengthAdjust="spacing" textLength="33" x="804.5" y="1185.0669">é um</text><!--MD5=[5a5467fcde532a33a1a3eb9cfff28bda]
reverse link MidiaPlayer to Musica--><path codeLine="121" d="M597.614,1153.425 C564.843,1175.045 527.059,1199.971 498.403,1218.877 " fill="none" id="MidiaPlayer-backto-Musica" style="stroke:#A80036;stroke-width:1.0;"/><polygon fill="none" points="594.166,1147.314,614.715,1142.143,601.875,1159,594.166,1147.314" style="stroke:#A80036;stroke-width:1.0;"/><polygon fill="#000000" points="577.6736,1177.813,568.5051,1180.3408,571.7419,1185.2471,577.6736,1177.813" style="stroke:#000000;stroke-width:1.0;"/><text fill="#000000" font-family="sans-serif" font-size="13" lengthAdjust="spacing" textLength="33" x="582.5" y="1185.0669">é um</text><!--MD5=[a97b4c173602f725213a0f665d6057da]
link Musica to Album--><path codeLine="122" d="M453.5,1280.019 C453.5,1298.07 453.5,1321.847 453.5,1343.845 " fill="none" id="Musica-to-Album" style="stroke:#A80036;stroke-width:1.0;"/><polygon fill="#FFFFFF" points="453.5,1356.8881,457.5,1350.8881,453.5,1344.8881,449.5,1350.8881,453.5,1356.8881" style="stroke:#A80036;stroke-width:1.0;"/><polygon fill="#000000" points="458.5,1313.5664,455.5611,1322.6115,461.4389,1322.6115,458.5,1313.5664" style="stroke:#000000;stroke-width:1.0;"/><text fill="#000000" font-family="sans-serif" font-size="13" lengthAdjust="spacing" textLength="26" x="467.5" y="1323.0669">tem</text><text fill="#000000" font-family="sans-serif" font-size="13" lengthAdjust="spacing" textLength="23" x="412.4609" y="1299.9491">1..*</text><text fill="#000000" font-family="sans-serif" font-size="13" lengthAdjust="spacing" textLength="43" x="406.4609" y="1315.0819">- Faixa</text><text fill="#000000" font-family="sans-serif" font-size="13" lengthAdjust="spacing" textLength="8" x="444.9375" y="1345.9175">0</text><!--MD5=[717f991cfb135c4982202eba3bb2d0b0]
reverse link VisualizarAlbum to Academico--><path codeLine="132" d="M384.5,289.25 C384.5,338.54 384.5,415.09 384.5,456.855 " fill="none" id="VisualizarAlbum-backto-Academico" style="stroke:#A80036;stroke-width:1.0;stroke-dasharray:7.0,7.0;"/><polygon fill="none" points="377.5,289.06,384.5,269.06,391.5,289.06,377.5,289.06" style="stroke:#A80036;stroke-width:1.0;"/><!--MD5=[1e8e721b24e4b8cb0f64c7cdc0eaf7d8]
reverse link CriarAlbum to Autor--><path codeLine="133" d="M1384.12,529.693 C1361.42,554.707 1332.32,586.763 1308.52,612.999 " fill="none" id="CriarAlbum-backto-Autor" style="stroke:#A80036;stroke-width:1.0;stroke-dasharray:7.0,7.0;"/><polygon fill="none" points="1379.03,524.881,1397.66,514.775,1389.4,534.29,1379.03,524.881" style="stroke:#A80036;stroke-width:1.0;"/><!--MD5=[591089ffd8c6beaed9248fb23f9f93f3]
reverse link AdicionarCredito to Usuario--><path codeLine="134" d="M325.986,63.92 C370.178,79.77 424.852,100.53 472.5,122 C487.507,128.76 502.911,136.08 518.278,143.64 " fill="none" id="AdicionarCredito-backto-Usuario" style="stroke:#A80036;stroke-width:1.0;stroke-dasharray:7.0,7.0;"/><polygon fill="none" points="323.617,70.51,307.112,57.22,328.302,57.31,323.617,70.51" style="stroke:#A80036;stroke-width:1.0;"/><!--MD5=[df60da1beb4eb3b0703858cf292c43ea]
reverse link VisualizarMidia to Usuario--><path codeLine="135" d="M145.676,59.77 C147.296,60.19 148.905,60.6 150.5,61 C291.853,96.15 335.03,73.86 472.5,122 C487.723,127.33 503.178,133.56 518.491,140.33 " fill="none" id="VisualizarMidia-backto-Usuario" style="stroke:#A80036;stroke-width:1.0;stroke-dasharray:7.0,7.0;"/><polygon fill="none" points="143.787,66.51,126.378,54.44,147.52,53.02,143.787,66.51" style="stroke:#A80036;stroke-width:1.0;"/><!--MD5=[8a75dfd0a35ce7fb852ef87bea9dd96d]
reverse link RemoverMidia to Autor--><path codeLine="136" d="M1447.89,285.95 C1487.35,345.68 1544.45,455.54 1496.5,536 C1468.95,582.221 1417.82,612.451 1370.55,631.632 " fill="none" id="RemoverMidia-backto-Autor" style="stroke:#A80036;stroke-width:1.0;stroke-dasharray:7.0,7.0;"/><polygon fill="none" points="1441.88,289.56,1436.34,269.11,1453.43,281.65,1441.88,289.56" style="stroke:#A80036;stroke-width:1.0;"/><!--MD5=[a8e296ce7eaa74068a6fb8190778373a]
reverse link RemoverMidia to Administrador--><path codeLine="137" d="M1356.99,279.78 C1282.32,325.93 1155.06,404.58 1080.9,450.41 " fill="none" id="RemoverMidia-backto-Administrador" style="stroke:#A80036;stroke-width:1.0;stroke-dasharray:7.0,7.0;"/><polygon fill="none" points="1353.64,273.62,1374.34,269.06,1361,285.53,1353.64,273.62" style="stroke:#A80036;stroke-width:1.0;"/><!--MD5=[3caf364c4c9a7c8e465e34f5f8565c22]
reverse link RemoverAcademico to Administrador--><path codeLine="138" d="M1022.5,289.25 C1022.5,336.1 1022.5,407.58 1022.5,450.41 " fill="none" id="RemoverAcademico-backto-Administrador" style="stroke:#A80036;stroke-width:1.0;stroke-dasharray:7.0,7.0;"/><polygon fill="none" points="1015.5,289.06,1022.5,269.06,1029.5,289.06,1015.5,289.06" style="stroke:#A80036;stroke-width:1.0;"/><!--MD5=[1e22089982c670ddb0a2b40e86e4f540]
reverse link AtualizarMidia to Autor--><path codeLine="139" d="M1264.5,535.13 C1264.5,559.235 1264.5,588.628 1264.5,612.999 " fill="none" id="AtualizarMidia-backto-Autor" style="stroke:#A80036;stroke-width:1.0;stroke-dasharray:7.0,7.0;"/><polygon fill="none" points="1257.5,534.775,1264.5,514.775,1271.5,534.775,1257.5,534.775" style="stroke:#A80036;stroke-width:1.0;"/><!--MD5=[0dce021752d6e04b224a6936f41e3e74]
link Administrador to Dashboard--><path codeLine="140" d="M1022.5,524.766 C1022.5,554.832 1022.5,597.288 1022.5,626.887 " fill="none" id="Administrador-to-Dashboard" style="stroke:#A80036;stroke-width:1.0;"/><polygon fill="#A80036" points="1022.5,631.89,1026.5,622.89,1022.5,626.89,1018.5,622.89,1022.5,631.89" style="stroke:#A80036;stroke-width:1.0;"/><text fill="#000000" font-family="sans-serif" font-size="13" lengthAdjust="spacing" textLength="79" x="1023.5" y="579.0669">«delegates»</text><!--MD5=[10f8bc69e5f3713b614b015fc0d7f514]
reverse link VisualizarCreditos to Usuario--><path codeLine="149" d="M1299.38,59.9 C1297.74,60.28 1296.11,60.64 1294.5,61 C1130.47,97.22 1080.67,68.33 921.5,122 C906.687,126.99 891.674,132.89 876.803,139.35 " fill="none" id="VisualizarCreditos-backto-Usuario" style="stroke:#A80036;stroke-width:1.0;stroke-dasharray:7.0,7.0;"/><polygon fill="none" points="1297.8,53.08,1318.9,55.1,1301.15,66.67,1297.8,53.08" style="stroke:#A80036;stroke-width:1.0;"/><!--MD5=[cce42819dbc21aa85aeba91aaba68e8f]
reverse link AdicionarMidiaEmListaFavorito to Usuario--><path codeLine="150" d="M1061.81,67.61 C1018.18,82.78 966.736,101.9 921.5,122 C906.811,128.53 891.757,135.61 876.741,142.96 " fill="none" id="AdicionarMidiaEmListaFavorito-backto-Usuario" style="stroke:#A80036;stroke-width:1.0;stroke-dasharray:7.0,7.0;"/><polygon fill="none" points="1059.74,60.92,1080.93,61.04,1064.3,74.16,1059.74,60.92" style="stroke:#A80036;stroke-width:1.0;"/><!--MD5=[e7c5ca184dd4758ee42a1c866c0125b1]
reverse link ExecutarMidiaPlayer to Usuario--><path codeLine="151" d="M482.793,73.46 C500.86,87.56 522.388,104.36 544.73,121.79 " fill="none" id="ExecutarMidiaPlayer-backto-Usuario" style="stroke:#A80036;stroke-width:1.0;stroke-dasharray:7.0,7.0;"/><polygon fill="none" points="478.397,78.91,466.936,61.09,487.01,67.87,478.397,78.91" style="stroke:#A80036;stroke-width:1.0;"/><!--MD5=[ef03cdfb0d5005d2c65ed5eae5cc8ed6]
reverse link ComprarMidia to Usuario--><path codeLine="152" d="M634.947,79.93 C639.858,92.57 645.443,106.95 651.206,121.79 " fill="none" id="ComprarMidia-backto-Usuario" style="stroke:#A80036;stroke-width:1.0;stroke-dasharray:7.0,7.0;"/><polygon fill="none" points="628.347,82.27,627.632,61.09,641.398,77.2,628.347,82.27" style="stroke:#A80036;stroke-width:1.0;"/><!--MD5=[123deba0891c53db7d1d39e376bf7088]
reverse link VenderMidia to Usuario--><path codeLine="153" d="M760.835,79.93 C755.863,92.57 750.208,106.95 744.372,121.79 " fill="none" id="VenderMidia-backto-Usuario" style="stroke:#A80036;stroke-width:1.0;stroke-dasharray:7.0,7.0;"/><polygon fill="none" points="754.408,77.14,768.241,61.09,767.437,82.26,754.408,77.14" style="stroke:#A80036;stroke-width:1.0;"/><!--MD5=[33222bad3dae2c84aef1758843827c21]
reverse link DownloadMidia to Usuario--><path codeLine="154" d="M895.978,74.12 C879.373,88.08 859.69,104.63 839.275,121.79 " fill="none" id="DownloadMidia-backto-Usuario" style="stroke:#A80036;stroke-width:1.0;stroke-dasharray:7.0,7.0;"/><polygon fill="none" points="891.658,68.6,911.471,61.09,900.668,79.32,891.658,68.6" style="stroke:#A80036;stroke-width:1.0;"/><!--MD5=[1aa9bdf719007a127f3f97c2ce6bdd8f]
@startuml
skinparam nodesep 50

enum TipoAcademicoEnum <<Enum>> {
  ALUNO
  PROFESSOR
  TECNICOADM
}

enum TipoMidiaEnum <<Enum>> {
  MUSICA
  VIDEO
  PODCAST
  LIVRO
}

abstract class Usuario {
  -nome : String
  -ultimoNome : String
  -email : String
  -senha : char[]
  -credito : Currency
  -midiasAdquiridas : List<Midia> 
  -midiasfavoritas : Map<TipoMidiaEnum, List<Midia>>
  - - -
  +visualizarMidia(Stirng nomeMidia) : Midia 
  +adicionarCredito(Currency valor) : void 
  +executarMidiaPlayer(String nomeMidiaPlayer) : MidiaPlayer 
  +comprarMidia(Stirng nomeMidia) : Midia 
  +venderMidia(Stirng nomeMidia) : void 
  +downloadMidia(Stirng nomeMidia) : void 
  +adicionarMidiaEmListaFavorito(Midia midia) : void 
  +visualizarCreditos() : Currency
}

class Academico {
  -tipo : TipoAcademicoEnum
}

class Autor {
  - - -
  +criarMidia() : Midia
  +CriarAlbum() : Album
  +removerMidia(Midia midia) : void
  +AtualizarMidia(Midia midia) : void
}

class Administrador {
  - - -
  +removerAcademico(Usuario usuario) : void
  +removerMidia(Midia midia) : void
}

class Album {
  -musicas : List<Musica>
  - - -
  +adicionarMusica(Musica musica) : void
  +removerMusica(Musica musica) : void
  +exibirMusicas() : List<Musica> 
}

abstract class Midia {
  -nome : String
  -descricao : String
  -imagem : byte[]
  -preco : Currency
  -autores : List<Autor>
  -conteudo : byte[]
  -dataCriacao : Date
  -pagavel: boolean
  - - -
  +visualizar() : void
  +comprar() : void 
  +vender() : void
  +download() : Midia
}

abstract class MidiaPlayer {
  -duracao : LocalTime
  - - -
  +executar() : void
}

class Dashboard {
  - - -
  +visualizarVendas(): void
}

class Livro {
  -numeroPaginas : Int
  -categorias : List<String>
}

class Musica {
  -categorias : List<String> 
}

class Video {
  -categorias : List<String> 
}

class Podcast {
  -categorias : List<String> 
}

Autor "1" *- - "1..*" Midia : cria > 

Usuario o- - Midia

Academico *- - TipoAcademicoEnum
Usuario *- - TipoMidiaEnum

Usuario <|- - Academico : < é um
Academico <|- - Autor : < é um (se criou 1 ou mais midias)
Usuario <|- - Administrador: < é uma

Midia <|- - Livro  : < é uma
Midia <|- - MidiaPlayer : < é uma
MidiaPlayer <|- - Video : < é um
MidiaPlayer <|- - Podcast : < é um

MidiaPlayer <|- - Musica : < é um
Musica "1..* \n - Faixa" - -o "0" Album : < tem

interface VisualizarMidia <<Interface>> 
interface RemoverMidia <<Interface>> 
interface RemoverAcademico <<Interface>> 
interface AtualizarMidia <<Interface>> 
interface AdicionarCredito <<Interface>> 
interface CriarAlbum <<Interface>> 
interface VisualizarAlbum <<Interface>> 

VisualizarAlbum <|.. Academico
CriarAlbum <|.. Autor
AdicionarCredito <|.. Usuario
VisualizarMidia <|.. Usuario
RemoverMidia <|.. Autor
RemoverMidia <|.. Administrador
RemoverAcademico <|.. Administrador
AtualizarMidia <|.. Autor
Administrador - -> Dashboard : <<delegates>>

interface ExecutarMidiaPlayer <<Interface>> 
interface ComprarMidia <<Interface>> 
interface VenderMidia <<Interface>> 
interface DownloadMidia <<Interface>> 
interface AdicionarMidiaEmListaFavorito <<Interface>> 
interface VisualizarCreditos <<Interface>> 

VisualizarCreditos <|.. Usuario
AdicionarMidiaEmListaFavorito <|.. Usuario
ExecutarMidiaPlayer <|.. Usuario
ComprarMidia <|.. Usuario
VenderMidia <|.. Usuario
DownloadMidia <|.. Usuario


hide Dashboard attributes
hide TipoAcademicoEnum methods
hide TipoMidiaEnum methods
@enduml

PlantUML version 1.2021.7(Sun May 23 12:40:07 UTC 2021)
(GPL source distribution)
Java Runtime: Java(TM) SE Runtime Environment
JVM: Java HotSpot(TM) 64-Bit Server VM
Default Encoding: UTF-8
Language: en
Country: US
--></g></svg>