<?xml version="1.0" encoding="UTF-8" standalone="no"?><svg xmlns="http://www.w3.org/2000/svg" xmlns:xlink="http://www.w3.org/1999/xlink" contentScriptType="application/ecmascript" contentStyleType="text/css" height="464px" preserveAspectRatio="none" style="width:560px;height:464px;" version="1.1" viewBox="0 0 560 464" width="560px" zoomAndPan="magnify"><defs><filter height="300%" id="f17tp9c75vj109" width="300%" x="-1" y="-1"><feGaussianBlur result="blurOut" stdDeviation="2.0"/><feColorMatrix in="blurOut" result="blurOut2" type="matrix" values="0 0 0 0 0 0 0 0 0 0 0 0 0 0 0 0 0 0 .4 0"/><feOffset dx="4.0" dy="4.0" in="blurOut2" result="blurOut3"/><feBlend in="SourceGraphic" in2="blurOut3" mode="normal"/></filter></defs><g><rect fill="#FFFFFF" filter="url(#f17tp9c75vj109)" height="260.8125" style="stroke:#A80036;stroke-width:1.0;" width="10" x="37.5" y="99.6094"/><rect fill="#FFFFFF" filter="url(#f17tp9c75vj109)" height="260.8125" style="stroke:#A80036;stroke-width:1.0;" width="10" x="188.5" y="99.6094"/><rect fill="#FFFFFF" filter="url(#f17tp9c75vj109)" height="260.8125" style="stroke:#A80036;stroke-width:1.0;" width="10" x="343.5" y="99.6094"/><rect fill="#FFFFFF" filter="url(#f17tp9c75vj109)" height="260.8125" style="stroke:#A80036;stroke-width:1.0;" width="10" x="479" y="99.6094"/><line style="stroke:#A80036;stroke-width:1.0;stroke-dasharray:5.0,5.0;" x1="42" x2="42" y1="89.6094" y2="378.4219"/><line style="stroke:#A80036;stroke-width:1.0;stroke-dasharray:5.0,5.0;" x1="193.5" x2="193.5" y1="89.6094" y2="378.4219"/><line style="stroke:#A80036;stroke-width:1.0;stroke-dasharray:5.0,5.0;" x1="348.5" x2="348.5" y1="89.6094" y2="378.4219"/><line style="stroke:#A80036;stroke-width:1.0;stroke-dasharray:5.0,5.0;" x1="483.5" x2="483.5" y1="89.6094" y2="378.4219"/><text fill="#000000" font-family="sans-serif" font-size="14" lengthAdjust="spacing" textLength="69" x="5" y="86.5332">Academico</text><ellipse cx="42.5" cy="15" fill="#FEFECE" filter="url(#f17tp9c75vj109)" rx="8" ry="8" style="stroke:#A80036;stroke-width:2.0;"/><path d="M42.5,23 L42.5,50 M29.5,31 L55.5,31 M42.5,50 L29.5,65 M42.5,50 L55.5,65 " fill="none" filter="url(#f17tp9c75vj109)" style="stroke:#A80036;stroke-width:2.0;"/><text fill="#000000" font-family="sans-serif" font-size="14" lengthAdjust="spacing" textLength="69" x="5" y="391.9551">Academico</text><ellipse cx="42.5" cy="405.0313" fill="#FEFECE" filter="url(#f17tp9c75vj109)" rx="8" ry="8" style="stroke:#A80036;stroke-width:2.0;"/><path d="M42.5,413.0313 L42.5,440.0313 M29.5,421.0313 L55.5,421.0313 M42.5,440.0313 L29.5,455.0313 M42.5,440.0313 L55.5,455.0313 " fill="none" filter="url(#f17tp9c75vj109)" style="stroke:#A80036;stroke-width:2.0;"/><rect fill="#FEFECE" filter="url(#f17tp9c75vj109)" height="36" style="stroke:#A80036;stroke-width:1.5;" width="90" x="146.5" y="48.6094"/><ellipse cx="164.5" cy="66.6094" fill="#ADD1B2" rx="11" ry="11" style="stroke:#A80036;stroke-width:1.0;"/><path d="M167.2656,62.4844 Q167.4219,62.2656 167.6094,62.1563 Q167.7969,62.0469 168.0156,62.0469 Q168.3906,62.0469 168.625,62.3047 Q168.8594,62.5625 168.8594,63.1719 L168.8594,64.625 Q168.8594,65.2344 168.625,65.5 Q168.3906,65.7656 168.0156,65.7656 Q167.6719,65.7656 167.4688,65.5625 Q167.2656,65.375 167.1563,64.8594 Q167.1094,64.5 166.9219,64.3125 Q166.5938,63.9375 165.9844,63.7188 Q165.375,63.5 164.75,63.5 Q163.9844,63.5 163.3516,63.8281 Q162.7188,64.1563 162.2266,64.9063 Q161.7344,65.6563 161.7344,66.6875 L161.7344,67.7813 Q161.7344,69.0156 162.625,69.8359 Q163.5156,70.6563 165.1094,70.6563 Q166.0469,70.6563 166.7031,70.4063 Q167.0938,70.25 167.5156,69.8125 Q167.7813,69.5469 167.9297,69.4688 Q168.0781,69.3906 168.2813,69.3906 Q168.6094,69.3906 168.8672,69.6484 Q169.125,69.9063 169.125,70.25 Q169.125,70.5938 168.7813,71 Q168.2813,71.5781 167.4844,71.9063 Q166.4063,72.3594 165.1094,72.3594 Q163.5938,72.3594 162.3906,71.7344 Q161.4063,71.2344 160.7188,70.1641 Q160.0313,69.0938 160.0313,67.8125 L160.0313,66.6563 Q160.0313,65.3281 160.6484,64.1797 Q161.2656,63.0313 162.3594,62.4141 Q163.4531,61.7969 164.6875,61.7969 Q165.4219,61.7969 166.0703,61.9609 Q166.7188,62.125 167.2656,62.4844 Z " fill="#000000"/><text fill="#000000" font-family="sans-serif" font-size="14" lengthAdjust="spacing" textLength="48" x="181.5" y="70.1426">Usuario</text><rect fill="#FEFECE" filter="url(#f17tp9c75vj109)" height="36" style="stroke:#A80036;stroke-width:1.5;" width="90" x="146.5" y="377.4219"/><ellipse cx="164.5" cy="395.4219" fill="#ADD1B2" rx="11" ry="11" style="stroke:#A80036;stroke-width:1.0;"/><path d="M167.2656,391.2969 Q167.4219,391.0781 167.6094,390.9688 Q167.7969,390.8594 168.0156,390.8594 Q168.3906,390.8594 168.625,391.1172 Q168.8594,391.375 168.8594,391.9844 L168.8594,393.4375 Q168.8594,394.0469 168.625,394.3125 Q168.3906,394.5781 168.0156,394.5781 Q167.6719,394.5781 167.4688,394.375 Q167.2656,394.1875 167.1563,393.6719 Q167.1094,393.3125 166.9219,393.125 Q166.5938,392.75 165.9844,392.5313 Q165.375,392.3125 164.75,392.3125 Q163.9844,392.3125 163.3516,392.6406 Q162.7188,392.9688 162.2266,393.7188 Q161.7344,394.4688 161.7344,395.5 L161.7344,396.5938 Q161.7344,397.8281 162.625,398.6484 Q163.5156,399.4688 165.1094,399.4688 Q166.0469,399.4688 166.7031,399.2188 Q167.0938,399.0625 167.5156,398.625 Q167.7813,398.3594 167.9297,398.2813 Q168.0781,398.2031 168.2813,398.2031 Q168.6094,398.2031 168.8672,398.4609 Q169.125,398.7188 169.125,399.0625 Q169.125,399.4063 168.7813,399.8125 Q168.2813,400.3906 167.4844,400.7188 Q166.4063,401.1719 165.1094,401.1719 Q163.5938,401.1719 162.3906,400.5469 Q161.4063,400.0469 160.7188,398.9766 Q160.0313,397.9063 160.0313,396.625 L160.0313,395.4688 Q160.0313,394.1406 160.6484,392.9922 Q161.2656,391.8438 162.3594,391.2266 Q163.4531,390.6094 164.6875,390.6094 Q165.4219,390.6094 166.0703,390.7734 Q166.7188,390.9375 167.2656,391.2969 Z " fill="#000000"/><text fill="#000000" font-family="sans-serif" font-size="14" lengthAdjust="spacing" textLength="48" x="181.5" y="398.9551">Usuario</text><rect fill="#FEFECE" filter="url(#f17tp9c75vj109)" height="36" style="stroke:#A80036;stroke-width:1.5;" width="114" x="289.5" y="48.6094"/><ellipse cx="307.5" cy="66.6094" fill="#ADD1B2" rx="11" ry="11" style="stroke:#A80036;stroke-width:1.0;"/><path d="M310.2656,62.4844 Q310.4219,62.2656 310.6094,62.1563 Q310.7969,62.0469 311.0156,62.0469 Q311.3906,62.0469 311.625,62.3047 Q311.8594,62.5625 311.8594,63.1719 L311.8594,64.625 Q311.8594,65.2344 311.625,65.5 Q311.3906,65.7656 311.0156,65.7656 Q310.6719,65.7656 310.4688,65.5625 Q310.2656,65.375 310.1563,64.8594 Q310.1094,64.5 309.9219,64.3125 Q309.5938,63.9375 308.9844,63.7188 Q308.375,63.5 307.75,63.5 Q306.9844,63.5 306.3516,63.8281 Q305.7188,64.1563 305.2266,64.9063 Q304.7344,65.6563 304.7344,66.6875 L304.7344,67.7813 Q304.7344,69.0156 305.625,69.8359 Q306.5156,70.6563 308.1094,70.6563 Q309.0469,70.6563 309.7031,70.4063 Q310.0938,70.25 310.5156,69.8125 Q310.7813,69.5469 310.9297,69.4688 Q311.0781,69.3906 311.2813,69.3906 Q311.6094,69.3906 311.8672,69.6484 Q312.125,69.9063 312.125,70.25 Q312.125,70.5938 311.7813,71 Q311.2813,71.5781 310.4844,71.9063 Q309.4063,72.3594 308.1094,72.3594 Q306.5938,72.3594 305.3906,71.7344 Q304.4063,71.2344 303.7188,70.1641 Q303.0313,69.0938 303.0313,67.8125 L303.0313,66.6563 Q303.0313,65.3281 303.6484,64.1797 Q304.2656,63.0313 305.3594,62.4141 Q306.4531,61.7969 307.6875,61.7969 Q308.4219,61.7969 309.0703,61.9609 Q309.7188,62.125 310.2656,62.4844 Z " fill="#000000"/><text fill="#000000" font-family="sans-serif" font-size="14" lengthAdjust="spacing" textLength="72" x="324.5" y="70.1426">Pagamento</text><rect fill="#FEFECE" filter="url(#f17tp9c75vj109)" height="36" style="stroke:#A80036;stroke-width:1.5;" width="114" x="289.5" y="377.4219"/><ellipse cx="307.5" cy="395.4219" fill="#ADD1B2" rx="11" ry="11" style="stroke:#A80036;stroke-width:1.0;"/><path d="M310.2656,391.2969 Q310.4219,391.0781 310.6094,390.9688 Q310.7969,390.8594 311.0156,390.8594 Q311.3906,390.8594 311.625,391.1172 Q311.8594,391.375 311.8594,391.9844 L311.8594,393.4375 Q311.8594,394.0469 311.625,394.3125 Q311.3906,394.5781 311.0156,394.5781 Q310.6719,394.5781 310.4688,394.375 Q310.2656,394.1875 310.1563,393.6719 Q310.1094,393.3125 309.9219,393.125 Q309.5938,392.75 308.9844,392.5313 Q308.375,392.3125 307.75,392.3125 Q306.9844,392.3125 306.3516,392.6406 Q305.7188,392.9688 305.2266,393.7188 Q304.7344,394.4688 304.7344,395.5 L304.7344,396.5938 Q304.7344,397.8281 305.625,398.6484 Q306.5156,399.4688 308.1094,399.4688 Q309.0469,399.4688 309.7031,399.2188 Q310.0938,399.0625 310.5156,398.625 Q310.7813,398.3594 310.9297,398.2813 Q311.0781,398.2031 311.2813,398.2031 Q311.6094,398.2031 311.8672,398.4609 Q312.125,398.7188 312.125,399.0625 Q312.125,399.4063 311.7813,399.8125 Q311.2813,400.3906 310.4844,400.7188 Q309.4063,401.1719 308.1094,401.1719 Q306.5938,401.1719 305.3906,400.5469 Q304.4063,400.0469 303.7188,398.9766 Q303.0313,397.9063 303.0313,396.625 L303.0313,395.4688 Q303.0313,394.1406 303.6484,392.9922 Q304.2656,391.8438 305.3594,391.2266 Q306.4531,390.6094 307.6875,390.6094 Q308.4219,390.6094 309.0703,390.7734 Q309.7188,390.9375 310.2656,391.2969 Z " fill="#000000"/><text fill="#000000" font-family="sans-serif" font-size="14" lengthAdjust="spacing" textLength="72" x="324.5" y="398.9551">Pagamento</text><rect fill="#FEFECE" filter="url(#f17tp9c75vj109)" height="36" style="stroke:#A80036;stroke-width:1.5;" width="129" x="417.5" y="48.6094"/><ellipse cx="435.5" cy="66.6094" fill="#ADD1B2" rx="11" ry="11" style="stroke:#A80036;stroke-width:1.0;"/><path d="M438.2656,62.4844 Q438.4219,62.2656 438.6094,62.1563 Q438.7969,62.0469 439.0156,62.0469 Q439.3906,62.0469 439.625,62.3047 Q439.8594,62.5625 439.8594,63.1719 L439.8594,64.625 Q439.8594,65.2344 439.625,65.5 Q439.3906,65.7656 439.0156,65.7656 Q438.6719,65.7656 438.4688,65.5625 Q438.2656,65.375 438.1563,64.8594 Q438.1094,64.5 437.9219,64.3125 Q437.5938,63.9375 436.9844,63.7188 Q436.375,63.5 435.75,63.5 Q434.9844,63.5 434.3516,63.8281 Q433.7188,64.1563 433.2266,64.9063 Q432.7344,65.6563 432.7344,66.6875 L432.7344,67.7813 Q432.7344,69.0156 433.625,69.8359 Q434.5156,70.6563 436.1094,70.6563 Q437.0469,70.6563 437.7031,70.4063 Q438.0938,70.25 438.5156,69.8125 Q438.7813,69.5469 438.9297,69.4688 Q439.0781,69.3906 439.2813,69.3906 Q439.6094,69.3906 439.8672,69.6484 Q440.125,69.9063 440.125,70.25 Q440.125,70.5938 439.7813,71 Q439.2813,71.5781 438.4844,71.9063 Q437.4063,72.3594 436.1094,72.3594 Q434.5938,72.3594 433.3906,71.7344 Q432.4063,71.2344 431.7188,70.1641 Q431.0313,69.0938 431.0313,67.8125 L431.0313,66.6563 Q431.0313,65.3281 431.6484,64.1797 Q432.2656,63.0313 433.3594,62.4141 Q434.4531,61.7969 435.6875,61.7969 Q436.4219,61.7969 437.0703,61.9609 Q437.7188,62.125 438.2656,62.4844 Z " fill="#000000"/><text fill="#000000" font-family="sans-serif" font-size="14" lengthAdjust="spacing" textLength="87" x="452.5" y="70.1426">Administrador</text><rect fill="#FEFECE" filter="url(#f17tp9c75vj109)" height="36" style="stroke:#A80036;stroke-width:1.5;" width="129" x="417.5" y="377.4219"/><ellipse cx="435.5" cy="395.4219" fill="#ADD1B2" rx="11" ry="11" style="stroke:#A80036;stroke-width:1.0;"/><path d="M438.2656,391.2969 Q438.4219,391.0781 438.6094,390.9688 Q438.7969,390.8594 439.0156,390.8594 Q439.3906,390.8594 439.625,391.1172 Q439.8594,391.375 439.8594,391.9844 L439.8594,393.4375 Q439.8594,394.0469 439.625,394.3125 Q439.3906,394.5781 439.0156,394.5781 Q438.6719,394.5781 438.4688,394.375 Q438.2656,394.1875 438.1563,393.6719 Q438.1094,393.3125 437.9219,393.125 Q437.5938,392.75 436.9844,392.5313 Q436.375,392.3125 435.75,392.3125 Q434.9844,392.3125 434.3516,392.6406 Q433.7188,392.9688 433.2266,393.7188 Q432.7344,394.4688 432.7344,395.5 L432.7344,396.5938 Q432.7344,397.8281 433.625,398.6484 Q434.5156,399.4688 436.1094,399.4688 Q437.0469,399.4688 437.7031,399.2188 Q438.0938,399.0625 438.5156,398.625 Q438.7813,398.3594 438.9297,398.2813 Q439.0781,398.2031 439.2813,398.2031 Q439.6094,398.2031 439.8672,398.4609 Q440.125,398.7188 440.125,399.0625 Q440.125,399.4063 439.7813,399.8125 Q439.2813,400.3906 438.4844,400.7188 Q437.4063,401.1719 436.1094,401.1719 Q434.5938,401.1719 433.3906,400.5469 Q432.4063,400.0469 431.7188,398.9766 Q431.0313,397.9063 431.0313,396.625 L431.0313,395.4688 Q431.0313,394.1406 431.6484,392.9922 Q432.2656,391.8438 433.3594,391.2266 Q434.4531,390.6094 435.6875,390.6094 Q436.4219,390.6094 437.0703,390.7734 Q437.7188,390.9375 438.2656,391.2969 Z " fill="#000000"/><text fill="#000000" font-family="sans-serif" font-size="14" lengthAdjust="spacing" textLength="87" x="452.5" y="398.9551">Administrador</text><rect fill="#FFFFFF" filter="url(#f17tp9c75vj109)" height="260.8125" style="stroke:#A80036;stroke-width:1.0;" width="10" x="37.5" y="99.6094"/><rect fill="#FFFFFF" filter="url(#f17tp9c75vj109)" height="260.8125" style="stroke:#A80036;stroke-width:1.0;" width="10" x="188.5" y="99.6094"/><rect fill="#FFFFFF" filter="url(#f17tp9c75vj109)" height="260.8125" style="stroke:#A80036;stroke-width:1.0;" width="10" x="343.5" y="99.6094"/><rect fill="#FFFFFF" filter="url(#f17tp9c75vj109)" height="260.8125" style="stroke:#A80036;stroke-width:1.0;" width="10" x="479" y="99.6094"/><polygon fill="#0000FF" points="176.5,117.9609,186.5,121.9609,176.5,125.9609,180.5,121.9609" style="stroke:#0000FF;stroke-width:1.0;"/><line style="stroke:#0000FF;stroke-width:1.0;" x1="47.5" x2="182.5" y1="121.9609" y2="121.9609"/><text fill="#000000" font-family="sans-serif" font-size="13" lengthAdjust="spacing" textLength="108" x="54.5" y="117.1045">adicionarCreditos()</text><polygon fill="#0000FF" points="467,148.3125,477,152.3125,467,156.3125,471,152.3125" style="stroke:#0000FF;stroke-width:1.0;"/><line style="stroke:#0000FF;stroke-width:1.0;" x1="198.5" x2="473" y1="152.3125" y2="152.3125"/><text fill="#000000" font-family="sans-serif" font-size="13" lengthAdjust="spacing" textLength="88" x="205.5" y="147.4561">verificarSenha()</text><polygon fill="#008000" points="209.5,178.6641,199.5,182.6641,209.5,186.6641,205.5,182.6641" style="stroke:#008000;stroke-width:1.0;"/><line style="stroke:#008000;stroke-width:1.0;stroke-dasharray:2.0,2.0;" x1="203.5" x2="478" y1="182.6641" y2="182.6641"/><text fill="#000000" font-family="sans-serif" font-size="13" lengthAdjust="spacing" textLength="49" x="215.5" y="177.8076">sucesso</text><line style="stroke:#0000FF;stroke-width:1.0;" x1="198.5" x2="240.5" y1="213.0156" y2="213.0156"/><line style="stroke:#0000FF;stroke-width:1.0;" x1="240.5" x2="240.5" y1="213.0156" y2="226.0156"/><line style="stroke:#0000FF;stroke-width:1.0;" x1="199.5" x2="240.5" y1="226.0156" y2="226.0156"/><polygon fill="#0000FF" points="209.5,222.0156,199.5,226.0156,209.5,230.0156,205.5,226.0156" style="stroke:#0000FF;stroke-width:1.0;"/><text fill="#000000" font-family="sans-serif" font-size="13" lengthAdjust="spacing" textLength="73" x="205.5" y="208.1592">criarPedido()</text><polygon fill="#0000FF" points="331.5,252.3672,341.5,256.3672,331.5,260.3672,335.5,256.3672" style="stroke:#0000FF;stroke-width:1.0;"/><line style="stroke:#0000FF;stroke-width:1.0;" x1="198.5" x2="337.5" y1="256.3672" y2="256.3672"/><text fill="#000000" font-family="sans-serif" font-size="13" lengthAdjust="spacing" textLength="100" x="205.5" y="251.5107">adicionarPedido()</text><polygon fill="#008000" points="209.5,282.7188,199.5,286.7188,209.5,290.7188,205.5,286.7188" style="stroke:#008000;stroke-width:1.0;"/><line style="stroke:#008000;stroke-width:1.0;stroke-dasharray:2.0,2.0;" x1="203.5" x2="342.5" y1="286.7188" y2="286.7188"/><text fill="#000000" font-family="sans-serif" font-size="13" lengthAdjust="spacing" textLength="121" x="215.5" y="281.8623">pagamentoRealizado</text><line style="stroke:#0000FF;stroke-width:1.0;" x1="198.5" x2="240.5" y1="317.0703" y2="317.0703"/><line style="stroke:#0000FF;stroke-width:1.0;" x1="240.5" x2="240.5" y1="317.0703" y2="330.0703"/><line style="stroke:#0000FF;stroke-width:1.0;" x1="199.5" x2="240.5" y1="330.0703" y2="330.0703"/><polygon fill="#0000FF" points="209.5,326.0703,199.5,330.0703,209.5,334.0703,205.5,330.0703" style="stroke:#0000FF;stroke-width:1.0;"/><text fill="#000000" font-family="sans-serif" font-size="13" lengthAdjust="spacing" textLength="93" x="205.5" y="312.2139">removerPedido()</text><polygon fill="#008000" points="53.5,356.4219,43.5,360.4219,53.5,364.4219,49.5,360.4219" style="stroke:#008000;stroke-width:1.0;"/><line style="stroke:#008000;stroke-width:1.0;stroke-dasharray:2.0,2.0;" x1="47.5" x2="192.5" y1="360.4219" y2="360.4219"/><text fill="#000000" font-family="sans-serif" font-size="13" lengthAdjust="spacing" textLength="117" x="59.5" y="355.5654">creditosAdicionados</text><!--MD5=[dc49b074d23e73db6a9b46bccc3679c1]
@startuml adicionar-credito
actor Academico

participant Usuario << (C,#ADD1B2) >>
participant Pagamento << (C,#ADD1B2) >>
participant Administrador << (C,#ADD1B2) >>

activate Academico
activate Usuario
activate Administrador
activate Pagamento

Academico -[#blue]> Usuario: adicionarCreditos()

Usuario -[#blue]> Administrador: verificarSenha()
Administrador -[#green]-> Usuario: sucesso

Usuario -[#blue]> Usuario: criarPedido()

Usuario -[#blue]> Pagamento: adicionarPedido()
Pagamento -[#green]-> Usuario: pagamentoRealizado

Usuario -[#blue]> Usuario: removerPedido()

Usuario -[#green]-> Academico: creditosAdicionados

deactivate Pagamento
deactivate Administrador
deactivate Usuario
deactivate Academico
@enduml

PlantUML version 1.2021.00(Sun Jan 10 07:25:05 BRT 2021)
(GPL source distribution)
Java Runtime: Java(TM) SE Runtime Environment
JVM: Java HotSpot(TM) 64-Bit Server VM
Default Encoding: Cp1252
Language: pt
Country: BR
--></g></svg>