<?xml version="1.0" encoding="UTF-8" standalone="no"?><svg xmlns="http://www.w3.org/2000/svg" xmlns:xlink="http://www.w3.org/1999/xlink" contentScriptType="application/ecmascript" contentStyleType="text/css" height="342px" preserveAspectRatio="none" style="width:288px;height:342px;" version="1.1" viewBox="0 0 288 342" width="288px" zoomAndPan="magnify"><defs><filter height="300%" id="f1bvnfxiaj61fb" width="300%" x="-1" y="-1"><feGaussianBlur result="blurOut" stdDeviation="2.0"/><feColorMatrix in="blurOut" result="blurOut2" type="matrix" values="0 0 0 0 0 0 0 0 0 0 0 0 0 0 0 0 0 0 .4 0"/><feOffset dx="4.0" dy="4.0" in="blurOut2" result="blurOut3"/><feBlend in="SourceGraphic" in2="blurOut3" mode="normal"/></filter></defs><g><rect fill="#FFFFFF" filter="url(#f1bvnfxiaj61fb)" height="139.4063" style="stroke:#A80036;stroke-width:1.0;" width="10" x="37.5" y="99.6094"/><rect fill="#FFFFFF" filter="url(#f1bvnfxiaj61fb)" height="139.4063" style="stroke:#A80036;stroke-width:1.0;" width="10" x="132.5" y="99.6094"/><line style="stroke:#A80036;stroke-width:1.0;stroke-dasharray:5.0,5.0;" x1="42" x2="42" y1="89.6094" y2="257.0156"/><line style="stroke:#A80036;stroke-width:1.0;stroke-dasharray:5.0,5.0;" x1="137.5" x2="137.5" y1="89.6094" y2="257.0156"/><text fill="#000000" font-family="sans-serif" font-size="14" lengthAdjust="spacing" textLength="69" x="5" y="86.5332">Academico</text><ellipse cx="42.5" cy="15" fill="#FEFECE" filter="url(#f1bvnfxiaj61fb)" rx="8" ry="8" style="stroke:#A80036;stroke-width:2.0;"/><path d="M42.5,23 L42.5,50 M29.5,31 L55.5,31 M42.5,50 L29.5,65 M42.5,50 L55.5,65 " fill="none" filter="url(#f1bvnfxiaj61fb)" style="stroke:#A80036;stroke-width:2.0;"/><text fill="#000000" font-family="sans-serif" font-size="14" lengthAdjust="spacing" textLength="69" x="5" y="270.5488">Academico</text><ellipse cx="42.5" cy="283.625" fill="#FEFECE" filter="url(#f1bvnfxiaj61fb)" rx="8" ry="8" style="stroke:#A80036;stroke-width:2.0;"/><path d="M42.5,291.625 L42.5,318.625 M29.5,299.625 L55.5,299.625 M42.5,318.625 L29.5,333.625 M42.5,318.625 L55.5,333.625 " fill="none" filter="url(#f1bvnfxiaj61fb)" style="stroke:#A80036;stroke-width:2.0;"/><rect fill="#FEFECE" filter="url(#f1bvnfxiaj61fb)" height="36" style="stroke:#A80036;stroke-width:1.5;" width="90" x="90.5" y="48.6094"/><ellipse cx="108.5" cy="66.6094" fill="#ADD1B2" rx="11" ry="11" style="stroke:#A80036;stroke-width:1.0;"/><path d="M111.2656,62.4844 Q111.4219,62.2656 111.6094,62.1563 Q111.7969,62.0469 112.0156,62.0469 Q112.3906,62.0469 112.625,62.3047 Q112.8594,62.5625 112.8594,63.1719 L112.8594,64.625 Q112.8594,65.2344 112.625,65.5 Q112.3906,65.7656 112.0156,65.7656 Q111.6719,65.7656 111.4688,65.5625 Q111.2656,65.375 111.1563,64.8594 Q111.1094,64.5 110.9219,64.3125 Q110.5938,63.9375 109.9844,63.7188 Q109.375,63.5 108.75,63.5 Q107.9844,63.5 107.3516,63.8281 Q106.7188,64.1563 106.2266,64.9063 Q105.7344,65.6563 105.7344,66.6875 L105.7344,67.7813 Q105.7344,69.0156 106.625,69.8359 Q107.5156,70.6563 109.1094,70.6563 Q110.0469,70.6563 110.7031,70.4063 Q111.0938,70.25 111.5156,69.8125 Q111.7813,69.5469 111.9297,69.4688 Q112.0781,69.3906 112.2813,69.3906 Q112.6094,69.3906 112.8672,69.6484 Q113.125,69.9063 113.125,70.25 Q113.125,70.5938 112.7813,71 Q112.2813,71.5781 111.4844,71.9063 Q110.4063,72.3594 109.1094,72.3594 Q107.5938,72.3594 106.3906,71.7344 Q105.4063,71.2344 104.7188,70.1641 Q104.0313,69.0938 104.0313,67.8125 L104.0313,66.6563 Q104.0313,65.3281 104.6484,64.1797 Q105.2656,63.0313 106.3594,62.4141 Q107.4531,61.7969 108.6875,61.7969 Q109.4219,61.7969 110.0703,61.9609 Q110.7188,62.125 111.2656,62.4844 Z " fill="#000000"/><text fill="#000000" font-family="sans-serif" font-size="14" lengthAdjust="spacing" textLength="48" x="125.5" y="70.1426">Usuario</text><rect fill="#FEFECE" filter="url(#f1bvnfxiaj61fb)" height="36" style="stroke:#A80036;stroke-width:1.5;" width="90" x="90.5" y="256.0156"/><ellipse cx="108.5" cy="274.0156" fill="#ADD1B2" rx="11" ry="11" style="stroke:#A80036;stroke-width:1.0;"/><path d="M111.2656,269.8906 Q111.4219,269.6719 111.6094,269.5625 Q111.7969,269.4531 112.0156,269.4531 Q112.3906,269.4531 112.625,269.7109 Q112.8594,269.9688 112.8594,270.5781 L112.8594,272.0313 Q112.8594,272.6406 112.625,272.9063 Q112.3906,273.1719 112.0156,273.1719 Q111.6719,273.1719 111.4688,272.9688 Q111.2656,272.7813 111.1563,272.2656 Q111.1094,271.9063 110.9219,271.7188 Q110.5938,271.3438 109.9844,271.125 Q109.375,270.9063 108.75,270.9063 Q107.9844,270.9063 107.3516,271.2344 Q106.7188,271.5625 106.2266,272.3125 Q105.7344,273.0625 105.7344,274.0938 L105.7344,275.1875 Q105.7344,276.4219 106.625,277.2422 Q107.5156,278.0625 109.1094,278.0625 Q110.0469,278.0625 110.7031,277.8125 Q111.0938,277.6563 111.5156,277.2188 Q111.7813,276.9531 111.9297,276.875 Q112.0781,276.7969 112.2813,276.7969 Q112.6094,276.7969 112.8672,277.0547 Q113.125,277.3125 113.125,277.6563 Q113.125,278 112.7813,278.4063 Q112.2813,278.9844 111.4844,279.3125 Q110.4063,279.7656 109.1094,279.7656 Q107.5938,279.7656 106.3906,279.1406 Q105.4063,278.6406 104.7188,277.5703 Q104.0313,276.5 104.0313,275.2188 L104.0313,274.0625 Q104.0313,272.7344 104.6484,271.5859 Q105.2656,270.4375 106.3594,269.8203 Q107.4531,269.2031 108.6875,269.2031 Q109.4219,269.2031 110.0703,269.3672 Q110.7188,269.5313 111.2656,269.8906 Z " fill="#000000"/><text fill="#000000" font-family="sans-serif" font-size="14" lengthAdjust="spacing" textLength="48" x="125.5" y="277.5488">Usuario</text><rect fill="#FFFFFF" filter="url(#f1bvnfxiaj61fb)" height="139.4063" style="stroke:#A80036;stroke-width:1.0;" width="10" x="37.5" y="99.6094"/><rect fill="#FFFFFF" filter="url(#f1bvnfxiaj61fb)" height="139.4063" style="stroke:#A80036;stroke-width:1.0;" width="10" x="132.5" y="99.6094"/><polygon fill="#0000FF" points="120.5,117.9609,130.5,121.9609,120.5,125.9609,124.5,121.9609" style="stroke:#0000FF;stroke-width:1.0;"/><line style="stroke:#0000FF;stroke-width:1.0;" x1="47.5" x2="126.5" y1="121.9609" y2="121.9609"/><text fill="#000000" font-family="sans-serif" font-size="13" lengthAdjust="spacing" textLength="61" x="54.5" y="117.1045">autentica()</text><line style="stroke:#0000FF;stroke-width:1.0;" x1="142.5" x2="184.5" y1="152.3125" y2="152.3125"/><line style="stroke:#0000FF;stroke-width:1.0;" x1="184.5" x2="184.5" y1="152.3125" y2="165.3125"/><line style="stroke:#0000FF;stroke-width:1.0;" x1="143.5" x2="184.5" y1="165.3125" y2="165.3125"/><polygon fill="#0000FF" points="153.5,161.3125,143.5,165.3125,153.5,169.3125,149.5,165.3125" style="stroke:#0000FF;stroke-width:1.0;"/><text fill="#000000" font-family="sans-serif" font-size="13" lengthAdjust="spacing" textLength="132" x="149.5" y="147.4561">verificarDadosUsuario()</text><line style="stroke:#0000FF;stroke-width:1.0;" x1="142.5" x2="184.5" y1="195.6641" y2="195.6641"/><line style="stroke:#0000FF;stroke-width:1.0;" x1="184.5" x2="184.5" y1="195.6641" y2="208.6641"/><line style="stroke:#0000FF;stroke-width:1.0;" x1="143.5" x2="184.5" y1="208.6641" y2="208.6641"/><polygon fill="#0000FF" points="153.5,204.6641,143.5,208.6641,153.5,212.6641,149.5,208.6641" style="stroke:#0000FF;stroke-width:1.0;"/><text fill="#000000" font-family="sans-serif" font-size="13" lengthAdjust="spacing" textLength="68" x="149.5" y="190.8076">criarToken()</text><polygon fill="#008000" points="53.5,235.0156,43.5,239.0156,53.5,243.0156,49.5,239.0156" style="stroke:#008000;stroke-width:1.0;"/><line style="stroke:#008000;stroke-width:1.0;stroke-dasharray:2.0,2.0;" x1="47.5" x2="136.5" y1="239.0156" y2="239.0156"/><text fill="#000000" font-family="sans-serif" font-size="13" lengthAdjust="spacing" textLength="32" x="59.5" y="234.1592">token</text><!--MD5=[3a929ecc994b27d135d8e7f94b0cd3c0]
@startuml autenticar
actor Academico

participant Usuario << (C,#ADD1B2) >>

activate Academico
activate Usuario

Academico -[#blue]> Usuario: autentica()

Usuario -[#blue]> Usuario: verificarDadosUsuario()
Usuario -[#blue]> Usuario: criarToken()

Usuario -[#green]-> Academico: token

deactivate Usuario
deactivate Academico
@enduml

PlantUML version 1.2021.00(Sun Jan 10 07:25:05 BRT 2021)
(GPL source distribution)
Java Runtime: Java(TM) SE Runtime Environment
JVM: Java HotSpot(TM) 64-Bit Server VM
Default Encoding: Cp1252
Language: pt
Country: BR
--></g></svg>