<?xml version="1.0" encoding="UTF-8" standalone="no"?><svg xmlns="http://www.w3.org/2000/svg" xmlns:xlink="http://www.w3.org/1999/xlink" contentScriptType="application/ecmascript" contentStyleType="text/css" height="464px" preserveAspectRatio="none" style="width:588px;height:464px;background:#FFFFFF;" version="1.1" viewBox="0 0 588 464" width="588px" zoomAndPan="magnify"><defs><filter height="300%" id="f34fqauuxpmlm" width="300%" x="-1" y="-1"><feGaussianBlur result="blurOut" stdDeviation="2.0"/><feColorMatrix in="blurOut" result="blurOut2" type="matrix" values="0 0 0 0 0 0 0 0 0 0 0 0 0 0 0 0 0 0 .4 0"/><feOffset dx="4.0" dy="4.0" in="blurOut2" result="blurOut3"/><feBlend in="SourceGraphic" in2="blurOut3" mode="normal"/></filter></defs><g><rect fill="#FFFFFF" filter="url(#f34fqauuxpmlm)" height="260.8125" style="stroke:#A80036;stroke-width:1.0;" width="10" x="37.5" y="99.6094"/><rect fill="#FFFFFF" filter="url(#f34fqauuxpmlm)" height="260.8125" style="stroke:#A80036;stroke-width:1.0;" width="10" x="161.5" y="99.6094"/><rect fill="#FFFFFF" filter="url(#f34fqauuxpmlm)" height="260.8125" style="stroke:#A80036;stroke-width:1.0;" width="10" x="390.5" y="99.6094"/><rect fill="#FFFFFF" filter="url(#f34fqauuxpmlm)" height="260.8125" style="stroke:#A80036;stroke-width:1.0;" width="10" x="506.5" y="99.6094"/><line style="stroke:#A80036;stroke-width:1.0;stroke-dasharray:5.0,5.0;" x1="42" x2="42" y1="89.6094" y2="378.4219"/><line style="stroke:#A80036;stroke-width:1.0;stroke-dasharray:5.0,5.0;" x1="166.5" x2="166.5" y1="89.6094" y2="378.4219"/><line style="stroke:#A80036;stroke-width:1.0;stroke-dasharray:5.0,5.0;" x1="395" x2="395" y1="89.6094" y2="378.4219"/><line style="stroke:#A80036;stroke-width:1.0;stroke-dasharray:5.0,5.0;" x1="511" x2="511" y1="89.6094" y2="378.4219"/><text fill="#000000" font-family="sans-serif" font-size="14" lengthAdjust="spacing" textLength="69" x="5" y="86.5332">Academico</text><ellipse cx="42.5" cy="15" fill="#FEFECE" filter="url(#f34fqauuxpmlm)" rx="8" ry="8" style="stroke:#A80036;stroke-width:2.0;"/><path d="M42.5,23 L42.5,50 M29.5,31 L55.5,31 M42.5,50 L29.5,65 M42.5,50 L55.5,65 " fill="none" filter="url(#f34fqauuxpmlm)" style="stroke:#A80036;stroke-width:2.0;"/><text fill="#000000" font-family="sans-serif" font-size="14" lengthAdjust="spacing" textLength="69" x="5" y="391.9551">Academico</text><ellipse cx="42.5" cy="405.0313" fill="#FEFECE" filter="url(#f34fqauuxpmlm)" rx="8" ry="8" style="stroke:#A80036;stroke-width:2.0;"/><path d="M42.5,413.0313 L42.5,440.0313 M29.5,421.0313 L55.5,421.0313 M42.5,440.0313 L29.5,455.0313 M42.5,440.0313 L55.5,455.0313 " fill="none" filter="url(#f34fqauuxpmlm)" style="stroke:#A80036;stroke-width:2.0;"/><rect fill="#FEFECE" filter="url(#f34fqauuxpmlm)" height="36" style="stroke:#A80036;stroke-width:1.5;" width="90" x="119.5" y="48.6094"/><ellipse cx="137.5" cy="66.6094" fill="#ADD1B2" rx="11" ry="11" style="stroke:#A80036;stroke-width:1.0;"/><path d="M140.2656,62.4844 Q140.4219,62.2656 140.6094,62.1563 Q140.7969,62.0469 141.0156,62.0469 Q141.3906,62.0469 141.625,62.3047 Q141.8594,62.5625 141.8594,63.1719 L141.8594,64.625 Q141.8594,65.2344 141.625,65.5 Q141.3906,65.7656 141.0156,65.7656 Q140.6719,65.7656 140.4688,65.5625 Q140.2656,65.375 140.1563,64.8594 Q140.1094,64.5 139.9219,64.3125 Q139.5938,63.9375 138.9844,63.7188 Q138.375,63.5 137.75,63.5 Q136.9844,63.5 136.3516,63.8281 Q135.7188,64.1563 135.2266,64.9063 Q134.7344,65.6563 134.7344,66.6875 L134.7344,67.7813 Q134.7344,69.0156 135.625,69.8359 Q136.5156,70.6563 138.1094,70.6563 Q139.0469,70.6563 139.7031,70.4063 Q140.0938,70.25 140.5156,69.8125 Q140.7813,69.5469 140.9297,69.4688 Q141.0781,69.3906 141.2813,69.3906 Q141.6094,69.3906 141.8672,69.6484 Q142.125,69.9063 142.125,70.25 Q142.125,70.5938 141.7813,71 Q141.2813,71.5781 140.4844,71.9063 Q139.4063,72.3594 138.1094,72.3594 Q136.5938,72.3594 135.3906,71.7344 Q134.4063,71.2344 133.7188,70.1641 Q133.0313,69.0938 133.0313,67.8125 L133.0313,66.6563 Q133.0313,65.3281 133.6484,64.1797 Q134.2656,63.0313 135.3594,62.4141 Q136.4531,61.7969 137.6875,61.7969 Q138.4219,61.7969 139.0703,61.9609 Q139.7188,62.125 140.2656,62.4844 Z " fill="#000000"/><text fill="#000000" font-family="sans-serif" font-size="14" lengthAdjust="spacing" textLength="48" x="154.5" y="70.1426">Usuario</text><rect fill="#FEFECE" filter="url(#f34fqauuxpmlm)" height="36" style="stroke:#A80036;stroke-width:1.5;" width="90" x="119.5" y="377.4219"/><ellipse cx="137.5" cy="395.4219" fill="#ADD1B2" rx="11" ry="11" style="stroke:#A80036;stroke-width:1.0;"/><path d="M140.2656,391.2969 Q140.4219,391.0781 140.6094,390.9688 Q140.7969,390.8594 141.0156,390.8594 Q141.3906,390.8594 141.625,391.1172 Q141.8594,391.375 141.8594,391.9844 L141.8594,393.4375 Q141.8594,394.0469 141.625,394.3125 Q141.3906,394.5781 141.0156,394.5781 Q140.6719,394.5781 140.4688,394.375 Q140.2656,394.1875 140.1563,393.6719 Q140.1094,393.3125 139.9219,393.125 Q139.5938,392.75 138.9844,392.5313 Q138.375,392.3125 137.75,392.3125 Q136.9844,392.3125 136.3516,392.6406 Q135.7188,392.9688 135.2266,393.7188 Q134.7344,394.4688 134.7344,395.5 L134.7344,396.5938 Q134.7344,397.8281 135.625,398.6484 Q136.5156,399.4688 138.1094,399.4688 Q139.0469,399.4688 139.7031,399.2188 Q140.0938,399.0625 140.5156,398.625 Q140.7813,398.3594 140.9297,398.2813 Q141.0781,398.2031 141.2813,398.2031 Q141.6094,398.2031 141.8672,398.4609 Q142.125,398.7188 142.125,399.0625 Q142.125,399.4063 141.7813,399.8125 Q141.2813,400.3906 140.4844,400.7188 Q139.4063,401.1719 138.1094,401.1719 Q136.5938,401.1719 135.3906,400.5469 Q134.4063,400.0469 133.7188,398.9766 Q133.0313,397.9063 133.0313,396.625 L133.0313,395.4688 Q133.0313,394.1406 133.6484,392.9922 Q134.2656,391.8438 135.3594,391.2266 Q136.4531,390.6094 137.6875,390.6094 Q138.4219,390.6094 139.0703,390.7734 Q139.7188,390.9375 140.2656,391.2969 Z " fill="#000000"/><text fill="#000000" font-family="sans-serif" font-size="14" lengthAdjust="spacing" textLength="48" x="154.5" y="398.9551">Usuario</text><rect fill="#FEFECE" filter="url(#f34fqauuxpmlm)" height="36" style="stroke:#A80036;stroke-width:1.5;" width="75" x="356" y="48.6094"/><ellipse cx="374" cy="66.6094" fill="#ADD1B2" rx="11" ry="11" style="stroke:#A80036;stroke-width:1.0;"/><path d="M376.7656,62.4844 Q376.9219,62.2656 377.1094,62.1563 Q377.2969,62.0469 377.5156,62.0469 Q377.8906,62.0469 378.125,62.3047 Q378.3594,62.5625 378.3594,63.1719 L378.3594,64.625 Q378.3594,65.2344 378.125,65.5 Q377.8906,65.7656 377.5156,65.7656 Q377.1719,65.7656 376.9688,65.5625 Q376.7656,65.375 376.6563,64.8594 Q376.6094,64.5 376.4219,64.3125 Q376.0938,63.9375 375.4844,63.7188 Q374.875,63.5 374.25,63.5 Q373.4844,63.5 372.8516,63.8281 Q372.2188,64.1563 371.7266,64.9063 Q371.2344,65.6563 371.2344,66.6875 L371.2344,67.7813 Q371.2344,69.0156 372.125,69.8359 Q373.0156,70.6563 374.6094,70.6563 Q375.5469,70.6563 376.2031,70.4063 Q376.5938,70.25 377.0156,69.8125 Q377.2813,69.5469 377.4297,69.4688 Q377.5781,69.3906 377.7813,69.3906 Q378.1094,69.3906 378.3672,69.6484 Q378.625,69.9063 378.625,70.25 Q378.625,70.5938 378.2813,71 Q377.7813,71.5781 376.9844,71.9063 Q375.9063,72.3594 374.6094,72.3594 Q373.0938,72.3594 371.8906,71.7344 Q370.9063,71.2344 370.2188,70.1641 Q369.5313,69.0938 369.5313,67.8125 L369.5313,66.6563 Q369.5313,65.3281 370.1484,64.1797 Q370.7656,63.0313 371.8594,62.4141 Q372.9531,61.7969 374.1875,61.7969 Q374.9219,61.7969 375.5703,61.9609 Q376.2188,62.125 376.7656,62.4844 Z " fill="#000000"/><text fill="#000000" font-family="sans-serif" font-size="14" lengthAdjust="spacing" textLength="33" x="391" y="70.1426">Midia</text><rect fill="#FEFECE" filter="url(#f34fqauuxpmlm)" height="36" style="stroke:#A80036;stroke-width:1.5;" width="75" x="356" y="377.4219"/><ellipse cx="374" cy="395.4219" fill="#ADD1B2" rx="11" ry="11" style="stroke:#A80036;stroke-width:1.0;"/><path d="M376.7656,391.2969 Q376.9219,391.0781 377.1094,390.9688 Q377.2969,390.8594 377.5156,390.8594 Q377.8906,390.8594 378.125,391.1172 Q378.3594,391.375 378.3594,391.9844 L378.3594,393.4375 Q378.3594,394.0469 378.125,394.3125 Q377.8906,394.5781 377.5156,394.5781 Q377.1719,394.5781 376.9688,394.375 Q376.7656,394.1875 376.6563,393.6719 Q376.6094,393.3125 376.4219,393.125 Q376.0938,392.75 375.4844,392.5313 Q374.875,392.3125 374.25,392.3125 Q373.4844,392.3125 372.8516,392.6406 Q372.2188,392.9688 371.7266,393.7188 Q371.2344,394.4688 371.2344,395.5 L371.2344,396.5938 Q371.2344,397.8281 372.125,398.6484 Q373.0156,399.4688 374.6094,399.4688 Q375.5469,399.4688 376.2031,399.2188 Q376.5938,399.0625 377.0156,398.625 Q377.2813,398.3594 377.4297,398.2813 Q377.5781,398.2031 377.7813,398.2031 Q378.1094,398.2031 378.3672,398.4609 Q378.625,398.7188 378.625,399.0625 Q378.625,399.4063 378.2813,399.8125 Q377.7813,400.3906 376.9844,400.7188 Q375.9063,401.1719 374.6094,401.1719 Q373.0938,401.1719 371.8906,400.5469 Q370.9063,400.0469 370.2188,398.9766 Q369.5313,397.9063 369.5313,396.625 L369.5313,395.4688 Q369.5313,394.1406 370.1484,392.9922 Q370.7656,391.8438 371.8594,391.2266 Q372.9531,390.6094 374.1875,390.6094 Q374.9219,390.6094 375.5703,390.7734 Q376.2188,390.9375 376.7656,391.2969 Z " fill="#000000"/><text fill="#000000" font-family="sans-serif" font-size="14" lengthAdjust="spacing" textLength="33" x="391" y="398.9551">Midia</text><rect fill="#FEFECE" filter="url(#f34fqauuxpmlm)" height="36" style="stroke:#A80036;stroke-width:1.5;" width="129" x="445" y="48.6094"/><ellipse cx="463" cy="66.6094" fill="#ADD1B2" rx="11" ry="11" style="stroke:#A80036;stroke-width:1.0;"/><path d="M465.7656,62.4844 Q465.9219,62.2656 466.1094,62.1563 Q466.2969,62.0469 466.5156,62.0469 Q466.8906,62.0469 467.125,62.3047 Q467.3594,62.5625 467.3594,63.1719 L467.3594,64.625 Q467.3594,65.2344 467.125,65.5 Q466.8906,65.7656 466.5156,65.7656 Q466.1719,65.7656 465.9688,65.5625 Q465.7656,65.375 465.6563,64.8594 Q465.6094,64.5 465.4219,64.3125 Q465.0938,63.9375 464.4844,63.7188 Q463.875,63.5 463.25,63.5 Q462.4844,63.5 461.8516,63.8281 Q461.2188,64.1563 460.7266,64.9063 Q460.2344,65.6563 460.2344,66.6875 L460.2344,67.7813 Q460.2344,69.0156 461.125,69.8359 Q462.0156,70.6563 463.6094,70.6563 Q464.5469,70.6563 465.2031,70.4063 Q465.5938,70.25 466.0156,69.8125 Q466.2813,69.5469 466.4297,69.4688 Q466.5781,69.3906 466.7813,69.3906 Q467.1094,69.3906 467.3672,69.6484 Q467.625,69.9063 467.625,70.25 Q467.625,70.5938 467.2813,71 Q466.7813,71.5781 465.9844,71.9063 Q464.9063,72.3594 463.6094,72.3594 Q462.0938,72.3594 460.8906,71.7344 Q459.9063,71.2344 459.2188,70.1641 Q458.5313,69.0938 458.5313,67.8125 L458.5313,66.6563 Q458.5313,65.3281 459.1484,64.1797 Q459.7656,63.0313 460.8594,62.4141 Q461.9531,61.7969 463.1875,61.7969 Q463.9219,61.7969 464.5703,61.9609 Q465.2188,62.125 465.7656,62.4844 Z " fill="#000000"/><text fill="#000000" font-family="sans-serif" font-size="14" lengthAdjust="spacing" textLength="87" x="480" y="70.1426">Administrador</text><rect fill="#FEFECE" filter="url(#f34fqauuxpmlm)" height="36" style="stroke:#A80036;stroke-width:1.5;" width="129" x="445" y="377.4219"/><ellipse cx="463" cy="395.4219" fill="#ADD1B2" rx="11" ry="11" style="stroke:#A80036;stroke-width:1.0;"/><path d="M465.7656,391.2969 Q465.9219,391.0781 466.1094,390.9688 Q466.2969,390.8594 466.5156,390.8594 Q466.8906,390.8594 467.125,391.1172 Q467.3594,391.375 467.3594,391.9844 L467.3594,393.4375 Q467.3594,394.0469 467.125,394.3125 Q466.8906,394.5781 466.5156,394.5781 Q466.1719,394.5781 465.9688,394.375 Q465.7656,394.1875 465.6563,393.6719 Q465.6094,393.3125 465.4219,393.125 Q465.0938,392.75 464.4844,392.5313 Q463.875,392.3125 463.25,392.3125 Q462.4844,392.3125 461.8516,392.6406 Q461.2188,392.9688 460.7266,393.7188 Q460.2344,394.4688 460.2344,395.5 L460.2344,396.5938 Q460.2344,397.8281 461.125,398.6484 Q462.0156,399.4688 463.6094,399.4688 Q464.5469,399.4688 465.2031,399.2188 Q465.5938,399.0625 466.0156,398.625 Q466.2813,398.3594 466.4297,398.2813 Q466.5781,398.2031 466.7813,398.2031 Q467.1094,398.2031 467.3672,398.4609 Q467.625,398.7188 467.625,399.0625 Q467.625,399.4063 467.2813,399.8125 Q466.7813,400.3906 465.9844,400.7188 Q464.9063,401.1719 463.6094,401.1719 Q462.0938,401.1719 460.8906,400.5469 Q459.9063,400.0469 459.2188,398.9766 Q458.5313,397.9063 458.5313,396.625 L458.5313,395.4688 Q458.5313,394.1406 459.1484,392.9922 Q459.7656,391.8438 460.8594,391.2266 Q461.9531,390.6094 463.1875,390.6094 Q463.9219,390.6094 464.5703,390.7734 Q465.2188,390.9375 465.7656,391.2969 Z " fill="#000000"/><text fill="#000000" font-family="sans-serif" font-size="14" lengthAdjust="spacing" textLength="87" x="480" y="398.9551">Administrador</text><rect fill="#FFFFFF" filter="url(#f34fqauuxpmlm)" height="260.8125" style="stroke:#A80036;stroke-width:1.0;" width="10" x="37.5" y="99.6094"/><rect fill="#FFFFFF" filter="url(#f34fqauuxpmlm)" height="260.8125" style="stroke:#A80036;stroke-width:1.0;" width="10" x="161.5" y="99.6094"/><rect fill="#FFFFFF" filter="url(#f34fqauuxpmlm)" height="260.8125" style="stroke:#A80036;stroke-width:1.0;" width="10" x="390.5" y="99.6094"/><rect fill="#FFFFFF" filter="url(#f34fqauuxpmlm)" height="260.8125" style="stroke:#A80036;stroke-width:1.0;" width="10" x="506.5" y="99.6094"/><polygon fill="#0000FF" points="149.5,117.9609,159.5,121.9609,149.5,125.9609,153.5,121.9609" style="stroke:#0000FF;stroke-width:1.0;"/><line style="stroke:#0000FF;stroke-width:1.0;" x1="47.5" x2="155.5" y1="121.9609" y2="121.9609"/><text fill="#000000" font-family="sans-serif" font-size="13" lengthAdjust="spacing" textLength="86" x="54.5" y="117.1045">comprarMidia()</text><line style="stroke:#0000FF;stroke-width:1.0;" x1="171.5" x2="213.5" y1="152.3125" y2="152.3125"/><line style="stroke:#0000FF;stroke-width:1.0;" x1="213.5" x2="213.5" y1="152.3125" y2="165.3125"/><line style="stroke:#0000FF;stroke-width:1.0;" x1="172.5" x2="213.5" y1="165.3125" y2="165.3125"/><polygon fill="#0000FF" points="182.5,161.3125,172.5,165.3125,182.5,169.3125,178.5,165.3125" style="stroke:#0000FF;stroke-width:1.0;"/><text fill="#000000" font-family="sans-serif" font-size="13" lengthAdjust="spacing" textLength="109" x="178.5" y="147.4561">visualizarCreditos()</text><polygon fill="#0000FF" points="494.5,191.6641,504.5,195.6641,494.5,199.6641,498.5,195.6641" style="stroke:#0000FF;stroke-width:1.0;"/><line style="stroke:#0000FF;stroke-width:1.0;" x1="171.5" x2="500.5" y1="195.6641" y2="195.6641"/><text fill="#000000" font-family="sans-serif" font-size="13" lengthAdjust="spacing" textLength="88" x="178.5" y="190.8076">verificarSenha()</text><polygon fill="#008000" points="182.5,222.0156,172.5,226.0156,182.5,230.0156,178.5,226.0156" style="stroke:#008000;stroke-width:1.0;"/><line style="stroke:#008000;stroke-width:1.0;stroke-dasharray:2.0,2.0;" x1="176.5" x2="505.5" y1="226.0156" y2="226.0156"/><text fill="#000000" font-family="sans-serif" font-size="13" lengthAdjust="spacing" textLength="49" x="188.5" y="221.1592">sucesso</text><polygon fill="#0000FF" points="378.5,252.3672,388.5,256.3672,378.5,260.3672,382.5,256.3672" style="stroke:#0000FF;stroke-width:1.0;"/><line style="stroke:#0000FF;stroke-width:1.0;" x1="171.5" x2="384.5" y1="256.3672" y2="256.3672"/><text fill="#000000" font-family="sans-serif" font-size="13" lengthAdjust="spacing" textLength="55" x="178.5" y="251.5107">comprar()</text><polygon fill="#008000" points="182.5,282.7188,172.5,286.7188,182.5,290.7188,178.5,286.7188" style="stroke:#008000;stroke-width:1.0;"/><line style="stroke:#008000;stroke-width:1.0;stroke-dasharray:2.0,2.0;" x1="176.5" x2="389.5" y1="286.7188" y2="286.7188"/><text fill="#000000" font-family="sans-serif" font-size="13" lengthAdjust="spacing" textLength="49" x="188.5" y="281.8623">sucesso</text><line style="stroke:#0000FF;stroke-width:1.0;" x1="171.5" x2="213.5" y1="317.0703" y2="317.0703"/><line style="stroke:#0000FF;stroke-width:1.0;" x1="213.5" x2="213.5" y1="317.0703" y2="330.0703"/><line style="stroke:#0000FF;stroke-width:1.0;" x1="172.5" x2="213.5" y1="330.0703" y2="330.0703"/><polygon fill="#0000FF" points="182.5,326.0703,172.5,330.0703,182.5,334.0703,178.5,330.0703" style="stroke:#0000FF;stroke-width:1.0;"/><text fill="#000000" font-family="sans-serif" font-size="13" lengthAdjust="spacing" textLength="205" x="178.5" y="312.2139">adicionarMidiaEmListaCompradas()</text><polygon fill="#008000" points="53.5,356.4219,43.5,360.4219,53.5,364.4219,49.5,360.4219" style="stroke:#008000;stroke-width:1.0;"/><line style="stroke:#008000;stroke-width:1.0;stroke-dasharray:2.0,2.0;" x1="47.5" x2="165.5" y1="360.4219" y2="360.4219"/><text fill="#000000" font-family="sans-serif" font-size="13" lengthAdjust="spacing" textLength="90" x="59.5" y="355.5654">MidiaComprada</text><!--MD5=[c94e8b25242dcbc7cbca429a66e31a14]
@startuml comprar-midia
actor Academico

participant Usuario << (C,#ADD1B2) >>
participant Midia << (C,#ADD1B2) >>
participant Administrador << (C,#ADD1B2) >>

activate Academico
activate Usuario
activate Administrador
activate Midia

Academico -[#blue]> Usuario: comprarMidia()

Usuario -[#blue]> Usuario: visualizarCreditos()
Usuario -[#blue]> Administrador: verificarSenha()
Administrador -[#green]-> Usuario: sucesso

Usuario -[#blue]> Midia: comprar()
Midia -[#green]-> Usuario: sucesso

Usuario -[#blue]> Usuario: adicionarMidiaEmListaCompradas()
Usuario -[#green]-> Academico: MidiaComprada

deactivate Midia
deactivate Administrador
deactivate Usuario
deactivate Academico
@enduml

PlantUML version 1.2021.7(Sun May 23 09:40:07 BRT 2021)
(GPL source distribution)
Java Runtime: Java(TM) SE Runtime Environment
JVM: Java HotSpot(TM) 64-Bit Server VM
Default Encoding: Cp1252
Language: pt
Country: BR
--></g></svg>