<?xml version="1.0" encoding="UTF-8" standalone="no"?><svg xmlns="http://www.w3.org/2000/svg" xmlns:xlink="http://www.w3.org/1999/xlink" contentScriptType="application/ecmascript" contentStyleType="text/css" height="316px" preserveAspectRatio="none" style="width:345px;height:316px;" version="1.1" viewBox="0 0 345 316" width="345px" zoomAndPan="magnify"><defs><filter height="300%" id="f10xzxn4n5hzwf" width="300%" x="-1" y="-1"><feGaussianBlur result="blurOut" stdDeviation="2.0"/><feColorMatrix in="blurOut" result="blurOut2" type="matrix" values="0 0 0 0 0 0 0 0 0 0 0 0 0 0 0 0 0 0 .4 0"/><feOffset dx="4.0" dy="4.0" in="blurOut2" result="blurOut3"/><feBlend in="SourceGraphic" in2="blurOut3" mode="normal"/></filter></defs><g><rect fill="#FFFFFF" filter="url(#f10xzxn4n5hzwf)" height="113.4063" style="stroke:#A80036;stroke-width:1.0;" width="10" x="37.5" y="99.6094"/><rect fill="#FFFFFF" filter="url(#f10xzxn4n5hzwf)" height="113.4063" style="stroke:#A80036;stroke-width:1.0;" width="10" x="140.5" y="99.6094"/><rect fill="#FFFFFF" filter="url(#f10xzxn4n5hzwf)" height="113.4063" style="stroke:#A80036;stroke-width:1.0;" width="10" x="264" y="99.6094"/><line style="stroke:#A80036;stroke-width:1.0;stroke-dasharray:5.0,5.0;" x1="42" x2="42" y1="89.6094" y2="231.0156"/><line style="stroke:#A80036;stroke-width:1.0;stroke-dasharray:5.0,5.0;" x1="145.5" x2="145.5" y1="89.6094" y2="231.0156"/><line style="stroke:#A80036;stroke-width:1.0;stroke-dasharray:5.0,5.0;" x1="268.5" x2="268.5" y1="89.6094" y2="231.0156"/><text fill="#000000" font-family="sans-serif" font-size="14" lengthAdjust="spacing" textLength="69" x="5" y="86.5332">Academico</text><ellipse cx="42.5" cy="15" fill="#FEFECE" filter="url(#f10xzxn4n5hzwf)" rx="8" ry="8" style="stroke:#A80036;stroke-width:2.0;"/><path d="M42.5,23 L42.5,50 M29.5,31 L55.5,31 M42.5,50 L29.5,65 M42.5,50 L55.5,65 " fill="none" filter="url(#f10xzxn4n5hzwf)" style="stroke:#A80036;stroke-width:2.0;"/><text fill="#000000" font-family="sans-serif" font-size="14" lengthAdjust="spacing" textLength="69" x="5" y="244.5488">Academico</text><ellipse cx="42.5" cy="257.625" fill="#FEFECE" filter="url(#f10xzxn4n5hzwf)" rx="8" ry="8" style="stroke:#A80036;stroke-width:2.0;"/><path d="M42.5,265.625 L42.5,292.625 M29.5,273.625 L55.5,273.625 M42.5,292.625 L29.5,307.625 M42.5,292.625 L55.5,307.625 " fill="none" filter="url(#f10xzxn4n5hzwf)" style="stroke:#A80036;stroke-width:2.0;"/><rect fill="#FEFECE" filter="url(#f10xzxn4n5hzwf)" height="36" style="stroke:#A80036;stroke-width:1.5;" width="90" x="98.5" y="48.6094"/><ellipse cx="116.5" cy="66.6094" fill="#ADD1B2" rx="11" ry="11" style="stroke:#A80036;stroke-width:1.0;"/><path d="M119.2656,62.4844 Q119.4219,62.2656 119.6094,62.1563 Q119.7969,62.0469 120.0156,62.0469 Q120.3906,62.0469 120.625,62.3047 Q120.8594,62.5625 120.8594,63.1719 L120.8594,64.625 Q120.8594,65.2344 120.625,65.5 Q120.3906,65.7656 120.0156,65.7656 Q119.6719,65.7656 119.4688,65.5625 Q119.2656,65.375 119.1563,64.8594 Q119.1094,64.5 118.9219,64.3125 Q118.5938,63.9375 117.9844,63.7188 Q117.375,63.5 116.75,63.5 Q115.9844,63.5 115.3516,63.8281 Q114.7188,64.1563 114.2266,64.9063 Q113.7344,65.6563 113.7344,66.6875 L113.7344,67.7813 Q113.7344,69.0156 114.625,69.8359 Q115.5156,70.6563 117.1094,70.6563 Q118.0469,70.6563 118.7031,70.4063 Q119.0938,70.25 119.5156,69.8125 Q119.7813,69.5469 119.9297,69.4688 Q120.0781,69.3906 120.2813,69.3906 Q120.6094,69.3906 120.8672,69.6484 Q121.125,69.9063 121.125,70.25 Q121.125,70.5938 120.7813,71 Q120.2813,71.5781 119.4844,71.9063 Q118.4063,72.3594 117.1094,72.3594 Q115.5938,72.3594 114.3906,71.7344 Q113.4063,71.2344 112.7188,70.1641 Q112.0313,69.0938 112.0313,67.8125 L112.0313,66.6563 Q112.0313,65.3281 112.6484,64.1797 Q113.2656,63.0313 114.3594,62.4141 Q115.4531,61.7969 116.6875,61.7969 Q117.4219,61.7969 118.0703,61.9609 Q118.7188,62.125 119.2656,62.4844 Z " fill="#000000"/><text fill="#000000" font-family="sans-serif" font-size="14" lengthAdjust="spacing" textLength="48" x="133.5" y="70.1426">Usuario</text><rect fill="#FEFECE" filter="url(#f10xzxn4n5hzwf)" height="36" style="stroke:#A80036;stroke-width:1.5;" width="90" x="98.5" y="230.0156"/><ellipse cx="116.5" cy="248.0156" fill="#ADD1B2" rx="11" ry="11" style="stroke:#A80036;stroke-width:1.0;"/><path d="M119.2656,243.8906 Q119.4219,243.6719 119.6094,243.5625 Q119.7969,243.4531 120.0156,243.4531 Q120.3906,243.4531 120.625,243.7109 Q120.8594,243.9688 120.8594,244.5781 L120.8594,246.0313 Q120.8594,246.6406 120.625,246.9063 Q120.3906,247.1719 120.0156,247.1719 Q119.6719,247.1719 119.4688,246.9688 Q119.2656,246.7813 119.1563,246.2656 Q119.1094,245.9063 118.9219,245.7188 Q118.5938,245.3438 117.9844,245.125 Q117.375,244.9063 116.75,244.9063 Q115.9844,244.9063 115.3516,245.2344 Q114.7188,245.5625 114.2266,246.3125 Q113.7344,247.0625 113.7344,248.0938 L113.7344,249.1875 Q113.7344,250.4219 114.625,251.2422 Q115.5156,252.0625 117.1094,252.0625 Q118.0469,252.0625 118.7031,251.8125 Q119.0938,251.6563 119.5156,251.2188 Q119.7813,250.9531 119.9297,250.875 Q120.0781,250.7969 120.2813,250.7969 Q120.6094,250.7969 120.8672,251.0547 Q121.125,251.3125 121.125,251.6563 Q121.125,252 120.7813,252.4063 Q120.2813,252.9844 119.4844,253.3125 Q118.4063,253.7656 117.1094,253.7656 Q115.5938,253.7656 114.3906,253.1406 Q113.4063,252.6406 112.7188,251.5703 Q112.0313,250.5 112.0313,249.2188 L112.0313,248.0625 Q112.0313,246.7344 112.6484,245.5859 Q113.2656,244.4375 114.3594,243.8203 Q115.4531,243.2031 116.6875,243.2031 Q117.4219,243.2031 118.0703,243.3672 Q118.7188,243.5313 119.2656,243.8906 Z " fill="#000000"/><text fill="#000000" font-family="sans-serif" font-size="14" lengthAdjust="spacing" textLength="48" x="133.5" y="251.5488">Usuario</text><rect fill="#FEFECE" filter="url(#f10xzxn4n5hzwf)" height="36" style="stroke:#A80036;stroke-width:1.5;" width="129" x="202.5" y="48.6094"/><ellipse cx="220.5" cy="66.6094" fill="#ADD1B2" rx="11" ry="11" style="stroke:#A80036;stroke-width:1.0;"/><path d="M223.2656,62.4844 Q223.4219,62.2656 223.6094,62.1563 Q223.7969,62.0469 224.0156,62.0469 Q224.3906,62.0469 224.625,62.3047 Q224.8594,62.5625 224.8594,63.1719 L224.8594,64.625 Q224.8594,65.2344 224.625,65.5 Q224.3906,65.7656 224.0156,65.7656 Q223.6719,65.7656 223.4688,65.5625 Q223.2656,65.375 223.1563,64.8594 Q223.1094,64.5 222.9219,64.3125 Q222.5938,63.9375 221.9844,63.7188 Q221.375,63.5 220.75,63.5 Q219.9844,63.5 219.3516,63.8281 Q218.7188,64.1563 218.2266,64.9063 Q217.7344,65.6563 217.7344,66.6875 L217.7344,67.7813 Q217.7344,69.0156 218.625,69.8359 Q219.5156,70.6563 221.1094,70.6563 Q222.0469,70.6563 222.7031,70.4063 Q223.0938,70.25 223.5156,69.8125 Q223.7813,69.5469 223.9297,69.4688 Q224.0781,69.3906 224.2813,69.3906 Q224.6094,69.3906 224.8672,69.6484 Q225.125,69.9063 225.125,70.25 Q225.125,70.5938 224.7813,71 Q224.2813,71.5781 223.4844,71.9063 Q222.4063,72.3594 221.1094,72.3594 Q219.5938,72.3594 218.3906,71.7344 Q217.4063,71.2344 216.7188,70.1641 Q216.0313,69.0938 216.0313,67.8125 L216.0313,66.6563 Q216.0313,65.3281 216.6484,64.1797 Q217.2656,63.0313 218.3594,62.4141 Q219.4531,61.7969 220.6875,61.7969 Q221.4219,61.7969 222.0703,61.9609 Q222.7188,62.125 223.2656,62.4844 Z " fill="#000000"/><text fill="#000000" font-family="sans-serif" font-size="14" lengthAdjust="spacing" textLength="87" x="237.5" y="70.1426">Administrador</text><rect fill="#FEFECE" filter="url(#f10xzxn4n5hzwf)" height="36" style="stroke:#A80036;stroke-width:1.5;" width="129" x="202.5" y="230.0156"/><ellipse cx="220.5" cy="248.0156" fill="#ADD1B2" rx="11" ry="11" style="stroke:#A80036;stroke-width:1.0;"/><path d="M223.2656,243.8906 Q223.4219,243.6719 223.6094,243.5625 Q223.7969,243.4531 224.0156,243.4531 Q224.3906,243.4531 224.625,243.7109 Q224.8594,243.9688 224.8594,244.5781 L224.8594,246.0313 Q224.8594,246.6406 224.625,246.9063 Q224.3906,247.1719 224.0156,247.1719 Q223.6719,247.1719 223.4688,246.9688 Q223.2656,246.7813 223.1563,246.2656 Q223.1094,245.9063 222.9219,245.7188 Q222.5938,245.3438 221.9844,245.125 Q221.375,244.9063 220.75,244.9063 Q219.9844,244.9063 219.3516,245.2344 Q218.7188,245.5625 218.2266,246.3125 Q217.7344,247.0625 217.7344,248.0938 L217.7344,249.1875 Q217.7344,250.4219 218.625,251.2422 Q219.5156,252.0625 221.1094,252.0625 Q222.0469,252.0625 222.7031,251.8125 Q223.0938,251.6563 223.5156,251.2188 Q223.7813,250.9531 223.9297,250.875 Q224.0781,250.7969 224.2813,250.7969 Q224.6094,250.7969 224.8672,251.0547 Q225.125,251.3125 225.125,251.6563 Q225.125,252 224.7813,252.4063 Q224.2813,252.9844 223.4844,253.3125 Q222.4063,253.7656 221.1094,253.7656 Q219.5938,253.7656 218.3906,253.1406 Q217.4063,252.6406 216.7188,251.5703 Q216.0313,250.5 216.0313,249.2188 L216.0313,248.0625 Q216.0313,246.7344 216.6484,245.5859 Q217.2656,244.4375 218.3594,243.8203 Q219.4531,243.2031 220.6875,243.2031 Q221.4219,243.2031 222.0703,243.3672 Q222.7188,243.5313 223.2656,243.8906 Z " fill="#000000"/><text fill="#000000" font-family="sans-serif" font-size="14" lengthAdjust="spacing" textLength="87" x="237.5" y="251.5488">Administrador</text><rect fill="#FFFFFF" filter="url(#f10xzxn4n5hzwf)" height="113.4063" style="stroke:#A80036;stroke-width:1.0;" width="10" x="37.5" y="99.6094"/><rect fill="#FFFFFF" filter="url(#f10xzxn4n5hzwf)" height="113.4063" style="stroke:#A80036;stroke-width:1.0;" width="10" x="140.5" y="99.6094"/><rect fill="#FFFFFF" filter="url(#f10xzxn4n5hzwf)" height="113.4063" style="stroke:#A80036;stroke-width:1.0;" width="10" x="264" y="99.6094"/><polygon fill="#0000FF" points="128.5,117.9609,138.5,121.9609,128.5,125.9609,132.5,121.9609" style="stroke:#0000FF;stroke-width:1.0;"/><line style="stroke:#0000FF;stroke-width:1.0;" x1="47.5" x2="134.5" y1="121.9609" y2="121.9609"/><text fill="#000000" font-family="sans-serif" font-size="13" lengthAdjust="spacing" textLength="67" x="54.5" y="117.1045">criarConta()</text><polygon fill="#0000FF" points="252,148.3125,262,152.3125,252,156.3125,256,152.3125" style="stroke:#0000FF;stroke-width:1.0;"/><line style="stroke:#0000FF;stroke-width:1.0;" x1="150.5" x2="258" y1="152.3125" y2="152.3125"/><text fill="#000000" font-family="sans-serif" font-size="13" lengthAdjust="spacing" textLength="88" x="157.5" y="147.4561">verificarSenha()</text><polygon fill="#008000" points="161.5,178.6641,151.5,182.6641,161.5,186.6641,157.5,182.6641" style="stroke:#008000;stroke-width:1.0;"/><line style="stroke:#008000;stroke-width:1.0;stroke-dasharray:2.0,2.0;" x1="155.5" x2="263" y1="182.6641" y2="182.6641"/><text fill="#000000" font-family="sans-serif" font-size="13" lengthAdjust="spacing" textLength="49" x="167.5" y="177.8076">sucesso</text><polygon fill="#008000" points="53.5,209.0156,43.5,213.0156,53.5,217.0156,49.5,213.0156" style="stroke:#008000;stroke-width:1.0;"/><line style="stroke:#008000;stroke-width:1.0;stroke-dasharray:2.0,2.0;" x1="47.5" x2="144.5" y1="213.0156" y2="213.0156"/><text fill="#000000" font-family="sans-serif" font-size="13" lengthAdjust="spacing" textLength="69" x="59.5" y="208.1592">contaCriada</text><!--MD5=[98e6f1f82b2e79399603c563ae43c290]
@startuml criar-conta
actor Academico

participant Usuario << (C,#ADD1B2) >>
participant Administrador << (C,#ADD1B2) >>

activate Academico
activate Usuario
activate Administrador

Academico -[#blue]> Usuario: criarConta()

Usuario -[#blue]> Administrador: verificarSenha()
Administrador -[#green]-> Usuario: sucesso

Usuario -[#green]-> Academico: contaCriada

deactivate Administrador
deactivate Usuario
deactivate Academico
@enduml

PlantUML version 1.2021.00(Sun Jan 10 07:25:05 BRT 2021)
(GPL source distribution)
Java Runtime: Java(TM) SE Runtime Environment
JVM: Java HotSpot(TM) 64-Bit Server VM
Default Encoding: Cp1252
Language: pt
Country: BR
--></g></svg>