<?xml version="1.0" encoding="UTF-8" standalone="no"?><svg xmlns="http://www.w3.org/2000/svg" xmlns:xlink="http://www.w3.org/1999/xlink" contentScriptType="application/ecmascript" contentStyleType="text/css" height="346px" preserveAspectRatio="none" style="width:387px;height:346px;background:#FFFFFF;" version="1.1" viewBox="0 0 387 346" width="387px" zoomAndPan="magnify"><defs><filter height="300%" id="f53zzv35z34nf" width="300%" x="-1" y="-1"><feGaussianBlur result="blurOut" stdDeviation="2.0"/><feColorMatrix in="blurOut" result="blurOut2" type="matrix" values="0 0 0 0 0 0 0 0 0 0 0 0 0 0 0 0 0 0 .4 0"/><feOffset dx="4.0" dy="4.0" in="blurOut2" result="blurOut3"/><feBlend in="SourceGraphic" in2="blurOut3" mode="normal"/></filter></defs><g><rect fill="#FFFFFF" filter="url(#f53zzv35z34nf)" height="143.7578" style="stroke:#A80036;stroke-width:1.0;" width="10" x="37.5" y="99.6094"/><rect fill="#FFFFFF" filter="url(#f53zzv35z34nf)" height="143.7578" style="stroke:#A80036;stroke-width:1.0;" width="10" x="139.5" y="99.6094"/><rect fill="#FFFFFF" filter="url(#f53zzv35z34nf)" height="143.7578" style="stroke:#A80036;stroke-width:1.0;" width="10" x="236.5" y="99.6094"/><rect fill="#FFFFFF" filter="url(#f53zzv35z34nf)" height="143.7578" style="stroke:#A80036;stroke-width:1.0;" width="10" x="333" y="99.6094"/><line style="stroke:#A80036;stroke-width:1.0;stroke-dasharray:5.0,5.0;" x1="42" x2="42" y1="89.6094" y2="261.3672"/><line style="stroke:#A80036;stroke-width:1.0;stroke-dasharray:5.0,5.0;" x1="144.5" x2="144.5" y1="89.6094" y2="261.3672"/><line style="stroke:#A80036;stroke-width:1.0;stroke-dasharray:5.0,5.0;" x1="241.5" x2="241.5" y1="89.6094" y2="261.3672"/><line style="stroke:#A80036;stroke-width:1.0;stroke-dasharray:5.0,5.0;" x1="337.5" x2="337.5" y1="89.6094" y2="261.3672"/><text fill="#000000" font-family="sans-serif" font-size="14" lengthAdjust="spacing" textLength="69" x="5" y="86.5332">Academico</text><ellipse cx="42.5" cy="15" fill="#FEFECE" filter="url(#f53zzv35z34nf)" rx="8" ry="8" style="stroke:#A80036;stroke-width:2.0;"/><path d="M42.5,23 L42.5,50 M29.5,31 L55.5,31 M42.5,50 L29.5,65 M42.5,50 L55.5,65 " fill="none" filter="url(#f53zzv35z34nf)" style="stroke:#A80036;stroke-width:2.0;"/><text fill="#000000" font-family="sans-serif" font-size="14" lengthAdjust="spacing" textLength="69" x="5" y="274.9004">Academico</text><ellipse cx="42.5" cy="287.9766" fill="#FEFECE" filter="url(#f53zzv35z34nf)" rx="8" ry="8" style="stroke:#A80036;stroke-width:2.0;"/><path d="M42.5,295.9766 L42.5,322.9766 M29.5,303.9766 L55.5,303.9766 M42.5,322.9766 L29.5,337.9766 M42.5,322.9766 L55.5,337.9766 " fill="none" filter="url(#f53zzv35z34nf)" style="stroke:#A80036;stroke-width:2.0;"/><rect fill="#FEFECE" filter="url(#f53zzv35z34nf)" height="36" style="stroke:#A80036;stroke-width:1.5;" width="76" x="104.5" y="48.6094"/><ellipse cx="122.5" cy="66.6094" fill="#ADD1B2" rx="11" ry="11" style="stroke:#A80036;stroke-width:1.0;"/><path d="M125.2656,62.4844 Q125.4219,62.2656 125.6094,62.1563 Q125.7969,62.0469 126.0156,62.0469 Q126.3906,62.0469 126.625,62.3047 Q126.8594,62.5625 126.8594,63.1719 L126.8594,64.625 Q126.8594,65.2344 126.625,65.5 Q126.3906,65.7656 126.0156,65.7656 Q125.6719,65.7656 125.4688,65.5625 Q125.2656,65.375 125.1563,64.8594 Q125.1094,64.5 124.9219,64.3125 Q124.5938,63.9375 123.9844,63.7188 Q123.375,63.5 122.75,63.5 Q121.9844,63.5 121.3516,63.8281 Q120.7188,64.1563 120.2266,64.9063 Q119.7344,65.6563 119.7344,66.6875 L119.7344,67.7813 Q119.7344,69.0156 120.625,69.8359 Q121.5156,70.6563 123.1094,70.6563 Q124.0469,70.6563 124.7031,70.4063 Q125.0938,70.25 125.5156,69.8125 Q125.7813,69.5469 125.9297,69.4688 Q126.0781,69.3906 126.2813,69.3906 Q126.6094,69.3906 126.8672,69.6484 Q127.125,69.9063 127.125,70.25 Q127.125,70.5938 126.7813,71 Q126.2813,71.5781 125.4844,71.9063 Q124.4063,72.3594 123.1094,72.3594 Q121.5938,72.3594 120.3906,71.7344 Q119.4063,71.2344 118.7188,70.1641 Q118.0313,69.0938 118.0313,67.8125 L118.0313,66.6563 Q118.0313,65.3281 118.6484,64.1797 Q119.2656,63.0313 120.3594,62.4141 Q121.4531,61.7969 122.6875,61.7969 Q123.4219,61.7969 124.0703,61.9609 Q124.7188,62.125 125.2656,62.4844 Z " fill="#000000"/><text fill="#000000" font-family="sans-serif" font-size="14" lengthAdjust="spacing" textLength="34" x="139.5" y="70.1426">Autor</text><rect fill="#FEFECE" filter="url(#f53zzv35z34nf)" height="36" style="stroke:#A80036;stroke-width:1.5;" width="76" x="104.5" y="260.3672"/><ellipse cx="122.5" cy="278.3672" fill="#ADD1B2" rx="11" ry="11" style="stroke:#A80036;stroke-width:1.0;"/><path d="M125.2656,274.2422 Q125.4219,274.0234 125.6094,273.9141 Q125.7969,273.8047 126.0156,273.8047 Q126.3906,273.8047 126.625,274.0625 Q126.8594,274.3203 126.8594,274.9297 L126.8594,276.3828 Q126.8594,276.9922 126.625,277.2578 Q126.3906,277.5234 126.0156,277.5234 Q125.6719,277.5234 125.4688,277.3203 Q125.2656,277.1328 125.1563,276.6172 Q125.1094,276.2578 124.9219,276.0703 Q124.5938,275.6953 123.9844,275.4766 Q123.375,275.2578 122.75,275.2578 Q121.9844,275.2578 121.3516,275.5859 Q120.7188,275.9141 120.2266,276.6641 Q119.7344,277.4141 119.7344,278.4453 L119.7344,279.5391 Q119.7344,280.7734 120.625,281.5938 Q121.5156,282.4141 123.1094,282.4141 Q124.0469,282.4141 124.7031,282.1641 Q125.0938,282.0078 125.5156,281.5703 Q125.7813,281.3047 125.9297,281.2266 Q126.0781,281.1484 126.2813,281.1484 Q126.6094,281.1484 126.8672,281.4063 Q127.125,281.6641 127.125,282.0078 Q127.125,282.3516 126.7813,282.7578 Q126.2813,283.3359 125.4844,283.6641 Q124.4063,284.1172 123.1094,284.1172 Q121.5938,284.1172 120.3906,283.4922 Q119.4063,282.9922 118.7188,281.9219 Q118.0313,280.8516 118.0313,279.5703 L118.0313,278.4141 Q118.0313,277.0859 118.6484,275.9375 Q119.2656,274.7891 120.3594,274.1719 Q121.4531,273.5547 122.6875,273.5547 Q123.4219,273.5547 124.0703,273.7188 Q124.7188,273.8828 125.2656,274.2422 Z " fill="#000000"/><text fill="#000000" font-family="sans-serif" font-size="14" lengthAdjust="spacing" textLength="34" x="139.5" y="281.9004">Autor</text><rect fill="#FEFECE" filter="url(#f53zzv35z34nf)" height="36" style="stroke:#A80036;stroke-width:1.5;" width="90" x="194.5" y="48.6094"/><ellipse cx="212.5" cy="66.6094" fill="#ADD1B2" rx="11" ry="11" style="stroke:#A80036;stroke-width:1.0;"/><path d="M215.2656,62.4844 Q215.4219,62.2656 215.6094,62.1563 Q215.7969,62.0469 216.0156,62.0469 Q216.3906,62.0469 216.625,62.3047 Q216.8594,62.5625 216.8594,63.1719 L216.8594,64.625 Q216.8594,65.2344 216.625,65.5 Q216.3906,65.7656 216.0156,65.7656 Q215.6719,65.7656 215.4688,65.5625 Q215.2656,65.375 215.1563,64.8594 Q215.1094,64.5 214.9219,64.3125 Q214.5938,63.9375 213.9844,63.7188 Q213.375,63.5 212.75,63.5 Q211.9844,63.5 211.3516,63.8281 Q210.7188,64.1563 210.2266,64.9063 Q209.7344,65.6563 209.7344,66.6875 L209.7344,67.7813 Q209.7344,69.0156 210.625,69.8359 Q211.5156,70.6563 213.1094,70.6563 Q214.0469,70.6563 214.7031,70.4063 Q215.0938,70.25 215.5156,69.8125 Q215.7813,69.5469 215.9297,69.4688 Q216.0781,69.3906 216.2813,69.3906 Q216.6094,69.3906 216.8672,69.6484 Q217.125,69.9063 217.125,70.25 Q217.125,70.5938 216.7813,71 Q216.2813,71.5781 215.4844,71.9063 Q214.4063,72.3594 213.1094,72.3594 Q211.5938,72.3594 210.3906,71.7344 Q209.4063,71.2344 208.7188,70.1641 Q208.0313,69.0938 208.0313,67.8125 L208.0313,66.6563 Q208.0313,65.3281 208.6484,64.1797 Q209.2656,63.0313 210.3594,62.4141 Q211.4531,61.7969 212.6875,61.7969 Q213.4219,61.7969 214.0703,61.9609 Q214.7188,62.125 215.2656,62.4844 Z " fill="#000000"/><text fill="#000000" font-family="sans-serif" font-size="14" lengthAdjust="spacing" textLength="48" x="229.5" y="70.1426">Usuario</text><rect fill="#FEFECE" filter="url(#f53zzv35z34nf)" height="36" style="stroke:#A80036;stroke-width:1.5;" width="90" x="194.5" y="260.3672"/><ellipse cx="212.5" cy="278.3672" fill="#ADD1B2" rx="11" ry="11" style="stroke:#A80036;stroke-width:1.0;"/><path d="M215.2656,274.2422 Q215.4219,274.0234 215.6094,273.9141 Q215.7969,273.8047 216.0156,273.8047 Q216.3906,273.8047 216.625,274.0625 Q216.8594,274.3203 216.8594,274.9297 L216.8594,276.3828 Q216.8594,276.9922 216.625,277.2578 Q216.3906,277.5234 216.0156,277.5234 Q215.6719,277.5234 215.4688,277.3203 Q215.2656,277.1328 215.1563,276.6172 Q215.1094,276.2578 214.9219,276.0703 Q214.5938,275.6953 213.9844,275.4766 Q213.375,275.2578 212.75,275.2578 Q211.9844,275.2578 211.3516,275.5859 Q210.7188,275.9141 210.2266,276.6641 Q209.7344,277.4141 209.7344,278.4453 L209.7344,279.5391 Q209.7344,280.7734 210.625,281.5938 Q211.5156,282.4141 213.1094,282.4141 Q214.0469,282.4141 214.7031,282.1641 Q215.0938,282.0078 215.5156,281.5703 Q215.7813,281.3047 215.9297,281.2266 Q216.0781,281.1484 216.2813,281.1484 Q216.6094,281.1484 216.8672,281.4063 Q217.125,281.6641 217.125,282.0078 Q217.125,282.3516 216.7813,282.7578 Q216.2813,283.3359 215.4844,283.6641 Q214.4063,284.1172 213.1094,284.1172 Q211.5938,284.1172 210.3906,283.4922 Q209.4063,282.9922 208.7188,281.9219 Q208.0313,280.8516 208.0313,279.5703 L208.0313,278.4141 Q208.0313,277.0859 208.6484,275.9375 Q209.2656,274.7891 210.3594,274.1719 Q211.4531,273.5547 212.6875,273.5547 Q213.4219,273.5547 214.0703,273.7188 Q214.7188,273.8828 215.2656,274.2422 Z " fill="#000000"/><text fill="#000000" font-family="sans-serif" font-size="14" lengthAdjust="spacing" textLength="48" x="229.5" y="281.9004">Usuario</text><rect fill="#FEFECE" filter="url(#f53zzv35z34nf)" height="36" style="stroke:#A80036;stroke-width:1.5;" width="75" x="298.5" y="48.6094"/><ellipse cx="316.5" cy="66.6094" fill="#ADD1B2" rx="11" ry="11" style="stroke:#A80036;stroke-width:1.0;"/><path d="M319.2656,62.4844 Q319.4219,62.2656 319.6094,62.1563 Q319.7969,62.0469 320.0156,62.0469 Q320.3906,62.0469 320.625,62.3047 Q320.8594,62.5625 320.8594,63.1719 L320.8594,64.625 Q320.8594,65.2344 320.625,65.5 Q320.3906,65.7656 320.0156,65.7656 Q319.6719,65.7656 319.4688,65.5625 Q319.2656,65.375 319.1563,64.8594 Q319.1094,64.5 318.9219,64.3125 Q318.5938,63.9375 317.9844,63.7188 Q317.375,63.5 316.75,63.5 Q315.9844,63.5 315.3516,63.8281 Q314.7188,64.1563 314.2266,64.9063 Q313.7344,65.6563 313.7344,66.6875 L313.7344,67.7813 Q313.7344,69.0156 314.625,69.8359 Q315.5156,70.6563 317.1094,70.6563 Q318.0469,70.6563 318.7031,70.4063 Q319.0938,70.25 319.5156,69.8125 Q319.7813,69.5469 319.9297,69.4688 Q320.0781,69.3906 320.2813,69.3906 Q320.6094,69.3906 320.8672,69.6484 Q321.125,69.9063 321.125,70.25 Q321.125,70.5938 320.7813,71 Q320.2813,71.5781 319.4844,71.9063 Q318.4063,72.3594 317.1094,72.3594 Q315.5938,72.3594 314.3906,71.7344 Q313.4063,71.2344 312.7188,70.1641 Q312.0313,69.0938 312.0313,67.8125 L312.0313,66.6563 Q312.0313,65.3281 312.6484,64.1797 Q313.2656,63.0313 314.3594,62.4141 Q315.4531,61.7969 316.6875,61.7969 Q317.4219,61.7969 318.0703,61.9609 Q318.7188,62.125 319.2656,62.4844 Z " fill="#000000"/><text fill="#000000" font-family="sans-serif" font-size="14" lengthAdjust="spacing" textLength="33" x="333.5" y="70.1426">Midia</text><rect fill="#FEFECE" filter="url(#f53zzv35z34nf)" height="36" style="stroke:#A80036;stroke-width:1.5;" width="75" x="298.5" y="260.3672"/><ellipse cx="316.5" cy="278.3672" fill="#ADD1B2" rx="11" ry="11" style="stroke:#A80036;stroke-width:1.0;"/><path d="M319.2656,274.2422 Q319.4219,274.0234 319.6094,273.9141 Q319.7969,273.8047 320.0156,273.8047 Q320.3906,273.8047 320.625,274.0625 Q320.8594,274.3203 320.8594,274.9297 L320.8594,276.3828 Q320.8594,276.9922 320.625,277.2578 Q320.3906,277.5234 320.0156,277.5234 Q319.6719,277.5234 319.4688,277.3203 Q319.2656,277.1328 319.1563,276.6172 Q319.1094,276.2578 318.9219,276.0703 Q318.5938,275.6953 317.9844,275.4766 Q317.375,275.2578 316.75,275.2578 Q315.9844,275.2578 315.3516,275.5859 Q314.7188,275.9141 314.2266,276.6641 Q313.7344,277.4141 313.7344,278.4453 L313.7344,279.5391 Q313.7344,280.7734 314.625,281.5938 Q315.5156,282.4141 317.1094,282.4141 Q318.0469,282.4141 318.7031,282.1641 Q319.0938,282.0078 319.5156,281.5703 Q319.7813,281.3047 319.9297,281.2266 Q320.0781,281.1484 320.2813,281.1484 Q320.6094,281.1484 320.8672,281.4063 Q321.125,281.6641 321.125,282.0078 Q321.125,282.3516 320.7813,282.7578 Q320.2813,283.3359 319.4844,283.6641 Q318.4063,284.1172 317.1094,284.1172 Q315.5938,284.1172 314.3906,283.4922 Q313.4063,282.9922 312.7188,281.9219 Q312.0313,280.8516 312.0313,279.5703 L312.0313,278.4141 Q312.0313,277.0859 312.6484,275.9375 Q313.2656,274.7891 314.3594,274.1719 Q315.4531,273.5547 316.6875,273.5547 Q317.4219,273.5547 318.0703,273.7188 Q318.7188,273.8828 319.2656,274.2422 Z " fill="#000000"/><text fill="#000000" font-family="sans-serif" font-size="14" lengthAdjust="spacing" textLength="33" x="333.5" y="281.9004">Midia</text><rect fill="#FFFFFF" filter="url(#f53zzv35z34nf)" height="143.7578" style="stroke:#A80036;stroke-width:1.0;" width="10" x="37.5" y="99.6094"/><rect fill="#FFFFFF" filter="url(#f53zzv35z34nf)" height="143.7578" style="stroke:#A80036;stroke-width:1.0;" width="10" x="139.5" y="99.6094"/><rect fill="#FFFFFF" filter="url(#f53zzv35z34nf)" height="143.7578" style="stroke:#A80036;stroke-width:1.0;" width="10" x="236.5" y="99.6094"/><rect fill="#FFFFFF" filter="url(#f53zzv35z34nf)" height="143.7578" style="stroke:#A80036;stroke-width:1.0;" width="10" x="333" y="99.6094"/><polygon fill="#0000FF" points="127.5,117.9609,137.5,121.9609,127.5,125.9609,131.5,121.9609" style="stroke:#0000FF;stroke-width:1.0;"/><line style="stroke:#0000FF;stroke-width:1.0;" x1="47.5" x2="133.5" y1="121.9609" y2="121.9609"/><text fill="#000000" font-family="sans-serif" font-size="13" lengthAdjust="spacing" textLength="64" x="54.5" y="117.1045">criarMidia()</text><polygon fill="#008000" points="58.5,148.3125,48.5,152.3125,58.5,156.3125,54.5,152.3125" style="stroke:#008000;stroke-width:1.0;"/><line style="stroke:#008000;stroke-width:1.0;stroke-dasharray:2.0,2.0;" x1="52.5" x2="138.5" y1="152.3125" y2="152.3125"/><text fill="#000000" font-family="sans-serif" font-size="13" lengthAdjust="spacing" textLength="68" x="64.5" y="147.4561">MidiaCriada</text><polygon fill="#0000FF" points="224.5,178.6641,234.5,182.6641,224.5,186.6641,228.5,182.6641" style="stroke:#0000FF;stroke-width:1.0;"/><line style="stroke:#0000FF;stroke-width:1.0;" x1="47.5" x2="230.5" y1="182.6641" y2="182.6641"/><text fill="#000000" font-family="sans-serif" font-size="13" lengthAdjust="spacing" textLength="92" x="54.5" y="177.8076">visualizarMidia()</text><polygon fill="#0000FF" points="321,209.0156,331,213.0156,321,217.0156,325,213.0156" style="stroke:#0000FF;stroke-width:1.0;"/><line style="stroke:#0000FF;stroke-width:1.0;" x1="246.5" x2="327" y1="213.0156" y2="213.0156"/><text fill="#000000" font-family="sans-serif" font-size="13" lengthAdjust="spacing" textLength="61" x="253.5" y="208.1592">visualizar()</text><polygon fill="#008000" points="53.5,239.3672,43.5,243.3672,53.5,247.3672,49.5,243.3672" style="stroke:#008000;stroke-width:1.0;"/><line style="stroke:#008000;stroke-width:1.0;stroke-dasharray:2.0,2.0;" x1="47.5" x2="337" y1="243.3672" y2="243.3672"/><text fill="#000000" font-family="sans-serif" font-size="13" lengthAdjust="spacing" textLength="31" x="59.5" y="238.5107">midia</text><!--MD5=[434bb00a94bce56b846a89e5ddda2b04]
@startuml criar-midia
actor Academico

participant Autor << (C,#ADD1B2) >>
participant Usuario << (C,#ADD1B2) >>
participant Midia << (C,#ADD1B2) >>

activate Academico
activate Autor
activate Usuario
activate Midia

Academico -[#blue]> Autor: criarMidia()
Autor -[#green]-> Academico: MidiaCriada
Academico -[#blue]> Usuario: visualizarMidia()
Usuario -[#blue]> Midia: visualizar()
Midia -[#green]-> Academico: midia

deactivate Midia
deactivate Usuario
deactivate Autor
deactivate Academico
@enduml

PlantUML version 1.2021.7(Sun May 23 09:40:07 BRT 2021)
(GPL source distribution)
Java Runtime: Java(TM) SE Runtime Environment
JVM: Java HotSpot(TM) 64-Bit Server VM
Default Encoding: Cp1252
Language: pt
Country: BR
--></g></svg>