<?xml version="1.0" encoding="UTF-8" standalone="no"?><svg xmlns="http://www.w3.org/2000/svg" xmlns:xlink="http://www.w3.org/1999/xlink" contentScriptType="application/ecmascript" contentStyleType="text/css" height="407px" preserveAspectRatio="none" style="width:327px;height:407px;background:#FFFFFF;" version="1.1" viewBox="0 0 327 407" width="327px" zoomAndPan="magnify"><defs><filter height="300%" id="f2w4u8c39gwrb" width="300%" x="-1" y="-1"><feGaussianBlur result="blurOut" stdDeviation="2.0"/><feColorMatrix in="blurOut" result="blurOut2" type="matrix" values="0 0 0 0 0 0 0 0 0 0 0 0 0 0 0 0 0 0 .4 0"/><feOffset dx="4.0" dy="4.0" in="blurOut2" result="blurOut3"/><feBlend in="SourceGraphic" in2="blurOut3" mode="normal"/></filter></defs><g><rect fill="#FFFFFF" filter="url(#f2w4u8c39gwrb)" height="204.4609" style="stroke:#A80036;stroke-width:1.0;" width="10" x="37.5" y="99.6094"/><rect fill="#FFFFFF" filter="url(#f2w4u8c39gwrb)" height="204.4609" style="stroke:#A80036;stroke-width:1.0;" width="10" x="176.5" y="99.6094"/><rect fill="#FFFFFF" filter="url(#f2w4u8c39gwrb)" height="204.4609" style="stroke:#A80036;stroke-width:1.0;" width="10" x="273" y="99.6094"/><line style="stroke:#A80036;stroke-width:1.0;stroke-dasharray:5.0,5.0;" x1="42" x2="42" y1="89.6094" y2="322.0703"/><line style="stroke:#A80036;stroke-width:1.0;stroke-dasharray:5.0,5.0;" x1="181.5" x2="181.5" y1="89.6094" y2="322.0703"/><line style="stroke:#A80036;stroke-width:1.0;stroke-dasharray:5.0,5.0;" x1="277.5" x2="277.5" y1="89.6094" y2="322.0703"/><text fill="#000000" font-family="sans-serif" font-size="14" lengthAdjust="spacing" textLength="69" x="5" y="86.5332">Academico</text><ellipse cx="42.5" cy="15" fill="#FEFECE" filter="url(#f2w4u8c39gwrb)" rx="8" ry="8" style="stroke:#A80036;stroke-width:2.0;"/><path d="M42.5,23 L42.5,50 M29.5,31 L55.5,31 M42.5,50 L29.5,65 M42.5,50 L55.5,65 " fill="none" filter="url(#f2w4u8c39gwrb)" style="stroke:#A80036;stroke-width:2.0;"/><text fill="#000000" font-family="sans-serif" font-size="14" lengthAdjust="spacing" textLength="69" x="5" y="335.6035">Academico</text><ellipse cx="42.5" cy="348.6797" fill="#FEFECE" filter="url(#f2w4u8c39gwrb)" rx="8" ry="8" style="stroke:#A80036;stroke-width:2.0;"/><path d="M42.5,356.6797 L42.5,383.6797 M29.5,364.6797 L55.5,364.6797 M42.5,383.6797 L29.5,398.6797 M42.5,383.6797 L55.5,398.6797 " fill="none" filter="url(#f2w4u8c39gwrb)" style="stroke:#A80036;stroke-width:2.0;"/><rect fill="#FEFECE" filter="url(#f2w4u8c39gwrb)" height="36" style="stroke:#A80036;stroke-width:1.5;" width="90" x="134.5" y="48.6094"/><ellipse cx="152.5" cy="66.6094" fill="#ADD1B2" rx="11" ry="11" style="stroke:#A80036;stroke-width:1.0;"/><path d="M155.2656,62.4844 Q155.4219,62.2656 155.6094,62.1563 Q155.7969,62.0469 156.0156,62.0469 Q156.3906,62.0469 156.625,62.3047 Q156.8594,62.5625 156.8594,63.1719 L156.8594,64.625 Q156.8594,65.2344 156.625,65.5 Q156.3906,65.7656 156.0156,65.7656 Q155.6719,65.7656 155.4688,65.5625 Q155.2656,65.375 155.1563,64.8594 Q155.1094,64.5 154.9219,64.3125 Q154.5938,63.9375 153.9844,63.7188 Q153.375,63.5 152.75,63.5 Q151.9844,63.5 151.3516,63.8281 Q150.7188,64.1563 150.2266,64.9063 Q149.7344,65.6563 149.7344,66.6875 L149.7344,67.7813 Q149.7344,69.0156 150.625,69.8359 Q151.5156,70.6563 153.1094,70.6563 Q154.0469,70.6563 154.7031,70.4063 Q155.0938,70.25 155.5156,69.8125 Q155.7813,69.5469 155.9297,69.4688 Q156.0781,69.3906 156.2813,69.3906 Q156.6094,69.3906 156.8672,69.6484 Q157.125,69.9063 157.125,70.25 Q157.125,70.5938 156.7813,71 Q156.2813,71.5781 155.4844,71.9063 Q154.4063,72.3594 153.1094,72.3594 Q151.5938,72.3594 150.3906,71.7344 Q149.4063,71.2344 148.7188,70.1641 Q148.0313,69.0938 148.0313,67.8125 L148.0313,66.6563 Q148.0313,65.3281 148.6484,64.1797 Q149.2656,63.0313 150.3594,62.4141 Q151.4531,61.7969 152.6875,61.7969 Q153.4219,61.7969 154.0703,61.9609 Q154.7188,62.125 155.2656,62.4844 Z " fill="#000000"/><text fill="#000000" font-family="sans-serif" font-size="14" lengthAdjust="spacing" textLength="48" x="169.5" y="70.1426">Usuario</text><rect fill="#FEFECE" filter="url(#f2w4u8c39gwrb)" height="36" style="stroke:#A80036;stroke-width:1.5;" width="90" x="134.5" y="321.0703"/><ellipse cx="152.5" cy="339.0703" fill="#ADD1B2" rx="11" ry="11" style="stroke:#A80036;stroke-width:1.0;"/><path d="M155.2656,334.9453 Q155.4219,334.7266 155.6094,334.6172 Q155.7969,334.5078 156.0156,334.5078 Q156.3906,334.5078 156.625,334.7656 Q156.8594,335.0234 156.8594,335.6328 L156.8594,337.0859 Q156.8594,337.6953 156.625,337.9609 Q156.3906,338.2266 156.0156,338.2266 Q155.6719,338.2266 155.4688,338.0234 Q155.2656,337.8359 155.1563,337.3203 Q155.1094,336.9609 154.9219,336.7734 Q154.5938,336.3984 153.9844,336.1797 Q153.375,335.9609 152.75,335.9609 Q151.9844,335.9609 151.3516,336.2891 Q150.7188,336.6172 150.2266,337.3672 Q149.7344,338.1172 149.7344,339.1484 L149.7344,340.2422 Q149.7344,341.4766 150.625,342.2969 Q151.5156,343.1172 153.1094,343.1172 Q154.0469,343.1172 154.7031,342.8672 Q155.0938,342.7109 155.5156,342.2734 Q155.7813,342.0078 155.9297,341.9297 Q156.0781,341.8516 156.2813,341.8516 Q156.6094,341.8516 156.8672,342.1094 Q157.125,342.3672 157.125,342.7109 Q157.125,343.0547 156.7813,343.4609 Q156.2813,344.0391 155.4844,344.3672 Q154.4063,344.8203 153.1094,344.8203 Q151.5938,344.8203 150.3906,344.1953 Q149.4063,343.6953 148.7188,342.625 Q148.0313,341.5547 148.0313,340.2734 L148.0313,339.1172 Q148.0313,337.7891 148.6484,336.6406 Q149.2656,335.4922 150.3594,334.875 Q151.4531,334.2578 152.6875,334.2578 Q153.4219,334.2578 154.0703,334.4219 Q154.7188,334.5859 155.2656,334.9453 Z " fill="#000000"/><text fill="#000000" font-family="sans-serif" font-size="14" lengthAdjust="spacing" textLength="48" x="169.5" y="342.6035">Usuario</text><rect fill="#FEFECE" filter="url(#f2w4u8c39gwrb)" height="36" style="stroke:#A80036;stroke-width:1.5;" width="75" x="238.5" y="48.6094"/><ellipse cx="256.5" cy="66.6094" fill="#ADD1B2" rx="11" ry="11" style="stroke:#A80036;stroke-width:1.0;"/><path d="M259.2656,62.4844 Q259.4219,62.2656 259.6094,62.1563 Q259.7969,62.0469 260.0156,62.0469 Q260.3906,62.0469 260.625,62.3047 Q260.8594,62.5625 260.8594,63.1719 L260.8594,64.625 Q260.8594,65.2344 260.625,65.5 Q260.3906,65.7656 260.0156,65.7656 Q259.6719,65.7656 259.4688,65.5625 Q259.2656,65.375 259.1563,64.8594 Q259.1094,64.5 258.9219,64.3125 Q258.5938,63.9375 257.9844,63.7188 Q257.375,63.5 256.75,63.5 Q255.9844,63.5 255.3516,63.8281 Q254.7188,64.1563 254.2266,64.9063 Q253.7344,65.6563 253.7344,66.6875 L253.7344,67.7813 Q253.7344,69.0156 254.625,69.8359 Q255.5156,70.6563 257.1094,70.6563 Q258.0469,70.6563 258.7031,70.4063 Q259.0938,70.25 259.5156,69.8125 Q259.7813,69.5469 259.9297,69.4688 Q260.0781,69.3906 260.2813,69.3906 Q260.6094,69.3906 260.8672,69.6484 Q261.125,69.9063 261.125,70.25 Q261.125,70.5938 260.7813,71 Q260.2813,71.5781 259.4844,71.9063 Q258.4063,72.3594 257.1094,72.3594 Q255.5938,72.3594 254.3906,71.7344 Q253.4063,71.2344 252.7188,70.1641 Q252.0313,69.0938 252.0313,67.8125 L252.0313,66.6563 Q252.0313,65.3281 252.6484,64.1797 Q253.2656,63.0313 254.3594,62.4141 Q255.4531,61.7969 256.6875,61.7969 Q257.4219,61.7969 258.0703,61.9609 Q258.7188,62.125 259.2656,62.4844 Z " fill="#000000"/><text fill="#000000" font-family="sans-serif" font-size="14" lengthAdjust="spacing" textLength="33" x="273.5" y="70.1426">Midia</text><rect fill="#FEFECE" filter="url(#f2w4u8c39gwrb)" height="36" style="stroke:#A80036;stroke-width:1.5;" width="75" x="238.5" y="321.0703"/><ellipse cx="256.5" cy="339.0703" fill="#ADD1B2" rx="11" ry="11" style="stroke:#A80036;stroke-width:1.0;"/><path d="M259.2656,334.9453 Q259.4219,334.7266 259.6094,334.6172 Q259.7969,334.5078 260.0156,334.5078 Q260.3906,334.5078 260.625,334.7656 Q260.8594,335.0234 260.8594,335.6328 L260.8594,337.0859 Q260.8594,337.6953 260.625,337.9609 Q260.3906,338.2266 260.0156,338.2266 Q259.6719,338.2266 259.4688,338.0234 Q259.2656,337.8359 259.1563,337.3203 Q259.1094,336.9609 258.9219,336.7734 Q258.5938,336.3984 257.9844,336.1797 Q257.375,335.9609 256.75,335.9609 Q255.9844,335.9609 255.3516,336.2891 Q254.7188,336.6172 254.2266,337.3672 Q253.7344,338.1172 253.7344,339.1484 L253.7344,340.2422 Q253.7344,341.4766 254.625,342.2969 Q255.5156,343.1172 257.1094,343.1172 Q258.0469,343.1172 258.7031,342.8672 Q259.0938,342.7109 259.5156,342.2734 Q259.7813,342.0078 259.9297,341.9297 Q260.0781,341.8516 260.2813,341.8516 Q260.6094,341.8516 260.8672,342.1094 Q261.125,342.3672 261.125,342.7109 Q261.125,343.0547 260.7813,343.4609 Q260.2813,344.0391 259.4844,344.3672 Q258.4063,344.8203 257.1094,344.8203 Q255.5938,344.8203 254.3906,344.1953 Q253.4063,343.6953 252.7188,342.625 Q252.0313,341.5547 252.0313,340.2734 L252.0313,339.1172 Q252.0313,337.7891 252.6484,336.6406 Q253.2656,335.4922 254.3594,334.875 Q255.4531,334.2578 256.6875,334.2578 Q257.4219,334.2578 258.0703,334.4219 Q258.7188,334.5859 259.2656,334.9453 Z " fill="#000000"/><text fill="#000000" font-family="sans-serif" font-size="14" lengthAdjust="spacing" textLength="33" x="273.5" y="342.6035">Midia</text><rect fill="#FFFFFF" filter="url(#f2w4u8c39gwrb)" height="204.4609" style="stroke:#A80036;stroke-width:1.0;" width="10" x="37.5" y="99.6094"/><rect fill="#FFFFFF" filter="url(#f2w4u8c39gwrb)" height="204.4609" style="stroke:#A80036;stroke-width:1.0;" width="10" x="176.5" y="99.6094"/><rect fill="#FFFFFF" filter="url(#f2w4u8c39gwrb)" height="204.4609" style="stroke:#A80036;stroke-width:1.0;" width="10" x="273" y="99.6094"/><polygon fill="#0000FF" points="164.5,117.9609,174.5,121.9609,164.5,125.9609,168.5,121.9609" style="stroke:#0000FF;stroke-width:1.0;"/><line style="stroke:#0000FF;stroke-width:1.0;" x1="47.5" x2="170.5" y1="121.9609" y2="121.9609"/><text fill="#000000" font-family="sans-serif" font-size="13" lengthAdjust="spacing" textLength="92" x="54.5" y="117.1045">visualizarMidia()</text><polygon fill="#0000FF" points="261,148.3125,271,152.3125,261,156.3125,265,152.3125" style="stroke:#0000FF;stroke-width:1.0;"/><line style="stroke:#0000FF;stroke-width:1.0;" x1="186.5" x2="267" y1="152.3125" y2="152.3125"/><text fill="#000000" font-family="sans-serif" font-size="13" lengthAdjust="spacing" textLength="61" x="193.5" y="147.4561">visualizar()</text><polygon fill="#008000" points="58.5,178.6641,48.5,182.6641,58.5,186.6641,54.5,182.6641" style="stroke:#008000;stroke-width:1.0;"/><line style="stroke:#008000;stroke-width:1.0;stroke-dasharray:2.0,2.0;" x1="52.5" x2="272" y1="182.6641" y2="182.6641"/><text fill="#000000" font-family="sans-serif" font-size="13" lengthAdjust="spacing" textLength="31" x="64.5" y="177.8076">midia</text><polygon fill="#0000FF" points="164.5,209.0156,174.5,213.0156,164.5,217.0156,168.5,213.0156" style="stroke:#0000FF;stroke-width:1.0;"/><line style="stroke:#0000FF;stroke-width:1.0;" x1="47.5" x2="170.5" y1="213.0156" y2="213.0156"/><text fill="#000000" font-family="sans-serif" font-size="13" lengthAdjust="spacing" textLength="93" x="54.5" y="208.1592">downloadMidia()</text><polygon fill="#0000FF" points="261,239.3672,271,243.3672,261,247.3672,265,243.3672" style="stroke:#0000FF;stroke-width:1.0;"/><line style="stroke:#0000FF;stroke-width:1.0;" x1="186.5" x2="267" y1="243.3672" y2="243.3672"/><text fill="#000000" font-family="sans-serif" font-size="13" lengthAdjust="spacing" textLength="62" x="193.5" y="238.5107">download()</text><polygon fill="#008000" points="197.5,269.7188,187.5,273.7188,197.5,277.7188,193.5,273.7188" style="stroke:#008000;stroke-width:1.0;"/><line style="stroke:#008000;stroke-width:1.0;stroke-dasharray:2.0,2.0;" x1="191.5" x2="272" y1="273.7188" y2="273.7188"/><text fill="#000000" font-family="sans-serif" font-size="13" lengthAdjust="spacing" textLength="49" x="203.5" y="268.8623">sucesso</text><polygon fill="#008000" points="53.5,300.0703,43.5,304.0703,53.5,308.0703,49.5,304.0703" style="stroke:#008000;stroke-width:1.0;"/><line style="stroke:#008000;stroke-width:1.0;stroke-dasharray:2.0,2.0;" x1="47.5" x2="180.5" y1="304.0703" y2="304.0703"/><text fill="#000000" font-family="sans-serif" font-size="13" lengthAdjust="spacing" textLength="105" x="59.5" y="299.2139">downloadEfetuado</text><!--MD5=[9f7946bb9254a9bc3d44e819a9eea189]
@startuml download-midia
actor Academico

participant Usuario << (C,#ADD1B2) >>
participant Midia << (C,#ADD1B2) >>

activate Academico
activate Usuario
activate Midia

Academico -[#blue]> Usuario: visualizarMidia()
Usuario -[#blue]> Midia: visualizar()
Midia -[#green]-> Academico: midia
Academico -[#blue]> Usuario: downloadMidia()
Usuario -[#blue]> Midia: download()
Midia -[#green]-> Usuario: sucesso
Usuario -[#green]-> Academico: downloadEfetuado

deactivate Midia
deactivate Usuario
deactivate Academico
@enduml

PlantUML version 1.2021.7(Sun May 23 09:40:07 BRT 2021)
(GPL source distribution)
Java Runtime: Java(TM) SE Runtime Environment
JVM: Java HotSpot(TM) 64-Bit Server VM
Default Encoding: Cp1252
Language: pt
Country: BR
--></g></svg>