<?xml version="1.0" encoding="UTF-8" standalone="no"?><svg xmlns="http://www.w3.org/2000/svg" xmlns:xlink="http://www.w3.org/1999/xlink" contentScriptType="application/ecmascript" contentStyleType="text/css" height="299px" preserveAspectRatio="none" style="width:251px;height:299px;" version="1.1" viewBox="0 0 251 299" width="251px" zoomAndPan="magnify"><defs><filter height="300%" id="f71zgzayu2z22" width="300%" x="-1" y="-1"><feGaussianBlur result="blurOut" stdDeviation="2.0"/><feColorMatrix in="blurOut" result="blurOut2" type="matrix" values="0 0 0 0 0 0 0 0 0 0 0 0 0 0 0 0 0 0 .4 0"/><feOffset dx="4.0" dy="4.0" in="blurOut2" result="blurOut3"/><feBlend in="SourceGraphic" in2="blurOut3" mode="normal"/></filter></defs><g><rect fill="#FFFFFF" filter="url(#f71zgzayu2z22)" height="96.0547" style="stroke:#A80036;stroke-width:1.0;" width="10" x="37.5" y="99.6094"/><rect fill="#FFFFFF" filter="url(#f71zgzayu2z22)" height="96.0547" style="stroke:#A80036;stroke-width:1.0;" width="10" x="153.5" y="99.6094"/><line style="stroke:#A80036;stroke-width:1.0;stroke-dasharray:5.0,5.0;" x1="42" x2="42" y1="89.6094" y2="213.6641"/><line style="stroke:#A80036;stroke-width:1.0;stroke-dasharray:5.0,5.0;" x1="158.5" x2="158.5" y1="89.6094" y2="213.6641"/><text fill="#000000" font-family="sans-serif" font-size="14" lengthAdjust="spacing" textLength="69" x="5" y="86.5332">Academico</text><ellipse cx="42.5" cy="15" fill="#FEFECE" filter="url(#f71zgzayu2z22)" rx="8" ry="8" style="stroke:#A80036;stroke-width:2.0;"/><path d="M42.5,23 L42.5,50 M29.5,31 L55.5,31 M42.5,50 L29.5,65 M42.5,50 L55.5,65 " fill="none" filter="url(#f71zgzayu2z22)" style="stroke:#A80036;stroke-width:2.0;"/><text fill="#000000" font-family="sans-serif" font-size="14" lengthAdjust="spacing" textLength="69" x="5" y="227.1973">Academico</text><ellipse cx="42.5" cy="240.2734" fill="#FEFECE" filter="url(#f71zgzayu2z22)" rx="8" ry="8" style="stroke:#A80036;stroke-width:2.0;"/><path d="M42.5,248.2734 L42.5,275.2734 M29.5,256.2734 L55.5,256.2734 M42.5,275.2734 L29.5,290.2734 M42.5,275.2734 L55.5,290.2734 " fill="none" filter="url(#f71zgzayu2z22)" style="stroke:#A80036;stroke-width:2.0;"/><rect fill="#FEFECE" filter="url(#f71zgzayu2z22)" height="36" style="stroke:#A80036;stroke-width:1.5;" width="90" x="111.5" y="48.6094"/><ellipse cx="129.5" cy="66.6094" fill="#ADD1B2" rx="11" ry="11" style="stroke:#A80036;stroke-width:1.0;"/><path d="M132.2656,62.4844 Q132.4219,62.2656 132.6094,62.1563 Q132.7969,62.0469 133.0156,62.0469 Q133.3906,62.0469 133.625,62.3047 Q133.8594,62.5625 133.8594,63.1719 L133.8594,64.625 Q133.8594,65.2344 133.625,65.5 Q133.3906,65.7656 133.0156,65.7656 Q132.6719,65.7656 132.4688,65.5625 Q132.2656,65.375 132.1563,64.8594 Q132.1094,64.5 131.9219,64.3125 Q131.5938,63.9375 130.9844,63.7188 Q130.375,63.5 129.75,63.5 Q128.9844,63.5 128.3516,63.8281 Q127.7188,64.1563 127.2266,64.9063 Q126.7344,65.6563 126.7344,66.6875 L126.7344,67.7813 Q126.7344,69.0156 127.625,69.8359 Q128.5156,70.6563 130.1094,70.6563 Q131.0469,70.6563 131.7031,70.4063 Q132.0938,70.25 132.5156,69.8125 Q132.7813,69.5469 132.9297,69.4688 Q133.0781,69.3906 133.2813,69.3906 Q133.6094,69.3906 133.8672,69.6484 Q134.125,69.9063 134.125,70.25 Q134.125,70.5938 133.7813,71 Q133.2813,71.5781 132.4844,71.9063 Q131.4063,72.3594 130.1094,72.3594 Q128.5938,72.3594 127.3906,71.7344 Q126.4063,71.2344 125.7188,70.1641 Q125.0313,69.0938 125.0313,67.8125 L125.0313,66.6563 Q125.0313,65.3281 125.6484,64.1797 Q126.2656,63.0313 127.3594,62.4141 Q128.4531,61.7969 129.6875,61.7969 Q130.4219,61.7969 131.0703,61.9609 Q131.7188,62.125 132.2656,62.4844 Z " fill="#000000"/><text fill="#000000" font-family="sans-serif" font-size="14" lengthAdjust="spacing" textLength="48" x="146.5" y="70.1426">Usuario</text><rect fill="#FEFECE" filter="url(#f71zgzayu2z22)" height="36" style="stroke:#A80036;stroke-width:1.5;" width="90" x="111.5" y="212.6641"/><ellipse cx="129.5" cy="230.6641" fill="#ADD1B2" rx="11" ry="11" style="stroke:#A80036;stroke-width:1.0;"/><path d="M132.2656,226.5391 Q132.4219,226.3203 132.6094,226.2109 Q132.7969,226.1016 133.0156,226.1016 Q133.3906,226.1016 133.625,226.3594 Q133.8594,226.6172 133.8594,227.2266 L133.8594,228.6797 Q133.8594,229.2891 133.625,229.5547 Q133.3906,229.8203 133.0156,229.8203 Q132.6719,229.8203 132.4688,229.6172 Q132.2656,229.4297 132.1563,228.9141 Q132.1094,228.5547 131.9219,228.3672 Q131.5938,227.9922 130.9844,227.7734 Q130.375,227.5547 129.75,227.5547 Q128.9844,227.5547 128.3516,227.8828 Q127.7188,228.2109 127.2266,228.9609 Q126.7344,229.7109 126.7344,230.7422 L126.7344,231.8359 Q126.7344,233.0703 127.625,233.8906 Q128.5156,234.7109 130.1094,234.7109 Q131.0469,234.7109 131.7031,234.4609 Q132.0938,234.3047 132.5156,233.8672 Q132.7813,233.6016 132.9297,233.5234 Q133.0781,233.4453 133.2813,233.4453 Q133.6094,233.4453 133.8672,233.7031 Q134.125,233.9609 134.125,234.3047 Q134.125,234.6484 133.7813,235.0547 Q133.2813,235.6328 132.4844,235.9609 Q131.4063,236.4141 130.1094,236.4141 Q128.5938,236.4141 127.3906,235.7891 Q126.4063,235.2891 125.7188,234.2188 Q125.0313,233.1484 125.0313,231.8672 L125.0313,230.7109 Q125.0313,229.3828 125.6484,228.2344 Q126.2656,227.0859 127.3594,226.4688 Q128.4531,225.8516 129.6875,225.8516 Q130.4219,225.8516 131.0703,226.0156 Q131.7188,226.1797 132.2656,226.5391 Z " fill="#000000"/><text fill="#000000" font-family="sans-serif" font-size="14" lengthAdjust="spacing" textLength="48" x="146.5" y="234.1973">Usuario</text><rect fill="#FFFFFF" filter="url(#f71zgzayu2z22)" height="96.0547" style="stroke:#A80036;stroke-width:1.0;" width="10" x="37.5" y="99.6094"/><rect fill="#FFFFFF" filter="url(#f71zgzayu2z22)" height="96.0547" style="stroke:#A80036;stroke-width:1.0;" width="10" x="153.5" y="99.6094"/><polygon fill="#0000FF" points="141.5,117.9609,151.5,121.9609,141.5,125.9609,145.5,121.9609" style="stroke:#0000FF;stroke-width:1.0;"/><line style="stroke:#0000FF;stroke-width:1.0;" x1="47.5" x2="147.5" y1="121.9609" y2="121.9609"/><text fill="#000000" font-family="sans-serif" font-size="13" lengthAdjust="spacing" textLength="80" x="54.5" y="117.1045">excluirConta()</text><line style="stroke:#0000FF;stroke-width:1.0;" x1="163.5" x2="205.5" y1="152.3125" y2="152.3125"/><line style="stroke:#0000FF;stroke-width:1.0;" x1="205.5" x2="205.5" y1="152.3125" y2="165.3125"/><line style="stroke:#0000FF;stroke-width:1.0;" x1="164.5" x2="205.5" y1="165.3125" y2="165.3125"/><polygon fill="#0000FF" points="174.5,161.3125,164.5,165.3125,174.5,169.3125,170.5,165.3125" style="stroke:#0000FF;stroke-width:1.0;"/><text fill="#000000" font-family="sans-serif" font-size="13" lengthAdjust="spacing" textLength="74" x="170.5" y="147.4561">enviarEmail()</text><polygon fill="#008000" points="53.5,191.6641,43.5,195.6641,53.5,199.6641,49.5,195.6641" style="stroke:#008000;stroke-width:1.0;"/><line style="stroke:#008000;stroke-width:1.0;stroke-dasharray:2.0,2.0;" x1="47.5" x2="157.5" y1="195.6641" y2="195.6641"/><text fill="#000000" font-family="sans-serif" font-size="13" lengthAdjust="spacing" textLength="82" x="59.5" y="190.8076">contaExcluida</text><!--MD5=[4d12d246df8940ee1a136faaa133a416]
@startuml excluir-conta
actor Academico

participant Usuario << (C,#ADD1B2) >>

activate Academico
activate Usuario

Academico -[#blue]> Usuario: excluirConta()

Usuario -[#blue]> Usuario: enviarEmail()

Usuario -[#green]-> Academico: contaExcluida

deactivate Usuario
deactivate Academico
@enduml

PlantUML version 1.2021.00(Sun Jan 10 07:25:05 BRT 2021)
(GPL source distribution)
Java Runtime: Java(TM) SE Runtime Environment
JVM: Java HotSpot(TM) 64-Bit Server VM
Default Encoding: Cp1252
Language: pt
Country: BR
--></g></svg>