<?xml version="1.0" encoding="UTF-8" standalone="no"?><svg xmlns="http://www.w3.org/2000/svg" xmlns:xlink="http://www.w3.org/1999/xlink" contentScriptType="application/ecmascript" contentStyleType="text/css" height="316px" preserveAspectRatio="none" style="width:363px;height:316px;" version="1.1" viewBox="0 0 363 316" width="363px" zoomAndPan="magnify"><defs><filter height="300%" id="f1ucsrbxazijpt" width="300%" x="-1" y="-1"><feGaussianBlur result="blurOut" stdDeviation="2.0"/><feColorMatrix in="blurOut" result="blurOut2" type="matrix" values="0 0 0 0 0 0 0 0 0 0 0 0 0 0 0 0 0 0 .4 0"/><feOffset dx="4.0" dy="4.0" in="blurOut2" result="blurOut3"/><feBlend in="SourceGraphic" in2="blurOut3" mode="normal"/></filter></defs><g><rect fill="#FFFFFF" filter="url(#f1ucsrbxazijpt)" height="113.4063" style="stroke:#A80036;stroke-width:1.0;" width="10" x="37.5" y="99.6094"/><rect fill="#FFFFFF" filter="url(#f1ucsrbxazijpt)" height="113.4063" style="stroke:#A80036;stroke-width:1.0;" width="10" x="158.5" y="99.6094"/><rect fill="#FFFFFF" filter="url(#f1ucsrbxazijpt)" height="113.4063" style="stroke:#A80036;stroke-width:1.0;" width="10" x="282" y="99.6094"/><line style="stroke:#A80036;stroke-width:1.0;stroke-dasharray:5.0,5.0;" x1="42" x2="42" y1="89.6094" y2="231.0156"/><line style="stroke:#A80036;stroke-width:1.0;stroke-dasharray:5.0,5.0;" x1="163.5" x2="163.5" y1="89.6094" y2="231.0156"/><line style="stroke:#A80036;stroke-width:1.0;stroke-dasharray:5.0,5.0;" x1="286.5" x2="286.5" y1="89.6094" y2="231.0156"/><text fill="#000000" font-family="sans-serif" font-size="14" lengthAdjust="spacing" textLength="69" x="5" y="86.5332">Academico</text><ellipse cx="42.5" cy="15" fill="#FEFECE" filter="url(#f1ucsrbxazijpt)" rx="8" ry="8" style="stroke:#A80036;stroke-width:2.0;"/><path d="M42.5,23 L42.5,50 M29.5,31 L55.5,31 M42.5,50 L29.5,65 M42.5,50 L55.5,65 " fill="none" filter="url(#f1ucsrbxazijpt)" style="stroke:#A80036;stroke-width:2.0;"/><text fill="#000000" font-family="sans-serif" font-size="14" lengthAdjust="spacing" textLength="69" x="5" y="244.5488">Academico</text><ellipse cx="42.5" cy="257.625" fill="#FEFECE" filter="url(#f1ucsrbxazijpt)" rx="8" ry="8" style="stroke:#A80036;stroke-width:2.0;"/><path d="M42.5,265.625 L42.5,292.625 M29.5,273.625 L55.5,273.625 M42.5,292.625 L29.5,307.625 M42.5,292.625 L55.5,307.625 " fill="none" filter="url(#f1ucsrbxazijpt)" style="stroke:#A80036;stroke-width:2.0;"/><rect fill="#FEFECE" filter="url(#f1ucsrbxazijpt)" height="36" style="stroke:#A80036;stroke-width:1.5;" width="90" x="116.5" y="48.6094"/><ellipse cx="134.5" cy="66.6094" fill="#ADD1B2" rx="11" ry="11" style="stroke:#A80036;stroke-width:1.0;"/><path d="M137.2656,62.4844 Q137.4219,62.2656 137.6094,62.1563 Q137.7969,62.0469 138.0156,62.0469 Q138.3906,62.0469 138.625,62.3047 Q138.8594,62.5625 138.8594,63.1719 L138.8594,64.625 Q138.8594,65.2344 138.625,65.5 Q138.3906,65.7656 138.0156,65.7656 Q137.6719,65.7656 137.4688,65.5625 Q137.2656,65.375 137.1563,64.8594 Q137.1094,64.5 136.9219,64.3125 Q136.5938,63.9375 135.9844,63.7188 Q135.375,63.5 134.75,63.5 Q133.9844,63.5 133.3516,63.8281 Q132.7188,64.1563 132.2266,64.9063 Q131.7344,65.6563 131.7344,66.6875 L131.7344,67.7813 Q131.7344,69.0156 132.625,69.8359 Q133.5156,70.6563 135.1094,70.6563 Q136.0469,70.6563 136.7031,70.4063 Q137.0938,70.25 137.5156,69.8125 Q137.7813,69.5469 137.9297,69.4688 Q138.0781,69.3906 138.2813,69.3906 Q138.6094,69.3906 138.8672,69.6484 Q139.125,69.9063 139.125,70.25 Q139.125,70.5938 138.7813,71 Q138.2813,71.5781 137.4844,71.9063 Q136.4063,72.3594 135.1094,72.3594 Q133.5938,72.3594 132.3906,71.7344 Q131.4063,71.2344 130.7188,70.1641 Q130.0313,69.0938 130.0313,67.8125 L130.0313,66.6563 Q130.0313,65.3281 130.6484,64.1797 Q131.2656,63.0313 132.3594,62.4141 Q133.4531,61.7969 134.6875,61.7969 Q135.4219,61.7969 136.0703,61.9609 Q136.7188,62.125 137.2656,62.4844 Z " fill="#000000"/><text fill="#000000" font-family="sans-serif" font-size="14" lengthAdjust="spacing" textLength="48" x="151.5" y="70.1426">Usuario</text><rect fill="#FEFECE" filter="url(#f1ucsrbxazijpt)" height="36" style="stroke:#A80036;stroke-width:1.5;" width="90" x="116.5" y="230.0156"/><ellipse cx="134.5" cy="248.0156" fill="#ADD1B2" rx="11" ry="11" style="stroke:#A80036;stroke-width:1.0;"/><path d="M137.2656,243.8906 Q137.4219,243.6719 137.6094,243.5625 Q137.7969,243.4531 138.0156,243.4531 Q138.3906,243.4531 138.625,243.7109 Q138.8594,243.9688 138.8594,244.5781 L138.8594,246.0313 Q138.8594,246.6406 138.625,246.9063 Q138.3906,247.1719 138.0156,247.1719 Q137.6719,247.1719 137.4688,246.9688 Q137.2656,246.7813 137.1563,246.2656 Q137.1094,245.9063 136.9219,245.7188 Q136.5938,245.3438 135.9844,245.125 Q135.375,244.9063 134.75,244.9063 Q133.9844,244.9063 133.3516,245.2344 Q132.7188,245.5625 132.2266,246.3125 Q131.7344,247.0625 131.7344,248.0938 L131.7344,249.1875 Q131.7344,250.4219 132.625,251.2422 Q133.5156,252.0625 135.1094,252.0625 Q136.0469,252.0625 136.7031,251.8125 Q137.0938,251.6563 137.5156,251.2188 Q137.7813,250.9531 137.9297,250.875 Q138.0781,250.7969 138.2813,250.7969 Q138.6094,250.7969 138.8672,251.0547 Q139.125,251.3125 139.125,251.6563 Q139.125,252 138.7813,252.4063 Q138.2813,252.9844 137.4844,253.3125 Q136.4063,253.7656 135.1094,253.7656 Q133.5938,253.7656 132.3906,253.1406 Q131.4063,252.6406 130.7188,251.5703 Q130.0313,250.5 130.0313,249.2188 L130.0313,248.0625 Q130.0313,246.7344 130.6484,245.5859 Q131.2656,244.4375 132.3594,243.8203 Q133.4531,243.2031 134.6875,243.2031 Q135.4219,243.2031 136.0703,243.3672 Q136.7188,243.5313 137.2656,243.8906 Z " fill="#000000"/><text fill="#000000" font-family="sans-serif" font-size="14" lengthAdjust="spacing" textLength="48" x="151.5" y="251.5488">Usuario</text><rect fill="#FEFECE" filter="url(#f1ucsrbxazijpt)" height="36" style="stroke:#A80036;stroke-width:1.5;" width="129" x="220.5" y="48.6094"/><ellipse cx="238.5" cy="66.6094" fill="#ADD1B2" rx="11" ry="11" style="stroke:#A80036;stroke-width:1.0;"/><path d="M241.2656,62.4844 Q241.4219,62.2656 241.6094,62.1563 Q241.7969,62.0469 242.0156,62.0469 Q242.3906,62.0469 242.625,62.3047 Q242.8594,62.5625 242.8594,63.1719 L242.8594,64.625 Q242.8594,65.2344 242.625,65.5 Q242.3906,65.7656 242.0156,65.7656 Q241.6719,65.7656 241.4688,65.5625 Q241.2656,65.375 241.1563,64.8594 Q241.1094,64.5 240.9219,64.3125 Q240.5938,63.9375 239.9844,63.7188 Q239.375,63.5 238.75,63.5 Q237.9844,63.5 237.3516,63.8281 Q236.7188,64.1563 236.2266,64.9063 Q235.7344,65.6563 235.7344,66.6875 L235.7344,67.7813 Q235.7344,69.0156 236.625,69.8359 Q237.5156,70.6563 239.1094,70.6563 Q240.0469,70.6563 240.7031,70.4063 Q241.0938,70.25 241.5156,69.8125 Q241.7813,69.5469 241.9297,69.4688 Q242.0781,69.3906 242.2813,69.3906 Q242.6094,69.3906 242.8672,69.6484 Q243.125,69.9063 243.125,70.25 Q243.125,70.5938 242.7813,71 Q242.2813,71.5781 241.4844,71.9063 Q240.4063,72.3594 239.1094,72.3594 Q237.5938,72.3594 236.3906,71.7344 Q235.4063,71.2344 234.7188,70.1641 Q234.0313,69.0938 234.0313,67.8125 L234.0313,66.6563 Q234.0313,65.3281 234.6484,64.1797 Q235.2656,63.0313 236.3594,62.4141 Q237.4531,61.7969 238.6875,61.7969 Q239.4219,61.7969 240.0703,61.9609 Q240.7188,62.125 241.2656,62.4844 Z " fill="#000000"/><text fill="#000000" font-family="sans-serif" font-size="14" lengthAdjust="spacing" textLength="87" x="255.5" y="70.1426">Administrador</text><rect fill="#FEFECE" filter="url(#f1ucsrbxazijpt)" height="36" style="stroke:#A80036;stroke-width:1.5;" width="129" x="220.5" y="230.0156"/><ellipse cx="238.5" cy="248.0156" fill="#ADD1B2" rx="11" ry="11" style="stroke:#A80036;stroke-width:1.0;"/><path d="M241.2656,243.8906 Q241.4219,243.6719 241.6094,243.5625 Q241.7969,243.4531 242.0156,243.4531 Q242.3906,243.4531 242.625,243.7109 Q242.8594,243.9688 242.8594,244.5781 L242.8594,246.0313 Q242.8594,246.6406 242.625,246.9063 Q242.3906,247.1719 242.0156,247.1719 Q241.6719,247.1719 241.4688,246.9688 Q241.2656,246.7813 241.1563,246.2656 Q241.1094,245.9063 240.9219,245.7188 Q240.5938,245.3438 239.9844,245.125 Q239.375,244.9063 238.75,244.9063 Q237.9844,244.9063 237.3516,245.2344 Q236.7188,245.5625 236.2266,246.3125 Q235.7344,247.0625 235.7344,248.0938 L235.7344,249.1875 Q235.7344,250.4219 236.625,251.2422 Q237.5156,252.0625 239.1094,252.0625 Q240.0469,252.0625 240.7031,251.8125 Q241.0938,251.6563 241.5156,251.2188 Q241.7813,250.9531 241.9297,250.875 Q242.0781,250.7969 242.2813,250.7969 Q242.6094,250.7969 242.8672,251.0547 Q243.125,251.3125 243.125,251.6563 Q243.125,252 242.7813,252.4063 Q242.2813,252.9844 241.4844,253.3125 Q240.4063,253.7656 239.1094,253.7656 Q237.5938,253.7656 236.3906,253.1406 Q235.4063,252.6406 234.7188,251.5703 Q234.0313,250.5 234.0313,249.2188 L234.0313,248.0625 Q234.0313,246.7344 234.6484,245.5859 Q235.2656,244.4375 236.3594,243.8203 Q237.4531,243.2031 238.6875,243.2031 Q239.4219,243.2031 240.0703,243.3672 Q240.7188,243.5313 241.2656,243.8906 Z " fill="#000000"/><text fill="#000000" font-family="sans-serif" font-size="14" lengthAdjust="spacing" textLength="87" x="255.5" y="251.5488">Administrador</text><rect fill="#FFFFFF" filter="url(#f1ucsrbxazijpt)" height="113.4063" style="stroke:#A80036;stroke-width:1.0;" width="10" x="37.5" y="99.6094"/><rect fill="#FFFFFF" filter="url(#f1ucsrbxazijpt)" height="113.4063" style="stroke:#A80036;stroke-width:1.0;" width="10" x="158.5" y="99.6094"/><rect fill="#FFFFFF" filter="url(#f1ucsrbxazijpt)" height="113.4063" style="stroke:#A80036;stroke-width:1.0;" width="10" x="282" y="99.6094"/><polygon fill="#0000FF" points="146.5,117.9609,156.5,121.9609,146.5,125.9609,150.5,121.9609" style="stroke:#0000FF;stroke-width:1.0;"/><line style="stroke:#0000FF;stroke-width:1.0;" x1="47.5" x2="152.5" y1="121.9609" y2="121.9609"/><text fill="#000000" font-family="sans-serif" font-size="13" lengthAdjust="spacing" textLength="84" x="54.5" y="117.1045">removerMidia()</text><polygon fill="#0000FF" points="270,148.3125,280,152.3125,270,156.3125,274,152.3125" style="stroke:#0000FF;stroke-width:1.0;"/><line style="stroke:#0000FF;stroke-width:1.0;" x1="168.5" x2="276" y1="152.3125" y2="152.3125"/><text fill="#000000" font-family="sans-serif" font-size="13" lengthAdjust="spacing" textLength="88" x="175.5" y="147.4561">verificarSenha()</text><polygon fill="#008000" points="179.5,178.6641,169.5,182.6641,179.5,186.6641,175.5,182.6641" style="stroke:#008000;stroke-width:1.0;"/><line style="stroke:#008000;stroke-width:1.0;stroke-dasharray:2.0,2.0;" x1="173.5" x2="281" y1="182.6641" y2="182.6641"/><text fill="#000000" font-family="sans-serif" font-size="13" lengthAdjust="spacing" textLength="49" x="185.5" y="177.8076">sucesso</text><polygon fill="#008000" points="53.5,209.0156,43.5,213.0156,53.5,217.0156,49.5,213.0156" style="stroke:#008000;stroke-width:1.0;"/><line style="stroke:#008000;stroke-width:1.0;stroke-dasharray:2.0,2.0;" x1="47.5" x2="162.5" y1="213.0156" y2="213.0156"/><text fill="#000000" font-family="sans-serif" font-size="13" lengthAdjust="spacing" textLength="87" x="59.5" y="208.1592">midiaRemovida</text><!--MD5=[e813dcbd178c4eb0c47b8b87f6abc61f]
@startuml remover-midia
actor Academico

participant Usuario << (C,#ADD1B2) >>
participant Administrador << (C,#ADD1B2) >>

activate Academico
activate Usuario
activate Administrador

Academico -[#blue]> Usuario: removerMidia()

Usuario -[#blue]> Administrador: verificarSenha()
Administrador -[#green]-> Usuario: sucesso

Usuario -[#green]-> Academico: midiaRemovida

deactivate Administrador
deactivate Usuario
deactivate Academico
@enduml

PlantUML version 1.2021.00(Sun Jan 10 07:25:05 BRT 2021)
(GPL source distribution)
Java Runtime: Java(TM) SE Runtime Environment
JVM: Java HotSpot(TM) 64-Bit Server VM
Default Encoding: Cp1252
Language: pt
Country: BR
--></g></svg>