<?xml version="1.0" encoding="UTF-8" standalone="no"?><svg xmlns="http://www.w3.org/2000/svg" xmlns:xlink="http://www.w3.org/1999/xlink" contentScriptType="application/ecmascript" contentStyleType="text/css" height="571px" preserveAspectRatio="none" style="width:496px;height:571px;" version="1.1" viewBox="0 0 496 571" width="496px" zoomAndPan="magnify"><defs><filter height="300%" id="fb8o2gezdp9yi" width="300%" x="-1" y="-1"><feGaussianBlur result="blurOut" stdDeviation="2.0"/><feColorMatrix in="blurOut" result="blurOut2" type="matrix" values="0 0 0 0 0 0 0 0 0 0 0 0 0 0 0 0 0 0 .4 0"/><feOffset dx="4.0" dy="4.0" in="blurOut2" result="blurOut3"/><feBlend in="SourceGraphic" in2="blurOut3" mode="normal"/></filter></defs><g><rect fill="#FFFFFF" filter="url(#fb8o2gezdp9yi)" height="367.8672" style="stroke:#A80036;stroke-width:1.0;" width="10" x="37.5" y="99.6094"/><rect fill="#FFFFFF" filter="url(#fb8o2gezdp9yi)" height="367.8672" style="stroke:#A80036;stroke-width:1.0;" width="10" x="188.5" y="99.6094"/><rect fill="#FFFFFF" filter="url(#fb8o2gezdp9yi)" height="254.4609" style="stroke:#A80036;stroke-width:1.0;" width="10" x="312.5" y="213.0156"/><rect fill="#FFFFFF" filter="url(#fb8o2gezdp9yi)" height="44.3516" style="stroke:#A80036;stroke-width:1.0;" width="10" x="421.5" y="423.125"/><line style="stroke:#A80036;stroke-width:1.0;stroke-dasharray:5.0,5.0;" x1="42" x2="42" y1="89.6094" y2="485.4766"/><line style="stroke:#A80036;stroke-width:1.0;stroke-dasharray:5.0,5.0;" x1="193.5" x2="193.5" y1="89.6094" y2="485.4766"/><line style="stroke:#A80036;stroke-width:1.0;stroke-dasharray:5.0,5.0;" x1="317" x2="317" y1="89.6094" y2="485.4766"/><line style="stroke:#A80036;stroke-width:1.0;stroke-dasharray:5.0,5.0;" x1="426" x2="426" y1="89.6094" y2="485.4766"/><text fill="#000000" font-family="sans-serif" font-size="14" lengthAdjust="spacing" textLength="69" x="5" y="86.5332">Academico</text><ellipse cx="42.5" cy="15" fill="#FEFECE" filter="url(#fb8o2gezdp9yi)" rx="8" ry="8" style="stroke:#A80036;stroke-width:2.0;"/><path d="M42.5,23 L42.5,50 M29.5,31 L55.5,31 M42.5,50 L29.5,65 M42.5,50 L55.5,65 " fill="none" filter="url(#fb8o2gezdp9yi)" style="stroke:#A80036;stroke-width:2.0;"/><text fill="#000000" font-family="sans-serif" font-size="14" lengthAdjust="spacing" textLength="69" x="5" y="499.0098">Academico</text><ellipse cx="42.5" cy="512.0859" fill="#FEFECE" filter="url(#fb8o2gezdp9yi)" rx="8" ry="8" style="stroke:#A80036;stroke-width:2.0;"/><path d="M42.5,520.0859 L42.5,547.0859 M29.5,528.0859 L55.5,528.0859 M42.5,547.0859 L29.5,562.0859 M42.5,547.0859 L55.5,562.0859 " fill="none" filter="url(#fb8o2gezdp9yi)" style="stroke:#A80036;stroke-width:2.0;"/><rect fill="#FEFECE" filter="url(#fb8o2gezdp9yi)" height="36" style="stroke:#A80036;stroke-width:1.5;" width="90" x="146.5" y="48.6094"/><ellipse cx="164.5" cy="66.6094" fill="#ADD1B2" rx="11" ry="11" style="stroke:#A80036;stroke-width:1.0;"/><path d="M167.2656,62.4844 Q167.4219,62.2656 167.6094,62.1563 Q167.7969,62.0469 168.0156,62.0469 Q168.3906,62.0469 168.625,62.3047 Q168.8594,62.5625 168.8594,63.1719 L168.8594,64.625 Q168.8594,65.2344 168.625,65.5 Q168.3906,65.7656 168.0156,65.7656 Q167.6719,65.7656 167.4688,65.5625 Q167.2656,65.375 167.1563,64.8594 Q167.1094,64.5 166.9219,64.3125 Q166.5938,63.9375 165.9844,63.7188 Q165.375,63.5 164.75,63.5 Q163.9844,63.5 163.3516,63.8281 Q162.7188,64.1563 162.2266,64.9063 Q161.7344,65.6563 161.7344,66.6875 L161.7344,67.7813 Q161.7344,69.0156 162.625,69.8359 Q163.5156,70.6563 165.1094,70.6563 Q166.0469,70.6563 166.7031,70.4063 Q167.0938,70.25 167.5156,69.8125 Q167.7813,69.5469 167.9297,69.4688 Q168.0781,69.3906 168.2813,69.3906 Q168.6094,69.3906 168.8672,69.6484 Q169.125,69.9063 169.125,70.25 Q169.125,70.5938 168.7813,71 Q168.2813,71.5781 167.4844,71.9063 Q166.4063,72.3594 165.1094,72.3594 Q163.5938,72.3594 162.3906,71.7344 Q161.4063,71.2344 160.7188,70.1641 Q160.0313,69.0938 160.0313,67.8125 L160.0313,66.6563 Q160.0313,65.3281 160.6484,64.1797 Q161.2656,63.0313 162.3594,62.4141 Q163.4531,61.7969 164.6875,61.7969 Q165.4219,61.7969 166.0703,61.9609 Q166.7188,62.125 167.2656,62.4844 Z " fill="#000000"/><text fill="#000000" font-family="sans-serif" font-size="14" lengthAdjust="spacing" textLength="48" x="181.5" y="70.1426">Usuario</text><rect fill="#FEFECE" filter="url(#fb8o2gezdp9yi)" height="36" style="stroke:#A80036;stroke-width:1.5;" width="90" x="146.5" y="484.4766"/><ellipse cx="164.5" cy="502.4766" fill="#ADD1B2" rx="11" ry="11" style="stroke:#A80036;stroke-width:1.0;"/><path d="M167.2656,498.3516 Q167.4219,498.1328 167.6094,498.0234 Q167.7969,497.9141 168.0156,497.9141 Q168.3906,497.9141 168.625,498.1719 Q168.8594,498.4297 168.8594,499.0391 L168.8594,500.4922 Q168.8594,501.1016 168.625,501.3672 Q168.3906,501.6328 168.0156,501.6328 Q167.6719,501.6328 167.4688,501.4297 Q167.2656,501.2422 167.1563,500.7266 Q167.1094,500.3672 166.9219,500.1797 Q166.5938,499.8047 165.9844,499.5859 Q165.375,499.3672 164.75,499.3672 Q163.9844,499.3672 163.3516,499.6953 Q162.7188,500.0234 162.2266,500.7734 Q161.7344,501.5234 161.7344,502.5547 L161.7344,503.6484 Q161.7344,504.8828 162.625,505.7031 Q163.5156,506.5234 165.1094,506.5234 Q166.0469,506.5234 166.7031,506.2734 Q167.0938,506.1172 167.5156,505.6797 Q167.7813,505.4141 167.9297,505.3359 Q168.0781,505.2578 168.2813,505.2578 Q168.6094,505.2578 168.8672,505.5156 Q169.125,505.7734 169.125,506.1172 Q169.125,506.4609 168.7813,506.8672 Q168.2813,507.4453 167.4844,507.7734 Q166.4063,508.2266 165.1094,508.2266 Q163.5938,508.2266 162.3906,507.6016 Q161.4063,507.1016 160.7188,506.0313 Q160.0313,504.9609 160.0313,503.6797 L160.0313,502.5234 Q160.0313,501.1953 160.6484,500.0469 Q161.2656,498.8984 162.3594,498.2813 Q163.4531,497.6641 164.6875,497.6641 Q165.4219,497.6641 166.0703,497.8281 Q166.7188,497.9922 167.2656,498.3516 Z " fill="#000000"/><text fill="#000000" font-family="sans-serif" font-size="14" lengthAdjust="spacing" textLength="48" x="181.5" y="506.0098">Usuario</text><rect fill="#FEFECE" filter="url(#fb8o2gezdp9yi)" height="36" style="stroke:#A80036;stroke-width:1.5;" width="75" x="278" y="48.6094"/><ellipse cx="296" cy="66.6094" fill="#ADD1B2" rx="11" ry="11" style="stroke:#A80036;stroke-width:1.0;"/><path d="M298.7656,62.4844 Q298.9219,62.2656 299.1094,62.1563 Q299.2969,62.0469 299.5156,62.0469 Q299.8906,62.0469 300.125,62.3047 Q300.3594,62.5625 300.3594,63.1719 L300.3594,64.625 Q300.3594,65.2344 300.125,65.5 Q299.8906,65.7656 299.5156,65.7656 Q299.1719,65.7656 298.9688,65.5625 Q298.7656,65.375 298.6563,64.8594 Q298.6094,64.5 298.4219,64.3125 Q298.0938,63.9375 297.4844,63.7188 Q296.875,63.5 296.25,63.5 Q295.4844,63.5 294.8516,63.8281 Q294.2188,64.1563 293.7266,64.9063 Q293.2344,65.6563 293.2344,66.6875 L293.2344,67.7813 Q293.2344,69.0156 294.125,69.8359 Q295.0156,70.6563 296.6094,70.6563 Q297.5469,70.6563 298.2031,70.4063 Q298.5938,70.25 299.0156,69.8125 Q299.2813,69.5469 299.4297,69.4688 Q299.5781,69.3906 299.7813,69.3906 Q300.1094,69.3906 300.3672,69.6484 Q300.625,69.9063 300.625,70.25 Q300.625,70.5938 300.2813,71 Q299.7813,71.5781 298.9844,71.9063 Q297.9063,72.3594 296.6094,72.3594 Q295.0938,72.3594 293.8906,71.7344 Q292.9063,71.2344 292.2188,70.1641 Q291.5313,69.0938 291.5313,67.8125 L291.5313,66.6563 Q291.5313,65.3281 292.1484,64.1797 Q292.7656,63.0313 293.8594,62.4141 Q294.9531,61.7969 296.1875,61.7969 Q296.9219,61.7969 297.5703,61.9609 Q298.2188,62.125 298.7656,62.4844 Z " fill="#000000"/><text fill="#000000" font-family="sans-serif" font-size="14" lengthAdjust="spacing" textLength="33" x="313" y="70.1426">Midia</text><rect fill="#FEFECE" filter="url(#fb8o2gezdp9yi)" height="36" style="stroke:#A80036;stroke-width:1.5;" width="75" x="278" y="484.4766"/><ellipse cx="296" cy="502.4766" fill="#ADD1B2" rx="11" ry="11" style="stroke:#A80036;stroke-width:1.0;"/><path d="M298.7656,498.3516 Q298.9219,498.1328 299.1094,498.0234 Q299.2969,497.9141 299.5156,497.9141 Q299.8906,497.9141 300.125,498.1719 Q300.3594,498.4297 300.3594,499.0391 L300.3594,500.4922 Q300.3594,501.1016 300.125,501.3672 Q299.8906,501.6328 299.5156,501.6328 Q299.1719,501.6328 298.9688,501.4297 Q298.7656,501.2422 298.6563,500.7266 Q298.6094,500.3672 298.4219,500.1797 Q298.0938,499.8047 297.4844,499.5859 Q296.875,499.3672 296.25,499.3672 Q295.4844,499.3672 294.8516,499.6953 Q294.2188,500.0234 293.7266,500.7734 Q293.2344,501.5234 293.2344,502.5547 L293.2344,503.6484 Q293.2344,504.8828 294.125,505.7031 Q295.0156,506.5234 296.6094,506.5234 Q297.5469,506.5234 298.2031,506.2734 Q298.5938,506.1172 299.0156,505.6797 Q299.2813,505.4141 299.4297,505.3359 Q299.5781,505.2578 299.7813,505.2578 Q300.1094,505.2578 300.3672,505.5156 Q300.625,505.7734 300.625,506.1172 Q300.625,506.4609 300.2813,506.8672 Q299.7813,507.4453 298.9844,507.7734 Q297.9063,508.2266 296.6094,508.2266 Q295.0938,508.2266 293.8906,507.6016 Q292.9063,507.1016 292.2188,506.0313 Q291.5313,504.9609 291.5313,503.6797 L291.5313,502.5234 Q291.5313,501.1953 292.1484,500.0469 Q292.7656,498.8984 293.8594,498.2813 Q294.9531,497.6641 296.1875,497.6641 Q296.9219,497.6641 297.5703,497.8281 Q298.2188,497.9922 298.7656,498.3516 Z " fill="#000000"/><text fill="#000000" font-family="sans-serif" font-size="14" lengthAdjust="spacing" textLength="33" x="313" y="506.0098">Midia</text><rect fill="#FEFECE" filter="url(#fb8o2gezdp9yi)" height="36" style="stroke:#A80036;stroke-width:1.5;" width="115" x="367" y="48.6094"/><ellipse cx="385" cy="66.6094" fill="#ADD1B2" rx="11" ry="11" style="stroke:#A80036;stroke-width:1.0;"/><path d="M387.7656,62.4844 Q387.9219,62.2656 388.1094,62.1563 Q388.2969,62.0469 388.5156,62.0469 Q388.8906,62.0469 389.125,62.3047 Q389.3594,62.5625 389.3594,63.1719 L389.3594,64.625 Q389.3594,65.2344 389.125,65.5 Q388.8906,65.7656 388.5156,65.7656 Q388.1719,65.7656 387.9688,65.5625 Q387.7656,65.375 387.6563,64.8594 Q387.6094,64.5 387.4219,64.3125 Q387.0938,63.9375 386.4844,63.7188 Q385.875,63.5 385.25,63.5 Q384.4844,63.5 383.8516,63.8281 Q383.2188,64.1563 382.7266,64.9063 Q382.2344,65.6563 382.2344,66.6875 L382.2344,67.7813 Q382.2344,69.0156 383.125,69.8359 Q384.0156,70.6563 385.6094,70.6563 Q386.5469,70.6563 387.2031,70.4063 Q387.5938,70.25 388.0156,69.8125 Q388.2813,69.5469 388.4297,69.4688 Q388.5781,69.3906 388.7813,69.3906 Q389.1094,69.3906 389.3672,69.6484 Q389.625,69.9063 389.625,70.25 Q389.625,70.5938 389.2813,71 Q388.7813,71.5781 387.9844,71.9063 Q386.9063,72.3594 385.6094,72.3594 Q384.0938,72.3594 382.8906,71.7344 Q381.9063,71.2344 381.2188,70.1641 Q380.5313,69.0938 380.5313,67.8125 L380.5313,66.6563 Q380.5313,65.3281 381.1484,64.1797 Q381.7656,63.0313 382.8594,62.4141 Q383.9531,61.7969 385.1875,61.7969 Q385.9219,61.7969 386.5703,61.9609 Q387.2188,62.125 387.7656,62.4844 Z " fill="#000000"/><text fill="#000000" font-family="sans-serif" font-size="14" lengthAdjust="spacing" textLength="73" x="402" y="70.1426">MidiaPlayer</text><rect fill="#FEFECE" filter="url(#fb8o2gezdp9yi)" height="36" style="stroke:#A80036;stroke-width:1.5;" width="115" x="367" y="484.4766"/><ellipse cx="385" cy="502.4766" fill="#ADD1B2" rx="11" ry="11" style="stroke:#A80036;stroke-width:1.0;"/><path d="M387.7656,498.3516 Q387.9219,498.1328 388.1094,498.0234 Q388.2969,497.9141 388.5156,497.9141 Q388.8906,497.9141 389.125,498.1719 Q389.3594,498.4297 389.3594,499.0391 L389.3594,500.4922 Q389.3594,501.1016 389.125,501.3672 Q388.8906,501.6328 388.5156,501.6328 Q388.1719,501.6328 387.9688,501.4297 Q387.7656,501.2422 387.6563,500.7266 Q387.6094,500.3672 387.4219,500.1797 Q387.0938,499.8047 386.4844,499.5859 Q385.875,499.3672 385.25,499.3672 Q384.4844,499.3672 383.8516,499.6953 Q383.2188,500.0234 382.7266,500.7734 Q382.2344,501.5234 382.2344,502.5547 L382.2344,503.6484 Q382.2344,504.8828 383.125,505.7031 Q384.0156,506.5234 385.6094,506.5234 Q386.5469,506.5234 387.2031,506.2734 Q387.5938,506.1172 388.0156,505.6797 Q388.2813,505.4141 388.4297,505.3359 Q388.5781,505.2578 388.7813,505.2578 Q389.1094,505.2578 389.3672,505.5156 Q389.625,505.7734 389.625,506.1172 Q389.625,506.4609 389.2813,506.8672 Q388.7813,507.4453 387.9844,507.7734 Q386.9063,508.2266 385.6094,508.2266 Q384.0938,508.2266 382.8906,507.6016 Q381.9063,507.1016 381.2188,506.0313 Q380.5313,504.9609 380.5313,503.6797 L380.5313,502.5234 Q380.5313,501.1953 381.1484,500.0469 Q381.7656,498.8984 382.8594,498.2813 Q383.9531,497.6641 385.1875,497.6641 Q385.9219,497.6641 386.5703,497.8281 Q387.2188,497.9922 387.7656,498.3516 Z " fill="#000000"/><text fill="#000000" font-family="sans-serif" font-size="14" lengthAdjust="spacing" textLength="73" x="402" y="506.0098">MidiaPlayer</text><rect fill="#FFFFFF" filter="url(#fb8o2gezdp9yi)" height="367.8672" style="stroke:#A80036;stroke-width:1.0;" width="10" x="37.5" y="99.6094"/><rect fill="#FFFFFF" filter="url(#fb8o2gezdp9yi)" height="367.8672" style="stroke:#A80036;stroke-width:1.0;" width="10" x="188.5" y="99.6094"/><rect fill="#FFFFFF" filter="url(#fb8o2gezdp9yi)" height="254.4609" style="stroke:#A80036;stroke-width:1.0;" width="10" x="312.5" y="213.0156"/><rect fill="#FFFFFF" filter="url(#fb8o2gezdp9yi)" height="44.3516" style="stroke:#A80036;stroke-width:1.0;" width="10" x="421.5" y="423.125"/><polygon fill="#0000FF" points="176.5,117.9609,186.5,121.9609,176.5,125.9609,180.5,121.9609" style="stroke:#0000FF;stroke-width:1.0;"/><line style="stroke:#0000FF;stroke-width:1.0;" x1="47.5" x2="182.5" y1="121.9609" y2="121.9609"/><text fill="#000000" font-family="sans-serif" font-size="13" lengthAdjust="spacing" textLength="61" x="54.5" y="117.1045">autentica()</text><polygon fill="#008000" points="58.5,148.3125,48.5,152.3125,58.5,156.3125,54.5,152.3125" style="stroke:#008000;stroke-width:1.0;"/><line style="stroke:#008000;stroke-width:1.0;stroke-dasharray:2.0,2.0;" x1="52.5" x2="187.5" y1="152.3125" y2="152.3125"/><text fill="#000000" font-family="sans-serif" font-size="13" lengthAdjust="spacing" textLength="49" x="64.5" y="147.4561">sucesso</text><polygon fill="#0000FF" points="176.5,178.6641,186.5,182.6641,176.5,186.6641,180.5,182.6641" style="stroke:#0000FF;stroke-width:1.0;"/><line style="stroke:#0000FF;stroke-width:1.0;" x1="47.5" x2="182.5" y1="182.6641" y2="182.6641"/><text fill="#000000" font-family="sans-serif" font-size="13" lengthAdjust="spacing" textLength="104" x="54.5" y="177.8076">adicionaCreditos()</text><polygon fill="#008000" points="58.5,209.0156,48.5,213.0156,58.5,217.0156,54.5,213.0156" style="stroke:#008000;stroke-width:1.0;"/><line style="stroke:#008000;stroke-width:1.0;stroke-dasharray:2.0,2.0;" x1="52.5" x2="187.5" y1="213.0156" y2="213.0156"/><text fill="#000000" font-family="sans-serif" font-size="13" lengthAdjust="spacing" textLength="117" x="64.5" y="208.1592">creditosAdicionados</text><polygon fill="#0000FF" points="300.5,239.3672,310.5,243.3672,300.5,247.3672,304.5,243.3672" style="stroke:#0000FF;stroke-width:1.0;"/><line style="stroke:#0000FF;stroke-width:1.0;" x1="198.5" x2="306.5" y1="243.3672" y2="243.3672"/><text fill="#000000" font-family="sans-serif" font-size="13" lengthAdjust="spacing" textLength="61" x="205.5" y="238.5107">visualizar()</text><polygon fill="#008000" points="209.5,253.3672,199.5,257.3672,209.5,261.3672,205.5,257.3672" style="stroke:#008000;stroke-width:1.0;"/><line style="stroke:#008000;stroke-width:1.0;stroke-dasharray:2.0,2.0;" x1="203.5" x2="311.5" y1="257.3672" y2="257.3672"/><polygon fill="#0000FF" points="300.5,283.7188,310.5,287.7188,300.5,291.7188,304.5,287.7188" style="stroke:#0000FF;stroke-width:1.0;"/><line style="stroke:#0000FF;stroke-width:1.0;" x1="198.5" x2="306.5" y1="287.7188" y2="287.7188"/><text fill="#000000" font-family="sans-serif" font-size="13" lengthAdjust="spacing" textLength="55" x="205.5" y="282.8623">comprar()</text><polygon fill="#008000" points="209.5,314.0703,199.5,318.0703,209.5,322.0703,205.5,318.0703" style="stroke:#008000;stroke-width:1.0;"/><line style="stroke:#008000;stroke-width:1.0;stroke-dasharray:2.0,2.0;" x1="203.5" x2="311.5" y1="318.0703" y2="318.0703"/><text fill="#000000" font-family="sans-serif" font-size="13" lengthAdjust="spacing" textLength="90" x="215.5" y="313.2139">midiaComprada</text><polygon fill="#0000FF" points="300.5,344.4219,310.5,348.4219,300.5,352.4219,304.5,348.4219" style="stroke:#0000FF;stroke-width:1.0;"/><line style="stroke:#0000FF;stroke-width:1.0;" x1="198.5" x2="306.5" y1="348.4219" y2="348.4219"/><text fill="#000000" font-family="sans-serif" font-size="13" lengthAdjust="spacing" textLength="45" x="205.5" y="343.5654">vender()</text><polygon fill="#008000" points="209.5,358.4219,199.5,362.4219,209.5,366.4219,205.5,362.4219" style="stroke:#008000;stroke-width:1.0;"/><line style="stroke:#008000;stroke-width:1.0;stroke-dasharray:2.0,2.0;" x1="203.5" x2="311.5" y1="362.4219" y2="362.4219"/><polygon fill="#0000FF" points="300.5,388.7734,310.5,392.7734,300.5,396.7734,304.5,392.7734" style="stroke:#0000FF;stroke-width:1.0;"/><line style="stroke:#0000FF;stroke-width:1.0;" x1="198.5" x2="306.5" y1="392.7734" y2="392.7734"/><text fill="#000000" font-family="sans-serif" font-size="13" lengthAdjust="spacing" textLength="62" x="205.5" y="387.917">download()</text><polygon fill="#008000" points="209.5,419.125,199.5,423.125,209.5,427.125,205.5,423.125" style="stroke:#008000;stroke-width:1.0;"/><line style="stroke:#008000;stroke-width:1.0;stroke-dasharray:2.0,2.0;" x1="203.5" x2="311.5" y1="423.125" y2="423.125"/><text fill="#000000" font-family="sans-serif" font-size="13" lengthAdjust="spacing" textLength="31" x="215.5" y="418.2686">midia</text><polygon fill="#0000FF" points="409.5,449.4766,419.5,453.4766,409.5,457.4766,413.5,453.4766" style="stroke:#0000FF;stroke-width:1.0;"/><line style="stroke:#0000FF;stroke-width:1.0;" x1="322.5" x2="415.5" y1="453.4766" y2="453.4766"/><text fill="#000000" font-family="sans-serif" font-size="13" lengthAdjust="spacing" textLength="58" x="329.5" y="448.6201">executar()</text><polygon fill="#008000" points="328.5,463.4766,318.5,467.4766,328.5,471.4766,324.5,467.4766" style="stroke:#008000;stroke-width:1.0;"/><line style="stroke:#008000;stroke-width:1.0;stroke-dasharray:2.0,2.0;" x1="322.5" x2="425.5" y1="467.4766" y2="467.4766"/><!--MD5=[8ef74c7d6d020a877d3052e36434f604]
@startuml sequence-diagram
actor Academico

participant Usuario << (C,#ADD1B2) >>
participant Midia << (C,#ADD1B2) >>
participant MidiaPlayer << (C,#ADD1B2) >>

activate Academico
activate Usuario

Academico -[#blue]> Usuario: autentica()
Usuario -[#green]-> Academico: sucesso

Academico -[#blue]> Usuario: adicionaCreditos()
Usuario -[#green]-> Academico: creditosAdicionados

activate Midia

Usuario -[#blue]> Midia: visualizar()
Midia -[#green]-> Usuario:
Usuario -[#blue]> Midia: comprar()
Midia -[#green]-> Usuario: midiaComprada
Usuario -[#blue]> Midia: vender()
Midia -[#green]-> Usuario:
Usuario -[#blue]> Midia: download()
Midia -[#green]-> Usuario: midia

activate MidiaPlayer

Midia -[#blue]> MidiaPlayer: executar()
MidiaPlayer-[#green]-> Midia:

deactivate MidiaPlayer
deactivate Midia
deactivate Usuario
deactivate Academico
@enduml

PlantUML version 1.2021.00(Sun Jan 10 07:25:05 BRT 2021)
(GPL source distribution)
Java Runtime: Java(TM) SE Runtime Environment
JVM: Java HotSpot(TM) 64-Bit Server VM
Default Encoding: Cp1252
Language: pt
Country: BR
--></g></svg>